%TF.GenerationSoftware,KiCad,Pcbnew,8.0.5*%
%TF.CreationDate,2025-07-29T10:24:36+02:00*%
%TF.ProjectId,LED_FADER,4c45445f-4641-4444-9552-2e6b69636164,rev?*%
%TF.SameCoordinates,Original*%
%TF.FileFunction,Drillmap*%
%TF.FilePolarity,Positive*%
%FSLAX45Y45*%
G04 Gerber Fmt 4.5, Leading zero omitted, Abs format (unit mm)*
G04 Created by KiCad (PCBNEW 8.0.5) date 2025-07-29 10:24:36*
%MOMM*%
%LPD*%
G01*
G04 APERTURE LIST*
%ADD10C,0.200000*%
%ADD11C,0.300000*%
G04 APERTURE END LIST*
D10*
X12238000Y-7796000D02*
G75*
G02*
X12438000Y-7596000I200000J0D01*
G01*
X12438000Y-7596000D02*
X15038000Y-7596000D01*
X12238000Y-9796000D02*
X12238000Y-7796000D01*
X15038000Y-9996000D02*
X12438000Y-9996000D01*
X15238000Y-9796000D02*
G75*
G02*
X15038000Y-9996000I-200000J0D01*
G01*
X15038000Y-7596000D02*
G75*
G02*
X15238000Y-7796000I0J-200000D01*
G01*
X12438000Y-9996000D02*
G75*
G02*
X12238000Y-9796000I0J200000D01*
G01*
X15238000Y-7796000D02*
X15238000Y-9796000D01*
D11*
X12305000Y-8426000D02*
X12605000Y-8726000D01*
X12605000Y-8426000D02*
X12305000Y-8726000D01*
X14869000Y-9188000D02*
X15169000Y-9488000D01*
X15169000Y-9188000D02*
X14869000Y-9488000D01*
D10*
X12488777Y-10317484D02*
X12488777Y-10117484D01*
X12488777Y-10117484D02*
X12536396Y-10117484D01*
X12536396Y-10117484D02*
X12564967Y-10127008D01*
X12564967Y-10127008D02*
X12584015Y-10146055D01*
X12584015Y-10146055D02*
X12593539Y-10165103D01*
X12593539Y-10165103D02*
X12603062Y-10203198D01*
X12603062Y-10203198D02*
X12603062Y-10231770D01*
X12603062Y-10231770D02*
X12593539Y-10269865D01*
X12593539Y-10269865D02*
X12584015Y-10288912D01*
X12584015Y-10288912D02*
X12564967Y-10307960D01*
X12564967Y-10307960D02*
X12536396Y-10317484D01*
X12536396Y-10317484D02*
X12488777Y-10317484D01*
X12688777Y-10317484D02*
X12688777Y-10184150D01*
X12688777Y-10222246D02*
X12698301Y-10203198D01*
X12698301Y-10203198D02*
X12707824Y-10193674D01*
X12707824Y-10193674D02*
X12726872Y-10184150D01*
X12726872Y-10184150D02*
X12745920Y-10184150D01*
X12812586Y-10317484D02*
X12812586Y-10184150D01*
X12812586Y-10117484D02*
X12803062Y-10127008D01*
X12803062Y-10127008D02*
X12812586Y-10136531D01*
X12812586Y-10136531D02*
X12822110Y-10127008D01*
X12822110Y-10127008D02*
X12812586Y-10117484D01*
X12812586Y-10117484D02*
X12812586Y-10136531D01*
X12936396Y-10317484D02*
X12917348Y-10307960D01*
X12917348Y-10307960D02*
X12907824Y-10288912D01*
X12907824Y-10288912D02*
X12907824Y-10117484D01*
X13041158Y-10317484D02*
X13022110Y-10307960D01*
X13022110Y-10307960D02*
X13012586Y-10288912D01*
X13012586Y-10288912D02*
X13012586Y-10117484D01*
X13269729Y-10317484D02*
X13269729Y-10117484D01*
X13269729Y-10117484D02*
X13336396Y-10260341D01*
X13336396Y-10260341D02*
X13403062Y-10117484D01*
X13403062Y-10117484D02*
X13403062Y-10317484D01*
X13584015Y-10317484D02*
X13584015Y-10212722D01*
X13584015Y-10212722D02*
X13574491Y-10193674D01*
X13574491Y-10193674D02*
X13555443Y-10184150D01*
X13555443Y-10184150D02*
X13517348Y-10184150D01*
X13517348Y-10184150D02*
X13498301Y-10193674D01*
X13584015Y-10307960D02*
X13564967Y-10317484D01*
X13564967Y-10317484D02*
X13517348Y-10317484D01*
X13517348Y-10317484D02*
X13498301Y-10307960D01*
X13498301Y-10307960D02*
X13488777Y-10288912D01*
X13488777Y-10288912D02*
X13488777Y-10269865D01*
X13488777Y-10269865D02*
X13498301Y-10250817D01*
X13498301Y-10250817D02*
X13517348Y-10241293D01*
X13517348Y-10241293D02*
X13564967Y-10241293D01*
X13564967Y-10241293D02*
X13584015Y-10231770D01*
X13679253Y-10184150D02*
X13679253Y-10384150D01*
X13679253Y-10193674D02*
X13698301Y-10184150D01*
X13698301Y-10184150D02*
X13736396Y-10184150D01*
X13736396Y-10184150D02*
X13755443Y-10193674D01*
X13755443Y-10193674D02*
X13764967Y-10203198D01*
X13764967Y-10203198D02*
X13774491Y-10222246D01*
X13774491Y-10222246D02*
X13774491Y-10279389D01*
X13774491Y-10279389D02*
X13764967Y-10298436D01*
X13764967Y-10298436D02*
X13755443Y-10307960D01*
X13755443Y-10307960D02*
X13736396Y-10317484D01*
X13736396Y-10317484D02*
X13698301Y-10317484D01*
X13698301Y-10317484D02*
X13679253Y-10307960D01*
X13860205Y-10298436D02*
X13869729Y-10307960D01*
X13869729Y-10307960D02*
X13860205Y-10317484D01*
X13860205Y-10317484D02*
X13850682Y-10307960D01*
X13850682Y-10307960D02*
X13860205Y-10298436D01*
X13860205Y-10298436D02*
X13860205Y-10317484D01*
X13860205Y-10193674D02*
X13869729Y-10203198D01*
X13869729Y-10203198D02*
X13860205Y-10212722D01*
X13860205Y-10212722D02*
X13850682Y-10203198D01*
X13850682Y-10203198D02*
X13860205Y-10193674D01*
X13860205Y-10193674D02*
X13860205Y-10212722D01*
X12028000Y-10546000D02*
X12228000Y-10746000D01*
X12228000Y-10546000D02*
X12028000Y-10746000D01*
X12469729Y-10537484D02*
X12593539Y-10537484D01*
X12593539Y-10537484D02*
X12526872Y-10613674D01*
X12526872Y-10613674D02*
X12555443Y-10613674D01*
X12555443Y-10613674D02*
X12574491Y-10623198D01*
X12574491Y-10623198D02*
X12584015Y-10632722D01*
X12584015Y-10632722D02*
X12593539Y-10651770D01*
X12593539Y-10651770D02*
X12593539Y-10699389D01*
X12593539Y-10699389D02*
X12584015Y-10718436D01*
X12584015Y-10718436D02*
X12574491Y-10727960D01*
X12574491Y-10727960D02*
X12555443Y-10737484D01*
X12555443Y-10737484D02*
X12498301Y-10737484D01*
X12498301Y-10737484D02*
X12479253Y-10727960D01*
X12479253Y-10727960D02*
X12469729Y-10718436D01*
X12679253Y-10718436D02*
X12688777Y-10727960D01*
X12688777Y-10727960D02*
X12679253Y-10737484D01*
X12679253Y-10737484D02*
X12669729Y-10727960D01*
X12669729Y-10727960D02*
X12679253Y-10718436D01*
X12679253Y-10718436D02*
X12679253Y-10737484D01*
X12812586Y-10537484D02*
X12831634Y-10537484D01*
X12831634Y-10537484D02*
X12850682Y-10547008D01*
X12850682Y-10547008D02*
X12860205Y-10556531D01*
X12860205Y-10556531D02*
X12869729Y-10575579D01*
X12869729Y-10575579D02*
X12879253Y-10613674D01*
X12879253Y-10613674D02*
X12879253Y-10661293D01*
X12879253Y-10661293D02*
X12869729Y-10699389D01*
X12869729Y-10699389D02*
X12860205Y-10718436D01*
X12860205Y-10718436D02*
X12850682Y-10727960D01*
X12850682Y-10727960D02*
X12831634Y-10737484D01*
X12831634Y-10737484D02*
X12812586Y-10737484D01*
X12812586Y-10737484D02*
X12793539Y-10727960D01*
X12793539Y-10727960D02*
X12784015Y-10718436D01*
X12784015Y-10718436D02*
X12774491Y-10699389D01*
X12774491Y-10699389D02*
X12764967Y-10661293D01*
X12764967Y-10661293D02*
X12764967Y-10613674D01*
X12764967Y-10613674D02*
X12774491Y-10575579D01*
X12774491Y-10575579D02*
X12784015Y-10556531D01*
X12784015Y-10556531D02*
X12793539Y-10547008D01*
X12793539Y-10547008D02*
X12812586Y-10537484D01*
X13003062Y-10537484D02*
X13022110Y-10537484D01*
X13022110Y-10537484D02*
X13041158Y-10547008D01*
X13041158Y-10547008D02*
X13050682Y-10556531D01*
X13050682Y-10556531D02*
X13060205Y-10575579D01*
X13060205Y-10575579D02*
X13069729Y-10613674D01*
X13069729Y-10613674D02*
X13069729Y-10661293D01*
X13069729Y-10661293D02*
X13060205Y-10699389D01*
X13060205Y-10699389D02*
X13050682Y-10718436D01*
X13050682Y-10718436D02*
X13041158Y-10727960D01*
X13041158Y-10727960D02*
X13022110Y-10737484D01*
X13022110Y-10737484D02*
X13003062Y-10737484D01*
X13003062Y-10737484D02*
X12984015Y-10727960D01*
X12984015Y-10727960D02*
X12974491Y-10718436D01*
X12974491Y-10718436D02*
X12964967Y-10699389D01*
X12964967Y-10699389D02*
X12955443Y-10661293D01*
X12955443Y-10661293D02*
X12955443Y-10613674D01*
X12955443Y-10613674D02*
X12964967Y-10575579D01*
X12964967Y-10575579D02*
X12974491Y-10556531D01*
X12974491Y-10556531D02*
X12984015Y-10547008D01*
X12984015Y-10547008D02*
X13003062Y-10537484D01*
X13193539Y-10537484D02*
X13212586Y-10537484D01*
X13212586Y-10537484D02*
X13231634Y-10547008D01*
X13231634Y-10547008D02*
X13241158Y-10556531D01*
X13241158Y-10556531D02*
X13250682Y-10575579D01*
X13250682Y-10575579D02*
X13260205Y-10613674D01*
X13260205Y-10613674D02*
X13260205Y-10661293D01*
X13260205Y-10661293D02*
X13250682Y-10699389D01*
X13250682Y-10699389D02*
X13241158Y-10718436D01*
X13241158Y-10718436D02*
X13231634Y-10727960D01*
X13231634Y-10727960D02*
X13212586Y-10737484D01*
X13212586Y-10737484D02*
X13193539Y-10737484D01*
X13193539Y-10737484D02*
X13174491Y-10727960D01*
X13174491Y-10727960D02*
X13164967Y-10718436D01*
X13164967Y-10718436D02*
X13155443Y-10699389D01*
X13155443Y-10699389D02*
X13145920Y-10661293D01*
X13145920Y-10661293D02*
X13145920Y-10613674D01*
X13145920Y-10613674D02*
X13155443Y-10575579D01*
X13155443Y-10575579D02*
X13164967Y-10556531D01*
X13164967Y-10556531D02*
X13174491Y-10547008D01*
X13174491Y-10547008D02*
X13193539Y-10537484D01*
X13345920Y-10737484D02*
X13345920Y-10604150D01*
X13345920Y-10623198D02*
X13355443Y-10613674D01*
X13355443Y-10613674D02*
X13374491Y-10604150D01*
X13374491Y-10604150D02*
X13403063Y-10604150D01*
X13403063Y-10604150D02*
X13422110Y-10613674D01*
X13422110Y-10613674D02*
X13431634Y-10632722D01*
X13431634Y-10632722D02*
X13431634Y-10737484D01*
X13431634Y-10632722D02*
X13441158Y-10613674D01*
X13441158Y-10613674D02*
X13460205Y-10604150D01*
X13460205Y-10604150D02*
X13488777Y-10604150D01*
X13488777Y-10604150D02*
X13507824Y-10613674D01*
X13507824Y-10613674D02*
X13517348Y-10632722D01*
X13517348Y-10632722D02*
X13517348Y-10737484D01*
X13612586Y-10737484D02*
X13612586Y-10604150D01*
X13612586Y-10623198D02*
X13622110Y-10613674D01*
X13622110Y-10613674D02*
X13641158Y-10604150D01*
X13641158Y-10604150D02*
X13669729Y-10604150D01*
X13669729Y-10604150D02*
X13688777Y-10613674D01*
X13688777Y-10613674D02*
X13698301Y-10632722D01*
X13698301Y-10632722D02*
X13698301Y-10737484D01*
X13698301Y-10632722D02*
X13707824Y-10613674D01*
X13707824Y-10613674D02*
X13726872Y-10604150D01*
X13726872Y-10604150D02*
X13755443Y-10604150D01*
X13755443Y-10604150D02*
X13774491Y-10613674D01*
X13774491Y-10613674D02*
X13784015Y-10632722D01*
X13784015Y-10632722D02*
X13784015Y-10737484D01*
X14174491Y-10527960D02*
X14003063Y-10785103D01*
X14431634Y-10537484D02*
X14450682Y-10537484D01*
X14450682Y-10537484D02*
X14469729Y-10547008D01*
X14469729Y-10547008D02*
X14479253Y-10556531D01*
X14479253Y-10556531D02*
X14488777Y-10575579D01*
X14488777Y-10575579D02*
X14498301Y-10613674D01*
X14498301Y-10613674D02*
X14498301Y-10661293D01*
X14498301Y-10661293D02*
X14488777Y-10699389D01*
X14488777Y-10699389D02*
X14479253Y-10718436D01*
X14479253Y-10718436D02*
X14469729Y-10727960D01*
X14469729Y-10727960D02*
X14450682Y-10737484D01*
X14450682Y-10737484D02*
X14431634Y-10737484D01*
X14431634Y-10737484D02*
X14412586Y-10727960D01*
X14412586Y-10727960D02*
X14403063Y-10718436D01*
X14403063Y-10718436D02*
X14393539Y-10699389D01*
X14393539Y-10699389D02*
X14384015Y-10661293D01*
X14384015Y-10661293D02*
X14384015Y-10613674D01*
X14384015Y-10613674D02*
X14393539Y-10575579D01*
X14393539Y-10575579D02*
X14403063Y-10556531D01*
X14403063Y-10556531D02*
X14412586Y-10547008D01*
X14412586Y-10547008D02*
X14431634Y-10537484D01*
X14584015Y-10718436D02*
X14593539Y-10727960D01*
X14593539Y-10727960D02*
X14584015Y-10737484D01*
X14584015Y-10737484D02*
X14574491Y-10727960D01*
X14574491Y-10727960D02*
X14584015Y-10718436D01*
X14584015Y-10718436D02*
X14584015Y-10737484D01*
X14784015Y-10737484D02*
X14669729Y-10737484D01*
X14726872Y-10737484D02*
X14726872Y-10537484D01*
X14726872Y-10537484D02*
X14707825Y-10566055D01*
X14707825Y-10566055D02*
X14688777Y-10585103D01*
X14688777Y-10585103D02*
X14669729Y-10594627D01*
X14974491Y-10737484D02*
X14860206Y-10737484D01*
X14917348Y-10737484D02*
X14917348Y-10537484D01*
X14917348Y-10537484D02*
X14898301Y-10566055D01*
X14898301Y-10566055D02*
X14879253Y-10585103D01*
X14879253Y-10585103D02*
X14860206Y-10594627D01*
X15088777Y-10623198D02*
X15069729Y-10613674D01*
X15069729Y-10613674D02*
X15060206Y-10604150D01*
X15060206Y-10604150D02*
X15050682Y-10585103D01*
X15050682Y-10585103D02*
X15050682Y-10575579D01*
X15050682Y-10575579D02*
X15060206Y-10556531D01*
X15060206Y-10556531D02*
X15069729Y-10547008D01*
X15069729Y-10547008D02*
X15088777Y-10537484D01*
X15088777Y-10537484D02*
X15126872Y-10537484D01*
X15126872Y-10537484D02*
X15145920Y-10547008D01*
X15145920Y-10547008D02*
X15155444Y-10556531D01*
X15155444Y-10556531D02*
X15164967Y-10575579D01*
X15164967Y-10575579D02*
X15164967Y-10585103D01*
X15164967Y-10585103D02*
X15155444Y-10604150D01*
X15155444Y-10604150D02*
X15145920Y-10613674D01*
X15145920Y-10613674D02*
X15126872Y-10623198D01*
X15126872Y-10623198D02*
X15088777Y-10623198D01*
X15088777Y-10623198D02*
X15069729Y-10632722D01*
X15069729Y-10632722D02*
X15060206Y-10642246D01*
X15060206Y-10642246D02*
X15050682Y-10661293D01*
X15050682Y-10661293D02*
X15050682Y-10699389D01*
X15050682Y-10699389D02*
X15060206Y-10718436D01*
X15060206Y-10718436D02*
X15069729Y-10727960D01*
X15069729Y-10727960D02*
X15088777Y-10737484D01*
X15088777Y-10737484D02*
X15126872Y-10737484D01*
X15126872Y-10737484D02*
X15145920Y-10727960D01*
X15145920Y-10727960D02*
X15155444Y-10718436D01*
X15155444Y-10718436D02*
X15164967Y-10699389D01*
X15164967Y-10699389D02*
X15164967Y-10661293D01*
X15164967Y-10661293D02*
X15155444Y-10642246D01*
X15155444Y-10642246D02*
X15145920Y-10632722D01*
X15145920Y-10632722D02*
X15126872Y-10623198D01*
X15355444Y-10737484D02*
X15241158Y-10737484D01*
X15298301Y-10737484D02*
X15298301Y-10537484D01*
X15298301Y-10537484D02*
X15279253Y-10566055D01*
X15279253Y-10566055D02*
X15260206Y-10585103D01*
X15260206Y-10585103D02*
X15241158Y-10594627D01*
X15431634Y-10537484D02*
X15431634Y-10575579D01*
X15507825Y-10537484D02*
X15507825Y-10575579D01*
X15803063Y-10813674D02*
X15793539Y-10804150D01*
X15793539Y-10804150D02*
X15774491Y-10775579D01*
X15774491Y-10775579D02*
X15764968Y-10756531D01*
X15764968Y-10756531D02*
X15755444Y-10727960D01*
X15755444Y-10727960D02*
X15745920Y-10680341D01*
X15745920Y-10680341D02*
X15745920Y-10642246D01*
X15745920Y-10642246D02*
X15755444Y-10594627D01*
X15755444Y-10594627D02*
X15764968Y-10566055D01*
X15764968Y-10566055D02*
X15774491Y-10547008D01*
X15774491Y-10547008D02*
X15793539Y-10518436D01*
X15793539Y-10518436D02*
X15803063Y-10508912D01*
X15869729Y-10556531D02*
X15879253Y-10547008D01*
X15879253Y-10547008D02*
X15898301Y-10537484D01*
X15898301Y-10537484D02*
X15945920Y-10537484D01*
X15945920Y-10537484D02*
X15964968Y-10547008D01*
X15964968Y-10547008D02*
X15974491Y-10556531D01*
X15974491Y-10556531D02*
X15984015Y-10575579D01*
X15984015Y-10575579D02*
X15984015Y-10594627D01*
X15984015Y-10594627D02*
X15974491Y-10623198D01*
X15974491Y-10623198D02*
X15860206Y-10737484D01*
X15860206Y-10737484D02*
X15984015Y-10737484D01*
X16222110Y-10737484D02*
X16222110Y-10537484D01*
X16307825Y-10737484D02*
X16307825Y-10632722D01*
X16307825Y-10632722D02*
X16298301Y-10613674D01*
X16298301Y-10613674D02*
X16279253Y-10604150D01*
X16279253Y-10604150D02*
X16250682Y-10604150D01*
X16250682Y-10604150D02*
X16231634Y-10613674D01*
X16231634Y-10613674D02*
X16222110Y-10623198D01*
X16431634Y-10737484D02*
X16412587Y-10727960D01*
X16412587Y-10727960D02*
X16403063Y-10718436D01*
X16403063Y-10718436D02*
X16393539Y-10699389D01*
X16393539Y-10699389D02*
X16393539Y-10642246D01*
X16393539Y-10642246D02*
X16403063Y-10623198D01*
X16403063Y-10623198D02*
X16412587Y-10613674D01*
X16412587Y-10613674D02*
X16431634Y-10604150D01*
X16431634Y-10604150D02*
X16460206Y-10604150D01*
X16460206Y-10604150D02*
X16479253Y-10613674D01*
X16479253Y-10613674D02*
X16488777Y-10623198D01*
X16488777Y-10623198D02*
X16498301Y-10642246D01*
X16498301Y-10642246D02*
X16498301Y-10699389D01*
X16498301Y-10699389D02*
X16488777Y-10718436D01*
X16488777Y-10718436D02*
X16479253Y-10727960D01*
X16479253Y-10727960D02*
X16460206Y-10737484D01*
X16460206Y-10737484D02*
X16431634Y-10737484D01*
X16612587Y-10737484D02*
X16593539Y-10727960D01*
X16593539Y-10727960D02*
X16584015Y-10708912D01*
X16584015Y-10708912D02*
X16584015Y-10537484D01*
X16764968Y-10727960D02*
X16745920Y-10737484D01*
X16745920Y-10737484D02*
X16707825Y-10737484D01*
X16707825Y-10737484D02*
X16688777Y-10727960D01*
X16688777Y-10727960D02*
X16679253Y-10708912D01*
X16679253Y-10708912D02*
X16679253Y-10632722D01*
X16679253Y-10632722D02*
X16688777Y-10613674D01*
X16688777Y-10613674D02*
X16707825Y-10604150D01*
X16707825Y-10604150D02*
X16745920Y-10604150D01*
X16745920Y-10604150D02*
X16764968Y-10613674D01*
X16764968Y-10613674D02*
X16774491Y-10632722D01*
X16774491Y-10632722D02*
X16774491Y-10651770D01*
X16774491Y-10651770D02*
X16679253Y-10670817D01*
X16850682Y-10727960D02*
X16869730Y-10737484D01*
X16869730Y-10737484D02*
X16907825Y-10737484D01*
X16907825Y-10737484D02*
X16926873Y-10727960D01*
X16926873Y-10727960D02*
X16936396Y-10708912D01*
X16936396Y-10708912D02*
X16936396Y-10699389D01*
X16936396Y-10699389D02*
X16926873Y-10680341D01*
X16926873Y-10680341D02*
X16907825Y-10670817D01*
X16907825Y-10670817D02*
X16879253Y-10670817D01*
X16879253Y-10670817D02*
X16860206Y-10661293D01*
X16860206Y-10661293D02*
X16850682Y-10642246D01*
X16850682Y-10642246D02*
X16850682Y-10632722D01*
X16850682Y-10632722D02*
X16860206Y-10613674D01*
X16860206Y-10613674D02*
X16879253Y-10604150D01*
X16879253Y-10604150D02*
X16907825Y-10604150D01*
X16907825Y-10604150D02*
X16926873Y-10613674D01*
X17003063Y-10813674D02*
X17012587Y-10804150D01*
X17012587Y-10804150D02*
X17031634Y-10775579D01*
X17031634Y-10775579D02*
X17041158Y-10756531D01*
X17041158Y-10756531D02*
X17050682Y-10727960D01*
X17050682Y-10727960D02*
X17060206Y-10680341D01*
X17060206Y-10680341D02*
X17060206Y-10642246D01*
X17060206Y-10642246D02*
X17050682Y-10594627D01*
X17050682Y-10594627D02*
X17041158Y-10566055D01*
X17041158Y-10566055D02*
X17031634Y-10547008D01*
X17031634Y-10547008D02*
X17012587Y-10518436D01*
X17012587Y-10518436D02*
X17003063Y-10508912D01*
X17364968Y-10813674D02*
X17355444Y-10804150D01*
X17355444Y-10804150D02*
X17336396Y-10775579D01*
X17336396Y-10775579D02*
X17326873Y-10756531D01*
X17326873Y-10756531D02*
X17317349Y-10727960D01*
X17317349Y-10727960D02*
X17307825Y-10680341D01*
X17307825Y-10680341D02*
X17307825Y-10642246D01*
X17307825Y-10642246D02*
X17317349Y-10594627D01*
X17317349Y-10594627D02*
X17326873Y-10566055D01*
X17326873Y-10566055D02*
X17336396Y-10547008D01*
X17336396Y-10547008D02*
X17355444Y-10518436D01*
X17355444Y-10518436D02*
X17364968Y-10508912D01*
X17441158Y-10604150D02*
X17441158Y-10737484D01*
X17441158Y-10623198D02*
X17450682Y-10613674D01*
X17450682Y-10613674D02*
X17469730Y-10604150D01*
X17469730Y-10604150D02*
X17498301Y-10604150D01*
X17498301Y-10604150D02*
X17517349Y-10613674D01*
X17517349Y-10613674D02*
X17526873Y-10632722D01*
X17526873Y-10632722D02*
X17526873Y-10737484D01*
X17650682Y-10737484D02*
X17631634Y-10727960D01*
X17631634Y-10727960D02*
X17622111Y-10718436D01*
X17622111Y-10718436D02*
X17612587Y-10699389D01*
X17612587Y-10699389D02*
X17612587Y-10642246D01*
X17612587Y-10642246D02*
X17622111Y-10623198D01*
X17622111Y-10623198D02*
X17631634Y-10613674D01*
X17631634Y-10613674D02*
X17650682Y-10604150D01*
X17650682Y-10604150D02*
X17679254Y-10604150D01*
X17679254Y-10604150D02*
X17698301Y-10613674D01*
X17698301Y-10613674D02*
X17707825Y-10623198D01*
X17707825Y-10623198D02*
X17717349Y-10642246D01*
X17717349Y-10642246D02*
X17717349Y-10699389D01*
X17717349Y-10699389D02*
X17707825Y-10718436D01*
X17707825Y-10718436D02*
X17698301Y-10727960D01*
X17698301Y-10727960D02*
X17679254Y-10737484D01*
X17679254Y-10737484D02*
X17650682Y-10737484D01*
X17774492Y-10604150D02*
X17850682Y-10604150D01*
X17803063Y-10537484D02*
X17803063Y-10708912D01*
X17803063Y-10708912D02*
X17812587Y-10727960D01*
X17812587Y-10727960D02*
X17831634Y-10737484D01*
X17831634Y-10737484D02*
X17850682Y-10737484D01*
X18069730Y-10604150D02*
X18069730Y-10804150D01*
X18069730Y-10613674D02*
X18088777Y-10604150D01*
X18088777Y-10604150D02*
X18126873Y-10604150D01*
X18126873Y-10604150D02*
X18145920Y-10613674D01*
X18145920Y-10613674D02*
X18155444Y-10623198D01*
X18155444Y-10623198D02*
X18164968Y-10642246D01*
X18164968Y-10642246D02*
X18164968Y-10699389D01*
X18164968Y-10699389D02*
X18155444Y-10718436D01*
X18155444Y-10718436D02*
X18145920Y-10727960D01*
X18145920Y-10727960D02*
X18126873Y-10737484D01*
X18126873Y-10737484D02*
X18088777Y-10737484D01*
X18088777Y-10737484D02*
X18069730Y-10727960D01*
X18279254Y-10737484D02*
X18260206Y-10727960D01*
X18260206Y-10727960D02*
X18250682Y-10708912D01*
X18250682Y-10708912D02*
X18250682Y-10537484D01*
X18441158Y-10737484D02*
X18441158Y-10632722D01*
X18441158Y-10632722D02*
X18431635Y-10613674D01*
X18431635Y-10613674D02*
X18412587Y-10604150D01*
X18412587Y-10604150D02*
X18374492Y-10604150D01*
X18374492Y-10604150D02*
X18355444Y-10613674D01*
X18441158Y-10727960D02*
X18422111Y-10737484D01*
X18422111Y-10737484D02*
X18374492Y-10737484D01*
X18374492Y-10737484D02*
X18355444Y-10727960D01*
X18355444Y-10727960D02*
X18345920Y-10708912D01*
X18345920Y-10708912D02*
X18345920Y-10689865D01*
X18345920Y-10689865D02*
X18355444Y-10670817D01*
X18355444Y-10670817D02*
X18374492Y-10661293D01*
X18374492Y-10661293D02*
X18422111Y-10661293D01*
X18422111Y-10661293D02*
X18441158Y-10651770D01*
X18507825Y-10604150D02*
X18584015Y-10604150D01*
X18536396Y-10537484D02*
X18536396Y-10708912D01*
X18536396Y-10708912D02*
X18545920Y-10727960D01*
X18545920Y-10727960D02*
X18564968Y-10737484D01*
X18564968Y-10737484D02*
X18584015Y-10737484D01*
X18726873Y-10727960D02*
X18707825Y-10737484D01*
X18707825Y-10737484D02*
X18669730Y-10737484D01*
X18669730Y-10737484D02*
X18650682Y-10727960D01*
X18650682Y-10727960D02*
X18641158Y-10708912D01*
X18641158Y-10708912D02*
X18641158Y-10632722D01*
X18641158Y-10632722D02*
X18650682Y-10613674D01*
X18650682Y-10613674D02*
X18669730Y-10604150D01*
X18669730Y-10604150D02*
X18707825Y-10604150D01*
X18707825Y-10604150D02*
X18726873Y-10613674D01*
X18726873Y-10613674D02*
X18736396Y-10632722D01*
X18736396Y-10632722D02*
X18736396Y-10651770D01*
X18736396Y-10651770D02*
X18641158Y-10670817D01*
X18907825Y-10737484D02*
X18907825Y-10537484D01*
X18907825Y-10727960D02*
X18888777Y-10737484D01*
X18888777Y-10737484D02*
X18850682Y-10737484D01*
X18850682Y-10737484D02*
X18831635Y-10727960D01*
X18831635Y-10727960D02*
X18822111Y-10718436D01*
X18822111Y-10718436D02*
X18812587Y-10699389D01*
X18812587Y-10699389D02*
X18812587Y-10642246D01*
X18812587Y-10642246D02*
X18822111Y-10623198D01*
X18822111Y-10623198D02*
X18831635Y-10613674D01*
X18831635Y-10613674D02*
X18850682Y-10604150D01*
X18850682Y-10604150D02*
X18888777Y-10604150D01*
X18888777Y-10604150D02*
X18907825Y-10613674D01*
X18984016Y-10813674D02*
X18993539Y-10804150D01*
X18993539Y-10804150D02*
X19012587Y-10775579D01*
X19012587Y-10775579D02*
X19022111Y-10756531D01*
X19022111Y-10756531D02*
X19031635Y-10727960D01*
X19031635Y-10727960D02*
X19041158Y-10680341D01*
X19041158Y-10680341D02*
X19041158Y-10642246D01*
X19041158Y-10642246D02*
X19031635Y-10594627D01*
X19031635Y-10594627D02*
X19022111Y-10566055D01*
X19022111Y-10566055D02*
X19012587Y-10547008D01*
X19012587Y-10547008D02*
X18993539Y-10518436D01*
X18993539Y-10518436D02*
X18984016Y-10508912D01*
M02*
