M48
; DRILL file {KiCad 8.0.5} date 2025-07-29T10:24:35+0200
; FORMAT={-:-/ absolute / inch / decimal}
; #@! TF.CreationDate,2025-07-29T10:24:35+02:00
; #@! TF.GenerationSoftware,Kicad,Pcbnew,8.0.5
; #@! TF.FileFunction,Plated,1,2,PTH
FMAT,2
INCH
; #@! TA.AperFunction,Plated,PTH,ViaDrill
T1C0.0118
; #@! TA.AperFunction,Plated,PTH,ComponentDrill
T2C0.0295
; #@! TA.AperFunction,Plated,PTH,ComponentDrill
T3C0.0315
; #@! TA.AperFunction,Plated,PTH,ComponentDrill
T4C0.0354
; #@! TA.AperFunction,Plated,PTH,ComponentDrill
T5C0.0394
%
G90
G05
T1
X4.8673Y-3.8571
X4.8783Y-3.9008
X4.926Y-3.9114
X4.9811Y-3.9106
X4.9909Y-3.8567
X5.8886Y-3.0681
X5.8904Y-3.8937
X5.8941Y-3.7787
X5.915Y-3.1638
X5.9201Y-3.0646
X5.9222Y-3.885
X5.9228Y-3.7803
X5.9508Y-3.1531
X5.9528Y-3.0732
X5.9587Y-3.111
X5.9618Y-3.7803
X5.9628Y-3.8858
T2
X4.9583Y-3.5252
X4.9583Y-3.5752
X4.9583Y-3.6252
T3
X5.0811Y-3.0972
X5.0811Y-3.3972
X5.1331Y-3.4831
X5.1331Y-3.7831
X5.1811Y-3.0972
X5.1811Y-3.3972
X5.2811Y-3.0972
X5.2811Y-3.3972
X5.3811Y-3.0972
X5.3811Y-3.3972
X5.5713Y-3.1106
X5.5713Y-3.4106
X5.6894Y-3.526
X5.6894Y-3.826
X5.6909Y-3.1118
X5.6909Y-3.4118
X5.8157Y-3.1138
X5.9142Y-3.1138
T4
X5.2604Y-3.7248
X5.3604Y-3.6248
X5.3604Y-3.7248
X5.3604Y-3.8248
X5.4604Y-3.6248
X5.4604Y-3.7248
X5.4604Y-3.8248
X5.5604Y-3.7248
T5
X4.9291Y-3.7549
X4.9291Y-3.8549
X5.822Y-3.8307
X5.922Y-3.8307
M30
