%TF.GenerationSoftware,KiCad,Pcbnew,8.0.5*%
%TF.CreationDate,2025-07-29T10:24:45+02:00*%
%TF.ProjectId,LED_FADER,4c45445f-4641-4444-9552-2e6b69636164,rev?*%
%TF.SameCoordinates,Original*%
%TF.FileFunction,Legend,Top*%
%TF.FilePolarity,Positive*%
%FSLAX46Y46*%
G04 Gerber Fmt 4.6, Leading zero omitted, Abs format (unit mm)*
G04 Created by KiCad (PCBNEW 8.0.5) date 2025-07-29 10:24:45*
%MOMM*%
%LPD*%
G01*
G04 APERTURE LIST*
%ADD10C,0.100000*%
%ADD11C,0.150000*%
%ADD12C,0.190000*%
%ADD13C,0.200000*%
%ADD14C,0.120000*%
G04 APERTURE END LIST*
D10*
X146365113Y-79080000D02*
X146365113Y-89840000D01*
X146365113Y-89840000D02*
X151595113Y-89840000D01*
X151595113Y-89840000D02*
X151595113Y-79080000D01*
D11*
X140974819Y-84836190D02*
X140974819Y-85312380D01*
X140974819Y-85312380D02*
X141451009Y-85359999D01*
X141451009Y-85359999D02*
X141403390Y-85312380D01*
X141403390Y-85312380D02*
X141355771Y-85217142D01*
X141355771Y-85217142D02*
X141355771Y-84979047D01*
X141355771Y-84979047D02*
X141403390Y-84883809D01*
X141403390Y-84883809D02*
X141451009Y-84836190D01*
X141451009Y-84836190D02*
X141546247Y-84788571D01*
X141546247Y-84788571D02*
X141784342Y-84788571D01*
X141784342Y-84788571D02*
X141879580Y-84836190D01*
X141879580Y-84836190D02*
X141927200Y-84883809D01*
X141927200Y-84883809D02*
X141974819Y-84979047D01*
X141974819Y-84979047D02*
X141974819Y-85217142D01*
X141974819Y-85217142D02*
X141927200Y-85312380D01*
X141927200Y-85312380D02*
X141879580Y-85359999D01*
X141879580Y-84359999D02*
X141927200Y-84312380D01*
X141927200Y-84312380D02*
X141974819Y-84359999D01*
X141974819Y-84359999D02*
X141927200Y-84407618D01*
X141927200Y-84407618D02*
X141879580Y-84359999D01*
X141879580Y-84359999D02*
X141974819Y-84359999D01*
X141974819Y-83360000D02*
X141974819Y-83931428D01*
X141974819Y-83645714D02*
X140974819Y-83645714D01*
X140974819Y-83645714D02*
X141117676Y-83740952D01*
X141117676Y-83740952D02*
X141212914Y-83836190D01*
X141212914Y-83836190D02*
X141260533Y-83931428D01*
X141974819Y-82931428D02*
X140974819Y-82931428D01*
X141974819Y-82360000D02*
X141403390Y-82788571D01*
X140974819Y-82360000D02*
X141546247Y-82931428D01*
X144095180Y-91145238D02*
X144095180Y-90573810D01*
X144095180Y-90859524D02*
X145095180Y-90859524D01*
X145095180Y-90859524D02*
X144952323Y-90764286D01*
X144952323Y-90764286D02*
X144857085Y-90669048D01*
X144857085Y-90669048D02*
X144809466Y-90573810D01*
X145095180Y-92050000D02*
X145095180Y-91573810D01*
X145095180Y-91573810D02*
X144618990Y-91526191D01*
X144618990Y-91526191D02*
X144666609Y-91573810D01*
X144666609Y-91573810D02*
X144714228Y-91669048D01*
X144714228Y-91669048D02*
X144714228Y-91907143D01*
X144714228Y-91907143D02*
X144666609Y-92002381D01*
X144666609Y-92002381D02*
X144618990Y-92050000D01*
X144618990Y-92050000D02*
X144523752Y-92097619D01*
X144523752Y-92097619D02*
X144285657Y-92097619D01*
X144285657Y-92097619D02*
X144190419Y-92050000D01*
X144190419Y-92050000D02*
X144142800Y-92002381D01*
X144142800Y-92002381D02*
X144095180Y-91907143D01*
X144095180Y-91907143D02*
X144095180Y-91669048D01*
X144095180Y-91669048D02*
X144142800Y-91573810D01*
X144142800Y-91573810D02*
X144190419Y-91526191D01*
X144190419Y-92526191D02*
X144142800Y-92573810D01*
X144142800Y-92573810D02*
X144095180Y-92526191D01*
X144095180Y-92526191D02*
X144142800Y-92478572D01*
X144142800Y-92478572D02*
X144190419Y-92526191D01*
X144190419Y-92526191D02*
X144095180Y-92526191D01*
X144095180Y-93526190D02*
X144095180Y-92954762D01*
X144095180Y-93240476D02*
X145095180Y-93240476D01*
X145095180Y-93240476D02*
X144952323Y-93145238D01*
X144952323Y-93145238D02*
X144857085Y-93050000D01*
X144857085Y-93050000D02*
X144809466Y-92954762D01*
X144095180Y-93954762D02*
X145095180Y-93954762D01*
X144095180Y-94526190D02*
X144666609Y-94097619D01*
X145095180Y-94526190D02*
X144523752Y-93954762D01*
X129885180Y-93393333D02*
X129885180Y-92821905D01*
X129885180Y-93107619D02*
X130885180Y-93107619D01*
X130885180Y-93107619D02*
X130742323Y-93012381D01*
X130742323Y-93012381D02*
X130647085Y-92917143D01*
X130647085Y-92917143D02*
X130599466Y-92821905D01*
X130885180Y-94012381D02*
X130885180Y-94107619D01*
X130885180Y-94107619D02*
X130837561Y-94202857D01*
X130837561Y-94202857D02*
X130789942Y-94250476D01*
X130789942Y-94250476D02*
X130694704Y-94298095D01*
X130694704Y-94298095D02*
X130504228Y-94345714D01*
X130504228Y-94345714D02*
X130266133Y-94345714D01*
X130266133Y-94345714D02*
X130075657Y-94298095D01*
X130075657Y-94298095D02*
X129980419Y-94250476D01*
X129980419Y-94250476D02*
X129932800Y-94202857D01*
X129932800Y-94202857D02*
X129885180Y-94107619D01*
X129885180Y-94107619D02*
X129885180Y-94012381D01*
X129885180Y-94012381D02*
X129932800Y-93917143D01*
X129932800Y-93917143D02*
X129980419Y-93869524D01*
X129980419Y-93869524D02*
X130075657Y-93821905D01*
X130075657Y-93821905D02*
X130266133Y-93774286D01*
X130266133Y-93774286D02*
X130504228Y-93774286D01*
X130504228Y-93774286D02*
X130694704Y-93821905D01*
X130694704Y-93821905D02*
X130789942Y-93869524D01*
X130789942Y-93869524D02*
X130837561Y-93917143D01*
X130837561Y-93917143D02*
X130885180Y-94012381D01*
X130885180Y-94964762D02*
X130885180Y-95060000D01*
X130885180Y-95060000D02*
X130837561Y-95155238D01*
X130837561Y-95155238D02*
X130789942Y-95202857D01*
X130789942Y-95202857D02*
X130694704Y-95250476D01*
X130694704Y-95250476D02*
X130504228Y-95298095D01*
X130504228Y-95298095D02*
X130266133Y-95298095D01*
X130266133Y-95298095D02*
X130075657Y-95250476D01*
X130075657Y-95250476D02*
X129980419Y-95202857D01*
X129980419Y-95202857D02*
X129932800Y-95155238D01*
X129932800Y-95155238D02*
X129885180Y-95060000D01*
X129885180Y-95060000D02*
X129885180Y-94964762D01*
X129885180Y-94964762D02*
X129932800Y-94869524D01*
X129932800Y-94869524D02*
X129980419Y-94821905D01*
X129980419Y-94821905D02*
X130075657Y-94774286D01*
X130075657Y-94774286D02*
X130266133Y-94726667D01*
X130266133Y-94726667D02*
X130504228Y-94726667D01*
X130504228Y-94726667D02*
X130694704Y-94774286D01*
X130694704Y-94774286D02*
X130789942Y-94821905D01*
X130789942Y-94821905D02*
X130837561Y-94869524D01*
X130837561Y-94869524D02*
X130885180Y-94964762D01*
X145054819Y-84396666D02*
X145054819Y-84968094D01*
X145054819Y-84682380D02*
X144054819Y-84682380D01*
X144054819Y-84682380D02*
X144197676Y-84777618D01*
X144197676Y-84777618D02*
X144292914Y-84872856D01*
X144292914Y-84872856D02*
X144340533Y-84968094D01*
X144150057Y-84015713D02*
X144102438Y-83968094D01*
X144102438Y-83968094D02*
X144054819Y-83872856D01*
X144054819Y-83872856D02*
X144054819Y-83634761D01*
X144054819Y-83634761D02*
X144102438Y-83539523D01*
X144102438Y-83539523D02*
X144150057Y-83491904D01*
X144150057Y-83491904D02*
X144245295Y-83444285D01*
X144245295Y-83444285D02*
X144340533Y-83444285D01*
X144340533Y-83444285D02*
X144483390Y-83491904D01*
X144483390Y-83491904D02*
X145054819Y-84063332D01*
X145054819Y-84063332D02*
X145054819Y-83444285D01*
X144054819Y-82825237D02*
X144054819Y-82729999D01*
X144054819Y-82729999D02*
X144102438Y-82634761D01*
X144102438Y-82634761D02*
X144150057Y-82587142D01*
X144150057Y-82587142D02*
X144245295Y-82539523D01*
X144245295Y-82539523D02*
X144435771Y-82491904D01*
X144435771Y-82491904D02*
X144673866Y-82491904D01*
X144673866Y-82491904D02*
X144864342Y-82539523D01*
X144864342Y-82539523D02*
X144959580Y-82587142D01*
X144959580Y-82587142D02*
X145007200Y-82634761D01*
X145007200Y-82634761D02*
X145054819Y-82729999D01*
X145054819Y-82729999D02*
X145054819Y-82825237D01*
X145054819Y-82825237D02*
X145007200Y-82920475D01*
X145007200Y-82920475D02*
X144959580Y-82968094D01*
X144959580Y-82968094D02*
X144864342Y-83015713D01*
X144864342Y-83015713D02*
X144673866Y-83063332D01*
X144673866Y-83063332D02*
X144435771Y-83063332D01*
X144435771Y-83063332D02*
X144245295Y-83015713D01*
X144245295Y-83015713D02*
X144150057Y-82968094D01*
X144150057Y-82968094D02*
X144102438Y-82920475D01*
X144102438Y-82920475D02*
X144054819Y-82825237D01*
X145054819Y-82063332D02*
X144054819Y-82063332D01*
X145054819Y-81491904D02*
X144483390Y-81920475D01*
X144054819Y-81491904D02*
X144626247Y-82063332D01*
D12*
X124332739Y-82478094D02*
X123332739Y-82478094D01*
X123332739Y-82478094D02*
X123332739Y-82097142D01*
X123332739Y-82097142D02*
X123380358Y-82001904D01*
X123380358Y-82001904D02*
X123427977Y-81954285D01*
X123427977Y-81954285D02*
X123523215Y-81906666D01*
X123523215Y-81906666D02*
X123666072Y-81906666D01*
X123666072Y-81906666D02*
X123761310Y-81954285D01*
X123761310Y-81954285D02*
X123808929Y-82001904D01*
X123808929Y-82001904D02*
X123856548Y-82097142D01*
X123856548Y-82097142D02*
X123856548Y-82478094D01*
X123427977Y-81525713D02*
X123380358Y-81478094D01*
X123380358Y-81478094D02*
X123332739Y-81382856D01*
X123332739Y-81382856D02*
X123332739Y-81144761D01*
X123332739Y-81144761D02*
X123380358Y-81049523D01*
X123380358Y-81049523D02*
X123427977Y-81001904D01*
X123427977Y-81001904D02*
X123523215Y-80954285D01*
X123523215Y-80954285D02*
X123618453Y-80954285D01*
X123618453Y-80954285D02*
X123761310Y-81001904D01*
X123761310Y-81001904D02*
X124332739Y-81573332D01*
X124332739Y-81573332D02*
X124332739Y-80954285D01*
X124237500Y-79954285D02*
X124285120Y-80001904D01*
X124285120Y-80001904D02*
X124332739Y-80144761D01*
X124332739Y-80144761D02*
X124332739Y-80239999D01*
X124332739Y-80239999D02*
X124285120Y-80382856D01*
X124285120Y-80382856D02*
X124189881Y-80478094D01*
X124189881Y-80478094D02*
X124094643Y-80525713D01*
X124094643Y-80525713D02*
X123904167Y-80573332D01*
X123904167Y-80573332D02*
X123761310Y-80573332D01*
X123761310Y-80573332D02*
X123570834Y-80525713D01*
X123570834Y-80525713D02*
X123475596Y-80478094D01*
X123475596Y-80478094D02*
X123380358Y-80382856D01*
X123380358Y-80382856D02*
X123332739Y-80239999D01*
X123332739Y-80239999D02*
X123332739Y-80144761D01*
X123332739Y-80144761D02*
X123380358Y-80001904D01*
X123380358Y-80001904D02*
X123427977Y-79954285D01*
X124047024Y-79573332D02*
X124047024Y-79097142D01*
X124332739Y-79668570D02*
X123332739Y-79335237D01*
X123332739Y-79335237D02*
X124332739Y-79001904D01*
X124332739Y-78668570D02*
X123332739Y-78668570D01*
X123332739Y-78668570D02*
X124047024Y-78335237D01*
X124047024Y-78335237D02*
X123332739Y-78001904D01*
X123332739Y-78001904D02*
X124332739Y-78001904D01*
D11*
X134816666Y-81375180D02*
X134816666Y-82375180D01*
X134816666Y-82375180D02*
X134245238Y-81375180D01*
X134245238Y-81375180D02*
X134245238Y-82375180D01*
X133769047Y-81898990D02*
X133435714Y-81898990D01*
X133292857Y-81375180D02*
X133769047Y-81375180D01*
X133769047Y-81375180D02*
X133769047Y-82375180D01*
X133769047Y-82375180D02*
X133292857Y-82375180D01*
X132388095Y-82375180D02*
X132864285Y-82375180D01*
X132864285Y-82375180D02*
X132911904Y-81898990D01*
X132911904Y-81898990D02*
X132864285Y-81946609D01*
X132864285Y-81946609D02*
X132769047Y-81994228D01*
X132769047Y-81994228D02*
X132530952Y-81994228D01*
X132530952Y-81994228D02*
X132435714Y-81946609D01*
X132435714Y-81946609D02*
X132388095Y-81898990D01*
X132388095Y-81898990D02*
X132340476Y-81803752D01*
X132340476Y-81803752D02*
X132340476Y-81565657D01*
X132340476Y-81565657D02*
X132388095Y-81470419D01*
X132388095Y-81470419D02*
X132435714Y-81422800D01*
X132435714Y-81422800D02*
X132530952Y-81375180D01*
X132530952Y-81375180D02*
X132769047Y-81375180D01*
X132769047Y-81375180D02*
X132864285Y-81422800D01*
X132864285Y-81422800D02*
X132911904Y-81470419D01*
X131435714Y-82375180D02*
X131911904Y-82375180D01*
X131911904Y-82375180D02*
X131959523Y-81898990D01*
X131959523Y-81898990D02*
X131911904Y-81946609D01*
X131911904Y-81946609D02*
X131816666Y-81994228D01*
X131816666Y-81994228D02*
X131578571Y-81994228D01*
X131578571Y-81994228D02*
X131483333Y-81946609D01*
X131483333Y-81946609D02*
X131435714Y-81898990D01*
X131435714Y-81898990D02*
X131388095Y-81803752D01*
X131388095Y-81803752D02*
X131388095Y-81565657D01*
X131388095Y-81565657D02*
X131435714Y-81470419D01*
X131435714Y-81470419D02*
X131483333Y-81422800D01*
X131483333Y-81422800D02*
X131578571Y-81375180D01*
X131578571Y-81375180D02*
X131816666Y-81375180D01*
X131816666Y-81375180D02*
X131911904Y-81422800D01*
X131911904Y-81422800D02*
X131959523Y-81470419D01*
X130483333Y-82375180D02*
X130959523Y-82375180D01*
X130959523Y-82375180D02*
X131007142Y-81898990D01*
X131007142Y-81898990D02*
X130959523Y-81946609D01*
X130959523Y-81946609D02*
X130864285Y-81994228D01*
X130864285Y-81994228D02*
X130626190Y-81994228D01*
X130626190Y-81994228D02*
X130530952Y-81946609D01*
X130530952Y-81946609D02*
X130483333Y-81898990D01*
X130483333Y-81898990D02*
X130435714Y-81803752D01*
X130435714Y-81803752D02*
X130435714Y-81565657D01*
X130435714Y-81565657D02*
X130483333Y-81470419D01*
X130483333Y-81470419D02*
X130530952Y-81422800D01*
X130530952Y-81422800D02*
X130626190Y-81375180D01*
X130626190Y-81375180D02*
X130864285Y-81375180D01*
X130864285Y-81375180D02*
X130959523Y-81422800D01*
X130959523Y-81422800D02*
X131007142Y-81470419D01*
D13*
X147739999Y-80839419D02*
X147739999Y-82267991D01*
X147739999Y-79229475D02*
X147739999Y-80658047D01*
X146177780Y-96980000D02*
X146177780Y-97170476D01*
X146177780Y-97170476D02*
X146130161Y-97265714D01*
X146130161Y-97265714D02*
X146034923Y-97360952D01*
X146034923Y-97360952D02*
X145844447Y-97408571D01*
X145844447Y-97408571D02*
X145511114Y-97408571D01*
X145511114Y-97408571D02*
X145320638Y-97360952D01*
X145320638Y-97360952D02*
X145225400Y-97265714D01*
X145225400Y-97265714D02*
X145177780Y-97170476D01*
X145177780Y-97170476D02*
X145177780Y-96980000D01*
X145177780Y-96980000D02*
X145225400Y-96884762D01*
X145225400Y-96884762D02*
X145320638Y-96789524D01*
X145320638Y-96789524D02*
X145511114Y-96741905D01*
X145511114Y-96741905D02*
X145844447Y-96741905D01*
X145844447Y-96741905D02*
X146034923Y-96789524D01*
X146034923Y-96789524D02*
X146130161Y-96884762D01*
X146130161Y-96884762D02*
X146177780Y-96980000D01*
X146177780Y-97837143D02*
X145368257Y-97837143D01*
X145368257Y-97837143D02*
X145273019Y-97884762D01*
X145273019Y-97884762D02*
X145225400Y-97932381D01*
X145225400Y-97932381D02*
X145177780Y-98027619D01*
X145177780Y-98027619D02*
X145177780Y-98218095D01*
X145177780Y-98218095D02*
X145225400Y-98313333D01*
X145225400Y-98313333D02*
X145273019Y-98360952D01*
X145273019Y-98360952D02*
X145368257Y-98408571D01*
X145368257Y-98408571D02*
X146177780Y-98408571D01*
X146177780Y-98741905D02*
X146177780Y-99313333D01*
X145177780Y-99027619D02*
X146177780Y-99027619D01*
X125153808Y-97747780D02*
X125153808Y-98747780D01*
X124677618Y-97747780D02*
X124677618Y-98747780D01*
X124677618Y-98747780D02*
X124106190Y-97747780D01*
X124106190Y-97747780D02*
X124106190Y-98747780D01*
D11*
X127074819Y-91561904D02*
X127884342Y-91561904D01*
X127884342Y-91561904D02*
X127979580Y-91514285D01*
X127979580Y-91514285D02*
X128027200Y-91466666D01*
X128027200Y-91466666D02*
X128074819Y-91371428D01*
X128074819Y-91371428D02*
X128074819Y-91180952D01*
X128074819Y-91180952D02*
X128027200Y-91085714D01*
X128027200Y-91085714D02*
X127979580Y-91038095D01*
X127979580Y-91038095D02*
X127884342Y-90990476D01*
X127884342Y-90990476D02*
X127074819Y-90990476D01*
X127170057Y-90561904D02*
X127122438Y-90514285D01*
X127122438Y-90514285D02*
X127074819Y-90419047D01*
X127074819Y-90419047D02*
X127074819Y-90180952D01*
X127074819Y-90180952D02*
X127122438Y-90085714D01*
X127122438Y-90085714D02*
X127170057Y-90038095D01*
X127170057Y-90038095D02*
X127265295Y-89990476D01*
X127265295Y-89990476D02*
X127360533Y-89990476D01*
X127360533Y-89990476D02*
X127503390Y-90038095D01*
X127503390Y-90038095D02*
X128074819Y-90609523D01*
X128074819Y-90609523D02*
X128074819Y-89990476D01*
X141353333Y-81424819D02*
X141020000Y-80948628D01*
X140781905Y-81424819D02*
X140781905Y-80424819D01*
X140781905Y-80424819D02*
X141162857Y-80424819D01*
X141162857Y-80424819D02*
X141258095Y-80472438D01*
X141258095Y-80472438D02*
X141305714Y-80520057D01*
X141305714Y-80520057D02*
X141353333Y-80615295D01*
X141353333Y-80615295D02*
X141353333Y-80758152D01*
X141353333Y-80758152D02*
X141305714Y-80853390D01*
X141305714Y-80853390D02*
X141258095Y-80901009D01*
X141258095Y-80901009D02*
X141162857Y-80948628D01*
X141162857Y-80948628D02*
X140781905Y-80948628D01*
X141686667Y-80424819D02*
X142305714Y-80424819D01*
X142305714Y-80424819D02*
X141972381Y-80805771D01*
X141972381Y-80805771D02*
X142115238Y-80805771D01*
X142115238Y-80805771D02*
X142210476Y-80853390D01*
X142210476Y-80853390D02*
X142258095Y-80901009D01*
X142258095Y-80901009D02*
X142305714Y-80996247D01*
X142305714Y-80996247D02*
X142305714Y-81234342D01*
X142305714Y-81234342D02*
X142258095Y-81329580D01*
X142258095Y-81329580D02*
X142210476Y-81377200D01*
X142210476Y-81377200D02*
X142115238Y-81424819D01*
X142115238Y-81424819D02*
X141829524Y-81424819D01*
X141829524Y-81424819D02*
X141734286Y-81377200D01*
X141734286Y-81377200D02*
X141686667Y-81329580D01*
X142999819Y-95348094D02*
X141999819Y-95348094D01*
X141999819Y-95348094D02*
X141999819Y-95109999D01*
X141999819Y-95109999D02*
X142047438Y-94967142D01*
X142047438Y-94967142D02*
X142142676Y-94871904D01*
X142142676Y-94871904D02*
X142237914Y-94824285D01*
X142237914Y-94824285D02*
X142428390Y-94776666D01*
X142428390Y-94776666D02*
X142571247Y-94776666D01*
X142571247Y-94776666D02*
X142761723Y-94824285D01*
X142761723Y-94824285D02*
X142856961Y-94871904D01*
X142856961Y-94871904D02*
X142952200Y-94967142D01*
X142952200Y-94967142D02*
X142999819Y-95109999D01*
X142999819Y-95109999D02*
X142999819Y-95348094D01*
X142333152Y-93919523D02*
X142999819Y-93919523D01*
X141952200Y-94157618D02*
X142666485Y-94395713D01*
X142666485Y-94395713D02*
X142666485Y-93776666D01*
X144463333Y-81164819D02*
X144130000Y-80688628D01*
X143891905Y-81164819D02*
X143891905Y-80164819D01*
X143891905Y-80164819D02*
X144272857Y-80164819D01*
X144272857Y-80164819D02*
X144368095Y-80212438D01*
X144368095Y-80212438D02*
X144415714Y-80260057D01*
X144415714Y-80260057D02*
X144463333Y-80355295D01*
X144463333Y-80355295D02*
X144463333Y-80498152D01*
X144463333Y-80498152D02*
X144415714Y-80593390D01*
X144415714Y-80593390D02*
X144368095Y-80641009D01*
X144368095Y-80641009D02*
X144272857Y-80688628D01*
X144272857Y-80688628D02*
X143891905Y-80688628D01*
X145415714Y-81164819D02*
X144844286Y-81164819D01*
X145130000Y-81164819D02*
X145130000Y-80164819D01*
X145130000Y-80164819D02*
X145034762Y-80307676D01*
X145034762Y-80307676D02*
X144939524Y-80402914D01*
X144939524Y-80402914D02*
X144844286Y-80450533D01*
X132469819Y-95378094D02*
X131469819Y-95378094D01*
X131469819Y-95378094D02*
X131469819Y-95139999D01*
X131469819Y-95139999D02*
X131517438Y-94997142D01*
X131517438Y-94997142D02*
X131612676Y-94901904D01*
X131612676Y-94901904D02*
X131707914Y-94854285D01*
X131707914Y-94854285D02*
X131898390Y-94806666D01*
X131898390Y-94806666D02*
X132041247Y-94806666D01*
X132041247Y-94806666D02*
X132231723Y-94854285D01*
X132231723Y-94854285D02*
X132326961Y-94901904D01*
X132326961Y-94901904D02*
X132422200Y-94997142D01*
X132422200Y-94997142D02*
X132469819Y-95139999D01*
X132469819Y-95139999D02*
X132469819Y-95378094D01*
X131469819Y-94473332D02*
X131469819Y-93854285D01*
X131469819Y-93854285D02*
X131850771Y-94187618D01*
X131850771Y-94187618D02*
X131850771Y-94044761D01*
X131850771Y-94044761D02*
X131898390Y-93949523D01*
X131898390Y-93949523D02*
X131946009Y-93901904D01*
X131946009Y-93901904D02*
X132041247Y-93854285D01*
X132041247Y-93854285D02*
X132279342Y-93854285D01*
X132279342Y-93854285D02*
X132374580Y-93901904D01*
X132374580Y-93901904D02*
X132422200Y-93949523D01*
X132422200Y-93949523D02*
X132469819Y-94044761D01*
X132469819Y-94044761D02*
X132469819Y-94330475D01*
X132469819Y-94330475D02*
X132422200Y-94425713D01*
X132422200Y-94425713D02*
X132374580Y-94473332D01*
X138464819Y-83241904D02*
X139274342Y-83241904D01*
X139274342Y-83241904D02*
X139369580Y-83194285D01*
X139369580Y-83194285D02*
X139417200Y-83146666D01*
X139417200Y-83146666D02*
X139464819Y-83051428D01*
X139464819Y-83051428D02*
X139464819Y-82860952D01*
X139464819Y-82860952D02*
X139417200Y-82765714D01*
X139417200Y-82765714D02*
X139369580Y-82718095D01*
X139369580Y-82718095D02*
X139274342Y-82670476D01*
X139274342Y-82670476D02*
X138464819Y-82670476D01*
X139464819Y-81670476D02*
X139464819Y-82241904D01*
X139464819Y-81956190D02*
X138464819Y-81956190D01*
X138464819Y-81956190D02*
X138607676Y-82051428D01*
X138607676Y-82051428D02*
X138702914Y-82146666D01*
X138702914Y-82146666D02*
X138750533Y-82241904D01*
X130243333Y-90714819D02*
X129910000Y-90238628D01*
X129671905Y-90714819D02*
X129671905Y-89714819D01*
X129671905Y-89714819D02*
X130052857Y-89714819D01*
X130052857Y-89714819D02*
X130148095Y-89762438D01*
X130148095Y-89762438D02*
X130195714Y-89810057D01*
X130195714Y-89810057D02*
X130243333Y-89905295D01*
X130243333Y-89905295D02*
X130243333Y-90048152D01*
X130243333Y-90048152D02*
X130195714Y-90143390D01*
X130195714Y-90143390D02*
X130148095Y-90191009D01*
X130148095Y-90191009D02*
X130052857Y-90238628D01*
X130052857Y-90238628D02*
X129671905Y-90238628D01*
X131100476Y-90048152D02*
X131100476Y-90714819D01*
X130862381Y-89667200D02*
X130624286Y-90381485D01*
X130624286Y-90381485D02*
X131243333Y-90381485D01*
X148808333Y-83349580D02*
X148760714Y-83397200D01*
X148760714Y-83397200D02*
X148617857Y-83444819D01*
X148617857Y-83444819D02*
X148522619Y-83444819D01*
X148522619Y-83444819D02*
X148379762Y-83397200D01*
X148379762Y-83397200D02*
X148284524Y-83301961D01*
X148284524Y-83301961D02*
X148236905Y-83206723D01*
X148236905Y-83206723D02*
X148189286Y-83016247D01*
X148189286Y-83016247D02*
X148189286Y-82873390D01*
X148189286Y-82873390D02*
X148236905Y-82682914D01*
X148236905Y-82682914D02*
X148284524Y-82587676D01*
X148284524Y-82587676D02*
X148379762Y-82492438D01*
X148379762Y-82492438D02*
X148522619Y-82444819D01*
X148522619Y-82444819D02*
X148617857Y-82444819D01*
X148617857Y-82444819D02*
X148760714Y-82492438D01*
X148760714Y-82492438D02*
X148808333Y-82540057D01*
X149760714Y-83444819D02*
X149189286Y-83444819D01*
X149475000Y-83444819D02*
X149475000Y-82444819D01*
X149475000Y-82444819D02*
X149379762Y-82587676D01*
X149379762Y-82587676D02*
X149284524Y-82682914D01*
X149284524Y-82682914D02*
X149189286Y-82730533D01*
X147426666Y-94784819D02*
X147426666Y-95499104D01*
X147426666Y-95499104D02*
X147379047Y-95641961D01*
X147379047Y-95641961D02*
X147283809Y-95737200D01*
X147283809Y-95737200D02*
X147140952Y-95784819D01*
X147140952Y-95784819D02*
X147045714Y-95784819D01*
X147855238Y-94880057D02*
X147902857Y-94832438D01*
X147902857Y-94832438D02*
X147998095Y-94784819D01*
X147998095Y-94784819D02*
X148236190Y-94784819D01*
X148236190Y-94784819D02*
X148331428Y-94832438D01*
X148331428Y-94832438D02*
X148379047Y-94880057D01*
X148379047Y-94880057D02*
X148426666Y-94975295D01*
X148426666Y-94975295D02*
X148426666Y-95070533D01*
X148426666Y-95070533D02*
X148379047Y-95213390D01*
X148379047Y-95213390D02*
X147807619Y-95784819D01*
X147807619Y-95784819D02*
X148426666Y-95784819D01*
X136716905Y-89954819D02*
X136716905Y-88954819D01*
X136716905Y-88954819D02*
X136955000Y-88954819D01*
X136955000Y-88954819D02*
X137097857Y-89002438D01*
X137097857Y-89002438D02*
X137193095Y-89097676D01*
X137193095Y-89097676D02*
X137240714Y-89192914D01*
X137240714Y-89192914D02*
X137288333Y-89383390D01*
X137288333Y-89383390D02*
X137288333Y-89526247D01*
X137288333Y-89526247D02*
X137240714Y-89716723D01*
X137240714Y-89716723D02*
X137193095Y-89811961D01*
X137193095Y-89811961D02*
X137097857Y-89907200D01*
X137097857Y-89907200D02*
X136955000Y-89954819D01*
X136955000Y-89954819D02*
X136716905Y-89954819D01*
X138240714Y-89954819D02*
X137669286Y-89954819D01*
X137955000Y-89954819D02*
X137955000Y-88954819D01*
X137955000Y-88954819D02*
X137859762Y-89097676D01*
X137859762Y-89097676D02*
X137764524Y-89192914D01*
X137764524Y-89192914D02*
X137669286Y-89240533D01*
X136681905Y-100574819D02*
X136681905Y-99574819D01*
X136681905Y-99574819D02*
X136920000Y-99574819D01*
X136920000Y-99574819D02*
X137062857Y-99622438D01*
X137062857Y-99622438D02*
X137158095Y-99717676D01*
X137158095Y-99717676D02*
X137205714Y-99812914D01*
X137205714Y-99812914D02*
X137253333Y-100003390D01*
X137253333Y-100003390D02*
X137253333Y-100146247D01*
X137253333Y-100146247D02*
X137205714Y-100336723D01*
X137205714Y-100336723D02*
X137158095Y-100431961D01*
X137158095Y-100431961D02*
X137062857Y-100527200D01*
X137062857Y-100527200D02*
X136920000Y-100574819D01*
X136920000Y-100574819D02*
X136681905Y-100574819D01*
X137634286Y-99670057D02*
X137681905Y-99622438D01*
X137681905Y-99622438D02*
X137777143Y-99574819D01*
X137777143Y-99574819D02*
X138015238Y-99574819D01*
X138015238Y-99574819D02*
X138110476Y-99622438D01*
X138110476Y-99622438D02*
X138158095Y-99670057D01*
X138158095Y-99670057D02*
X138205714Y-99765295D01*
X138205714Y-99765295D02*
X138205714Y-99860533D01*
X138205714Y-99860533D02*
X138158095Y-100003390D01*
X138158095Y-100003390D02*
X137586667Y-100574819D01*
X137586667Y-100574819D02*
X138205714Y-100574819D01*
X144403333Y-95664819D02*
X144070000Y-95188628D01*
X143831905Y-95664819D02*
X143831905Y-94664819D01*
X143831905Y-94664819D02*
X144212857Y-94664819D01*
X144212857Y-94664819D02*
X144308095Y-94712438D01*
X144308095Y-94712438D02*
X144355714Y-94760057D01*
X144355714Y-94760057D02*
X144403333Y-94855295D01*
X144403333Y-94855295D02*
X144403333Y-94998152D01*
X144403333Y-94998152D02*
X144355714Y-95093390D01*
X144355714Y-95093390D02*
X144308095Y-95141009D01*
X144308095Y-95141009D02*
X144212857Y-95188628D01*
X144212857Y-95188628D02*
X143831905Y-95188628D01*
X144784286Y-94760057D02*
X144831905Y-94712438D01*
X144831905Y-94712438D02*
X144927143Y-94664819D01*
X144927143Y-94664819D02*
X145165238Y-94664819D01*
X145165238Y-94664819D02*
X145260476Y-94712438D01*
X145260476Y-94712438D02*
X145308095Y-94760057D01*
X145308095Y-94760057D02*
X145355714Y-94855295D01*
X145355714Y-94855295D02*
X145355714Y-94950533D01*
X145355714Y-94950533D02*
X145308095Y-95093390D01*
X145308095Y-95093390D02*
X144736667Y-95664819D01*
X144736667Y-95664819D02*
X145355714Y-95664819D01*
D14*
%TO.C,U2*%
X124240000Y-88790000D02*
X124240000Y-92640000D01*
X124240000Y-88790000D02*
G75*
G02*
X124249878Y-92678611I1700000J-1940000D01*
G01*
%TO.C,R3*%
X140140000Y-79550000D02*
X140470000Y-79550000D01*
X140140000Y-86090000D02*
X140140000Y-79550000D01*
X140470000Y-86090000D02*
X140140000Y-86090000D01*
X142550000Y-86090000D02*
X142880000Y-86090000D01*
X142880000Y-79550000D02*
X142550000Y-79550000D01*
X142880000Y-86090000D02*
X142880000Y-79550000D01*
%TO.C,D4*%
X141525000Y-93530000D02*
X141525000Y-93374000D01*
X141525000Y-95846000D02*
X141525000Y-95690000D01*
X138292665Y-93531392D02*
G75*
G02*
X141525000Y-93374484I1672335J-1078608D01*
G01*
X138923870Y-93530163D02*
G75*
G02*
X141005961Y-93530000I1041130J-1079837D01*
G01*
X141005961Y-95690000D02*
G75*
G02*
X138923870Y-95689837I-1040961J1080000D01*
G01*
X141525000Y-95845516D02*
G75*
G02*
X138292665Y-95688608I-1560000J1235516D01*
G01*
%TO.C,R1*%
X143180000Y-79580000D02*
X143510000Y-79580000D01*
X143180000Y-86120000D02*
X143180000Y-79580000D01*
X143510000Y-86120000D02*
X143180000Y-86120000D01*
X145590000Y-86120000D02*
X145920000Y-86120000D01*
X145920000Y-79580000D02*
X145590000Y-79580000D01*
X145920000Y-86120000D02*
X145920000Y-79580000D01*
%TO.C,D3*%
X136445000Y-93530000D02*
X136445000Y-93374000D01*
X136445000Y-95846000D02*
X136445000Y-95690000D01*
X133212665Y-93531392D02*
G75*
G02*
X136445000Y-93374484I1672335J-1078608D01*
G01*
X133843870Y-93530163D02*
G75*
G02*
X135925961Y-93530000I1041130J-1079837D01*
G01*
X135925961Y-95690000D02*
G75*
G02*
X133843870Y-95689837I-1040961J1080000D01*
G01*
X136445000Y-95845516D02*
G75*
G02*
X133212665Y-95688608I-1560000J1235516D01*
G01*
%TO.C,U1*%
X127730000Y-79830000D02*
X127730000Y-85130000D01*
X127730000Y-85130000D02*
X138010000Y-85130000D01*
X138010000Y-79830000D02*
X127730000Y-79830000D01*
X138010000Y-81480000D02*
X138010000Y-79830000D01*
X138010000Y-85130000D02*
X138010000Y-83480000D01*
X138010000Y-83480000D02*
G75*
G02*
X138010000Y-81480000I0J1000000D01*
G01*
%TO.C,R4*%
X129010000Y-89010000D02*
X129010000Y-95550000D01*
X129010000Y-95550000D02*
X129340000Y-95550000D01*
X129340000Y-89010000D02*
X129010000Y-89010000D01*
X131420000Y-89010000D02*
X131750000Y-89010000D01*
X131750000Y-89010000D02*
X131750000Y-95550000D01*
X131750000Y-95550000D02*
X131420000Y-95550000D01*
%TO.C,C1*%
X146165225Y-77615000D02*
X146665225Y-77615000D01*
X146415225Y-77365000D02*
X146415225Y-77865000D01*
X148970000Y-76510000D02*
X148970000Y-81670000D01*
X149010000Y-76510000D02*
X149010000Y-81670000D01*
X149050000Y-76511000D02*
X149050000Y-81669000D01*
X149090000Y-76512000D02*
X149090000Y-81668000D01*
X149130000Y-76514000D02*
X149130000Y-81666000D01*
X149170000Y-76517000D02*
X149170000Y-81663000D01*
X149210000Y-76521000D02*
X149210000Y-78050000D01*
X149210000Y-80130000D02*
X149210000Y-81659000D01*
X149250000Y-76525000D02*
X149250000Y-78050000D01*
X149250000Y-80130000D02*
X149250000Y-81655000D01*
X149290000Y-76529000D02*
X149290000Y-78050000D01*
X149290000Y-80130000D02*
X149290000Y-81651000D01*
X149330000Y-76534000D02*
X149330000Y-78050000D01*
X149330000Y-80130000D02*
X149330000Y-81646000D01*
X149370000Y-76540000D02*
X149370000Y-78050000D01*
X149370000Y-80130000D02*
X149370000Y-81640000D01*
X149410000Y-76547000D02*
X149410000Y-78050000D01*
X149410000Y-80130000D02*
X149410000Y-81633000D01*
X149450000Y-76554000D02*
X149450000Y-78050000D01*
X149450000Y-80130000D02*
X149450000Y-81626000D01*
X149490000Y-76562000D02*
X149490000Y-78050000D01*
X149490000Y-80130000D02*
X149490000Y-81618000D01*
X149530000Y-76570000D02*
X149530000Y-78050000D01*
X149530000Y-80130000D02*
X149530000Y-81610000D01*
X149570000Y-76579000D02*
X149570000Y-78050000D01*
X149570000Y-80130000D02*
X149570000Y-81601000D01*
X149610000Y-76589000D02*
X149610000Y-78050000D01*
X149610000Y-80130000D02*
X149610000Y-81591000D01*
X149650000Y-76599000D02*
X149650000Y-78050000D01*
X149650000Y-80130000D02*
X149650000Y-81581000D01*
X149691000Y-76610000D02*
X149691000Y-78050000D01*
X149691000Y-80130000D02*
X149691000Y-81570000D01*
X149731000Y-76622000D02*
X149731000Y-78050000D01*
X149731000Y-80130000D02*
X149731000Y-81558000D01*
X149771000Y-76635000D02*
X149771000Y-78050000D01*
X149771000Y-80130000D02*
X149771000Y-81545000D01*
X149811000Y-76648000D02*
X149811000Y-78050000D01*
X149811000Y-80130000D02*
X149811000Y-81532000D01*
X149851000Y-76662000D02*
X149851000Y-78050000D01*
X149851000Y-80130000D02*
X149851000Y-81518000D01*
X149891000Y-76676000D02*
X149891000Y-78050000D01*
X149891000Y-80130000D02*
X149891000Y-81504000D01*
X149931000Y-76692000D02*
X149931000Y-78050000D01*
X149931000Y-80130000D02*
X149931000Y-81488000D01*
X149971000Y-76708000D02*
X149971000Y-78050000D01*
X149971000Y-80130000D02*
X149971000Y-81472000D01*
X150011000Y-76725000D02*
X150011000Y-78050000D01*
X150011000Y-80130000D02*
X150011000Y-81455000D01*
X150051000Y-76742000D02*
X150051000Y-78050000D01*
X150051000Y-80130000D02*
X150051000Y-81438000D01*
X150091000Y-76761000D02*
X150091000Y-78050000D01*
X150091000Y-80130000D02*
X150091000Y-81419000D01*
X150131000Y-76780000D02*
X150131000Y-78050000D01*
X150131000Y-80130000D02*
X150131000Y-81400000D01*
X150171000Y-76800000D02*
X150171000Y-78050000D01*
X150171000Y-80130000D02*
X150171000Y-81380000D01*
X150211000Y-76822000D02*
X150211000Y-78050000D01*
X150211000Y-80130000D02*
X150211000Y-81358000D01*
X150251000Y-76843000D02*
X150251000Y-78050000D01*
X150251000Y-80130000D02*
X150251000Y-81337000D01*
X150291000Y-76866000D02*
X150291000Y-78050000D01*
X150291000Y-80130000D02*
X150291000Y-81314000D01*
X150331000Y-76890000D02*
X150331000Y-78050000D01*
X150331000Y-80130000D02*
X150331000Y-81290000D01*
X150371000Y-76915000D02*
X150371000Y-78050000D01*
X150371000Y-80130000D02*
X150371000Y-81265000D01*
X150411000Y-76941000D02*
X150411000Y-78050000D01*
X150411000Y-80130000D02*
X150411000Y-81239000D01*
X150451000Y-76968000D02*
X150451000Y-78050000D01*
X150451000Y-80130000D02*
X150451000Y-81212000D01*
X150491000Y-76995000D02*
X150491000Y-78050000D01*
X150491000Y-80130000D02*
X150491000Y-81185000D01*
X150531000Y-77025000D02*
X150531000Y-78050000D01*
X150531000Y-80130000D02*
X150531000Y-81155000D01*
X150571000Y-77055000D02*
X150571000Y-78050000D01*
X150571000Y-80130000D02*
X150571000Y-81125000D01*
X150611000Y-77086000D02*
X150611000Y-78050000D01*
X150611000Y-80130000D02*
X150611000Y-81094000D01*
X150651000Y-77119000D02*
X150651000Y-78050000D01*
X150651000Y-80130000D02*
X150651000Y-81061000D01*
X150691000Y-77153000D02*
X150691000Y-78050000D01*
X150691000Y-80130000D02*
X150691000Y-81027000D01*
X150731000Y-77189000D02*
X150731000Y-78050000D01*
X150731000Y-80130000D02*
X150731000Y-80991000D01*
X150771000Y-77226000D02*
X150771000Y-78050000D01*
X150771000Y-80130000D02*
X150771000Y-80954000D01*
X150811000Y-77264000D02*
X150811000Y-78050000D01*
X150811000Y-80130000D02*
X150811000Y-80916000D01*
X150851000Y-77305000D02*
X150851000Y-78050000D01*
X150851000Y-80130000D02*
X150851000Y-80875000D01*
X150891000Y-77347000D02*
X150891000Y-78050000D01*
X150891000Y-80130000D02*
X150891000Y-80833000D01*
X150931000Y-77391000D02*
X150931000Y-78050000D01*
X150931000Y-80130000D02*
X150931000Y-80789000D01*
X150971000Y-77437000D02*
X150971000Y-78050000D01*
X150971000Y-80130000D02*
X150971000Y-80743000D01*
X151011000Y-77485000D02*
X151011000Y-78050000D01*
X151011000Y-80130000D02*
X151011000Y-80695000D01*
X151051000Y-77536000D02*
X151051000Y-78050000D01*
X151051000Y-80130000D02*
X151051000Y-80644000D01*
X151091000Y-77590000D02*
X151091000Y-78050000D01*
X151091000Y-80130000D02*
X151091000Y-80590000D01*
X151131000Y-77647000D02*
X151131000Y-78050000D01*
X151131000Y-80130000D02*
X151131000Y-80533000D01*
X151171000Y-77707000D02*
X151171000Y-78050000D01*
X151171000Y-80130000D02*
X151171000Y-80473000D01*
X151211000Y-77771000D02*
X151211000Y-78050000D01*
X151211000Y-80130000D02*
X151211000Y-80409000D01*
X151251000Y-77839000D02*
X151251000Y-78050000D01*
X151251000Y-80130000D02*
X151251000Y-80341000D01*
X151291000Y-77912000D02*
X151291000Y-80268000D01*
X151331000Y-77992000D02*
X151331000Y-80188000D01*
X151371000Y-78079000D02*
X151371000Y-80101000D01*
X151411000Y-78175000D02*
X151411000Y-80005000D01*
X151451000Y-78285000D02*
X151451000Y-79895000D01*
X151491000Y-78413000D02*
X151491000Y-79767000D01*
X151531000Y-78572000D02*
X151531000Y-79608000D01*
X151571000Y-78806000D02*
X151571000Y-79374000D01*
X151590000Y-79090000D02*
G75*
G02*
X146350000Y-79090000I-2620000J0D01*
G01*
X146350000Y-79090000D02*
G75*
G02*
X151590000Y-79090000I2620000J0D01*
G01*
%TO.C,J2*%
X146550000Y-98630000D02*
X146550000Y-97300000D01*
X147880000Y-98630000D02*
X146550000Y-98630000D01*
X149150000Y-95970000D02*
X151750000Y-95970000D01*
X149150000Y-98630000D02*
X149150000Y-95970000D01*
X149150000Y-98630000D02*
X151750000Y-98630000D01*
X151750000Y-98630000D02*
X151750000Y-95970000D01*
%TO.C,D1*%
X135865000Y-90834000D02*
X135865000Y-90990000D01*
X135865000Y-93150000D02*
X135865000Y-93306000D01*
X135865000Y-90834484D02*
G75*
G02*
X139097335Y-90991392I1560000J-1235516D01*
G01*
X136384039Y-90990000D02*
G75*
G02*
X138466130Y-90990163I1040961J-1080000D01*
G01*
X138466130Y-93149837D02*
G75*
G02*
X136384039Y-93150000I-1041130J1079837D01*
G01*
X139097335Y-93148608D02*
G75*
G02*
X135865000Y-93305516I-1672335J1078608D01*
G01*
%TO.C,D2*%
X135865000Y-95914000D02*
X135865000Y-96070000D01*
X135865000Y-98230000D02*
X135865000Y-98386000D01*
X135865000Y-95914484D02*
G75*
G02*
X139097335Y-96071392I1560000J-1235516D01*
G01*
X136384039Y-96070000D02*
G75*
G02*
X138466130Y-96070163I1040961J-1080000D01*
G01*
X138466130Y-98229837D02*
G75*
G02*
X136384039Y-98230000I-1041130J1079837D01*
G01*
X139097335Y-98228608D02*
G75*
G02*
X135865000Y-98385516I-1672335J1078608D01*
G01*
%TO.C,R2*%
X143140000Y-90100000D02*
X143470000Y-90100000D01*
X143140000Y-96640000D02*
X143140000Y-90100000D01*
X143470000Y-96640000D02*
X143140000Y-96640000D01*
X145550000Y-96640000D02*
X145880000Y-96640000D01*
X145880000Y-90100000D02*
X145550000Y-90100000D01*
X145880000Y-96640000D02*
X145880000Y-90100000D01*
%TO.C,J3*%
X123870000Y-94045000D02*
X125200000Y-94045000D01*
X123870000Y-95375000D02*
X123870000Y-94045000D01*
X123870000Y-96645000D02*
X123870000Y-99245000D01*
X123870000Y-96645000D02*
X126530000Y-96645000D01*
X123870000Y-99245000D02*
X126530000Y-99245000D01*
X126530000Y-96645000D02*
X126530000Y-99245000D01*
%TD*%
M02*
