%TF.GenerationSoftware,KiCad,Pcbnew,8.0.5*%
%TF.CreationDate,2025-07-29T10:24:36+02:00*%
%TF.ProjectId,LED_FADER,4c45445f-4641-4444-9552-2e6b69636164,rev?*%
%TF.SameCoordinates,Original*%
%TF.FileFunction,Drillmap*%
%TF.FilePolarity,Positive*%
%FSLAX45Y45*%
G04 Gerber Fmt 4.5, Leading zero omitted, Abs format (unit mm)*
G04 Created by KiCad (PCBNEW 8.0.5) date 2025-07-29 10:24:36*
%MOMM*%
%LPD*%
G01*
G04 APERTURE LIST*
%ADD10C,0.200000*%
%ADD11C,0.100000*%
G04 APERTURE END LIST*
D10*
X12238000Y-7796000D02*
G75*
G02*
X12438000Y-7596000I200000J0D01*
G01*
X12438000Y-7596000D02*
X15038000Y-7596000D01*
X12238000Y-9796000D02*
X12238000Y-7796000D01*
X15038000Y-9996000D02*
X12438000Y-9996000D01*
X15238000Y-9796000D02*
G75*
G02*
X15038000Y-9996000I-200000J0D01*
G01*
X15038000Y-7596000D02*
G75*
G02*
X15238000Y-7796000I0J-200000D01*
G01*
X12438000Y-9996000D02*
G75*
G02*
X12238000Y-9796000I0J200000D01*
G01*
X15238000Y-7796000D02*
X15238000Y-9796000D01*
D11*
X12348000Y-9782000D02*
X12378000Y-9812000D01*
X12378000Y-9782000D02*
X12348000Y-9812000D01*
X12376000Y-9893000D02*
X12406000Y-9923000D01*
X12406000Y-9893000D02*
X12376000Y-9923000D01*
X12497000Y-9920000D02*
X12527000Y-9950000D01*
X12527000Y-9920000D02*
X12497000Y-9950000D01*
X12637000Y-9918000D02*
X12667000Y-9948000D01*
X12667000Y-9918000D02*
X12637000Y-9948000D01*
X12662000Y-9781000D02*
X12692000Y-9811000D01*
X12692000Y-9781000D02*
X12662000Y-9811000D01*
X14942000Y-7778000D02*
X14972000Y-7808000D01*
X14972000Y-7778000D02*
X14942000Y-7808000D01*
X14946500Y-9875000D02*
X14976500Y-9905000D01*
X14976500Y-9875000D02*
X14946500Y-9905000D01*
X14956000Y-9583000D02*
X14986000Y-9613000D01*
X14986000Y-9583000D02*
X14956000Y-9613000D01*
X15009000Y-8021000D02*
X15039000Y-8051000D01*
X15039000Y-8021000D02*
X15009000Y-8051000D01*
X15022000Y-7769000D02*
X15052000Y-7799000D01*
X15052000Y-7769000D02*
X15022000Y-7799000D01*
X15027500Y-9853000D02*
X15057500Y-9883000D01*
X15057500Y-9853000D02*
X15027500Y-9883000D01*
X15029000Y-9587000D02*
X15059000Y-9617000D01*
X15059000Y-9587000D02*
X15029000Y-9617000D01*
X15100000Y-7994000D02*
X15130000Y-8024000D01*
X15130000Y-7994000D02*
X15100000Y-8024000D01*
X15105000Y-7791000D02*
X15135000Y-7821000D01*
X15135000Y-7791000D02*
X15105000Y-7821000D01*
X15120000Y-7887000D02*
X15150000Y-7917000D01*
X15150000Y-7887000D02*
X15120000Y-7917000D01*
X15128000Y-9587000D02*
X15158000Y-9617000D01*
X15158000Y-9587000D02*
X15128000Y-9617000D01*
X15130500Y-9855000D02*
X15160500Y-9885000D01*
X15160500Y-9855000D02*
X15130500Y-9885000D01*
X12631500Y-8954000D02*
G75*
G02*
X12556500Y-8954000I-37500J0D01*
G01*
X12556500Y-8954000D02*
G75*
G02*
X12631500Y-8954000I37500J0D01*
G01*
X12631500Y-9081000D02*
G75*
G02*
X12556500Y-9081000I-37500J0D01*
G01*
X12556500Y-9081000D02*
G75*
G02*
X12631500Y-9081000I37500J0D01*
G01*
X12631500Y-9208000D02*
G75*
G02*
X12556500Y-9208000I-37500J0D01*
G01*
X12556500Y-9208000D02*
G75*
G02*
X12631500Y-9208000I37500J0D01*
G01*
X12906000Y-7827000D02*
X12906000Y-7907000D01*
X12866000Y-7867000D02*
X12946000Y-7867000D01*
X12906000Y-8589000D02*
X12906000Y-8669000D01*
X12866000Y-8629000D02*
X12946000Y-8629000D01*
X13038000Y-8807000D02*
X13038000Y-8887000D01*
X12998000Y-8847000D02*
X13078000Y-8847000D01*
X13038000Y-9569000D02*
X13038000Y-9649000D01*
X12998000Y-9609000D02*
X13078000Y-9609000D01*
X13160000Y-7827000D02*
X13160000Y-7907000D01*
X13120000Y-7867000D02*
X13200000Y-7867000D01*
X13160000Y-8589000D02*
X13160000Y-8669000D01*
X13120000Y-8629000D02*
X13200000Y-8629000D01*
X13414000Y-7827000D02*
X13414000Y-7907000D01*
X13374000Y-7867000D02*
X13454000Y-7867000D01*
X13414000Y-8589000D02*
X13414000Y-8669000D01*
X13374000Y-8629000D02*
X13454000Y-8629000D01*
X13668000Y-7827000D02*
X13668000Y-7907000D01*
X13628000Y-7867000D02*
X13708000Y-7867000D01*
X13668000Y-8589000D02*
X13668000Y-8669000D01*
X13628000Y-8629000D02*
X13708000Y-8629000D01*
X14151000Y-7861000D02*
X14151000Y-7941000D01*
X14111000Y-7901000D02*
X14191000Y-7901000D01*
X14151000Y-8623000D02*
X14151000Y-8703000D01*
X14111000Y-8663000D02*
X14191000Y-8663000D01*
X14451000Y-8916000D02*
X14451000Y-8996000D01*
X14411000Y-8956000D02*
X14491000Y-8956000D01*
X14451000Y-9678000D02*
X14451000Y-9758000D01*
X14411000Y-9718000D02*
X14491000Y-9718000D01*
X14455000Y-7864000D02*
X14455000Y-7944000D01*
X14415000Y-7904000D02*
X14495000Y-7904000D01*
X14455000Y-8626000D02*
X14455000Y-8706000D01*
X14415000Y-8666000D02*
X14495000Y-8666000D01*
X14772000Y-7869000D02*
X14772000Y-7949000D01*
X14732000Y-7909000D02*
X14812000Y-7909000D01*
X15022000Y-7869000D02*
X15022000Y-7949000D01*
X14982000Y-7909000D02*
X15062000Y-7909000D01*
X13393320Y-9492820D02*
X13393320Y-9429180D01*
X13329680Y-9429180D01*
X13329680Y-9492820D01*
X13393320Y-9492820D01*
X13647320Y-9238820D02*
X13647320Y-9175180D01*
X13583680Y-9175180D01*
X13583680Y-9238820D01*
X13647320Y-9238820D01*
X13647320Y-9492820D02*
X13647320Y-9429180D01*
X13583680Y-9429180D01*
X13583680Y-9492820D01*
X13647320Y-9492820D01*
X13647320Y-9746820D02*
X13647320Y-9683180D01*
X13583680Y-9683180D01*
X13583680Y-9746820D01*
X13647320Y-9746820D01*
X13901320Y-9238820D02*
X13901320Y-9175180D01*
X13837680Y-9175180D01*
X13837680Y-9238820D01*
X13901320Y-9238820D01*
X13901320Y-9492820D02*
X13901320Y-9429180D01*
X13837680Y-9429180D01*
X13837680Y-9492820D01*
X13901320Y-9492820D01*
X13901320Y-9746820D02*
X13901320Y-9683180D01*
X13837680Y-9683180D01*
X13837680Y-9746820D01*
X13901320Y-9746820D01*
X14155320Y-9492820D02*
X14155320Y-9429180D01*
X14091680Y-9429180D01*
X14091680Y-9492820D01*
X14155320Y-9492820D01*
X12520000Y-9587500D02*
X12570000Y-9537500D01*
X12520000Y-9487500D01*
X12470000Y-9537500D01*
X12520000Y-9587500D01*
X12520000Y-9841500D02*
X12570000Y-9791500D01*
X12520000Y-9741500D01*
X12470000Y-9791500D01*
X12520000Y-9841500D01*
X14788000Y-9780000D02*
X14838000Y-9730000D01*
X14788000Y-9680000D01*
X14738000Y-9730000D01*
X14788000Y-9780000D01*
X15042000Y-9780000D02*
X15092000Y-9730000D01*
X15042000Y-9680000D01*
X14992000Y-9730000D01*
X15042000Y-9780000D01*
D10*
X12488777Y-10317484D02*
X12488777Y-10117484D01*
X12488777Y-10117484D02*
X12536396Y-10117484D01*
X12536396Y-10117484D02*
X12564967Y-10127008D01*
X12564967Y-10127008D02*
X12584015Y-10146055D01*
X12584015Y-10146055D02*
X12593539Y-10165103D01*
X12593539Y-10165103D02*
X12603062Y-10203198D01*
X12603062Y-10203198D02*
X12603062Y-10231770D01*
X12603062Y-10231770D02*
X12593539Y-10269865D01*
X12593539Y-10269865D02*
X12584015Y-10288912D01*
X12584015Y-10288912D02*
X12564967Y-10307960D01*
X12564967Y-10307960D02*
X12536396Y-10317484D01*
X12536396Y-10317484D02*
X12488777Y-10317484D01*
X12688777Y-10317484D02*
X12688777Y-10184150D01*
X12688777Y-10222246D02*
X12698301Y-10203198D01*
X12698301Y-10203198D02*
X12707824Y-10193674D01*
X12707824Y-10193674D02*
X12726872Y-10184150D01*
X12726872Y-10184150D02*
X12745920Y-10184150D01*
X12812586Y-10317484D02*
X12812586Y-10184150D01*
X12812586Y-10117484D02*
X12803062Y-10127008D01*
X12803062Y-10127008D02*
X12812586Y-10136531D01*
X12812586Y-10136531D02*
X12822110Y-10127008D01*
X12822110Y-10127008D02*
X12812586Y-10117484D01*
X12812586Y-10117484D02*
X12812586Y-10136531D01*
X12936396Y-10317484D02*
X12917348Y-10307960D01*
X12917348Y-10307960D02*
X12907824Y-10288912D01*
X12907824Y-10288912D02*
X12907824Y-10117484D01*
X13041158Y-10317484D02*
X13022110Y-10307960D01*
X13022110Y-10307960D02*
X13012586Y-10288912D01*
X13012586Y-10288912D02*
X13012586Y-10117484D01*
X13269729Y-10317484D02*
X13269729Y-10117484D01*
X13269729Y-10117484D02*
X13336396Y-10260341D01*
X13336396Y-10260341D02*
X13403062Y-10117484D01*
X13403062Y-10117484D02*
X13403062Y-10317484D01*
X13584015Y-10317484D02*
X13584015Y-10212722D01*
X13584015Y-10212722D02*
X13574491Y-10193674D01*
X13574491Y-10193674D02*
X13555443Y-10184150D01*
X13555443Y-10184150D02*
X13517348Y-10184150D01*
X13517348Y-10184150D02*
X13498301Y-10193674D01*
X13584015Y-10307960D02*
X13564967Y-10317484D01*
X13564967Y-10317484D02*
X13517348Y-10317484D01*
X13517348Y-10317484D02*
X13498301Y-10307960D01*
X13498301Y-10307960D02*
X13488777Y-10288912D01*
X13488777Y-10288912D02*
X13488777Y-10269865D01*
X13488777Y-10269865D02*
X13498301Y-10250817D01*
X13498301Y-10250817D02*
X13517348Y-10241293D01*
X13517348Y-10241293D02*
X13564967Y-10241293D01*
X13564967Y-10241293D02*
X13584015Y-10231770D01*
X13679253Y-10184150D02*
X13679253Y-10384150D01*
X13679253Y-10193674D02*
X13698301Y-10184150D01*
X13698301Y-10184150D02*
X13736396Y-10184150D01*
X13736396Y-10184150D02*
X13755443Y-10193674D01*
X13755443Y-10193674D02*
X13764967Y-10203198D01*
X13764967Y-10203198D02*
X13774491Y-10222246D01*
X13774491Y-10222246D02*
X13774491Y-10279389D01*
X13774491Y-10279389D02*
X13764967Y-10298436D01*
X13764967Y-10298436D02*
X13755443Y-10307960D01*
X13755443Y-10307960D02*
X13736396Y-10317484D01*
X13736396Y-10317484D02*
X13698301Y-10317484D01*
X13698301Y-10317484D02*
X13679253Y-10307960D01*
X13860205Y-10298436D02*
X13869729Y-10307960D01*
X13869729Y-10307960D02*
X13860205Y-10317484D01*
X13860205Y-10317484D02*
X13850682Y-10307960D01*
X13850682Y-10307960D02*
X13860205Y-10298436D01*
X13860205Y-10298436D02*
X13860205Y-10317484D01*
X13860205Y-10193674D02*
X13869729Y-10203198D01*
X13869729Y-10203198D02*
X13860205Y-10212722D01*
X13860205Y-10212722D02*
X13850682Y-10203198D01*
X13850682Y-10203198D02*
X13860205Y-10193674D01*
X13860205Y-10193674D02*
X13860205Y-10212722D01*
D11*
X12198000Y-10631000D02*
X12228000Y-10661000D01*
X12228000Y-10631000D02*
X12198000Y-10661000D01*
D10*
X12526872Y-10537484D02*
X12545920Y-10537484D01*
X12545920Y-10537484D02*
X12564967Y-10547008D01*
X12564967Y-10547008D02*
X12574491Y-10556531D01*
X12574491Y-10556531D02*
X12584015Y-10575579D01*
X12584015Y-10575579D02*
X12593539Y-10613674D01*
X12593539Y-10613674D02*
X12593539Y-10661293D01*
X12593539Y-10661293D02*
X12584015Y-10699389D01*
X12584015Y-10699389D02*
X12574491Y-10718436D01*
X12574491Y-10718436D02*
X12564967Y-10727960D01*
X12564967Y-10727960D02*
X12545920Y-10737484D01*
X12545920Y-10737484D02*
X12526872Y-10737484D01*
X12526872Y-10737484D02*
X12507824Y-10727960D01*
X12507824Y-10727960D02*
X12498301Y-10718436D01*
X12498301Y-10718436D02*
X12488777Y-10699389D01*
X12488777Y-10699389D02*
X12479253Y-10661293D01*
X12479253Y-10661293D02*
X12479253Y-10613674D01*
X12479253Y-10613674D02*
X12488777Y-10575579D01*
X12488777Y-10575579D02*
X12498301Y-10556531D01*
X12498301Y-10556531D02*
X12507824Y-10547008D01*
X12507824Y-10547008D02*
X12526872Y-10537484D01*
X12679253Y-10718436D02*
X12688777Y-10727960D01*
X12688777Y-10727960D02*
X12679253Y-10737484D01*
X12679253Y-10737484D02*
X12669729Y-10727960D01*
X12669729Y-10727960D02*
X12679253Y-10718436D01*
X12679253Y-10718436D02*
X12679253Y-10737484D01*
X12755443Y-10537484D02*
X12879253Y-10537484D01*
X12879253Y-10537484D02*
X12812586Y-10613674D01*
X12812586Y-10613674D02*
X12841158Y-10613674D01*
X12841158Y-10613674D02*
X12860205Y-10623198D01*
X12860205Y-10623198D02*
X12869729Y-10632722D01*
X12869729Y-10632722D02*
X12879253Y-10651770D01*
X12879253Y-10651770D02*
X12879253Y-10699389D01*
X12879253Y-10699389D02*
X12869729Y-10718436D01*
X12869729Y-10718436D02*
X12860205Y-10727960D01*
X12860205Y-10727960D02*
X12841158Y-10737484D01*
X12841158Y-10737484D02*
X12784015Y-10737484D01*
X12784015Y-10737484D02*
X12764967Y-10727960D01*
X12764967Y-10727960D02*
X12755443Y-10718436D01*
X13003062Y-10537484D02*
X13022110Y-10537484D01*
X13022110Y-10537484D02*
X13041158Y-10547008D01*
X13041158Y-10547008D02*
X13050682Y-10556531D01*
X13050682Y-10556531D02*
X13060205Y-10575579D01*
X13060205Y-10575579D02*
X13069729Y-10613674D01*
X13069729Y-10613674D02*
X13069729Y-10661293D01*
X13069729Y-10661293D02*
X13060205Y-10699389D01*
X13060205Y-10699389D02*
X13050682Y-10718436D01*
X13050682Y-10718436D02*
X13041158Y-10727960D01*
X13041158Y-10727960D02*
X13022110Y-10737484D01*
X13022110Y-10737484D02*
X13003062Y-10737484D01*
X13003062Y-10737484D02*
X12984015Y-10727960D01*
X12984015Y-10727960D02*
X12974491Y-10718436D01*
X12974491Y-10718436D02*
X12964967Y-10699389D01*
X12964967Y-10699389D02*
X12955443Y-10661293D01*
X12955443Y-10661293D02*
X12955443Y-10613674D01*
X12955443Y-10613674D02*
X12964967Y-10575579D01*
X12964967Y-10575579D02*
X12974491Y-10556531D01*
X12974491Y-10556531D02*
X12984015Y-10547008D01*
X12984015Y-10547008D02*
X13003062Y-10537484D01*
X13193539Y-10537484D02*
X13212586Y-10537484D01*
X13212586Y-10537484D02*
X13231634Y-10547008D01*
X13231634Y-10547008D02*
X13241158Y-10556531D01*
X13241158Y-10556531D02*
X13250682Y-10575579D01*
X13250682Y-10575579D02*
X13260205Y-10613674D01*
X13260205Y-10613674D02*
X13260205Y-10661293D01*
X13260205Y-10661293D02*
X13250682Y-10699389D01*
X13250682Y-10699389D02*
X13241158Y-10718436D01*
X13241158Y-10718436D02*
X13231634Y-10727960D01*
X13231634Y-10727960D02*
X13212586Y-10737484D01*
X13212586Y-10737484D02*
X13193539Y-10737484D01*
X13193539Y-10737484D02*
X13174491Y-10727960D01*
X13174491Y-10727960D02*
X13164967Y-10718436D01*
X13164967Y-10718436D02*
X13155443Y-10699389D01*
X13155443Y-10699389D02*
X13145920Y-10661293D01*
X13145920Y-10661293D02*
X13145920Y-10613674D01*
X13145920Y-10613674D02*
X13155443Y-10575579D01*
X13155443Y-10575579D02*
X13164967Y-10556531D01*
X13164967Y-10556531D02*
X13174491Y-10547008D01*
X13174491Y-10547008D02*
X13193539Y-10537484D01*
X13345920Y-10737484D02*
X13345920Y-10604150D01*
X13345920Y-10623198D02*
X13355443Y-10613674D01*
X13355443Y-10613674D02*
X13374491Y-10604150D01*
X13374491Y-10604150D02*
X13403063Y-10604150D01*
X13403063Y-10604150D02*
X13422110Y-10613674D01*
X13422110Y-10613674D02*
X13431634Y-10632722D01*
X13431634Y-10632722D02*
X13431634Y-10737484D01*
X13431634Y-10632722D02*
X13441158Y-10613674D01*
X13441158Y-10613674D02*
X13460205Y-10604150D01*
X13460205Y-10604150D02*
X13488777Y-10604150D01*
X13488777Y-10604150D02*
X13507824Y-10613674D01*
X13507824Y-10613674D02*
X13517348Y-10632722D01*
X13517348Y-10632722D02*
X13517348Y-10737484D01*
X13612586Y-10737484D02*
X13612586Y-10604150D01*
X13612586Y-10623198D02*
X13622110Y-10613674D01*
X13622110Y-10613674D02*
X13641158Y-10604150D01*
X13641158Y-10604150D02*
X13669729Y-10604150D01*
X13669729Y-10604150D02*
X13688777Y-10613674D01*
X13688777Y-10613674D02*
X13698301Y-10632722D01*
X13698301Y-10632722D02*
X13698301Y-10737484D01*
X13698301Y-10632722D02*
X13707824Y-10613674D01*
X13707824Y-10613674D02*
X13726872Y-10604150D01*
X13726872Y-10604150D02*
X13755443Y-10604150D01*
X13755443Y-10604150D02*
X13774491Y-10613674D01*
X13774491Y-10613674D02*
X13784015Y-10632722D01*
X13784015Y-10632722D02*
X13784015Y-10737484D01*
X14174491Y-10527960D02*
X14003063Y-10785103D01*
X14431634Y-10537484D02*
X14450682Y-10537484D01*
X14450682Y-10537484D02*
X14469729Y-10547008D01*
X14469729Y-10547008D02*
X14479253Y-10556531D01*
X14479253Y-10556531D02*
X14488777Y-10575579D01*
X14488777Y-10575579D02*
X14498301Y-10613674D01*
X14498301Y-10613674D02*
X14498301Y-10661293D01*
X14498301Y-10661293D02*
X14488777Y-10699389D01*
X14488777Y-10699389D02*
X14479253Y-10718436D01*
X14479253Y-10718436D02*
X14469729Y-10727960D01*
X14469729Y-10727960D02*
X14450682Y-10737484D01*
X14450682Y-10737484D02*
X14431634Y-10737484D01*
X14431634Y-10737484D02*
X14412586Y-10727960D01*
X14412586Y-10727960D02*
X14403063Y-10718436D01*
X14403063Y-10718436D02*
X14393539Y-10699389D01*
X14393539Y-10699389D02*
X14384015Y-10661293D01*
X14384015Y-10661293D02*
X14384015Y-10613674D01*
X14384015Y-10613674D02*
X14393539Y-10575579D01*
X14393539Y-10575579D02*
X14403063Y-10556531D01*
X14403063Y-10556531D02*
X14412586Y-10547008D01*
X14412586Y-10547008D02*
X14431634Y-10537484D01*
X14584015Y-10718436D02*
X14593539Y-10727960D01*
X14593539Y-10727960D02*
X14584015Y-10737484D01*
X14584015Y-10737484D02*
X14574491Y-10727960D01*
X14574491Y-10727960D02*
X14584015Y-10718436D01*
X14584015Y-10718436D02*
X14584015Y-10737484D01*
X14717348Y-10537484D02*
X14736396Y-10537484D01*
X14736396Y-10537484D02*
X14755444Y-10547008D01*
X14755444Y-10547008D02*
X14764967Y-10556531D01*
X14764967Y-10556531D02*
X14774491Y-10575579D01*
X14774491Y-10575579D02*
X14784015Y-10613674D01*
X14784015Y-10613674D02*
X14784015Y-10661293D01*
X14784015Y-10661293D02*
X14774491Y-10699389D01*
X14774491Y-10699389D02*
X14764967Y-10718436D01*
X14764967Y-10718436D02*
X14755444Y-10727960D01*
X14755444Y-10727960D02*
X14736396Y-10737484D01*
X14736396Y-10737484D02*
X14717348Y-10737484D01*
X14717348Y-10737484D02*
X14698301Y-10727960D01*
X14698301Y-10727960D02*
X14688777Y-10718436D01*
X14688777Y-10718436D02*
X14679253Y-10699389D01*
X14679253Y-10699389D02*
X14669729Y-10661293D01*
X14669729Y-10661293D02*
X14669729Y-10613674D01*
X14669729Y-10613674D02*
X14679253Y-10575579D01*
X14679253Y-10575579D02*
X14688777Y-10556531D01*
X14688777Y-10556531D02*
X14698301Y-10547008D01*
X14698301Y-10547008D02*
X14717348Y-10537484D01*
X14974491Y-10737484D02*
X14860206Y-10737484D01*
X14917348Y-10737484D02*
X14917348Y-10537484D01*
X14917348Y-10537484D02*
X14898301Y-10566055D01*
X14898301Y-10566055D02*
X14879253Y-10585103D01*
X14879253Y-10585103D02*
X14860206Y-10594627D01*
X15164967Y-10737484D02*
X15050682Y-10737484D01*
X15107825Y-10737484D02*
X15107825Y-10537484D01*
X15107825Y-10537484D02*
X15088777Y-10566055D01*
X15088777Y-10566055D02*
X15069729Y-10585103D01*
X15069729Y-10585103D02*
X15050682Y-10594627D01*
X15279253Y-10623198D02*
X15260206Y-10613674D01*
X15260206Y-10613674D02*
X15250682Y-10604150D01*
X15250682Y-10604150D02*
X15241158Y-10585103D01*
X15241158Y-10585103D02*
X15241158Y-10575579D01*
X15241158Y-10575579D02*
X15250682Y-10556531D01*
X15250682Y-10556531D02*
X15260206Y-10547008D01*
X15260206Y-10547008D02*
X15279253Y-10537484D01*
X15279253Y-10537484D02*
X15317348Y-10537484D01*
X15317348Y-10537484D02*
X15336396Y-10547008D01*
X15336396Y-10547008D02*
X15345920Y-10556531D01*
X15345920Y-10556531D02*
X15355444Y-10575579D01*
X15355444Y-10575579D02*
X15355444Y-10585103D01*
X15355444Y-10585103D02*
X15345920Y-10604150D01*
X15345920Y-10604150D02*
X15336396Y-10613674D01*
X15336396Y-10613674D02*
X15317348Y-10623198D01*
X15317348Y-10623198D02*
X15279253Y-10623198D01*
X15279253Y-10623198D02*
X15260206Y-10632722D01*
X15260206Y-10632722D02*
X15250682Y-10642246D01*
X15250682Y-10642246D02*
X15241158Y-10661293D01*
X15241158Y-10661293D02*
X15241158Y-10699389D01*
X15241158Y-10699389D02*
X15250682Y-10718436D01*
X15250682Y-10718436D02*
X15260206Y-10727960D01*
X15260206Y-10727960D02*
X15279253Y-10737484D01*
X15279253Y-10737484D02*
X15317348Y-10737484D01*
X15317348Y-10737484D02*
X15336396Y-10727960D01*
X15336396Y-10727960D02*
X15345920Y-10718436D01*
X15345920Y-10718436D02*
X15355444Y-10699389D01*
X15355444Y-10699389D02*
X15355444Y-10661293D01*
X15355444Y-10661293D02*
X15345920Y-10642246D01*
X15345920Y-10642246D02*
X15336396Y-10632722D01*
X15336396Y-10632722D02*
X15317348Y-10623198D01*
X15431634Y-10537484D02*
X15431634Y-10575579D01*
X15507825Y-10537484D02*
X15507825Y-10575579D01*
X15803063Y-10813674D02*
X15793539Y-10804150D01*
X15793539Y-10804150D02*
X15774491Y-10775579D01*
X15774491Y-10775579D02*
X15764968Y-10756531D01*
X15764968Y-10756531D02*
X15755444Y-10727960D01*
X15755444Y-10727960D02*
X15745920Y-10680341D01*
X15745920Y-10680341D02*
X15745920Y-10642246D01*
X15745920Y-10642246D02*
X15755444Y-10594627D01*
X15755444Y-10594627D02*
X15764968Y-10566055D01*
X15764968Y-10566055D02*
X15774491Y-10547008D01*
X15774491Y-10547008D02*
X15793539Y-10518436D01*
X15793539Y-10518436D02*
X15803063Y-10508912D01*
X15984015Y-10737484D02*
X15869729Y-10737484D01*
X15926872Y-10737484D02*
X15926872Y-10537484D01*
X15926872Y-10537484D02*
X15907825Y-10566055D01*
X15907825Y-10566055D02*
X15888777Y-10585103D01*
X15888777Y-10585103D02*
X15869729Y-10594627D01*
X16050682Y-10537484D02*
X16184015Y-10537484D01*
X16184015Y-10537484D02*
X16098301Y-10737484D01*
X16412587Y-10737484D02*
X16412587Y-10537484D01*
X16498301Y-10737484D02*
X16498301Y-10632722D01*
X16498301Y-10632722D02*
X16488777Y-10613674D01*
X16488777Y-10613674D02*
X16469730Y-10604150D01*
X16469730Y-10604150D02*
X16441158Y-10604150D01*
X16441158Y-10604150D02*
X16422110Y-10613674D01*
X16422110Y-10613674D02*
X16412587Y-10623198D01*
X16622110Y-10737484D02*
X16603063Y-10727960D01*
X16603063Y-10727960D02*
X16593539Y-10718436D01*
X16593539Y-10718436D02*
X16584015Y-10699389D01*
X16584015Y-10699389D02*
X16584015Y-10642246D01*
X16584015Y-10642246D02*
X16593539Y-10623198D01*
X16593539Y-10623198D02*
X16603063Y-10613674D01*
X16603063Y-10613674D02*
X16622110Y-10604150D01*
X16622110Y-10604150D02*
X16650682Y-10604150D01*
X16650682Y-10604150D02*
X16669730Y-10613674D01*
X16669730Y-10613674D02*
X16679253Y-10623198D01*
X16679253Y-10623198D02*
X16688777Y-10642246D01*
X16688777Y-10642246D02*
X16688777Y-10699389D01*
X16688777Y-10699389D02*
X16679253Y-10718436D01*
X16679253Y-10718436D02*
X16669730Y-10727960D01*
X16669730Y-10727960D02*
X16650682Y-10737484D01*
X16650682Y-10737484D02*
X16622110Y-10737484D01*
X16803063Y-10737484D02*
X16784015Y-10727960D01*
X16784015Y-10727960D02*
X16774491Y-10708912D01*
X16774491Y-10708912D02*
X16774491Y-10537484D01*
X16955444Y-10727960D02*
X16936396Y-10737484D01*
X16936396Y-10737484D02*
X16898301Y-10737484D01*
X16898301Y-10737484D02*
X16879253Y-10727960D01*
X16879253Y-10727960D02*
X16869730Y-10708912D01*
X16869730Y-10708912D02*
X16869730Y-10632722D01*
X16869730Y-10632722D02*
X16879253Y-10613674D01*
X16879253Y-10613674D02*
X16898301Y-10604150D01*
X16898301Y-10604150D02*
X16936396Y-10604150D01*
X16936396Y-10604150D02*
X16955444Y-10613674D01*
X16955444Y-10613674D02*
X16964968Y-10632722D01*
X16964968Y-10632722D02*
X16964968Y-10651770D01*
X16964968Y-10651770D02*
X16869730Y-10670817D01*
X17041158Y-10727960D02*
X17060206Y-10737484D01*
X17060206Y-10737484D02*
X17098301Y-10737484D01*
X17098301Y-10737484D02*
X17117349Y-10727960D01*
X17117349Y-10727960D02*
X17126873Y-10708912D01*
X17126873Y-10708912D02*
X17126873Y-10699389D01*
X17126873Y-10699389D02*
X17117349Y-10680341D01*
X17117349Y-10680341D02*
X17098301Y-10670817D01*
X17098301Y-10670817D02*
X17069730Y-10670817D01*
X17069730Y-10670817D02*
X17050682Y-10661293D01*
X17050682Y-10661293D02*
X17041158Y-10642246D01*
X17041158Y-10642246D02*
X17041158Y-10632722D01*
X17041158Y-10632722D02*
X17050682Y-10613674D01*
X17050682Y-10613674D02*
X17069730Y-10604150D01*
X17069730Y-10604150D02*
X17098301Y-10604150D01*
X17098301Y-10604150D02*
X17117349Y-10613674D01*
X17193539Y-10813674D02*
X17203063Y-10804150D01*
X17203063Y-10804150D02*
X17222111Y-10775579D01*
X17222111Y-10775579D02*
X17231634Y-10756531D01*
X17231634Y-10756531D02*
X17241158Y-10727960D01*
X17241158Y-10727960D02*
X17250682Y-10680341D01*
X17250682Y-10680341D02*
X17250682Y-10642246D01*
X17250682Y-10642246D02*
X17241158Y-10594627D01*
X17241158Y-10594627D02*
X17231634Y-10566055D01*
X17231634Y-10566055D02*
X17222111Y-10547008D01*
X17222111Y-10547008D02*
X17203063Y-10518436D01*
X17203063Y-10518436D02*
X17193539Y-10508912D01*
D11*
X12228000Y-10910000D02*
G75*
G02*
X12153000Y-10910000I-37500J0D01*
G01*
X12153000Y-10910000D02*
G75*
G02*
X12228000Y-10910000I37500J0D01*
G01*
D10*
X12526872Y-10801484D02*
X12545920Y-10801484D01*
X12545920Y-10801484D02*
X12564967Y-10811008D01*
X12564967Y-10811008D02*
X12574491Y-10820531D01*
X12574491Y-10820531D02*
X12584015Y-10839579D01*
X12584015Y-10839579D02*
X12593539Y-10877674D01*
X12593539Y-10877674D02*
X12593539Y-10925293D01*
X12593539Y-10925293D02*
X12584015Y-10963389D01*
X12584015Y-10963389D02*
X12574491Y-10982436D01*
X12574491Y-10982436D02*
X12564967Y-10991960D01*
X12564967Y-10991960D02*
X12545920Y-11001484D01*
X12545920Y-11001484D02*
X12526872Y-11001484D01*
X12526872Y-11001484D02*
X12507824Y-10991960D01*
X12507824Y-10991960D02*
X12498301Y-10982436D01*
X12498301Y-10982436D02*
X12488777Y-10963389D01*
X12488777Y-10963389D02*
X12479253Y-10925293D01*
X12479253Y-10925293D02*
X12479253Y-10877674D01*
X12479253Y-10877674D02*
X12488777Y-10839579D01*
X12488777Y-10839579D02*
X12498301Y-10820531D01*
X12498301Y-10820531D02*
X12507824Y-10811008D01*
X12507824Y-10811008D02*
X12526872Y-10801484D01*
X12679253Y-10982436D02*
X12688777Y-10991960D01*
X12688777Y-10991960D02*
X12679253Y-11001484D01*
X12679253Y-11001484D02*
X12669729Y-10991960D01*
X12669729Y-10991960D02*
X12679253Y-10982436D01*
X12679253Y-10982436D02*
X12679253Y-11001484D01*
X12755443Y-10801484D02*
X12888777Y-10801484D01*
X12888777Y-10801484D02*
X12803062Y-11001484D01*
X13060205Y-10801484D02*
X12964967Y-10801484D01*
X12964967Y-10801484D02*
X12955443Y-10896722D01*
X12955443Y-10896722D02*
X12964967Y-10887198D01*
X12964967Y-10887198D02*
X12984015Y-10877674D01*
X12984015Y-10877674D02*
X13031634Y-10877674D01*
X13031634Y-10877674D02*
X13050682Y-10887198D01*
X13050682Y-10887198D02*
X13060205Y-10896722D01*
X13060205Y-10896722D02*
X13069729Y-10915770D01*
X13069729Y-10915770D02*
X13069729Y-10963389D01*
X13069729Y-10963389D02*
X13060205Y-10982436D01*
X13060205Y-10982436D02*
X13050682Y-10991960D01*
X13050682Y-10991960D02*
X13031634Y-11001484D01*
X13031634Y-11001484D02*
X12984015Y-11001484D01*
X12984015Y-11001484D02*
X12964967Y-10991960D01*
X12964967Y-10991960D02*
X12955443Y-10982436D01*
X13193539Y-10801484D02*
X13212586Y-10801484D01*
X13212586Y-10801484D02*
X13231634Y-10811008D01*
X13231634Y-10811008D02*
X13241158Y-10820531D01*
X13241158Y-10820531D02*
X13250682Y-10839579D01*
X13250682Y-10839579D02*
X13260205Y-10877674D01*
X13260205Y-10877674D02*
X13260205Y-10925293D01*
X13260205Y-10925293D02*
X13250682Y-10963389D01*
X13250682Y-10963389D02*
X13241158Y-10982436D01*
X13241158Y-10982436D02*
X13231634Y-10991960D01*
X13231634Y-10991960D02*
X13212586Y-11001484D01*
X13212586Y-11001484D02*
X13193539Y-11001484D01*
X13193539Y-11001484D02*
X13174491Y-10991960D01*
X13174491Y-10991960D02*
X13164967Y-10982436D01*
X13164967Y-10982436D02*
X13155443Y-10963389D01*
X13155443Y-10963389D02*
X13145920Y-10925293D01*
X13145920Y-10925293D02*
X13145920Y-10877674D01*
X13145920Y-10877674D02*
X13155443Y-10839579D01*
X13155443Y-10839579D02*
X13164967Y-10820531D01*
X13164967Y-10820531D02*
X13174491Y-10811008D01*
X13174491Y-10811008D02*
X13193539Y-10801484D01*
X13345920Y-11001484D02*
X13345920Y-10868150D01*
X13345920Y-10887198D02*
X13355443Y-10877674D01*
X13355443Y-10877674D02*
X13374491Y-10868150D01*
X13374491Y-10868150D02*
X13403063Y-10868150D01*
X13403063Y-10868150D02*
X13422110Y-10877674D01*
X13422110Y-10877674D02*
X13431634Y-10896722D01*
X13431634Y-10896722D02*
X13431634Y-11001484D01*
X13431634Y-10896722D02*
X13441158Y-10877674D01*
X13441158Y-10877674D02*
X13460205Y-10868150D01*
X13460205Y-10868150D02*
X13488777Y-10868150D01*
X13488777Y-10868150D02*
X13507824Y-10877674D01*
X13507824Y-10877674D02*
X13517348Y-10896722D01*
X13517348Y-10896722D02*
X13517348Y-11001484D01*
X13612586Y-11001484D02*
X13612586Y-10868150D01*
X13612586Y-10887198D02*
X13622110Y-10877674D01*
X13622110Y-10877674D02*
X13641158Y-10868150D01*
X13641158Y-10868150D02*
X13669729Y-10868150D01*
X13669729Y-10868150D02*
X13688777Y-10877674D01*
X13688777Y-10877674D02*
X13698301Y-10896722D01*
X13698301Y-10896722D02*
X13698301Y-11001484D01*
X13698301Y-10896722D02*
X13707824Y-10877674D01*
X13707824Y-10877674D02*
X13726872Y-10868150D01*
X13726872Y-10868150D02*
X13755443Y-10868150D01*
X13755443Y-10868150D02*
X13774491Y-10877674D01*
X13774491Y-10877674D02*
X13784015Y-10896722D01*
X13784015Y-10896722D02*
X13784015Y-11001484D01*
X14174491Y-10791960D02*
X14003063Y-11049103D01*
X14431634Y-10801484D02*
X14450682Y-10801484D01*
X14450682Y-10801484D02*
X14469729Y-10811008D01*
X14469729Y-10811008D02*
X14479253Y-10820531D01*
X14479253Y-10820531D02*
X14488777Y-10839579D01*
X14488777Y-10839579D02*
X14498301Y-10877674D01*
X14498301Y-10877674D02*
X14498301Y-10925293D01*
X14498301Y-10925293D02*
X14488777Y-10963389D01*
X14488777Y-10963389D02*
X14479253Y-10982436D01*
X14479253Y-10982436D02*
X14469729Y-10991960D01*
X14469729Y-10991960D02*
X14450682Y-11001484D01*
X14450682Y-11001484D02*
X14431634Y-11001484D01*
X14431634Y-11001484D02*
X14412586Y-10991960D01*
X14412586Y-10991960D02*
X14403063Y-10982436D01*
X14403063Y-10982436D02*
X14393539Y-10963389D01*
X14393539Y-10963389D02*
X14384015Y-10925293D01*
X14384015Y-10925293D02*
X14384015Y-10877674D01*
X14384015Y-10877674D02*
X14393539Y-10839579D01*
X14393539Y-10839579D02*
X14403063Y-10820531D01*
X14403063Y-10820531D02*
X14412586Y-10811008D01*
X14412586Y-10811008D02*
X14431634Y-10801484D01*
X14584015Y-10982436D02*
X14593539Y-10991960D01*
X14593539Y-10991960D02*
X14584015Y-11001484D01*
X14584015Y-11001484D02*
X14574491Y-10991960D01*
X14574491Y-10991960D02*
X14584015Y-10982436D01*
X14584015Y-10982436D02*
X14584015Y-11001484D01*
X14717348Y-10801484D02*
X14736396Y-10801484D01*
X14736396Y-10801484D02*
X14755444Y-10811008D01*
X14755444Y-10811008D02*
X14764967Y-10820531D01*
X14764967Y-10820531D02*
X14774491Y-10839579D01*
X14774491Y-10839579D02*
X14784015Y-10877674D01*
X14784015Y-10877674D02*
X14784015Y-10925293D01*
X14784015Y-10925293D02*
X14774491Y-10963389D01*
X14774491Y-10963389D02*
X14764967Y-10982436D01*
X14764967Y-10982436D02*
X14755444Y-10991960D01*
X14755444Y-10991960D02*
X14736396Y-11001484D01*
X14736396Y-11001484D02*
X14717348Y-11001484D01*
X14717348Y-11001484D02*
X14698301Y-10991960D01*
X14698301Y-10991960D02*
X14688777Y-10982436D01*
X14688777Y-10982436D02*
X14679253Y-10963389D01*
X14679253Y-10963389D02*
X14669729Y-10925293D01*
X14669729Y-10925293D02*
X14669729Y-10877674D01*
X14669729Y-10877674D02*
X14679253Y-10839579D01*
X14679253Y-10839579D02*
X14688777Y-10820531D01*
X14688777Y-10820531D02*
X14698301Y-10811008D01*
X14698301Y-10811008D02*
X14717348Y-10801484D01*
X14860206Y-10820531D02*
X14869729Y-10811008D01*
X14869729Y-10811008D02*
X14888777Y-10801484D01*
X14888777Y-10801484D02*
X14936396Y-10801484D01*
X14936396Y-10801484D02*
X14955444Y-10811008D01*
X14955444Y-10811008D02*
X14964967Y-10820531D01*
X14964967Y-10820531D02*
X14974491Y-10839579D01*
X14974491Y-10839579D02*
X14974491Y-10858627D01*
X14974491Y-10858627D02*
X14964967Y-10887198D01*
X14964967Y-10887198D02*
X14850682Y-11001484D01*
X14850682Y-11001484D02*
X14974491Y-11001484D01*
X15069729Y-11001484D02*
X15107825Y-11001484D01*
X15107825Y-11001484D02*
X15126872Y-10991960D01*
X15126872Y-10991960D02*
X15136396Y-10982436D01*
X15136396Y-10982436D02*
X15155444Y-10953865D01*
X15155444Y-10953865D02*
X15164967Y-10915770D01*
X15164967Y-10915770D02*
X15164967Y-10839579D01*
X15164967Y-10839579D02*
X15155444Y-10820531D01*
X15155444Y-10820531D02*
X15145920Y-10811008D01*
X15145920Y-10811008D02*
X15126872Y-10801484D01*
X15126872Y-10801484D02*
X15088777Y-10801484D01*
X15088777Y-10801484D02*
X15069729Y-10811008D01*
X15069729Y-10811008D02*
X15060206Y-10820531D01*
X15060206Y-10820531D02*
X15050682Y-10839579D01*
X15050682Y-10839579D02*
X15050682Y-10887198D01*
X15050682Y-10887198D02*
X15060206Y-10906246D01*
X15060206Y-10906246D02*
X15069729Y-10915770D01*
X15069729Y-10915770D02*
X15088777Y-10925293D01*
X15088777Y-10925293D02*
X15126872Y-10925293D01*
X15126872Y-10925293D02*
X15145920Y-10915770D01*
X15145920Y-10915770D02*
X15155444Y-10906246D01*
X15155444Y-10906246D02*
X15164967Y-10887198D01*
X15345920Y-10801484D02*
X15250682Y-10801484D01*
X15250682Y-10801484D02*
X15241158Y-10896722D01*
X15241158Y-10896722D02*
X15250682Y-10887198D01*
X15250682Y-10887198D02*
X15269729Y-10877674D01*
X15269729Y-10877674D02*
X15317348Y-10877674D01*
X15317348Y-10877674D02*
X15336396Y-10887198D01*
X15336396Y-10887198D02*
X15345920Y-10896722D01*
X15345920Y-10896722D02*
X15355444Y-10915770D01*
X15355444Y-10915770D02*
X15355444Y-10963389D01*
X15355444Y-10963389D02*
X15345920Y-10982436D01*
X15345920Y-10982436D02*
X15336396Y-10991960D01*
X15336396Y-10991960D02*
X15317348Y-11001484D01*
X15317348Y-11001484D02*
X15269729Y-11001484D01*
X15269729Y-11001484D02*
X15250682Y-10991960D01*
X15250682Y-10991960D02*
X15241158Y-10982436D01*
X15431634Y-10801484D02*
X15431634Y-10839579D01*
X15507825Y-10801484D02*
X15507825Y-10839579D01*
X15803063Y-11077674D02*
X15793539Y-11068150D01*
X15793539Y-11068150D02*
X15774491Y-11039579D01*
X15774491Y-11039579D02*
X15764968Y-11020531D01*
X15764968Y-11020531D02*
X15755444Y-10991960D01*
X15755444Y-10991960D02*
X15745920Y-10944341D01*
X15745920Y-10944341D02*
X15745920Y-10906246D01*
X15745920Y-10906246D02*
X15755444Y-10858627D01*
X15755444Y-10858627D02*
X15764968Y-10830055D01*
X15764968Y-10830055D02*
X15774491Y-10811008D01*
X15774491Y-10811008D02*
X15793539Y-10782436D01*
X15793539Y-10782436D02*
X15803063Y-10772912D01*
X15860206Y-10801484D02*
X15984015Y-10801484D01*
X15984015Y-10801484D02*
X15917348Y-10877674D01*
X15917348Y-10877674D02*
X15945920Y-10877674D01*
X15945920Y-10877674D02*
X15964968Y-10887198D01*
X15964968Y-10887198D02*
X15974491Y-10896722D01*
X15974491Y-10896722D02*
X15984015Y-10915770D01*
X15984015Y-10915770D02*
X15984015Y-10963389D01*
X15984015Y-10963389D02*
X15974491Y-10982436D01*
X15974491Y-10982436D02*
X15964968Y-10991960D01*
X15964968Y-10991960D02*
X15945920Y-11001484D01*
X15945920Y-11001484D02*
X15888777Y-11001484D01*
X15888777Y-11001484D02*
X15869729Y-10991960D01*
X15869729Y-10991960D02*
X15860206Y-10982436D01*
X16222110Y-11001484D02*
X16222110Y-10801484D01*
X16307825Y-11001484D02*
X16307825Y-10896722D01*
X16307825Y-10896722D02*
X16298301Y-10877674D01*
X16298301Y-10877674D02*
X16279253Y-10868150D01*
X16279253Y-10868150D02*
X16250682Y-10868150D01*
X16250682Y-10868150D02*
X16231634Y-10877674D01*
X16231634Y-10877674D02*
X16222110Y-10887198D01*
X16431634Y-11001484D02*
X16412587Y-10991960D01*
X16412587Y-10991960D02*
X16403063Y-10982436D01*
X16403063Y-10982436D02*
X16393539Y-10963389D01*
X16393539Y-10963389D02*
X16393539Y-10906246D01*
X16393539Y-10906246D02*
X16403063Y-10887198D01*
X16403063Y-10887198D02*
X16412587Y-10877674D01*
X16412587Y-10877674D02*
X16431634Y-10868150D01*
X16431634Y-10868150D02*
X16460206Y-10868150D01*
X16460206Y-10868150D02*
X16479253Y-10877674D01*
X16479253Y-10877674D02*
X16488777Y-10887198D01*
X16488777Y-10887198D02*
X16498301Y-10906246D01*
X16498301Y-10906246D02*
X16498301Y-10963389D01*
X16498301Y-10963389D02*
X16488777Y-10982436D01*
X16488777Y-10982436D02*
X16479253Y-10991960D01*
X16479253Y-10991960D02*
X16460206Y-11001484D01*
X16460206Y-11001484D02*
X16431634Y-11001484D01*
X16612587Y-11001484D02*
X16593539Y-10991960D01*
X16593539Y-10991960D02*
X16584015Y-10972912D01*
X16584015Y-10972912D02*
X16584015Y-10801484D01*
X16764968Y-10991960D02*
X16745920Y-11001484D01*
X16745920Y-11001484D02*
X16707825Y-11001484D01*
X16707825Y-11001484D02*
X16688777Y-10991960D01*
X16688777Y-10991960D02*
X16679253Y-10972912D01*
X16679253Y-10972912D02*
X16679253Y-10896722D01*
X16679253Y-10896722D02*
X16688777Y-10877674D01*
X16688777Y-10877674D02*
X16707825Y-10868150D01*
X16707825Y-10868150D02*
X16745920Y-10868150D01*
X16745920Y-10868150D02*
X16764968Y-10877674D01*
X16764968Y-10877674D02*
X16774491Y-10896722D01*
X16774491Y-10896722D02*
X16774491Y-10915770D01*
X16774491Y-10915770D02*
X16679253Y-10934817D01*
X16850682Y-10991960D02*
X16869730Y-11001484D01*
X16869730Y-11001484D02*
X16907825Y-11001484D01*
X16907825Y-11001484D02*
X16926873Y-10991960D01*
X16926873Y-10991960D02*
X16936396Y-10972912D01*
X16936396Y-10972912D02*
X16936396Y-10963389D01*
X16936396Y-10963389D02*
X16926873Y-10944341D01*
X16926873Y-10944341D02*
X16907825Y-10934817D01*
X16907825Y-10934817D02*
X16879253Y-10934817D01*
X16879253Y-10934817D02*
X16860206Y-10925293D01*
X16860206Y-10925293D02*
X16850682Y-10906246D01*
X16850682Y-10906246D02*
X16850682Y-10896722D01*
X16850682Y-10896722D02*
X16860206Y-10877674D01*
X16860206Y-10877674D02*
X16879253Y-10868150D01*
X16879253Y-10868150D02*
X16907825Y-10868150D01*
X16907825Y-10868150D02*
X16926873Y-10877674D01*
X17003063Y-11077674D02*
X17012587Y-11068150D01*
X17012587Y-11068150D02*
X17031634Y-11039579D01*
X17031634Y-11039579D02*
X17041158Y-11020531D01*
X17041158Y-11020531D02*
X17050682Y-10991960D01*
X17050682Y-10991960D02*
X17060206Y-10944341D01*
X17060206Y-10944341D02*
X17060206Y-10906246D01*
X17060206Y-10906246D02*
X17050682Y-10858627D01*
X17050682Y-10858627D02*
X17041158Y-10830055D01*
X17041158Y-10830055D02*
X17031634Y-10811008D01*
X17031634Y-10811008D02*
X17012587Y-10782436D01*
X17012587Y-10782436D02*
X17003063Y-10772912D01*
D11*
X12188000Y-11134000D02*
X12188000Y-11214000D01*
X12148000Y-11174000D02*
X12228000Y-11174000D01*
D10*
X12526872Y-11065484D02*
X12545920Y-11065484D01*
X12545920Y-11065484D02*
X12564967Y-11075008D01*
X12564967Y-11075008D02*
X12574491Y-11084531D01*
X12574491Y-11084531D02*
X12584015Y-11103579D01*
X12584015Y-11103579D02*
X12593539Y-11141674D01*
X12593539Y-11141674D02*
X12593539Y-11189293D01*
X12593539Y-11189293D02*
X12584015Y-11227388D01*
X12584015Y-11227388D02*
X12574491Y-11246436D01*
X12574491Y-11246436D02*
X12564967Y-11255960D01*
X12564967Y-11255960D02*
X12545920Y-11265484D01*
X12545920Y-11265484D02*
X12526872Y-11265484D01*
X12526872Y-11265484D02*
X12507824Y-11255960D01*
X12507824Y-11255960D02*
X12498301Y-11246436D01*
X12498301Y-11246436D02*
X12488777Y-11227388D01*
X12488777Y-11227388D02*
X12479253Y-11189293D01*
X12479253Y-11189293D02*
X12479253Y-11141674D01*
X12479253Y-11141674D02*
X12488777Y-11103579D01*
X12488777Y-11103579D02*
X12498301Y-11084531D01*
X12498301Y-11084531D02*
X12507824Y-11075008D01*
X12507824Y-11075008D02*
X12526872Y-11065484D01*
X12679253Y-11246436D02*
X12688777Y-11255960D01*
X12688777Y-11255960D02*
X12679253Y-11265484D01*
X12679253Y-11265484D02*
X12669729Y-11255960D01*
X12669729Y-11255960D02*
X12679253Y-11246436D01*
X12679253Y-11246436D02*
X12679253Y-11265484D01*
X12803062Y-11151198D02*
X12784015Y-11141674D01*
X12784015Y-11141674D02*
X12774491Y-11132150D01*
X12774491Y-11132150D02*
X12764967Y-11113103D01*
X12764967Y-11113103D02*
X12764967Y-11103579D01*
X12764967Y-11103579D02*
X12774491Y-11084531D01*
X12774491Y-11084531D02*
X12784015Y-11075008D01*
X12784015Y-11075008D02*
X12803062Y-11065484D01*
X12803062Y-11065484D02*
X12841158Y-11065484D01*
X12841158Y-11065484D02*
X12860205Y-11075008D01*
X12860205Y-11075008D02*
X12869729Y-11084531D01*
X12869729Y-11084531D02*
X12879253Y-11103579D01*
X12879253Y-11103579D02*
X12879253Y-11113103D01*
X12879253Y-11113103D02*
X12869729Y-11132150D01*
X12869729Y-11132150D02*
X12860205Y-11141674D01*
X12860205Y-11141674D02*
X12841158Y-11151198D01*
X12841158Y-11151198D02*
X12803062Y-11151198D01*
X12803062Y-11151198D02*
X12784015Y-11160722D01*
X12784015Y-11160722D02*
X12774491Y-11170246D01*
X12774491Y-11170246D02*
X12764967Y-11189293D01*
X12764967Y-11189293D02*
X12764967Y-11227388D01*
X12764967Y-11227388D02*
X12774491Y-11246436D01*
X12774491Y-11246436D02*
X12784015Y-11255960D01*
X12784015Y-11255960D02*
X12803062Y-11265484D01*
X12803062Y-11265484D02*
X12841158Y-11265484D01*
X12841158Y-11265484D02*
X12860205Y-11255960D01*
X12860205Y-11255960D02*
X12869729Y-11246436D01*
X12869729Y-11246436D02*
X12879253Y-11227388D01*
X12879253Y-11227388D02*
X12879253Y-11189293D01*
X12879253Y-11189293D02*
X12869729Y-11170246D01*
X12869729Y-11170246D02*
X12860205Y-11160722D01*
X12860205Y-11160722D02*
X12841158Y-11151198D01*
X13003062Y-11065484D02*
X13022110Y-11065484D01*
X13022110Y-11065484D02*
X13041158Y-11075008D01*
X13041158Y-11075008D02*
X13050682Y-11084531D01*
X13050682Y-11084531D02*
X13060205Y-11103579D01*
X13060205Y-11103579D02*
X13069729Y-11141674D01*
X13069729Y-11141674D02*
X13069729Y-11189293D01*
X13069729Y-11189293D02*
X13060205Y-11227388D01*
X13060205Y-11227388D02*
X13050682Y-11246436D01*
X13050682Y-11246436D02*
X13041158Y-11255960D01*
X13041158Y-11255960D02*
X13022110Y-11265484D01*
X13022110Y-11265484D02*
X13003062Y-11265484D01*
X13003062Y-11265484D02*
X12984015Y-11255960D01*
X12984015Y-11255960D02*
X12974491Y-11246436D01*
X12974491Y-11246436D02*
X12964967Y-11227388D01*
X12964967Y-11227388D02*
X12955443Y-11189293D01*
X12955443Y-11189293D02*
X12955443Y-11141674D01*
X12955443Y-11141674D02*
X12964967Y-11103579D01*
X12964967Y-11103579D02*
X12974491Y-11084531D01*
X12974491Y-11084531D02*
X12984015Y-11075008D01*
X12984015Y-11075008D02*
X13003062Y-11065484D01*
X13193539Y-11065484D02*
X13212586Y-11065484D01*
X13212586Y-11065484D02*
X13231634Y-11075008D01*
X13231634Y-11075008D02*
X13241158Y-11084531D01*
X13241158Y-11084531D02*
X13250682Y-11103579D01*
X13250682Y-11103579D02*
X13260205Y-11141674D01*
X13260205Y-11141674D02*
X13260205Y-11189293D01*
X13260205Y-11189293D02*
X13250682Y-11227388D01*
X13250682Y-11227388D02*
X13241158Y-11246436D01*
X13241158Y-11246436D02*
X13231634Y-11255960D01*
X13231634Y-11255960D02*
X13212586Y-11265484D01*
X13212586Y-11265484D02*
X13193539Y-11265484D01*
X13193539Y-11265484D02*
X13174491Y-11255960D01*
X13174491Y-11255960D02*
X13164967Y-11246436D01*
X13164967Y-11246436D02*
X13155443Y-11227388D01*
X13155443Y-11227388D02*
X13145920Y-11189293D01*
X13145920Y-11189293D02*
X13145920Y-11141674D01*
X13145920Y-11141674D02*
X13155443Y-11103579D01*
X13155443Y-11103579D02*
X13164967Y-11084531D01*
X13164967Y-11084531D02*
X13174491Y-11075008D01*
X13174491Y-11075008D02*
X13193539Y-11065484D01*
X13345920Y-11265484D02*
X13345920Y-11132150D01*
X13345920Y-11151198D02*
X13355443Y-11141674D01*
X13355443Y-11141674D02*
X13374491Y-11132150D01*
X13374491Y-11132150D02*
X13403063Y-11132150D01*
X13403063Y-11132150D02*
X13422110Y-11141674D01*
X13422110Y-11141674D02*
X13431634Y-11160722D01*
X13431634Y-11160722D02*
X13431634Y-11265484D01*
X13431634Y-11160722D02*
X13441158Y-11141674D01*
X13441158Y-11141674D02*
X13460205Y-11132150D01*
X13460205Y-11132150D02*
X13488777Y-11132150D01*
X13488777Y-11132150D02*
X13507824Y-11141674D01*
X13507824Y-11141674D02*
X13517348Y-11160722D01*
X13517348Y-11160722D02*
X13517348Y-11265484D01*
X13612586Y-11265484D02*
X13612586Y-11132150D01*
X13612586Y-11151198D02*
X13622110Y-11141674D01*
X13622110Y-11141674D02*
X13641158Y-11132150D01*
X13641158Y-11132150D02*
X13669729Y-11132150D01*
X13669729Y-11132150D02*
X13688777Y-11141674D01*
X13688777Y-11141674D02*
X13698301Y-11160722D01*
X13698301Y-11160722D02*
X13698301Y-11265484D01*
X13698301Y-11160722D02*
X13707824Y-11141674D01*
X13707824Y-11141674D02*
X13726872Y-11132150D01*
X13726872Y-11132150D02*
X13755443Y-11132150D01*
X13755443Y-11132150D02*
X13774491Y-11141674D01*
X13774491Y-11141674D02*
X13784015Y-11160722D01*
X13784015Y-11160722D02*
X13784015Y-11265484D01*
X14174491Y-11055960D02*
X14003063Y-11313103D01*
X14431634Y-11065484D02*
X14450682Y-11065484D01*
X14450682Y-11065484D02*
X14469729Y-11075008D01*
X14469729Y-11075008D02*
X14479253Y-11084531D01*
X14479253Y-11084531D02*
X14488777Y-11103579D01*
X14488777Y-11103579D02*
X14498301Y-11141674D01*
X14498301Y-11141674D02*
X14498301Y-11189293D01*
X14498301Y-11189293D02*
X14488777Y-11227388D01*
X14488777Y-11227388D02*
X14479253Y-11246436D01*
X14479253Y-11246436D02*
X14469729Y-11255960D01*
X14469729Y-11255960D02*
X14450682Y-11265484D01*
X14450682Y-11265484D02*
X14431634Y-11265484D01*
X14431634Y-11265484D02*
X14412586Y-11255960D01*
X14412586Y-11255960D02*
X14403063Y-11246436D01*
X14403063Y-11246436D02*
X14393539Y-11227388D01*
X14393539Y-11227388D02*
X14384015Y-11189293D01*
X14384015Y-11189293D02*
X14384015Y-11141674D01*
X14384015Y-11141674D02*
X14393539Y-11103579D01*
X14393539Y-11103579D02*
X14403063Y-11084531D01*
X14403063Y-11084531D02*
X14412586Y-11075008D01*
X14412586Y-11075008D02*
X14431634Y-11065484D01*
X14584015Y-11246436D02*
X14593539Y-11255960D01*
X14593539Y-11255960D02*
X14584015Y-11265484D01*
X14584015Y-11265484D02*
X14574491Y-11255960D01*
X14574491Y-11255960D02*
X14584015Y-11246436D01*
X14584015Y-11246436D02*
X14584015Y-11265484D01*
X14717348Y-11065484D02*
X14736396Y-11065484D01*
X14736396Y-11065484D02*
X14755444Y-11075008D01*
X14755444Y-11075008D02*
X14764967Y-11084531D01*
X14764967Y-11084531D02*
X14774491Y-11103579D01*
X14774491Y-11103579D02*
X14784015Y-11141674D01*
X14784015Y-11141674D02*
X14784015Y-11189293D01*
X14784015Y-11189293D02*
X14774491Y-11227388D01*
X14774491Y-11227388D02*
X14764967Y-11246436D01*
X14764967Y-11246436D02*
X14755444Y-11255960D01*
X14755444Y-11255960D02*
X14736396Y-11265484D01*
X14736396Y-11265484D02*
X14717348Y-11265484D01*
X14717348Y-11265484D02*
X14698301Y-11255960D01*
X14698301Y-11255960D02*
X14688777Y-11246436D01*
X14688777Y-11246436D02*
X14679253Y-11227388D01*
X14679253Y-11227388D02*
X14669729Y-11189293D01*
X14669729Y-11189293D02*
X14669729Y-11141674D01*
X14669729Y-11141674D02*
X14679253Y-11103579D01*
X14679253Y-11103579D02*
X14688777Y-11084531D01*
X14688777Y-11084531D02*
X14698301Y-11075008D01*
X14698301Y-11075008D02*
X14717348Y-11065484D01*
X14850682Y-11065484D02*
X14974491Y-11065484D01*
X14974491Y-11065484D02*
X14907825Y-11141674D01*
X14907825Y-11141674D02*
X14936396Y-11141674D01*
X14936396Y-11141674D02*
X14955444Y-11151198D01*
X14955444Y-11151198D02*
X14964967Y-11160722D01*
X14964967Y-11160722D02*
X14974491Y-11179770D01*
X14974491Y-11179770D02*
X14974491Y-11227388D01*
X14974491Y-11227388D02*
X14964967Y-11246436D01*
X14964967Y-11246436D02*
X14955444Y-11255960D01*
X14955444Y-11255960D02*
X14936396Y-11265484D01*
X14936396Y-11265484D02*
X14879253Y-11265484D01*
X14879253Y-11265484D02*
X14860206Y-11255960D01*
X14860206Y-11255960D02*
X14850682Y-11246436D01*
X15164967Y-11265484D02*
X15050682Y-11265484D01*
X15107825Y-11265484D02*
X15107825Y-11065484D01*
X15107825Y-11065484D02*
X15088777Y-11094055D01*
X15088777Y-11094055D02*
X15069729Y-11113103D01*
X15069729Y-11113103D02*
X15050682Y-11122627D01*
X15345920Y-11065484D02*
X15250682Y-11065484D01*
X15250682Y-11065484D02*
X15241158Y-11160722D01*
X15241158Y-11160722D02*
X15250682Y-11151198D01*
X15250682Y-11151198D02*
X15269729Y-11141674D01*
X15269729Y-11141674D02*
X15317348Y-11141674D01*
X15317348Y-11141674D02*
X15336396Y-11151198D01*
X15336396Y-11151198D02*
X15345920Y-11160722D01*
X15345920Y-11160722D02*
X15355444Y-11179770D01*
X15355444Y-11179770D02*
X15355444Y-11227388D01*
X15355444Y-11227388D02*
X15345920Y-11246436D01*
X15345920Y-11246436D02*
X15336396Y-11255960D01*
X15336396Y-11255960D02*
X15317348Y-11265484D01*
X15317348Y-11265484D02*
X15269729Y-11265484D01*
X15269729Y-11265484D02*
X15250682Y-11255960D01*
X15250682Y-11255960D02*
X15241158Y-11246436D01*
X15431634Y-11065484D02*
X15431634Y-11103579D01*
X15507825Y-11065484D02*
X15507825Y-11103579D01*
X15803063Y-11341674D02*
X15793539Y-11332150D01*
X15793539Y-11332150D02*
X15774491Y-11303579D01*
X15774491Y-11303579D02*
X15764968Y-11284531D01*
X15764968Y-11284531D02*
X15755444Y-11255960D01*
X15755444Y-11255960D02*
X15745920Y-11208341D01*
X15745920Y-11208341D02*
X15745920Y-11170246D01*
X15745920Y-11170246D02*
X15755444Y-11122627D01*
X15755444Y-11122627D02*
X15764968Y-11094055D01*
X15764968Y-11094055D02*
X15774491Y-11075008D01*
X15774491Y-11075008D02*
X15793539Y-11046436D01*
X15793539Y-11046436D02*
X15803063Y-11036912D01*
X15984015Y-11265484D02*
X15869729Y-11265484D01*
X15926872Y-11265484D02*
X15926872Y-11065484D01*
X15926872Y-11065484D02*
X15907825Y-11094055D01*
X15907825Y-11094055D02*
X15888777Y-11113103D01*
X15888777Y-11113103D02*
X15869729Y-11122627D01*
X16098301Y-11151198D02*
X16079253Y-11141674D01*
X16079253Y-11141674D02*
X16069729Y-11132150D01*
X16069729Y-11132150D02*
X16060206Y-11113103D01*
X16060206Y-11113103D02*
X16060206Y-11103579D01*
X16060206Y-11103579D02*
X16069729Y-11084531D01*
X16069729Y-11084531D02*
X16079253Y-11075008D01*
X16079253Y-11075008D02*
X16098301Y-11065484D01*
X16098301Y-11065484D02*
X16136396Y-11065484D01*
X16136396Y-11065484D02*
X16155444Y-11075008D01*
X16155444Y-11075008D02*
X16164968Y-11084531D01*
X16164968Y-11084531D02*
X16174491Y-11103579D01*
X16174491Y-11103579D02*
X16174491Y-11113103D01*
X16174491Y-11113103D02*
X16164968Y-11132150D01*
X16164968Y-11132150D02*
X16155444Y-11141674D01*
X16155444Y-11141674D02*
X16136396Y-11151198D01*
X16136396Y-11151198D02*
X16098301Y-11151198D01*
X16098301Y-11151198D02*
X16079253Y-11160722D01*
X16079253Y-11160722D02*
X16069729Y-11170246D01*
X16069729Y-11170246D02*
X16060206Y-11189293D01*
X16060206Y-11189293D02*
X16060206Y-11227388D01*
X16060206Y-11227388D02*
X16069729Y-11246436D01*
X16069729Y-11246436D02*
X16079253Y-11255960D01*
X16079253Y-11255960D02*
X16098301Y-11265484D01*
X16098301Y-11265484D02*
X16136396Y-11265484D01*
X16136396Y-11265484D02*
X16155444Y-11255960D01*
X16155444Y-11255960D02*
X16164968Y-11246436D01*
X16164968Y-11246436D02*
X16174491Y-11227388D01*
X16174491Y-11227388D02*
X16174491Y-11189293D01*
X16174491Y-11189293D02*
X16164968Y-11170246D01*
X16164968Y-11170246D02*
X16155444Y-11160722D01*
X16155444Y-11160722D02*
X16136396Y-11151198D01*
X16412587Y-11265484D02*
X16412587Y-11065484D01*
X16498301Y-11265484D02*
X16498301Y-11160722D01*
X16498301Y-11160722D02*
X16488777Y-11141674D01*
X16488777Y-11141674D02*
X16469730Y-11132150D01*
X16469730Y-11132150D02*
X16441158Y-11132150D01*
X16441158Y-11132150D02*
X16422110Y-11141674D01*
X16422110Y-11141674D02*
X16412587Y-11151198D01*
X16622110Y-11265484D02*
X16603063Y-11255960D01*
X16603063Y-11255960D02*
X16593539Y-11246436D01*
X16593539Y-11246436D02*
X16584015Y-11227388D01*
X16584015Y-11227388D02*
X16584015Y-11170246D01*
X16584015Y-11170246D02*
X16593539Y-11151198D01*
X16593539Y-11151198D02*
X16603063Y-11141674D01*
X16603063Y-11141674D02*
X16622110Y-11132150D01*
X16622110Y-11132150D02*
X16650682Y-11132150D01*
X16650682Y-11132150D02*
X16669730Y-11141674D01*
X16669730Y-11141674D02*
X16679253Y-11151198D01*
X16679253Y-11151198D02*
X16688777Y-11170246D01*
X16688777Y-11170246D02*
X16688777Y-11227388D01*
X16688777Y-11227388D02*
X16679253Y-11246436D01*
X16679253Y-11246436D02*
X16669730Y-11255960D01*
X16669730Y-11255960D02*
X16650682Y-11265484D01*
X16650682Y-11265484D02*
X16622110Y-11265484D01*
X16803063Y-11265484D02*
X16784015Y-11255960D01*
X16784015Y-11255960D02*
X16774491Y-11236912D01*
X16774491Y-11236912D02*
X16774491Y-11065484D01*
X16955444Y-11255960D02*
X16936396Y-11265484D01*
X16936396Y-11265484D02*
X16898301Y-11265484D01*
X16898301Y-11265484D02*
X16879253Y-11255960D01*
X16879253Y-11255960D02*
X16869730Y-11236912D01*
X16869730Y-11236912D02*
X16869730Y-11160722D01*
X16869730Y-11160722D02*
X16879253Y-11141674D01*
X16879253Y-11141674D02*
X16898301Y-11132150D01*
X16898301Y-11132150D02*
X16936396Y-11132150D01*
X16936396Y-11132150D02*
X16955444Y-11141674D01*
X16955444Y-11141674D02*
X16964968Y-11160722D01*
X16964968Y-11160722D02*
X16964968Y-11179770D01*
X16964968Y-11179770D02*
X16869730Y-11198817D01*
X17041158Y-11255960D02*
X17060206Y-11265484D01*
X17060206Y-11265484D02*
X17098301Y-11265484D01*
X17098301Y-11265484D02*
X17117349Y-11255960D01*
X17117349Y-11255960D02*
X17126873Y-11236912D01*
X17126873Y-11236912D02*
X17126873Y-11227388D01*
X17126873Y-11227388D02*
X17117349Y-11208341D01*
X17117349Y-11208341D02*
X17098301Y-11198817D01*
X17098301Y-11198817D02*
X17069730Y-11198817D01*
X17069730Y-11198817D02*
X17050682Y-11189293D01*
X17050682Y-11189293D02*
X17041158Y-11170246D01*
X17041158Y-11170246D02*
X17041158Y-11160722D01*
X17041158Y-11160722D02*
X17050682Y-11141674D01*
X17050682Y-11141674D02*
X17069730Y-11132150D01*
X17069730Y-11132150D02*
X17098301Y-11132150D01*
X17098301Y-11132150D02*
X17117349Y-11141674D01*
X17193539Y-11341674D02*
X17203063Y-11332150D01*
X17203063Y-11332150D02*
X17222111Y-11303579D01*
X17222111Y-11303579D02*
X17231634Y-11284531D01*
X17231634Y-11284531D02*
X17241158Y-11255960D01*
X17241158Y-11255960D02*
X17250682Y-11208341D01*
X17250682Y-11208341D02*
X17250682Y-11170246D01*
X17250682Y-11170246D02*
X17241158Y-11122627D01*
X17241158Y-11122627D02*
X17231634Y-11094055D01*
X17231634Y-11094055D02*
X17222111Y-11075008D01*
X17222111Y-11075008D02*
X17203063Y-11046436D01*
X17203063Y-11046436D02*
X17193539Y-11036912D01*
D11*
X12214820Y-11469820D02*
X12214820Y-11406180D01*
X12151180Y-11406180D01*
X12151180Y-11469820D01*
X12214820Y-11469820D01*
D10*
X12526872Y-11329484D02*
X12545920Y-11329484D01*
X12545920Y-11329484D02*
X12564967Y-11339008D01*
X12564967Y-11339008D02*
X12574491Y-11348531D01*
X12574491Y-11348531D02*
X12584015Y-11367579D01*
X12584015Y-11367579D02*
X12593539Y-11405674D01*
X12593539Y-11405674D02*
X12593539Y-11453293D01*
X12593539Y-11453293D02*
X12584015Y-11491388D01*
X12584015Y-11491388D02*
X12574491Y-11510436D01*
X12574491Y-11510436D02*
X12564967Y-11519960D01*
X12564967Y-11519960D02*
X12545920Y-11529484D01*
X12545920Y-11529484D02*
X12526872Y-11529484D01*
X12526872Y-11529484D02*
X12507824Y-11519960D01*
X12507824Y-11519960D02*
X12498301Y-11510436D01*
X12498301Y-11510436D02*
X12488777Y-11491388D01*
X12488777Y-11491388D02*
X12479253Y-11453293D01*
X12479253Y-11453293D02*
X12479253Y-11405674D01*
X12479253Y-11405674D02*
X12488777Y-11367579D01*
X12488777Y-11367579D02*
X12498301Y-11348531D01*
X12498301Y-11348531D02*
X12507824Y-11339008D01*
X12507824Y-11339008D02*
X12526872Y-11329484D01*
X12679253Y-11510436D02*
X12688777Y-11519960D01*
X12688777Y-11519960D02*
X12679253Y-11529484D01*
X12679253Y-11529484D02*
X12669729Y-11519960D01*
X12669729Y-11519960D02*
X12679253Y-11510436D01*
X12679253Y-11510436D02*
X12679253Y-11529484D01*
X12784015Y-11529484D02*
X12822110Y-11529484D01*
X12822110Y-11529484D02*
X12841158Y-11519960D01*
X12841158Y-11519960D02*
X12850682Y-11510436D01*
X12850682Y-11510436D02*
X12869729Y-11481865D01*
X12869729Y-11481865D02*
X12879253Y-11443769D01*
X12879253Y-11443769D02*
X12879253Y-11367579D01*
X12879253Y-11367579D02*
X12869729Y-11348531D01*
X12869729Y-11348531D02*
X12860205Y-11339008D01*
X12860205Y-11339008D02*
X12841158Y-11329484D01*
X12841158Y-11329484D02*
X12803062Y-11329484D01*
X12803062Y-11329484D02*
X12784015Y-11339008D01*
X12784015Y-11339008D02*
X12774491Y-11348531D01*
X12774491Y-11348531D02*
X12764967Y-11367579D01*
X12764967Y-11367579D02*
X12764967Y-11415198D01*
X12764967Y-11415198D02*
X12774491Y-11434246D01*
X12774491Y-11434246D02*
X12784015Y-11443769D01*
X12784015Y-11443769D02*
X12803062Y-11453293D01*
X12803062Y-11453293D02*
X12841158Y-11453293D01*
X12841158Y-11453293D02*
X12860205Y-11443769D01*
X12860205Y-11443769D02*
X12869729Y-11434246D01*
X12869729Y-11434246D02*
X12879253Y-11415198D01*
X13003062Y-11329484D02*
X13022110Y-11329484D01*
X13022110Y-11329484D02*
X13041158Y-11339008D01*
X13041158Y-11339008D02*
X13050682Y-11348531D01*
X13050682Y-11348531D02*
X13060205Y-11367579D01*
X13060205Y-11367579D02*
X13069729Y-11405674D01*
X13069729Y-11405674D02*
X13069729Y-11453293D01*
X13069729Y-11453293D02*
X13060205Y-11491388D01*
X13060205Y-11491388D02*
X13050682Y-11510436D01*
X13050682Y-11510436D02*
X13041158Y-11519960D01*
X13041158Y-11519960D02*
X13022110Y-11529484D01*
X13022110Y-11529484D02*
X13003062Y-11529484D01*
X13003062Y-11529484D02*
X12984015Y-11519960D01*
X12984015Y-11519960D02*
X12974491Y-11510436D01*
X12974491Y-11510436D02*
X12964967Y-11491388D01*
X12964967Y-11491388D02*
X12955443Y-11453293D01*
X12955443Y-11453293D02*
X12955443Y-11405674D01*
X12955443Y-11405674D02*
X12964967Y-11367579D01*
X12964967Y-11367579D02*
X12974491Y-11348531D01*
X12974491Y-11348531D02*
X12984015Y-11339008D01*
X12984015Y-11339008D02*
X13003062Y-11329484D01*
X13193539Y-11329484D02*
X13212586Y-11329484D01*
X13212586Y-11329484D02*
X13231634Y-11339008D01*
X13231634Y-11339008D02*
X13241158Y-11348531D01*
X13241158Y-11348531D02*
X13250682Y-11367579D01*
X13250682Y-11367579D02*
X13260205Y-11405674D01*
X13260205Y-11405674D02*
X13260205Y-11453293D01*
X13260205Y-11453293D02*
X13250682Y-11491388D01*
X13250682Y-11491388D02*
X13241158Y-11510436D01*
X13241158Y-11510436D02*
X13231634Y-11519960D01*
X13231634Y-11519960D02*
X13212586Y-11529484D01*
X13212586Y-11529484D02*
X13193539Y-11529484D01*
X13193539Y-11529484D02*
X13174491Y-11519960D01*
X13174491Y-11519960D02*
X13164967Y-11510436D01*
X13164967Y-11510436D02*
X13155443Y-11491388D01*
X13155443Y-11491388D02*
X13145920Y-11453293D01*
X13145920Y-11453293D02*
X13145920Y-11405674D01*
X13145920Y-11405674D02*
X13155443Y-11367579D01*
X13155443Y-11367579D02*
X13164967Y-11348531D01*
X13164967Y-11348531D02*
X13174491Y-11339008D01*
X13174491Y-11339008D02*
X13193539Y-11329484D01*
X13345920Y-11529484D02*
X13345920Y-11396150D01*
X13345920Y-11415198D02*
X13355443Y-11405674D01*
X13355443Y-11405674D02*
X13374491Y-11396150D01*
X13374491Y-11396150D02*
X13403063Y-11396150D01*
X13403063Y-11396150D02*
X13422110Y-11405674D01*
X13422110Y-11405674D02*
X13431634Y-11424722D01*
X13431634Y-11424722D02*
X13431634Y-11529484D01*
X13431634Y-11424722D02*
X13441158Y-11405674D01*
X13441158Y-11405674D02*
X13460205Y-11396150D01*
X13460205Y-11396150D02*
X13488777Y-11396150D01*
X13488777Y-11396150D02*
X13507824Y-11405674D01*
X13507824Y-11405674D02*
X13517348Y-11424722D01*
X13517348Y-11424722D02*
X13517348Y-11529484D01*
X13612586Y-11529484D02*
X13612586Y-11396150D01*
X13612586Y-11415198D02*
X13622110Y-11405674D01*
X13622110Y-11405674D02*
X13641158Y-11396150D01*
X13641158Y-11396150D02*
X13669729Y-11396150D01*
X13669729Y-11396150D02*
X13688777Y-11405674D01*
X13688777Y-11405674D02*
X13698301Y-11424722D01*
X13698301Y-11424722D02*
X13698301Y-11529484D01*
X13698301Y-11424722D02*
X13707824Y-11405674D01*
X13707824Y-11405674D02*
X13726872Y-11396150D01*
X13726872Y-11396150D02*
X13755443Y-11396150D01*
X13755443Y-11396150D02*
X13774491Y-11405674D01*
X13774491Y-11405674D02*
X13784015Y-11424722D01*
X13784015Y-11424722D02*
X13784015Y-11529484D01*
X14174491Y-11319960D02*
X14003063Y-11577103D01*
X14431634Y-11329484D02*
X14450682Y-11329484D01*
X14450682Y-11329484D02*
X14469729Y-11339008D01*
X14469729Y-11339008D02*
X14479253Y-11348531D01*
X14479253Y-11348531D02*
X14488777Y-11367579D01*
X14488777Y-11367579D02*
X14498301Y-11405674D01*
X14498301Y-11405674D02*
X14498301Y-11453293D01*
X14498301Y-11453293D02*
X14488777Y-11491388D01*
X14488777Y-11491388D02*
X14479253Y-11510436D01*
X14479253Y-11510436D02*
X14469729Y-11519960D01*
X14469729Y-11519960D02*
X14450682Y-11529484D01*
X14450682Y-11529484D02*
X14431634Y-11529484D01*
X14431634Y-11529484D02*
X14412586Y-11519960D01*
X14412586Y-11519960D02*
X14403063Y-11510436D01*
X14403063Y-11510436D02*
X14393539Y-11491388D01*
X14393539Y-11491388D02*
X14384015Y-11453293D01*
X14384015Y-11453293D02*
X14384015Y-11405674D01*
X14384015Y-11405674D02*
X14393539Y-11367579D01*
X14393539Y-11367579D02*
X14403063Y-11348531D01*
X14403063Y-11348531D02*
X14412586Y-11339008D01*
X14412586Y-11339008D02*
X14431634Y-11329484D01*
X14584015Y-11510436D02*
X14593539Y-11519960D01*
X14593539Y-11519960D02*
X14584015Y-11529484D01*
X14584015Y-11529484D02*
X14574491Y-11519960D01*
X14574491Y-11519960D02*
X14584015Y-11510436D01*
X14584015Y-11510436D02*
X14584015Y-11529484D01*
X14717348Y-11329484D02*
X14736396Y-11329484D01*
X14736396Y-11329484D02*
X14755444Y-11339008D01*
X14755444Y-11339008D02*
X14764967Y-11348531D01*
X14764967Y-11348531D02*
X14774491Y-11367579D01*
X14774491Y-11367579D02*
X14784015Y-11405674D01*
X14784015Y-11405674D02*
X14784015Y-11453293D01*
X14784015Y-11453293D02*
X14774491Y-11491388D01*
X14774491Y-11491388D02*
X14764967Y-11510436D01*
X14764967Y-11510436D02*
X14755444Y-11519960D01*
X14755444Y-11519960D02*
X14736396Y-11529484D01*
X14736396Y-11529484D02*
X14717348Y-11529484D01*
X14717348Y-11529484D02*
X14698301Y-11519960D01*
X14698301Y-11519960D02*
X14688777Y-11510436D01*
X14688777Y-11510436D02*
X14679253Y-11491388D01*
X14679253Y-11491388D02*
X14669729Y-11453293D01*
X14669729Y-11453293D02*
X14669729Y-11405674D01*
X14669729Y-11405674D02*
X14679253Y-11367579D01*
X14679253Y-11367579D02*
X14688777Y-11348531D01*
X14688777Y-11348531D02*
X14698301Y-11339008D01*
X14698301Y-11339008D02*
X14717348Y-11329484D01*
X14850682Y-11329484D02*
X14974491Y-11329484D01*
X14974491Y-11329484D02*
X14907825Y-11405674D01*
X14907825Y-11405674D02*
X14936396Y-11405674D01*
X14936396Y-11405674D02*
X14955444Y-11415198D01*
X14955444Y-11415198D02*
X14964967Y-11424722D01*
X14964967Y-11424722D02*
X14974491Y-11443769D01*
X14974491Y-11443769D02*
X14974491Y-11491388D01*
X14974491Y-11491388D02*
X14964967Y-11510436D01*
X14964967Y-11510436D02*
X14955444Y-11519960D01*
X14955444Y-11519960D02*
X14936396Y-11529484D01*
X14936396Y-11529484D02*
X14879253Y-11529484D01*
X14879253Y-11529484D02*
X14860206Y-11519960D01*
X14860206Y-11519960D02*
X14850682Y-11510436D01*
X15155444Y-11329484D02*
X15060206Y-11329484D01*
X15060206Y-11329484D02*
X15050682Y-11424722D01*
X15050682Y-11424722D02*
X15060206Y-11415198D01*
X15060206Y-11415198D02*
X15079253Y-11405674D01*
X15079253Y-11405674D02*
X15126872Y-11405674D01*
X15126872Y-11405674D02*
X15145920Y-11415198D01*
X15145920Y-11415198D02*
X15155444Y-11424722D01*
X15155444Y-11424722D02*
X15164967Y-11443769D01*
X15164967Y-11443769D02*
X15164967Y-11491388D01*
X15164967Y-11491388D02*
X15155444Y-11510436D01*
X15155444Y-11510436D02*
X15145920Y-11519960D01*
X15145920Y-11519960D02*
X15126872Y-11529484D01*
X15126872Y-11529484D02*
X15079253Y-11529484D01*
X15079253Y-11529484D02*
X15060206Y-11519960D01*
X15060206Y-11519960D02*
X15050682Y-11510436D01*
X15336396Y-11396150D02*
X15336396Y-11529484D01*
X15288777Y-11319960D02*
X15241158Y-11462817D01*
X15241158Y-11462817D02*
X15364967Y-11462817D01*
X15431634Y-11329484D02*
X15431634Y-11367579D01*
X15507825Y-11329484D02*
X15507825Y-11367579D01*
X15803063Y-11605674D02*
X15793539Y-11596150D01*
X15793539Y-11596150D02*
X15774491Y-11567579D01*
X15774491Y-11567579D02*
X15764968Y-11548531D01*
X15764968Y-11548531D02*
X15755444Y-11519960D01*
X15755444Y-11519960D02*
X15745920Y-11472341D01*
X15745920Y-11472341D02*
X15745920Y-11434246D01*
X15745920Y-11434246D02*
X15755444Y-11386627D01*
X15755444Y-11386627D02*
X15764968Y-11358055D01*
X15764968Y-11358055D02*
X15774491Y-11339008D01*
X15774491Y-11339008D02*
X15793539Y-11310436D01*
X15793539Y-11310436D02*
X15803063Y-11300912D01*
X15907825Y-11415198D02*
X15888777Y-11405674D01*
X15888777Y-11405674D02*
X15879253Y-11396150D01*
X15879253Y-11396150D02*
X15869729Y-11377103D01*
X15869729Y-11377103D02*
X15869729Y-11367579D01*
X15869729Y-11367579D02*
X15879253Y-11348531D01*
X15879253Y-11348531D02*
X15888777Y-11339008D01*
X15888777Y-11339008D02*
X15907825Y-11329484D01*
X15907825Y-11329484D02*
X15945920Y-11329484D01*
X15945920Y-11329484D02*
X15964968Y-11339008D01*
X15964968Y-11339008D02*
X15974491Y-11348531D01*
X15974491Y-11348531D02*
X15984015Y-11367579D01*
X15984015Y-11367579D02*
X15984015Y-11377103D01*
X15984015Y-11377103D02*
X15974491Y-11396150D01*
X15974491Y-11396150D02*
X15964968Y-11405674D01*
X15964968Y-11405674D02*
X15945920Y-11415198D01*
X15945920Y-11415198D02*
X15907825Y-11415198D01*
X15907825Y-11415198D02*
X15888777Y-11424722D01*
X15888777Y-11424722D02*
X15879253Y-11434246D01*
X15879253Y-11434246D02*
X15869729Y-11453293D01*
X15869729Y-11453293D02*
X15869729Y-11491388D01*
X15869729Y-11491388D02*
X15879253Y-11510436D01*
X15879253Y-11510436D02*
X15888777Y-11519960D01*
X15888777Y-11519960D02*
X15907825Y-11529484D01*
X15907825Y-11529484D02*
X15945920Y-11529484D01*
X15945920Y-11529484D02*
X15964968Y-11519960D01*
X15964968Y-11519960D02*
X15974491Y-11510436D01*
X15974491Y-11510436D02*
X15984015Y-11491388D01*
X15984015Y-11491388D02*
X15984015Y-11453293D01*
X15984015Y-11453293D02*
X15974491Y-11434246D01*
X15974491Y-11434246D02*
X15964968Y-11424722D01*
X15964968Y-11424722D02*
X15945920Y-11415198D01*
X16222110Y-11529484D02*
X16222110Y-11329484D01*
X16307825Y-11529484D02*
X16307825Y-11424722D01*
X16307825Y-11424722D02*
X16298301Y-11405674D01*
X16298301Y-11405674D02*
X16279253Y-11396150D01*
X16279253Y-11396150D02*
X16250682Y-11396150D01*
X16250682Y-11396150D02*
X16231634Y-11405674D01*
X16231634Y-11405674D02*
X16222110Y-11415198D01*
X16431634Y-11529484D02*
X16412587Y-11519960D01*
X16412587Y-11519960D02*
X16403063Y-11510436D01*
X16403063Y-11510436D02*
X16393539Y-11491388D01*
X16393539Y-11491388D02*
X16393539Y-11434246D01*
X16393539Y-11434246D02*
X16403063Y-11415198D01*
X16403063Y-11415198D02*
X16412587Y-11405674D01*
X16412587Y-11405674D02*
X16431634Y-11396150D01*
X16431634Y-11396150D02*
X16460206Y-11396150D01*
X16460206Y-11396150D02*
X16479253Y-11405674D01*
X16479253Y-11405674D02*
X16488777Y-11415198D01*
X16488777Y-11415198D02*
X16498301Y-11434246D01*
X16498301Y-11434246D02*
X16498301Y-11491388D01*
X16498301Y-11491388D02*
X16488777Y-11510436D01*
X16488777Y-11510436D02*
X16479253Y-11519960D01*
X16479253Y-11519960D02*
X16460206Y-11529484D01*
X16460206Y-11529484D02*
X16431634Y-11529484D01*
X16612587Y-11529484D02*
X16593539Y-11519960D01*
X16593539Y-11519960D02*
X16584015Y-11500912D01*
X16584015Y-11500912D02*
X16584015Y-11329484D01*
X16764968Y-11519960D02*
X16745920Y-11529484D01*
X16745920Y-11529484D02*
X16707825Y-11529484D01*
X16707825Y-11529484D02*
X16688777Y-11519960D01*
X16688777Y-11519960D02*
X16679253Y-11500912D01*
X16679253Y-11500912D02*
X16679253Y-11424722D01*
X16679253Y-11424722D02*
X16688777Y-11405674D01*
X16688777Y-11405674D02*
X16707825Y-11396150D01*
X16707825Y-11396150D02*
X16745920Y-11396150D01*
X16745920Y-11396150D02*
X16764968Y-11405674D01*
X16764968Y-11405674D02*
X16774491Y-11424722D01*
X16774491Y-11424722D02*
X16774491Y-11443769D01*
X16774491Y-11443769D02*
X16679253Y-11462817D01*
X16850682Y-11519960D02*
X16869730Y-11529484D01*
X16869730Y-11529484D02*
X16907825Y-11529484D01*
X16907825Y-11529484D02*
X16926873Y-11519960D01*
X16926873Y-11519960D02*
X16936396Y-11500912D01*
X16936396Y-11500912D02*
X16936396Y-11491388D01*
X16936396Y-11491388D02*
X16926873Y-11472341D01*
X16926873Y-11472341D02*
X16907825Y-11462817D01*
X16907825Y-11462817D02*
X16879253Y-11462817D01*
X16879253Y-11462817D02*
X16860206Y-11453293D01*
X16860206Y-11453293D02*
X16850682Y-11434246D01*
X16850682Y-11434246D02*
X16850682Y-11424722D01*
X16850682Y-11424722D02*
X16860206Y-11405674D01*
X16860206Y-11405674D02*
X16879253Y-11396150D01*
X16879253Y-11396150D02*
X16907825Y-11396150D01*
X16907825Y-11396150D02*
X16926873Y-11405674D01*
X17003063Y-11605674D02*
X17012587Y-11596150D01*
X17012587Y-11596150D02*
X17031634Y-11567579D01*
X17031634Y-11567579D02*
X17041158Y-11548531D01*
X17041158Y-11548531D02*
X17050682Y-11519960D01*
X17050682Y-11519960D02*
X17060206Y-11472341D01*
X17060206Y-11472341D02*
X17060206Y-11434246D01*
X17060206Y-11434246D02*
X17050682Y-11386627D01*
X17050682Y-11386627D02*
X17041158Y-11358055D01*
X17041158Y-11358055D02*
X17031634Y-11339008D01*
X17031634Y-11339008D02*
X17012587Y-11310436D01*
X17012587Y-11310436D02*
X17003063Y-11300912D01*
D11*
X12178000Y-11752000D02*
X12228000Y-11702000D01*
X12178000Y-11652000D01*
X12128000Y-11702000D01*
X12178000Y-11752000D01*
D10*
X12593539Y-11793484D02*
X12479253Y-11793484D01*
X12536396Y-11793484D02*
X12536396Y-11593484D01*
X12536396Y-11593484D02*
X12517348Y-11622055D01*
X12517348Y-11622055D02*
X12498301Y-11641103D01*
X12498301Y-11641103D02*
X12479253Y-11650627D01*
X12679253Y-11774436D02*
X12688777Y-11783960D01*
X12688777Y-11783960D02*
X12679253Y-11793484D01*
X12679253Y-11793484D02*
X12669729Y-11783960D01*
X12669729Y-11783960D02*
X12679253Y-11774436D01*
X12679253Y-11774436D02*
X12679253Y-11793484D01*
X12812586Y-11593484D02*
X12831634Y-11593484D01*
X12831634Y-11593484D02*
X12850682Y-11603008D01*
X12850682Y-11603008D02*
X12860205Y-11612531D01*
X12860205Y-11612531D02*
X12869729Y-11631579D01*
X12869729Y-11631579D02*
X12879253Y-11669674D01*
X12879253Y-11669674D02*
X12879253Y-11717293D01*
X12879253Y-11717293D02*
X12869729Y-11755388D01*
X12869729Y-11755388D02*
X12860205Y-11774436D01*
X12860205Y-11774436D02*
X12850682Y-11783960D01*
X12850682Y-11783960D02*
X12831634Y-11793484D01*
X12831634Y-11793484D02*
X12812586Y-11793484D01*
X12812586Y-11793484D02*
X12793539Y-11783960D01*
X12793539Y-11783960D02*
X12784015Y-11774436D01*
X12784015Y-11774436D02*
X12774491Y-11755388D01*
X12774491Y-11755388D02*
X12764967Y-11717293D01*
X12764967Y-11717293D02*
X12764967Y-11669674D01*
X12764967Y-11669674D02*
X12774491Y-11631579D01*
X12774491Y-11631579D02*
X12784015Y-11612531D01*
X12784015Y-11612531D02*
X12793539Y-11603008D01*
X12793539Y-11603008D02*
X12812586Y-11593484D01*
X13003062Y-11593484D02*
X13022110Y-11593484D01*
X13022110Y-11593484D02*
X13041158Y-11603008D01*
X13041158Y-11603008D02*
X13050682Y-11612531D01*
X13050682Y-11612531D02*
X13060205Y-11631579D01*
X13060205Y-11631579D02*
X13069729Y-11669674D01*
X13069729Y-11669674D02*
X13069729Y-11717293D01*
X13069729Y-11717293D02*
X13060205Y-11755388D01*
X13060205Y-11755388D02*
X13050682Y-11774436D01*
X13050682Y-11774436D02*
X13041158Y-11783960D01*
X13041158Y-11783960D02*
X13022110Y-11793484D01*
X13022110Y-11793484D02*
X13003062Y-11793484D01*
X13003062Y-11793484D02*
X12984015Y-11783960D01*
X12984015Y-11783960D02*
X12974491Y-11774436D01*
X12974491Y-11774436D02*
X12964967Y-11755388D01*
X12964967Y-11755388D02*
X12955443Y-11717293D01*
X12955443Y-11717293D02*
X12955443Y-11669674D01*
X12955443Y-11669674D02*
X12964967Y-11631579D01*
X12964967Y-11631579D02*
X12974491Y-11612531D01*
X12974491Y-11612531D02*
X12984015Y-11603008D01*
X12984015Y-11603008D02*
X13003062Y-11593484D01*
X13193539Y-11593484D02*
X13212586Y-11593484D01*
X13212586Y-11593484D02*
X13231634Y-11603008D01*
X13231634Y-11603008D02*
X13241158Y-11612531D01*
X13241158Y-11612531D02*
X13250682Y-11631579D01*
X13250682Y-11631579D02*
X13260205Y-11669674D01*
X13260205Y-11669674D02*
X13260205Y-11717293D01*
X13260205Y-11717293D02*
X13250682Y-11755388D01*
X13250682Y-11755388D02*
X13241158Y-11774436D01*
X13241158Y-11774436D02*
X13231634Y-11783960D01*
X13231634Y-11783960D02*
X13212586Y-11793484D01*
X13212586Y-11793484D02*
X13193539Y-11793484D01*
X13193539Y-11793484D02*
X13174491Y-11783960D01*
X13174491Y-11783960D02*
X13164967Y-11774436D01*
X13164967Y-11774436D02*
X13155443Y-11755388D01*
X13155443Y-11755388D02*
X13145920Y-11717293D01*
X13145920Y-11717293D02*
X13145920Y-11669674D01*
X13145920Y-11669674D02*
X13155443Y-11631579D01*
X13155443Y-11631579D02*
X13164967Y-11612531D01*
X13164967Y-11612531D02*
X13174491Y-11603008D01*
X13174491Y-11603008D02*
X13193539Y-11593484D01*
X13345920Y-11793484D02*
X13345920Y-11660150D01*
X13345920Y-11679198D02*
X13355443Y-11669674D01*
X13355443Y-11669674D02*
X13374491Y-11660150D01*
X13374491Y-11660150D02*
X13403063Y-11660150D01*
X13403063Y-11660150D02*
X13422110Y-11669674D01*
X13422110Y-11669674D02*
X13431634Y-11688722D01*
X13431634Y-11688722D02*
X13431634Y-11793484D01*
X13431634Y-11688722D02*
X13441158Y-11669674D01*
X13441158Y-11669674D02*
X13460205Y-11660150D01*
X13460205Y-11660150D02*
X13488777Y-11660150D01*
X13488777Y-11660150D02*
X13507824Y-11669674D01*
X13507824Y-11669674D02*
X13517348Y-11688722D01*
X13517348Y-11688722D02*
X13517348Y-11793484D01*
X13612586Y-11793484D02*
X13612586Y-11660150D01*
X13612586Y-11679198D02*
X13622110Y-11669674D01*
X13622110Y-11669674D02*
X13641158Y-11660150D01*
X13641158Y-11660150D02*
X13669729Y-11660150D01*
X13669729Y-11660150D02*
X13688777Y-11669674D01*
X13688777Y-11669674D02*
X13698301Y-11688722D01*
X13698301Y-11688722D02*
X13698301Y-11793484D01*
X13698301Y-11688722D02*
X13707824Y-11669674D01*
X13707824Y-11669674D02*
X13726872Y-11660150D01*
X13726872Y-11660150D02*
X13755443Y-11660150D01*
X13755443Y-11660150D02*
X13774491Y-11669674D01*
X13774491Y-11669674D02*
X13784015Y-11688722D01*
X13784015Y-11688722D02*
X13784015Y-11793484D01*
X14174491Y-11583960D02*
X14003063Y-11841103D01*
X14431634Y-11593484D02*
X14450682Y-11593484D01*
X14450682Y-11593484D02*
X14469729Y-11603008D01*
X14469729Y-11603008D02*
X14479253Y-11612531D01*
X14479253Y-11612531D02*
X14488777Y-11631579D01*
X14488777Y-11631579D02*
X14498301Y-11669674D01*
X14498301Y-11669674D02*
X14498301Y-11717293D01*
X14498301Y-11717293D02*
X14488777Y-11755388D01*
X14488777Y-11755388D02*
X14479253Y-11774436D01*
X14479253Y-11774436D02*
X14469729Y-11783960D01*
X14469729Y-11783960D02*
X14450682Y-11793484D01*
X14450682Y-11793484D02*
X14431634Y-11793484D01*
X14431634Y-11793484D02*
X14412586Y-11783960D01*
X14412586Y-11783960D02*
X14403063Y-11774436D01*
X14403063Y-11774436D02*
X14393539Y-11755388D01*
X14393539Y-11755388D02*
X14384015Y-11717293D01*
X14384015Y-11717293D02*
X14384015Y-11669674D01*
X14384015Y-11669674D02*
X14393539Y-11631579D01*
X14393539Y-11631579D02*
X14403063Y-11612531D01*
X14403063Y-11612531D02*
X14412586Y-11603008D01*
X14412586Y-11603008D02*
X14431634Y-11593484D01*
X14584015Y-11774436D02*
X14593539Y-11783960D01*
X14593539Y-11783960D02*
X14584015Y-11793484D01*
X14584015Y-11793484D02*
X14574491Y-11783960D01*
X14574491Y-11783960D02*
X14584015Y-11774436D01*
X14584015Y-11774436D02*
X14584015Y-11793484D01*
X14717348Y-11593484D02*
X14736396Y-11593484D01*
X14736396Y-11593484D02*
X14755444Y-11603008D01*
X14755444Y-11603008D02*
X14764967Y-11612531D01*
X14764967Y-11612531D02*
X14774491Y-11631579D01*
X14774491Y-11631579D02*
X14784015Y-11669674D01*
X14784015Y-11669674D02*
X14784015Y-11717293D01*
X14784015Y-11717293D02*
X14774491Y-11755388D01*
X14774491Y-11755388D02*
X14764967Y-11774436D01*
X14764967Y-11774436D02*
X14755444Y-11783960D01*
X14755444Y-11783960D02*
X14736396Y-11793484D01*
X14736396Y-11793484D02*
X14717348Y-11793484D01*
X14717348Y-11793484D02*
X14698301Y-11783960D01*
X14698301Y-11783960D02*
X14688777Y-11774436D01*
X14688777Y-11774436D02*
X14679253Y-11755388D01*
X14679253Y-11755388D02*
X14669729Y-11717293D01*
X14669729Y-11717293D02*
X14669729Y-11669674D01*
X14669729Y-11669674D02*
X14679253Y-11631579D01*
X14679253Y-11631579D02*
X14688777Y-11612531D01*
X14688777Y-11612531D02*
X14698301Y-11603008D01*
X14698301Y-11603008D02*
X14717348Y-11593484D01*
X14850682Y-11593484D02*
X14974491Y-11593484D01*
X14974491Y-11593484D02*
X14907825Y-11669674D01*
X14907825Y-11669674D02*
X14936396Y-11669674D01*
X14936396Y-11669674D02*
X14955444Y-11679198D01*
X14955444Y-11679198D02*
X14964967Y-11688722D01*
X14964967Y-11688722D02*
X14974491Y-11707769D01*
X14974491Y-11707769D02*
X14974491Y-11755388D01*
X14974491Y-11755388D02*
X14964967Y-11774436D01*
X14964967Y-11774436D02*
X14955444Y-11783960D01*
X14955444Y-11783960D02*
X14936396Y-11793484D01*
X14936396Y-11793484D02*
X14879253Y-11793484D01*
X14879253Y-11793484D02*
X14860206Y-11783960D01*
X14860206Y-11783960D02*
X14850682Y-11774436D01*
X15069729Y-11793484D02*
X15107825Y-11793484D01*
X15107825Y-11793484D02*
X15126872Y-11783960D01*
X15126872Y-11783960D02*
X15136396Y-11774436D01*
X15136396Y-11774436D02*
X15155444Y-11745865D01*
X15155444Y-11745865D02*
X15164967Y-11707769D01*
X15164967Y-11707769D02*
X15164967Y-11631579D01*
X15164967Y-11631579D02*
X15155444Y-11612531D01*
X15155444Y-11612531D02*
X15145920Y-11603008D01*
X15145920Y-11603008D02*
X15126872Y-11593484D01*
X15126872Y-11593484D02*
X15088777Y-11593484D01*
X15088777Y-11593484D02*
X15069729Y-11603008D01*
X15069729Y-11603008D02*
X15060206Y-11612531D01*
X15060206Y-11612531D02*
X15050682Y-11631579D01*
X15050682Y-11631579D02*
X15050682Y-11679198D01*
X15050682Y-11679198D02*
X15060206Y-11698246D01*
X15060206Y-11698246D02*
X15069729Y-11707769D01*
X15069729Y-11707769D02*
X15088777Y-11717293D01*
X15088777Y-11717293D02*
X15126872Y-11717293D01*
X15126872Y-11717293D02*
X15145920Y-11707769D01*
X15145920Y-11707769D02*
X15155444Y-11698246D01*
X15155444Y-11698246D02*
X15164967Y-11679198D01*
X15336396Y-11660150D02*
X15336396Y-11793484D01*
X15288777Y-11583960D02*
X15241158Y-11726817D01*
X15241158Y-11726817D02*
X15364967Y-11726817D01*
X15431634Y-11593484D02*
X15431634Y-11631579D01*
X15507825Y-11593484D02*
X15507825Y-11631579D01*
X15803063Y-11869674D02*
X15793539Y-11860150D01*
X15793539Y-11860150D02*
X15774491Y-11831579D01*
X15774491Y-11831579D02*
X15764968Y-11812531D01*
X15764968Y-11812531D02*
X15755444Y-11783960D01*
X15755444Y-11783960D02*
X15745920Y-11736341D01*
X15745920Y-11736341D02*
X15745920Y-11698246D01*
X15745920Y-11698246D02*
X15755444Y-11650627D01*
X15755444Y-11650627D02*
X15764968Y-11622055D01*
X15764968Y-11622055D02*
X15774491Y-11603008D01*
X15774491Y-11603008D02*
X15793539Y-11574436D01*
X15793539Y-11574436D02*
X15803063Y-11564912D01*
X15964968Y-11660150D02*
X15964968Y-11793484D01*
X15917348Y-11583960D02*
X15869729Y-11726817D01*
X15869729Y-11726817D02*
X15993539Y-11726817D01*
X16222110Y-11793484D02*
X16222110Y-11593484D01*
X16307825Y-11793484D02*
X16307825Y-11688722D01*
X16307825Y-11688722D02*
X16298301Y-11669674D01*
X16298301Y-11669674D02*
X16279253Y-11660150D01*
X16279253Y-11660150D02*
X16250682Y-11660150D01*
X16250682Y-11660150D02*
X16231634Y-11669674D01*
X16231634Y-11669674D02*
X16222110Y-11679198D01*
X16431634Y-11793484D02*
X16412587Y-11783960D01*
X16412587Y-11783960D02*
X16403063Y-11774436D01*
X16403063Y-11774436D02*
X16393539Y-11755388D01*
X16393539Y-11755388D02*
X16393539Y-11698246D01*
X16393539Y-11698246D02*
X16403063Y-11679198D01*
X16403063Y-11679198D02*
X16412587Y-11669674D01*
X16412587Y-11669674D02*
X16431634Y-11660150D01*
X16431634Y-11660150D02*
X16460206Y-11660150D01*
X16460206Y-11660150D02*
X16479253Y-11669674D01*
X16479253Y-11669674D02*
X16488777Y-11679198D01*
X16488777Y-11679198D02*
X16498301Y-11698246D01*
X16498301Y-11698246D02*
X16498301Y-11755388D01*
X16498301Y-11755388D02*
X16488777Y-11774436D01*
X16488777Y-11774436D02*
X16479253Y-11783960D01*
X16479253Y-11783960D02*
X16460206Y-11793484D01*
X16460206Y-11793484D02*
X16431634Y-11793484D01*
X16612587Y-11793484D02*
X16593539Y-11783960D01*
X16593539Y-11783960D02*
X16584015Y-11764912D01*
X16584015Y-11764912D02*
X16584015Y-11593484D01*
X16764968Y-11783960D02*
X16745920Y-11793484D01*
X16745920Y-11793484D02*
X16707825Y-11793484D01*
X16707825Y-11793484D02*
X16688777Y-11783960D01*
X16688777Y-11783960D02*
X16679253Y-11764912D01*
X16679253Y-11764912D02*
X16679253Y-11688722D01*
X16679253Y-11688722D02*
X16688777Y-11669674D01*
X16688777Y-11669674D02*
X16707825Y-11660150D01*
X16707825Y-11660150D02*
X16745920Y-11660150D01*
X16745920Y-11660150D02*
X16764968Y-11669674D01*
X16764968Y-11669674D02*
X16774491Y-11688722D01*
X16774491Y-11688722D02*
X16774491Y-11707769D01*
X16774491Y-11707769D02*
X16679253Y-11726817D01*
X16850682Y-11783960D02*
X16869730Y-11793484D01*
X16869730Y-11793484D02*
X16907825Y-11793484D01*
X16907825Y-11793484D02*
X16926873Y-11783960D01*
X16926873Y-11783960D02*
X16936396Y-11764912D01*
X16936396Y-11764912D02*
X16936396Y-11755388D01*
X16936396Y-11755388D02*
X16926873Y-11736341D01*
X16926873Y-11736341D02*
X16907825Y-11726817D01*
X16907825Y-11726817D02*
X16879253Y-11726817D01*
X16879253Y-11726817D02*
X16860206Y-11717293D01*
X16860206Y-11717293D02*
X16850682Y-11698246D01*
X16850682Y-11698246D02*
X16850682Y-11688722D01*
X16850682Y-11688722D02*
X16860206Y-11669674D01*
X16860206Y-11669674D02*
X16879253Y-11660150D01*
X16879253Y-11660150D02*
X16907825Y-11660150D01*
X16907825Y-11660150D02*
X16926873Y-11669674D01*
X17003063Y-11869674D02*
X17012587Y-11860150D01*
X17012587Y-11860150D02*
X17031634Y-11831579D01*
X17031634Y-11831579D02*
X17041158Y-11812531D01*
X17041158Y-11812531D02*
X17050682Y-11783960D01*
X17050682Y-11783960D02*
X17060206Y-11736341D01*
X17060206Y-11736341D02*
X17060206Y-11698246D01*
X17060206Y-11698246D02*
X17050682Y-11650627D01*
X17050682Y-11650627D02*
X17041158Y-11622055D01*
X17041158Y-11622055D02*
X17031634Y-11603008D01*
X17031634Y-11603008D02*
X17012587Y-11574436D01*
X17012587Y-11574436D02*
X17003063Y-11564912D01*
M02*
