%TF.GenerationSoftware,KiCad,Pcbnew,8.0.5*%
%TF.CreationDate,2025-07-29T10:24:45+02:00*%
%TF.ProjectId,LED_FADER,4c45445f-4641-4444-9552-2e6b69636164,rev?*%
%TF.SameCoordinates,Original*%
%TF.FileFunction,Copper,L2,Bot*%
%TF.FilePolarity,Positive*%
%FSLAX46Y46*%
G04 Gerber Fmt 4.6, Leading zero omitted, Abs format (unit mm)*
G04 Created by KiCad (PCBNEW 8.0.5) date 2025-07-29 10:24:45*
%MOMM*%
%LPD*%
G01*
G04 APERTURE LIST*
%TA.AperFunction,ComponentPad*%
%ADD10R,1.500000X1.050000*%
%TD*%
%TA.AperFunction,ComponentPad*%
%ADD11O,1.500000X1.050000*%
%TD*%
%TA.AperFunction,ComponentPad*%
%ADD12C,1.600000*%
%TD*%
%TA.AperFunction,ComponentPad*%
%ADD13O,1.600000X1.600000*%
%TD*%
%TA.AperFunction,ComponentPad*%
%ADD14R,1.800000X1.800000*%
%TD*%
%TA.AperFunction,ComponentPad*%
%ADD15C,1.800000*%
%TD*%
%TA.AperFunction,ComponentPad*%
%ADD16R,1.600000X1.600000*%
%TD*%
%TA.AperFunction,ComponentPad*%
%ADD17R,1.700000X1.700000*%
%TD*%
%TA.AperFunction,ComponentPad*%
%ADD18O,1.700000X1.700000*%
%TD*%
%TA.AperFunction,ViaPad*%
%ADD19C,0.600000*%
%TD*%
%TA.AperFunction,Conductor*%
%ADD20C,0.750000*%
%TD*%
G04 APERTURE END LIST*
D10*
%TO.P,U2,1,VO*%
%TO.N,Net-(U2-VO)*%
X125940000Y-89540000D03*
D11*
%TO.P,U2,2,GND*%
%TO.N,Net-(U1-THR)*%
X125940000Y-90810000D03*
%TO.P,U2,3,VI*%
%TO.N,VCC*%
X125940000Y-92080000D03*
%TD*%
D12*
%TO.P,R3,1*%
%TO.N,Net-(U1-DIS)*%
X141510000Y-86630000D03*
D13*
%TO.P,R3,2*%
%TO.N,Net-(U1-THR)*%
X141510000Y-79010000D03*
%TD*%
D14*
%TO.P,D4,1,K*%
%TO.N,GND*%
X141235000Y-94610000D03*
D15*
%TO.P,D4,2,A*%
%TO.N,Net-(D1-A)*%
X138695000Y-94610000D03*
%TD*%
D12*
%TO.P,R1,1*%
%TO.N,VCC*%
X144550000Y-86660000D03*
D13*
%TO.P,R1,2*%
%TO.N,Net-(U1-Q)*%
X144550000Y-79040000D03*
%TD*%
D14*
%TO.P,D3,1,K*%
%TO.N,GND*%
X136155000Y-94610000D03*
D15*
%TO.P,D3,2,A*%
%TO.N,Net-(D1-A)*%
X133615000Y-94610000D03*
%TD*%
D16*
%TO.P,U1,1,GND*%
%TO.N,GND*%
X136680000Y-78670000D03*
D13*
%TO.P,U1,2,TR*%
%TO.N,Net-(U1-THR)*%
X134140000Y-78670000D03*
%TO.P,U1,3,Q*%
%TO.N,Net-(U1-Q)*%
X131600000Y-78670000D03*
%TO.P,U1,4,R*%
%TO.N,VCC*%
X129060000Y-78670000D03*
%TO.P,U1,5,CV*%
%TO.N,unconnected-(U1-CV-Pad5)*%
X129060000Y-86290000D03*
%TO.P,U1,6,THR*%
%TO.N,Net-(U1-THR)*%
X131600000Y-86290000D03*
%TO.P,U1,7,DIS*%
%TO.N,Net-(U1-DIS)*%
X134140000Y-86290000D03*
%TO.P,U1,8,VCC*%
%TO.N,VCC*%
X136680000Y-86290000D03*
%TD*%
D12*
%TO.P,R4,1*%
%TO.N,Net-(U2-VO)*%
X130380000Y-88470000D03*
D13*
%TO.P,R4,2*%
%TO.N,Net-(D1-A)*%
X130380000Y-96090000D03*
%TD*%
D16*
%TO.P,C1,1*%
%TO.N,Net-(U1-THR)*%
X147720000Y-79090000D03*
D12*
%TO.P,C1,2*%
%TO.N,GND*%
X150220000Y-79090000D03*
%TD*%
D17*
%TO.P,J2,1,Pin_1*%
%TO.N,VCC*%
X147880000Y-97300000D03*
D18*
%TO.P,J2,2,Pin_2*%
%TO.N,GND*%
X150420000Y-97300000D03*
%TD*%
D14*
%TO.P,D1,1,K*%
%TO.N,GND*%
X136155000Y-92070000D03*
D15*
%TO.P,D1,2,A*%
%TO.N,Net-(D1-A)*%
X138695000Y-92070000D03*
%TD*%
D14*
%TO.P,D2,1,K*%
%TO.N,GND*%
X136155000Y-97150000D03*
D15*
%TO.P,D2,2,A*%
%TO.N,Net-(D1-A)*%
X138695000Y-97150000D03*
%TD*%
D12*
%TO.P,R2,1*%
%TO.N,VCC*%
X144510000Y-97180000D03*
D13*
%TO.P,R2,2*%
%TO.N,Net-(U1-DIS)*%
X144510000Y-89560000D03*
%TD*%
D17*
%TO.P,J3,1,Pin_1*%
%TO.N,VCC*%
X125200000Y-95375000D03*
D18*
%TO.P,J3,2,Pin_2*%
%TO.N,GND*%
X125200000Y-97915000D03*
%TD*%
D19*
%TO.N,GND*%
X150370000Y-77840000D03*
X150440000Y-96020000D03*
X149710000Y-95980000D03*
X151150000Y-80090000D03*
X150425000Y-98680000D03*
X151350000Y-79020000D03*
X149570000Y-77930000D03*
X151200000Y-78060000D03*
X123630000Y-97970000D03*
X151455000Y-98700000D03*
X150240000Y-80360000D03*
X125120000Y-99350000D03*
X151430000Y-96020000D03*
X123910000Y-99080000D03*
X126520000Y-99330000D03*
X126770000Y-97960000D03*
X149615000Y-98900000D03*
%TD*%
D20*
%TO.N,GND*%
X150420000Y-98095000D02*
X150420000Y-97300000D01*
X149525000Y-98990000D02*
X150420000Y-98095000D01*
X125200000Y-97915000D02*
X126275000Y-98990000D01*
X150425000Y-97305000D02*
X150420000Y-97300000D01*
X126275000Y-98990000D02*
X149525000Y-98990000D01*
%TD*%
%TA.AperFunction,Conductor*%
%TO.N,GND*%
G36*
X136405000Y-96774722D02*
G01*
X136328694Y-96730667D01*
X136214244Y-96700000D01*
X136095756Y-96700000D01*
X135981306Y-96730667D01*
X135905000Y-96774722D01*
X135905000Y-94985277D01*
X135981306Y-95029333D01*
X136095756Y-95060000D01*
X136214244Y-95060000D01*
X136328694Y-95029333D01*
X136405000Y-94985277D01*
X136405000Y-96774722D01*
G37*
%TD.AperFunction*%
%TA.AperFunction,Conductor*%
G36*
X136405000Y-94234722D02*
G01*
X136328694Y-94190667D01*
X136214244Y-94160000D01*
X136095756Y-94160000D01*
X135981306Y-94190667D01*
X135905000Y-94234722D01*
X135905000Y-92445277D01*
X135981306Y-92489333D01*
X136095756Y-92520000D01*
X136214244Y-92520000D01*
X136328694Y-92489333D01*
X136405000Y-92445277D01*
X136405000Y-94234722D01*
G37*
%TD.AperFunction*%
%TA.AperFunction,Conductor*%
G36*
X150384418Y-76460816D02*
G01*
X150584561Y-76475130D01*
X150602063Y-76477647D01*
X150793797Y-76519355D01*
X150810755Y-76524334D01*
X150994609Y-76592909D01*
X151010701Y-76600259D01*
X151182904Y-76694288D01*
X151197784Y-76703849D01*
X151354867Y-76821441D01*
X151368237Y-76833027D01*
X151506972Y-76971762D01*
X151518558Y-76985132D01*
X151636146Y-77142210D01*
X151645711Y-77157095D01*
X151739740Y-77329298D01*
X151747090Y-77345390D01*
X151815662Y-77529236D01*
X151820646Y-77546212D01*
X151862351Y-77737931D01*
X151864869Y-77755442D01*
X151879184Y-77955580D01*
X151879500Y-77964427D01*
X151879500Y-90981174D01*
X151859815Y-91048213D01*
X151807011Y-91093968D01*
X151755933Y-91105173D01*
X149011407Y-91114746D01*
X149011406Y-91114746D01*
X147771548Y-92425270D01*
X147771548Y-92425272D01*
X147632288Y-94559727D01*
X147632289Y-94559727D01*
X147632289Y-94559728D01*
X149063916Y-95557827D01*
X149109075Y-95589311D01*
X149109078Y-95589313D01*
X149515611Y-95634430D01*
X149873652Y-95674166D01*
X149873656Y-95674165D01*
X149873661Y-95674166D01*
X151490102Y-95536595D01*
X151744985Y-95514903D01*
X151813452Y-95528831D01*
X151863520Y-95577565D01*
X151879500Y-95638456D01*
X151879500Y-96676208D01*
X151859815Y-96743247D01*
X151807011Y-96789002D01*
X151737853Y-96798946D01*
X151674297Y-96769921D01*
X151643118Y-96728613D01*
X151593600Y-96622422D01*
X151593599Y-96622420D01*
X151458113Y-96428926D01*
X151458108Y-96428920D01*
X151291082Y-96261894D01*
X151097578Y-96126399D01*
X150883492Y-96026570D01*
X150883486Y-96026567D01*
X150670000Y-95969364D01*
X150670000Y-96866988D01*
X150612993Y-96834075D01*
X150485826Y-96800000D01*
X150354174Y-96800000D01*
X150227007Y-96834075D01*
X150170000Y-96866988D01*
X150170000Y-95969364D01*
X150169999Y-95969364D01*
X149956513Y-96026567D01*
X149956507Y-96026570D01*
X149742422Y-96126399D01*
X149742420Y-96126400D01*
X149548926Y-96261886D01*
X149426865Y-96383947D01*
X149365542Y-96417431D01*
X149295850Y-96412447D01*
X149239917Y-96370575D01*
X149223002Y-96339598D01*
X149220348Y-96332483D01*
X149173796Y-96207669D01*
X149173795Y-96207668D01*
X149173793Y-96207664D01*
X149087547Y-96092455D01*
X149087544Y-96092452D01*
X148972335Y-96006206D01*
X148972328Y-96006202D01*
X148837482Y-95955908D01*
X148837483Y-95955908D01*
X148777883Y-95949501D01*
X148777881Y-95949500D01*
X148777873Y-95949500D01*
X148777864Y-95949500D01*
X146982129Y-95949500D01*
X146982123Y-95949501D01*
X146922516Y-95955908D01*
X146787671Y-96006202D01*
X146787664Y-96006206D01*
X146672455Y-96092452D01*
X146672452Y-96092455D01*
X146586206Y-96207664D01*
X146586202Y-96207671D01*
X146535908Y-96342517D01*
X146529501Y-96402116D01*
X146529500Y-96402135D01*
X146529500Y-98197870D01*
X146529501Y-98197876D01*
X146535908Y-98257483D01*
X146586202Y-98392328D01*
X146586206Y-98392335D01*
X146672452Y-98507544D01*
X146672455Y-98507547D01*
X146787664Y-98593793D01*
X146787671Y-98593797D01*
X146922517Y-98644091D01*
X146922516Y-98644091D01*
X146929444Y-98644835D01*
X146982127Y-98650500D01*
X148777872Y-98650499D01*
X148837483Y-98644091D01*
X148972331Y-98593796D01*
X149087546Y-98507546D01*
X149173796Y-98392331D01*
X149180713Y-98373787D01*
X149194021Y-98338105D01*
X149223002Y-98260401D01*
X149264872Y-98204468D01*
X149330337Y-98180050D01*
X149398610Y-98194901D01*
X149426865Y-98216053D01*
X149548917Y-98338105D01*
X149742421Y-98473600D01*
X149956507Y-98573429D01*
X149956516Y-98573433D01*
X150170000Y-98630634D01*
X150170000Y-97733012D01*
X150227007Y-97765925D01*
X150354174Y-97800000D01*
X150485826Y-97800000D01*
X150612993Y-97765925D01*
X150670000Y-97733012D01*
X150670000Y-98630633D01*
X150883483Y-98573433D01*
X150883492Y-98573429D01*
X151097578Y-98473600D01*
X151291082Y-98338105D01*
X151458105Y-98171082D01*
X151593600Y-97977577D01*
X151593601Y-97977575D01*
X151643118Y-97871387D01*
X151689290Y-97818947D01*
X151756483Y-97799795D01*
X151823365Y-97820011D01*
X151868699Y-97873176D01*
X151879500Y-97923791D01*
X151879500Y-97955572D01*
X151879184Y-97964419D01*
X151864869Y-98164557D01*
X151862351Y-98182068D01*
X151820646Y-98373787D01*
X151815662Y-98390763D01*
X151747090Y-98574609D01*
X151739740Y-98590701D01*
X151645711Y-98762904D01*
X151636146Y-98777789D01*
X151518558Y-98934867D01*
X151506972Y-98948237D01*
X151368237Y-99086972D01*
X151354867Y-99098558D01*
X151197789Y-99216146D01*
X151182904Y-99225711D01*
X151010701Y-99319740D01*
X150994609Y-99327090D01*
X150810763Y-99395662D01*
X150793787Y-99400646D01*
X150602068Y-99442351D01*
X150584557Y-99444869D01*
X150403779Y-99457799D01*
X150384417Y-99459184D01*
X150375572Y-99459500D01*
X125593722Y-99459500D01*
X125526683Y-99439815D01*
X125480928Y-99387011D01*
X125470984Y-99317853D01*
X125500009Y-99254297D01*
X125558787Y-99216523D01*
X125561629Y-99215725D01*
X125663483Y-99188433D01*
X125663492Y-99188429D01*
X125877578Y-99088600D01*
X126071082Y-98953105D01*
X126238105Y-98786082D01*
X126373600Y-98592578D01*
X126473429Y-98378492D01*
X126473432Y-98378486D01*
X126530636Y-98165000D01*
X125633012Y-98165000D01*
X125665925Y-98107993D01*
X125700000Y-97980826D01*
X125700000Y-97849174D01*
X125665925Y-97722007D01*
X125633012Y-97665000D01*
X126530636Y-97665000D01*
X126530635Y-97664999D01*
X126473432Y-97451513D01*
X126473429Y-97451507D01*
X126373600Y-97237422D01*
X126373599Y-97237420D01*
X126238113Y-97043926D01*
X126238108Y-97043920D01*
X126116053Y-96921865D01*
X126082568Y-96860542D01*
X126087552Y-96790850D01*
X126129424Y-96734917D01*
X126160400Y-96718002D01*
X126249847Y-96684641D01*
X126292326Y-96668798D01*
X126292326Y-96668797D01*
X126292331Y-96668796D01*
X126407546Y-96582546D01*
X126493796Y-96467331D01*
X126544091Y-96332483D01*
X126550500Y-96272873D01*
X126550500Y-96089998D01*
X129074532Y-96089998D01*
X129074532Y-96090001D01*
X129094364Y-96316686D01*
X129094366Y-96316697D01*
X129153258Y-96536488D01*
X129153261Y-96536497D01*
X129249431Y-96742732D01*
X129249432Y-96742734D01*
X129379954Y-96929141D01*
X129540858Y-97090045D01*
X129565083Y-97107007D01*
X129727266Y-97220568D01*
X129933504Y-97316739D01*
X129933509Y-97316740D01*
X129933511Y-97316741D01*
X129986415Y-97330916D01*
X130153308Y-97375635D01*
X130315230Y-97389801D01*
X130379998Y-97395468D01*
X130380000Y-97395468D01*
X130380002Y-97395468D01*
X130436673Y-97390509D01*
X130606692Y-97375635D01*
X130826496Y-97316739D01*
X131032734Y-97220568D01*
X131219139Y-97090047D01*
X131380047Y-96929139D01*
X131510568Y-96742734D01*
X131606739Y-96536496D01*
X131665635Y-96316692D01*
X131685253Y-96092454D01*
X131685468Y-96090001D01*
X131685468Y-96089998D01*
X131674909Y-95969313D01*
X131665635Y-95863308D01*
X131606739Y-95643504D01*
X131510568Y-95437266D01*
X131380047Y-95250861D01*
X131380045Y-95250858D01*
X131219141Y-95089954D01*
X131032734Y-94959432D01*
X131032732Y-94959431D01*
X130826497Y-94863261D01*
X130826488Y-94863258D01*
X130606697Y-94804366D01*
X130606693Y-94804365D01*
X130606692Y-94804365D01*
X130606691Y-94804364D01*
X130606686Y-94804364D01*
X130380002Y-94784532D01*
X130379998Y-94784532D01*
X130153313Y-94804364D01*
X130153302Y-94804366D01*
X129933511Y-94863258D01*
X129933502Y-94863261D01*
X129727267Y-94959431D01*
X129727265Y-94959432D01*
X129540858Y-95089954D01*
X129379954Y-95250858D01*
X129249432Y-95437265D01*
X129249431Y-95437267D01*
X129153261Y-95643502D01*
X129153258Y-95643511D01*
X129094366Y-95863302D01*
X129094364Y-95863313D01*
X129074532Y-96089998D01*
X126550500Y-96089998D01*
X126550499Y-94609993D01*
X132209700Y-94609993D01*
X132209700Y-94610006D01*
X132228864Y-94841297D01*
X132228866Y-94841308D01*
X132285842Y-95066300D01*
X132379075Y-95278848D01*
X132506016Y-95473147D01*
X132506019Y-95473151D01*
X132506021Y-95473153D01*
X132663216Y-95643913D01*
X132663219Y-95643915D01*
X132663222Y-95643918D01*
X132846365Y-95786464D01*
X132846371Y-95786468D01*
X132846374Y-95786470D01*
X133050497Y-95896936D01*
X133121010Y-95921143D01*
X133270015Y-95972297D01*
X133270017Y-95972297D01*
X133270019Y-95972298D01*
X133498951Y-96010500D01*
X133498952Y-96010500D01*
X133731048Y-96010500D01*
X133731049Y-96010500D01*
X133959981Y-95972298D01*
X134179503Y-95896936D01*
X134383626Y-95786470D01*
X134389182Y-95782146D01*
X134526740Y-95675080D01*
X134566784Y-95643913D01*
X134575511Y-95634432D01*
X134635394Y-95598441D01*
X134705232Y-95600538D01*
X134762850Y-95640060D01*
X134782924Y-95675080D01*
X134811645Y-95752086D01*
X134811647Y-95752088D01*
X134851772Y-95805689D01*
X134876189Y-95871153D01*
X134861338Y-95939426D01*
X134851772Y-95954311D01*
X134811647Y-96007911D01*
X134811645Y-96007913D01*
X134761403Y-96142620D01*
X134761401Y-96142627D01*
X134755000Y-96202155D01*
X134755000Y-96900000D01*
X135779722Y-96900000D01*
X135735667Y-96976306D01*
X135705000Y-97090756D01*
X135705000Y-97209244D01*
X135735667Y-97323694D01*
X135779722Y-97400000D01*
X134755000Y-97400000D01*
X134755000Y-98097844D01*
X134761401Y-98157372D01*
X134761403Y-98157379D01*
X134811645Y-98292086D01*
X134811649Y-98292093D01*
X134897809Y-98407187D01*
X134897812Y-98407190D01*
X135012906Y-98493350D01*
X135012913Y-98493354D01*
X135147620Y-98543596D01*
X135147627Y-98543598D01*
X135207155Y-98549999D01*
X135207172Y-98550000D01*
X135905000Y-98550000D01*
X135905000Y-97525277D01*
X135981306Y-97569333D01*
X136095756Y-97600000D01*
X136214244Y-97600000D01*
X136328694Y-97569333D01*
X136405000Y-97525277D01*
X136405000Y-98550000D01*
X137102828Y-98550000D01*
X137102844Y-98549999D01*
X137162372Y-98543598D01*
X137162379Y-98543596D01*
X137297086Y-98493354D01*
X137297093Y-98493350D01*
X137412187Y-98407190D01*
X137412190Y-98407187D01*
X137498350Y-98292093D01*
X137498355Y-98292084D01*
X137527075Y-98215081D01*
X137568945Y-98159147D01*
X137634409Y-98134729D01*
X137702682Y-98149580D01*
X137734484Y-98174428D01*
X137743216Y-98183913D01*
X137743219Y-98183915D01*
X137743222Y-98183918D01*
X137926365Y-98326464D01*
X137926371Y-98326468D01*
X137926374Y-98326470D01*
X138130497Y-98436936D01*
X138237296Y-98473600D01*
X138350015Y-98512297D01*
X138350017Y-98512297D01*
X138350019Y-98512298D01*
X138578951Y-98550500D01*
X138578952Y-98550500D01*
X138811048Y-98550500D01*
X138811049Y-98550500D01*
X139039981Y-98512298D01*
X139259503Y-98436936D01*
X139463626Y-98326470D01*
X139646784Y-98183913D01*
X139803979Y-98013153D01*
X139930924Y-97818849D01*
X140024157Y-97606300D01*
X140081134Y-97381305D01*
X140086484Y-97316738D01*
X140097815Y-97179998D01*
X143204532Y-97179998D01*
X143204532Y-97180001D01*
X143224364Y-97406686D01*
X143224366Y-97406697D01*
X143283258Y-97626488D01*
X143283261Y-97626497D01*
X143379431Y-97832732D01*
X143379432Y-97832734D01*
X143509954Y-98019141D01*
X143670858Y-98180045D01*
X143670861Y-98180047D01*
X143857266Y-98310568D01*
X144063504Y-98406739D01*
X144063509Y-98406740D01*
X144063511Y-98406741D01*
X144116415Y-98420916D01*
X144283308Y-98465635D01*
X144445230Y-98479801D01*
X144509998Y-98485468D01*
X144510000Y-98485468D01*
X144510002Y-98485468D01*
X144566673Y-98480509D01*
X144736692Y-98465635D01*
X144956496Y-98406739D01*
X145162734Y-98310568D01*
X145349139Y-98180047D01*
X145510047Y-98019139D01*
X145640568Y-97832734D01*
X145736739Y-97626496D01*
X145795635Y-97406692D01*
X145815468Y-97180000D01*
X145795635Y-96953308D01*
X145736739Y-96733504D01*
X145640568Y-96527266D01*
X145510047Y-96340861D01*
X145510045Y-96340858D01*
X145349141Y-96179954D01*
X145162734Y-96049432D01*
X145162732Y-96049431D01*
X144956497Y-95953261D01*
X144956488Y-95953258D01*
X144736697Y-95894366D01*
X144736693Y-95894365D01*
X144736692Y-95894365D01*
X144736691Y-95894364D01*
X144736686Y-95894364D01*
X144510002Y-95874532D01*
X144509998Y-95874532D01*
X144283313Y-95894364D01*
X144283302Y-95894366D01*
X144063511Y-95953258D01*
X144063502Y-95953261D01*
X143857267Y-96049431D01*
X143857265Y-96049432D01*
X143670858Y-96179954D01*
X143509954Y-96340858D01*
X143379432Y-96527265D01*
X143379431Y-96527267D01*
X143283261Y-96733502D01*
X143283258Y-96733511D01*
X143224366Y-96953302D01*
X143224364Y-96953313D01*
X143204532Y-97179998D01*
X140097815Y-97179998D01*
X140100300Y-97150006D01*
X140100300Y-97149993D01*
X140081135Y-96918702D01*
X140081133Y-96918691D01*
X140024157Y-96693699D01*
X139930924Y-96481151D01*
X139803983Y-96286852D01*
X139803980Y-96286849D01*
X139803979Y-96286847D01*
X139646784Y-96116087D01*
X139469180Y-95977853D01*
X139428368Y-95921143D01*
X139424693Y-95851370D01*
X139459324Y-95790687D01*
X139469181Y-95782146D01*
X139646784Y-95643913D01*
X139655511Y-95634432D01*
X139715394Y-95598441D01*
X139785232Y-95600538D01*
X139842850Y-95640060D01*
X139862924Y-95675080D01*
X139891645Y-95752086D01*
X139891649Y-95752093D01*
X139977809Y-95867187D01*
X139977812Y-95867190D01*
X140092906Y-95953350D01*
X140092913Y-95953354D01*
X140227620Y-96003596D01*
X140227627Y-96003598D01*
X140287155Y-96009999D01*
X140287172Y-96010000D01*
X140985000Y-96010000D01*
X140985000Y-94985277D01*
X141061306Y-95029333D01*
X141175756Y-95060000D01*
X141294244Y-95060000D01*
X141408694Y-95029333D01*
X141485000Y-94985277D01*
X141485000Y-96010000D01*
X142182828Y-96010000D01*
X142182844Y-96009999D01*
X142242372Y-96003598D01*
X142242379Y-96003596D01*
X142377086Y-95953354D01*
X142377093Y-95953350D01*
X142492187Y-95867190D01*
X142492190Y-95867187D01*
X142578350Y-95752093D01*
X142578354Y-95752086D01*
X142628596Y-95617379D01*
X142628598Y-95617372D01*
X142634999Y-95557844D01*
X142635000Y-95557827D01*
X142635000Y-94860000D01*
X141610278Y-94860000D01*
X141654333Y-94783694D01*
X141685000Y-94669244D01*
X141685000Y-94550756D01*
X141654333Y-94436306D01*
X141610278Y-94360000D01*
X142635000Y-94360000D01*
X142635000Y-93662172D01*
X142634999Y-93662155D01*
X142628598Y-93602627D01*
X142628596Y-93602620D01*
X142578354Y-93467913D01*
X142578350Y-93467906D01*
X142492190Y-93352812D01*
X142492187Y-93352809D01*
X142377093Y-93266649D01*
X142377086Y-93266645D01*
X142242379Y-93216403D01*
X142242372Y-93216401D01*
X142182844Y-93210000D01*
X141485000Y-93210000D01*
X141485000Y-94234722D01*
X141408694Y-94190667D01*
X141294244Y-94160000D01*
X141175756Y-94160000D01*
X141061306Y-94190667D01*
X140985000Y-94234722D01*
X140985000Y-93210000D01*
X140287155Y-93210000D01*
X140227627Y-93216401D01*
X140227620Y-93216403D01*
X140092913Y-93266645D01*
X140092906Y-93266649D01*
X139977812Y-93352809D01*
X139977809Y-93352812D01*
X139891649Y-93467906D01*
X139891646Y-93467911D01*
X139862924Y-93544920D01*
X139821052Y-93600853D01*
X139755588Y-93625270D01*
X139687315Y-93610418D01*
X139655514Y-93585571D01*
X139646784Y-93576087D01*
X139469180Y-93437853D01*
X139428368Y-93381143D01*
X139424693Y-93311370D01*
X139459324Y-93250687D01*
X139469181Y-93242146D01*
X139646784Y-93103913D01*
X139803979Y-92933153D01*
X139930924Y-92738849D01*
X140024157Y-92526300D01*
X140081134Y-92301305D01*
X140091102Y-92181007D01*
X140100300Y-92070006D01*
X140100300Y-92069993D01*
X140081135Y-91838702D01*
X140081133Y-91838691D01*
X140024157Y-91613699D01*
X139930924Y-91401151D01*
X139803983Y-91206852D01*
X139803980Y-91206849D01*
X139803979Y-91206847D01*
X139646784Y-91036087D01*
X139646779Y-91036083D01*
X139646777Y-91036081D01*
X139463634Y-90893535D01*
X139463628Y-90893531D01*
X139259504Y-90783064D01*
X139259495Y-90783061D01*
X139039984Y-90707702D01*
X138852404Y-90676401D01*
X138811049Y-90669500D01*
X138578951Y-90669500D01*
X138537596Y-90676401D01*
X138350015Y-90707702D01*
X138130504Y-90783061D01*
X138130495Y-90783064D01*
X137926371Y-90893531D01*
X137926365Y-90893535D01*
X137743222Y-91036081D01*
X137743215Y-91036087D01*
X137734484Y-91045572D01*
X137674595Y-91081561D01*
X137604757Y-91079458D01*
X137547143Y-91039932D01*
X137527075Y-91004918D01*
X137498355Y-90927915D01*
X137498350Y-90927906D01*
X137412190Y-90812812D01*
X137412187Y-90812809D01*
X137297093Y-90726649D01*
X137297086Y-90726645D01*
X137162379Y-90676403D01*
X137162372Y-90676401D01*
X137102844Y-90670000D01*
X136405000Y-90670000D01*
X136405000Y-91694722D01*
X136328694Y-91650667D01*
X136214244Y-91620000D01*
X136095756Y-91620000D01*
X135981306Y-91650667D01*
X135905000Y-91694722D01*
X135905000Y-90670000D01*
X135207155Y-90670000D01*
X135147627Y-90676401D01*
X135147620Y-90676403D01*
X135012913Y-90726645D01*
X135012906Y-90726649D01*
X134897812Y-90812809D01*
X134897809Y-90812812D01*
X134811649Y-90927906D01*
X134811645Y-90927913D01*
X134761403Y-91062620D01*
X134761401Y-91062627D01*
X134755000Y-91122155D01*
X134755000Y-91820000D01*
X135779722Y-91820000D01*
X135735667Y-91896306D01*
X135705000Y-92010756D01*
X135705000Y-92129244D01*
X135735667Y-92243694D01*
X135779722Y-92320000D01*
X134755000Y-92320000D01*
X134755000Y-93017844D01*
X134761401Y-93077372D01*
X134761403Y-93077379D01*
X134811645Y-93212086D01*
X134811647Y-93212088D01*
X134851772Y-93265689D01*
X134876189Y-93331153D01*
X134861338Y-93399426D01*
X134851772Y-93414311D01*
X134811647Y-93467911D01*
X134811646Y-93467911D01*
X134782924Y-93544920D01*
X134741052Y-93600853D01*
X134675588Y-93625270D01*
X134607315Y-93610418D01*
X134575514Y-93585571D01*
X134566784Y-93576087D01*
X134566779Y-93576083D01*
X134566777Y-93576081D01*
X134383634Y-93433535D01*
X134383628Y-93433531D01*
X134179504Y-93323064D01*
X134179495Y-93323061D01*
X133959984Y-93247702D01*
X133772404Y-93216401D01*
X133731049Y-93209500D01*
X133498951Y-93209500D01*
X133457596Y-93216401D01*
X133270015Y-93247702D01*
X133050504Y-93323061D01*
X133050495Y-93323064D01*
X132846371Y-93433531D01*
X132846365Y-93433535D01*
X132663222Y-93576081D01*
X132663219Y-93576084D01*
X132663216Y-93576086D01*
X132663216Y-93576087D01*
X132638791Y-93602620D01*
X132506016Y-93746852D01*
X132379075Y-93941151D01*
X132285842Y-94153699D01*
X132228866Y-94378691D01*
X132228864Y-94378702D01*
X132209700Y-94609993D01*
X126550499Y-94609993D01*
X126550499Y-94477128D01*
X126544091Y-94417517D01*
X126529611Y-94378695D01*
X126493797Y-94282671D01*
X126493793Y-94282664D01*
X126407547Y-94167455D01*
X126407544Y-94167452D01*
X126292335Y-94081206D01*
X126292328Y-94081202D01*
X126157482Y-94030908D01*
X126157483Y-94030908D01*
X126097883Y-94024501D01*
X126097881Y-94024500D01*
X126097873Y-94024500D01*
X126097864Y-94024500D01*
X124302129Y-94024500D01*
X124302123Y-94024501D01*
X124242516Y-94030908D01*
X124107671Y-94081202D01*
X124107664Y-94081206D01*
X123992455Y-94167452D01*
X123992452Y-94167455D01*
X123906206Y-94282664D01*
X123906202Y-94282671D01*
X123855908Y-94417517D01*
X123849501Y-94477116D01*
X123849501Y-94477123D01*
X123849500Y-94477135D01*
X123849500Y-96272870D01*
X123849501Y-96272876D01*
X123855908Y-96332483D01*
X123906202Y-96467328D01*
X123906206Y-96467335D01*
X123992452Y-96582544D01*
X123992455Y-96582547D01*
X124107664Y-96668793D01*
X124107671Y-96668797D01*
X124169902Y-96692007D01*
X124239598Y-96718002D01*
X124295531Y-96759873D01*
X124319949Y-96825337D01*
X124305098Y-96893610D01*
X124283947Y-96921865D01*
X124161886Y-97043926D01*
X124026400Y-97237420D01*
X124026399Y-97237422D01*
X123926570Y-97451507D01*
X123926567Y-97451513D01*
X123869364Y-97664999D01*
X123869364Y-97665000D01*
X124766988Y-97665000D01*
X124734075Y-97722007D01*
X124700000Y-97849174D01*
X124700000Y-97980826D01*
X124734075Y-98107993D01*
X124766988Y-98165000D01*
X123869364Y-98165000D01*
X123926567Y-98378486D01*
X123926570Y-98378492D01*
X124026399Y-98592578D01*
X124161894Y-98786082D01*
X124328917Y-98953105D01*
X124522421Y-99088600D01*
X124736507Y-99188429D01*
X124736516Y-99188433D01*
X124838371Y-99215725D01*
X124898032Y-99252090D01*
X124928561Y-99314937D01*
X124920266Y-99384312D01*
X124875781Y-99438190D01*
X124809229Y-99459465D01*
X124806278Y-99459500D01*
X124384428Y-99459500D01*
X124375582Y-99459184D01*
X124353622Y-99457613D01*
X124175442Y-99444869D01*
X124157931Y-99442351D01*
X123966212Y-99400646D01*
X123949236Y-99395662D01*
X123765390Y-99327090D01*
X123749298Y-99319740D01*
X123577095Y-99225711D01*
X123562210Y-99216146D01*
X123405132Y-99098558D01*
X123391762Y-99086972D01*
X123253027Y-98948237D01*
X123241441Y-98934867D01*
X123123849Y-98777784D01*
X123114288Y-98762904D01*
X123020259Y-98590701D01*
X123012909Y-98574609D01*
X122989668Y-98512298D01*
X122944334Y-98390755D01*
X122939355Y-98373797D01*
X122897647Y-98182063D01*
X122895130Y-98164556D01*
X122894743Y-98159147D01*
X122880816Y-97964418D01*
X122880500Y-97955572D01*
X122880500Y-88967135D01*
X124689500Y-88967135D01*
X124689500Y-90112870D01*
X124689501Y-90112876D01*
X124695908Y-90172483D01*
X124746202Y-90307328D01*
X124746203Y-90307330D01*
X124746204Y-90307331D01*
X124747028Y-90308432D01*
X124747509Y-90309721D01*
X124750454Y-90315114D01*
X124749678Y-90315537D01*
X124771448Y-90373895D01*
X124762325Y-90430198D01*
X124728910Y-90510868D01*
X124728907Y-90510880D01*
X124689500Y-90708992D01*
X124689500Y-90911007D01*
X124728907Y-91109119D01*
X124728909Y-91109127D01*
X124806213Y-91295755D01*
X124859904Y-91376109D01*
X124880782Y-91442787D01*
X124862297Y-91510167D01*
X124859904Y-91513891D01*
X124806213Y-91594244D01*
X124728909Y-91780872D01*
X124728907Y-91780880D01*
X124689500Y-91978992D01*
X124689500Y-92181007D01*
X124728907Y-92379119D01*
X124728909Y-92379127D01*
X124806212Y-92565752D01*
X124806217Y-92565762D01*
X124918441Y-92733718D01*
X125061281Y-92876558D01*
X125229237Y-92988782D01*
X125229241Y-92988784D01*
X125229244Y-92988786D01*
X125415873Y-93066091D01*
X125558344Y-93094430D01*
X125613992Y-93105499D01*
X125613996Y-93105500D01*
X125613997Y-93105500D01*
X126266004Y-93105500D01*
X126266005Y-93105499D01*
X126464127Y-93066091D01*
X126650756Y-92988786D01*
X126818718Y-92876558D01*
X126961558Y-92733718D01*
X127073786Y-92565756D01*
X127151091Y-92379127D01*
X127190500Y-92181003D01*
X127190500Y-91978997D01*
X127151091Y-91780873D01*
X127073786Y-91594244D01*
X127020094Y-91513889D01*
X126999217Y-91447214D01*
X127017701Y-91379834D01*
X127020078Y-91376134D01*
X127073786Y-91295756D01*
X127151091Y-91109127D01*
X127190500Y-90911003D01*
X127190500Y-90708997D01*
X127151091Y-90510873D01*
X127117673Y-90430198D01*
X127110205Y-90360730D01*
X127129964Y-90315340D01*
X127129547Y-90315112D01*
X127132095Y-90310444D01*
X127132972Y-90308431D01*
X127133796Y-90307331D01*
X127184091Y-90172483D01*
X127190500Y-90112873D01*
X127190499Y-88967128D01*
X127184091Y-88907517D01*
X127183997Y-88907266D01*
X127133797Y-88772671D01*
X127133793Y-88772664D01*
X127047547Y-88657455D01*
X127047544Y-88657452D01*
X126932335Y-88571206D01*
X126932328Y-88571202D01*
X126797482Y-88520908D01*
X126797483Y-88520908D01*
X126737883Y-88514501D01*
X126737881Y-88514500D01*
X126737873Y-88514500D01*
X126737864Y-88514500D01*
X125142129Y-88514500D01*
X125142123Y-88514501D01*
X125082516Y-88520908D01*
X124947671Y-88571202D01*
X124947664Y-88571206D01*
X124832455Y-88657452D01*
X124832452Y-88657455D01*
X124746206Y-88772664D01*
X124746202Y-88772671D01*
X124695908Y-88907517D01*
X124689501Y-88967116D01*
X124689501Y-88967123D01*
X124689500Y-88967135D01*
X122880500Y-88967135D01*
X122880500Y-88212445D01*
X122900185Y-88145406D01*
X122952989Y-88099651D01*
X122999969Y-88088528D01*
X126189185Y-87971993D01*
X126924175Y-86859384D01*
X126871243Y-86289998D01*
X127754532Y-86289998D01*
X127754532Y-86290001D01*
X127774364Y-86516686D01*
X127774366Y-86516697D01*
X127833258Y-86736488D01*
X127833261Y-86736497D01*
X127929431Y-86942732D01*
X127929432Y-86942734D01*
X128059954Y-87129141D01*
X128220858Y-87290045D01*
X128220861Y-87290047D01*
X128407266Y-87420568D01*
X128613504Y-87516739D01*
X128833308Y-87575635D01*
X128995230Y-87589801D01*
X129059998Y-87595468D01*
X129060000Y-87595468D01*
X129060001Y-87595468D01*
X129072547Y-87594370D01*
X129162328Y-87586515D01*
X129230826Y-87600281D01*
X129281009Y-87648896D01*
X129296943Y-87716925D01*
X129274710Y-87781165D01*
X129249431Y-87817267D01*
X129153261Y-88023502D01*
X129153258Y-88023511D01*
X129094366Y-88243302D01*
X129094364Y-88243313D01*
X129074532Y-88469998D01*
X129074532Y-88470001D01*
X129094364Y-88696686D01*
X129094366Y-88696697D01*
X129153258Y-88916488D01*
X129153261Y-88916497D01*
X129249431Y-89122732D01*
X129249432Y-89122734D01*
X129379954Y-89309141D01*
X129540858Y-89470045D01*
X129540861Y-89470047D01*
X129727266Y-89600568D01*
X129933504Y-89696739D01*
X130153308Y-89755635D01*
X130315230Y-89769801D01*
X130379998Y-89775468D01*
X130380000Y-89775468D01*
X130380002Y-89775468D01*
X130436673Y-89770509D01*
X130606692Y-89755635D01*
X130826496Y-89696739D01*
X131032734Y-89600568D01*
X131090674Y-89559998D01*
X143204532Y-89559998D01*
X143204532Y-89560001D01*
X143224364Y-89786686D01*
X143224366Y-89786697D01*
X143283258Y-90006488D01*
X143283261Y-90006497D01*
X143379431Y-90212732D01*
X143379432Y-90212734D01*
X143509954Y-90399141D01*
X143670858Y-90560045D01*
X143670861Y-90560047D01*
X143857266Y-90690568D01*
X144063504Y-90786739D01*
X144283308Y-90845635D01*
X144445230Y-90859801D01*
X144509998Y-90865468D01*
X144510000Y-90865468D01*
X144510002Y-90865468D01*
X144566673Y-90860509D01*
X144736692Y-90845635D01*
X144956496Y-90786739D01*
X145162734Y-90690568D01*
X145349139Y-90560047D01*
X145510047Y-90399139D01*
X145640568Y-90212734D01*
X145736739Y-90006496D01*
X145795635Y-89786692D01*
X145815468Y-89560000D01*
X145795635Y-89333308D01*
X145736739Y-89113504D01*
X145640568Y-88907266D01*
X145510047Y-88720861D01*
X145510045Y-88720858D01*
X145349141Y-88559954D01*
X145162734Y-88429432D01*
X145162732Y-88429431D01*
X144956497Y-88333261D01*
X144956488Y-88333258D01*
X144736697Y-88274366D01*
X144736693Y-88274365D01*
X144736692Y-88274365D01*
X144736691Y-88274364D01*
X144736686Y-88274364D01*
X144510002Y-88254532D01*
X144509998Y-88254532D01*
X144283313Y-88274364D01*
X144283302Y-88274366D01*
X144063511Y-88333258D01*
X144063502Y-88333261D01*
X143857267Y-88429431D01*
X143857265Y-88429432D01*
X143670858Y-88559954D01*
X143509954Y-88720858D01*
X143379432Y-88907265D01*
X143379431Y-88907267D01*
X143283261Y-89113502D01*
X143283258Y-89113511D01*
X143224366Y-89333302D01*
X143224364Y-89333313D01*
X143204532Y-89559998D01*
X131090674Y-89559998D01*
X131219139Y-89470047D01*
X131380047Y-89309139D01*
X131510568Y-89122734D01*
X131606739Y-88916496D01*
X131665635Y-88696692D01*
X131685468Y-88470000D01*
X131665635Y-88243308D01*
X131606739Y-88023504D01*
X131510568Y-87817266D01*
X131491814Y-87790483D01*
X131469489Y-87724280D01*
X131486499Y-87656513D01*
X131537447Y-87608700D01*
X131594586Y-87597698D01*
X131594586Y-87595468D01*
X131600002Y-87595468D01*
X131656673Y-87590509D01*
X131826692Y-87575635D01*
X132046496Y-87516739D01*
X132252734Y-87420568D01*
X132439139Y-87290047D01*
X132600047Y-87129139D01*
X132730568Y-86942734D01*
X132757618Y-86884724D01*
X132803790Y-86832285D01*
X132870983Y-86813133D01*
X132937865Y-86833348D01*
X132982381Y-86884724D01*
X132996517Y-86915038D01*
X133009429Y-86942728D01*
X133009432Y-86942734D01*
X133139954Y-87129141D01*
X133300858Y-87290045D01*
X133300861Y-87290047D01*
X133487266Y-87420568D01*
X133693504Y-87516739D01*
X133913308Y-87575635D01*
X134075230Y-87589801D01*
X134139998Y-87595468D01*
X134140000Y-87595468D01*
X134140002Y-87595468D01*
X134196673Y-87590509D01*
X134366692Y-87575635D01*
X134586496Y-87516739D01*
X134792734Y-87420568D01*
X134979139Y-87290047D01*
X135140047Y-87129139D01*
X135270568Y-86942734D01*
X135297618Y-86884724D01*
X135343790Y-86832285D01*
X135410983Y-86813133D01*
X135477865Y-86833348D01*
X135522381Y-86884724D01*
X135536517Y-86915038D01*
X135549429Y-86942728D01*
X135549432Y-86942734D01*
X135679954Y-87129141D01*
X135840858Y-87290045D01*
X135840861Y-87290047D01*
X136027266Y-87420568D01*
X136233504Y-87516739D01*
X136453308Y-87575635D01*
X136615230Y-87589801D01*
X136679998Y-87595468D01*
X136680000Y-87595468D01*
X136680002Y-87595468D01*
X136736673Y-87590509D01*
X136906692Y-87575635D01*
X137126496Y-87516739D01*
X137332734Y-87420568D01*
X137519139Y-87290047D01*
X137680047Y-87129139D01*
X137810568Y-86942734D01*
X137906739Y-86736496D01*
X137935275Y-86629998D01*
X140204532Y-86629998D01*
X140204532Y-86630001D01*
X140224364Y-86856686D01*
X140224366Y-86856697D01*
X140283258Y-87076488D01*
X140283261Y-87076497D01*
X140379431Y-87282732D01*
X140379432Y-87282734D01*
X140509954Y-87469141D01*
X140670858Y-87630045D01*
X140697780Y-87648896D01*
X140857266Y-87760568D01*
X141063504Y-87856739D01*
X141283308Y-87915635D01*
X141445230Y-87929801D01*
X141509998Y-87935468D01*
X141510000Y-87935468D01*
X141510002Y-87935468D01*
X141566673Y-87930509D01*
X141736692Y-87915635D01*
X141956496Y-87856739D01*
X142162734Y-87760568D01*
X142349139Y-87630047D01*
X142510047Y-87469139D01*
X142640568Y-87282734D01*
X142736739Y-87076496D01*
X142795635Y-86856692D01*
X142812844Y-86659998D01*
X143244532Y-86659998D01*
X143244532Y-86660001D01*
X143264364Y-86886686D01*
X143264366Y-86886697D01*
X143323258Y-87106488D01*
X143323261Y-87106497D01*
X143419431Y-87312732D01*
X143419432Y-87312734D01*
X143549954Y-87499141D01*
X143710858Y-87660045D01*
X143710861Y-87660047D01*
X143897266Y-87790568D01*
X144103504Y-87886739D01*
X144323308Y-87945635D01*
X144485230Y-87959801D01*
X144549998Y-87965468D01*
X144550000Y-87965468D01*
X144550002Y-87965468D01*
X144606673Y-87960509D01*
X144776692Y-87945635D01*
X144996496Y-87886739D01*
X145202734Y-87790568D01*
X145389139Y-87660047D01*
X145550047Y-87499139D01*
X145680568Y-87312734D01*
X145776739Y-87106496D01*
X145835635Y-86886692D01*
X145855468Y-86660000D01*
X145852843Y-86630001D01*
X145848035Y-86575042D01*
X145835635Y-86433308D01*
X145776739Y-86213504D01*
X145680568Y-86007266D01*
X145550047Y-85820861D01*
X145550045Y-85820858D01*
X145389141Y-85659954D01*
X145202734Y-85529432D01*
X145202732Y-85529431D01*
X144996497Y-85433261D01*
X144996488Y-85433258D01*
X144776697Y-85374366D01*
X144776693Y-85374365D01*
X144776692Y-85374365D01*
X144776691Y-85374364D01*
X144776686Y-85374364D01*
X144550002Y-85354532D01*
X144549998Y-85354532D01*
X144323313Y-85374364D01*
X144323302Y-85374366D01*
X144103511Y-85433258D01*
X144103502Y-85433261D01*
X143897267Y-85529431D01*
X143897265Y-85529432D01*
X143710858Y-85659954D01*
X143549954Y-85820858D01*
X143419432Y-86007265D01*
X143419431Y-86007267D01*
X143323261Y-86213502D01*
X143323258Y-86213511D01*
X143264366Y-86433302D01*
X143264364Y-86433313D01*
X143244532Y-86659998D01*
X142812844Y-86659998D01*
X142815468Y-86630000D01*
X142795635Y-86403308D01*
X142736739Y-86183504D01*
X142640568Y-85977266D01*
X142510047Y-85790861D01*
X142510045Y-85790858D01*
X142349141Y-85629954D01*
X142162734Y-85499432D01*
X142162732Y-85499431D01*
X141956497Y-85403261D01*
X141956488Y-85403258D01*
X141736697Y-85344366D01*
X141736693Y-85344365D01*
X141736692Y-85344365D01*
X141736691Y-85344364D01*
X141736686Y-85344364D01*
X141510002Y-85324532D01*
X141509998Y-85324532D01*
X141283313Y-85344364D01*
X141283302Y-85344366D01*
X141063511Y-85403258D01*
X141063502Y-85403261D01*
X140857267Y-85499431D01*
X140857265Y-85499432D01*
X140670858Y-85629954D01*
X140509954Y-85790858D01*
X140379432Y-85977265D01*
X140379431Y-85977267D01*
X140283261Y-86183502D01*
X140283258Y-86183511D01*
X140224366Y-86403302D01*
X140224364Y-86403313D01*
X140204532Y-86629998D01*
X137935275Y-86629998D01*
X137965635Y-86516692D01*
X137985468Y-86290000D01*
X137965635Y-86063308D01*
X137906739Y-85843504D01*
X137810568Y-85637266D01*
X137680047Y-85450861D01*
X137680045Y-85450858D01*
X137519141Y-85289954D01*
X137332734Y-85159432D01*
X137332732Y-85159431D01*
X137126497Y-85063261D01*
X137126488Y-85063258D01*
X136906697Y-85004366D01*
X136906693Y-85004365D01*
X136906692Y-85004365D01*
X136906691Y-85004364D01*
X136906686Y-85004364D01*
X136680002Y-84984532D01*
X136679998Y-84984532D01*
X136453313Y-85004364D01*
X136453302Y-85004366D01*
X136233511Y-85063258D01*
X136233502Y-85063261D01*
X136027267Y-85159431D01*
X136027265Y-85159432D01*
X135840858Y-85289954D01*
X135679954Y-85450858D01*
X135549432Y-85637265D01*
X135549431Y-85637267D01*
X135522382Y-85695275D01*
X135476209Y-85747714D01*
X135409016Y-85766866D01*
X135342135Y-85746650D01*
X135297618Y-85695275D01*
X135270568Y-85637266D01*
X135140047Y-85450861D01*
X135140045Y-85450858D01*
X134979141Y-85289954D01*
X134792734Y-85159432D01*
X134792732Y-85159431D01*
X134586497Y-85063261D01*
X134586488Y-85063258D01*
X134366697Y-85004366D01*
X134366693Y-85004365D01*
X134366692Y-85004365D01*
X134366691Y-85004364D01*
X134366686Y-85004364D01*
X134140002Y-84984532D01*
X134139998Y-84984532D01*
X133913313Y-85004364D01*
X133913302Y-85004366D01*
X133693511Y-85063258D01*
X133693502Y-85063261D01*
X133487267Y-85159431D01*
X133487265Y-85159432D01*
X133300858Y-85289954D01*
X133139954Y-85450858D01*
X133009432Y-85637265D01*
X133009431Y-85637267D01*
X132982382Y-85695275D01*
X132936209Y-85747714D01*
X132869016Y-85766866D01*
X132802135Y-85746650D01*
X132757618Y-85695275D01*
X132730568Y-85637266D01*
X132600047Y-85450861D01*
X132600045Y-85450858D01*
X132439141Y-85289954D01*
X132252734Y-85159432D01*
X132252732Y-85159431D01*
X132046497Y-85063261D01*
X132046488Y-85063258D01*
X131826697Y-85004366D01*
X131826693Y-85004365D01*
X131826692Y-85004365D01*
X131826691Y-85004364D01*
X131826686Y-85004364D01*
X131600002Y-84984532D01*
X131599998Y-84984532D01*
X131373313Y-85004364D01*
X131373302Y-85004366D01*
X131153511Y-85063258D01*
X131153502Y-85063261D01*
X130947267Y-85159431D01*
X130947265Y-85159432D01*
X130760858Y-85289954D01*
X130599954Y-85450858D01*
X130469432Y-85637265D01*
X130469431Y-85637267D01*
X130442382Y-85695275D01*
X130396209Y-85747714D01*
X130329016Y-85766866D01*
X130262135Y-85746650D01*
X130217618Y-85695275D01*
X130190568Y-85637266D01*
X130060047Y-85450861D01*
X130060045Y-85450858D01*
X129899141Y-85289954D01*
X129712734Y-85159432D01*
X129712732Y-85159431D01*
X129506497Y-85063261D01*
X129506488Y-85063258D01*
X129286697Y-85004366D01*
X129286693Y-85004365D01*
X129286692Y-85004365D01*
X129286691Y-85004364D01*
X129286686Y-85004364D01*
X129060002Y-84984532D01*
X129059998Y-84984532D01*
X128833313Y-85004364D01*
X128833302Y-85004366D01*
X128613511Y-85063258D01*
X128613502Y-85063261D01*
X128407267Y-85159431D01*
X128407265Y-85159432D01*
X128220858Y-85289954D01*
X128059954Y-85450858D01*
X127929432Y-85637265D01*
X127929431Y-85637267D01*
X127833261Y-85843502D01*
X127833258Y-85843511D01*
X127774366Y-86063302D01*
X127774364Y-86063313D01*
X127754532Y-86289998D01*
X126871243Y-86289998D01*
X126670430Y-84129854D01*
X124753254Y-83266425D01*
X124753252Y-83266425D01*
X123532336Y-83440000D01*
X123053254Y-83644863D01*
X122983874Y-83653122D01*
X122921043Y-83622561D01*
X122884709Y-83562882D01*
X122880500Y-83530850D01*
X122880500Y-78669998D01*
X127754532Y-78669998D01*
X127754532Y-78670001D01*
X127774364Y-78896686D01*
X127774366Y-78896697D01*
X127833258Y-79116488D01*
X127833261Y-79116497D01*
X127929431Y-79322732D01*
X127929432Y-79322734D01*
X128059954Y-79509141D01*
X128220858Y-79670045D01*
X128220861Y-79670047D01*
X128407266Y-79800568D01*
X128613504Y-79896739D01*
X128833308Y-79955635D01*
X128995230Y-79969801D01*
X129059998Y-79975468D01*
X129060000Y-79975468D01*
X129060002Y-79975468D01*
X129122511Y-79969999D01*
X129286692Y-79955635D01*
X129506496Y-79896739D01*
X129712734Y-79800568D01*
X129899139Y-79670047D01*
X130060047Y-79509139D01*
X130190568Y-79322734D01*
X130217618Y-79264724D01*
X130263790Y-79212285D01*
X130330983Y-79193133D01*
X130397865Y-79213348D01*
X130442381Y-79264724D01*
X130456517Y-79295038D01*
X130469429Y-79322728D01*
X130469432Y-79322734D01*
X130599954Y-79509141D01*
X130760858Y-79670045D01*
X130760861Y-79670047D01*
X130947266Y-79800568D01*
X131153504Y-79896739D01*
X131373308Y-79955635D01*
X131535230Y-79969801D01*
X131599998Y-79975468D01*
X131600000Y-79975468D01*
X131600002Y-79975468D01*
X131662511Y-79969999D01*
X131826692Y-79955635D01*
X132046496Y-79896739D01*
X132252734Y-79800568D01*
X132439139Y-79670047D01*
X132600047Y-79509139D01*
X132730568Y-79322734D01*
X132757618Y-79264724D01*
X132803790Y-79212285D01*
X132870983Y-79193133D01*
X132937865Y-79213348D01*
X132982381Y-79264724D01*
X132996517Y-79295038D01*
X133009429Y-79322728D01*
X133009432Y-79322734D01*
X133139954Y-79509141D01*
X133300858Y-79670045D01*
X133300861Y-79670047D01*
X133487266Y-79800568D01*
X133693504Y-79896739D01*
X133913308Y-79955635D01*
X134075230Y-79969801D01*
X134139998Y-79975468D01*
X134140000Y-79975468D01*
X134140002Y-79975468D01*
X134202511Y-79969999D01*
X134366692Y-79955635D01*
X134586496Y-79896739D01*
X134792734Y-79800568D01*
X134979139Y-79670047D01*
X135140047Y-79509139D01*
X135157710Y-79483912D01*
X135212285Y-79440289D01*
X135281783Y-79433094D01*
X135344138Y-79464615D01*
X135379553Y-79524844D01*
X135382574Y-79541778D01*
X135386401Y-79577373D01*
X135386403Y-79577379D01*
X135436645Y-79712086D01*
X135436649Y-79712093D01*
X135522809Y-79827187D01*
X135522812Y-79827190D01*
X135637906Y-79913350D01*
X135637913Y-79913354D01*
X135772620Y-79963596D01*
X135772627Y-79963598D01*
X135832155Y-79969999D01*
X135832172Y-79970000D01*
X136430000Y-79970000D01*
X136430000Y-78985686D01*
X136434394Y-78990080D01*
X136525606Y-79042741D01*
X136627339Y-79070000D01*
X136732661Y-79070000D01*
X136834394Y-79042741D01*
X136925606Y-78990080D01*
X136930000Y-78985686D01*
X136930000Y-79970000D01*
X137527828Y-79970000D01*
X137527844Y-79969999D01*
X137587372Y-79963598D01*
X137587379Y-79963596D01*
X137722086Y-79913354D01*
X137722093Y-79913350D01*
X137837187Y-79827190D01*
X137837190Y-79827187D01*
X137923350Y-79712093D01*
X137923354Y-79712086D01*
X137973596Y-79577379D01*
X137973598Y-79577372D01*
X137979999Y-79517844D01*
X137980000Y-79517827D01*
X137980000Y-79009998D01*
X140204532Y-79009998D01*
X140204532Y-79010001D01*
X140224364Y-79236686D01*
X140224366Y-79236697D01*
X140283258Y-79456488D01*
X140283261Y-79456497D01*
X140379431Y-79662732D01*
X140379432Y-79662734D01*
X140509954Y-79849141D01*
X140670858Y-80010045D01*
X140670861Y-80010047D01*
X140857266Y-80140568D01*
X141063504Y-80236739D01*
X141283308Y-80295635D01*
X141445230Y-80309801D01*
X141509998Y-80315468D01*
X141510000Y-80315468D01*
X141510002Y-80315468D01*
X141566673Y-80310509D01*
X141736692Y-80295635D01*
X141956496Y-80236739D01*
X142162734Y-80140568D01*
X142349139Y-80010047D01*
X142510047Y-79849139D01*
X142640568Y-79662734D01*
X142736739Y-79456496D01*
X142795635Y-79236692D01*
X142812844Y-79039998D01*
X143244532Y-79039998D01*
X143244532Y-79040001D01*
X143264364Y-79266686D01*
X143264366Y-79266697D01*
X143323258Y-79486488D01*
X143323261Y-79486497D01*
X143419431Y-79692732D01*
X143419432Y-79692734D01*
X143549954Y-79879141D01*
X143710858Y-80040045D01*
X143710861Y-80040047D01*
X143897266Y-80170568D01*
X144103504Y-80266739D01*
X144323308Y-80325635D01*
X144485230Y-80339801D01*
X144549998Y-80345468D01*
X144550000Y-80345468D01*
X144550002Y-80345468D01*
X144606673Y-80340509D01*
X144776692Y-80325635D01*
X144996496Y-80266739D01*
X145202734Y-80170568D01*
X145389139Y-80040047D01*
X145550047Y-79879139D01*
X145680568Y-79692734D01*
X145776739Y-79486496D01*
X145835635Y-79266692D01*
X145855468Y-79040000D01*
X145852843Y-79010001D01*
X145844585Y-78915606D01*
X145835635Y-78813308D01*
X145776739Y-78593504D01*
X145680568Y-78387266D01*
X145578947Y-78242135D01*
X146419500Y-78242135D01*
X146419500Y-79937870D01*
X146419501Y-79937876D01*
X146425908Y-79997483D01*
X146476202Y-80132328D01*
X146476206Y-80132335D01*
X146562452Y-80247544D01*
X146562455Y-80247547D01*
X146677664Y-80333793D01*
X146677671Y-80333797D01*
X146812517Y-80384091D01*
X146812516Y-80384091D01*
X146819444Y-80384835D01*
X146872127Y-80390500D01*
X148567872Y-80390499D01*
X148627483Y-80384091D01*
X148762331Y-80333796D01*
X148877546Y-80247546D01*
X148963796Y-80132331D01*
X149014091Y-79997483D01*
X149020500Y-79937873D01*
X149020499Y-79937845D01*
X149020678Y-79934547D01*
X149022183Y-79934627D01*
X149040112Y-79873326D01*
X149092868Y-79827514D01*
X149136465Y-79819981D01*
X149820000Y-79136446D01*
X149820000Y-79142661D01*
X149847259Y-79244394D01*
X149899920Y-79335606D01*
X149974394Y-79410080D01*
X150065606Y-79462741D01*
X150167339Y-79490000D01*
X150173553Y-79490000D01*
X149494526Y-80169025D01*
X149567513Y-80220132D01*
X149567521Y-80220136D01*
X149773668Y-80316264D01*
X149773682Y-80316269D01*
X149993389Y-80375139D01*
X149993400Y-80375141D01*
X150219998Y-80394966D01*
X150220002Y-80394966D01*
X150446599Y-80375141D01*
X150446610Y-80375139D01*
X150666317Y-80316269D01*
X150666331Y-80316264D01*
X150872478Y-80220136D01*
X150945471Y-80169024D01*
X150266447Y-79490000D01*
X150272661Y-79490000D01*
X150374394Y-79462741D01*
X150465606Y-79410080D01*
X150540080Y-79335606D01*
X150592741Y-79244394D01*
X150620000Y-79142661D01*
X150620000Y-79136447D01*
X151299024Y-79815471D01*
X151350136Y-79742478D01*
X151446264Y-79536331D01*
X151446269Y-79536317D01*
X151505139Y-79316610D01*
X151505141Y-79316599D01*
X151524966Y-79090002D01*
X151524966Y-79089997D01*
X151505141Y-78863400D01*
X151505139Y-78863389D01*
X151446269Y-78643682D01*
X151446264Y-78643668D01*
X151350136Y-78437521D01*
X151350132Y-78437513D01*
X151299025Y-78364526D01*
X150620000Y-79043551D01*
X150620000Y-79037339D01*
X150592741Y-78935606D01*
X150540080Y-78844394D01*
X150465606Y-78769920D01*
X150374394Y-78717259D01*
X150272661Y-78690000D01*
X150266448Y-78690000D01*
X150945472Y-78010974D01*
X150872478Y-77959863D01*
X150666331Y-77863735D01*
X150666317Y-77863730D01*
X150446610Y-77804860D01*
X150446599Y-77804858D01*
X150220002Y-77785034D01*
X150219998Y-77785034D01*
X149993400Y-77804858D01*
X149993389Y-77804860D01*
X149773682Y-77863730D01*
X149773673Y-77863734D01*
X149567516Y-77959866D01*
X149567512Y-77959868D01*
X149494526Y-78010973D01*
X149494526Y-78010974D01*
X150173553Y-78690000D01*
X150167339Y-78690000D01*
X150065606Y-78717259D01*
X149974394Y-78769920D01*
X149899920Y-78844394D01*
X149847259Y-78935606D01*
X149820000Y-79037339D01*
X149820000Y-79043552D01*
X149135799Y-78359351D01*
X149086805Y-78349505D01*
X149036622Y-78300889D01*
X149021981Y-78245366D01*
X149020900Y-78245423D01*
X149020854Y-78245429D01*
X149020853Y-78245426D01*
X149020676Y-78245436D01*
X149020499Y-78242135D01*
X149020499Y-78242128D01*
X149014091Y-78182517D01*
X149009742Y-78170858D01*
X148963797Y-78047671D01*
X148963793Y-78047664D01*
X148877547Y-77932455D01*
X148877544Y-77932452D01*
X148762335Y-77846206D01*
X148762328Y-77846202D01*
X148627482Y-77795908D01*
X148627483Y-77795908D01*
X148567883Y-77789501D01*
X148567881Y-77789500D01*
X148567873Y-77789500D01*
X148567864Y-77789500D01*
X146872129Y-77789500D01*
X146872123Y-77789501D01*
X146812516Y-77795908D01*
X146677671Y-77846202D01*
X146677664Y-77846206D01*
X146562455Y-77932452D01*
X146562452Y-77932455D01*
X146476206Y-78047664D01*
X146476202Y-78047671D01*
X146425908Y-78182517D01*
X146419501Y-78242116D01*
X146419501Y-78242123D01*
X146419500Y-78242135D01*
X145578947Y-78242135D01*
X145550047Y-78200861D01*
X145550045Y-78200858D01*
X145389141Y-78039954D01*
X145202734Y-77909432D01*
X145202732Y-77909431D01*
X144996497Y-77813261D01*
X144996488Y-77813258D01*
X144776697Y-77754366D01*
X144776693Y-77754365D01*
X144776692Y-77754365D01*
X144776691Y-77754364D01*
X144776686Y-77754364D01*
X144550002Y-77734532D01*
X144549998Y-77734532D01*
X144323313Y-77754364D01*
X144323302Y-77754366D01*
X144103511Y-77813258D01*
X144103502Y-77813261D01*
X143897267Y-77909431D01*
X143897265Y-77909432D01*
X143710858Y-78039954D01*
X143549954Y-78200858D01*
X143419432Y-78387265D01*
X143419431Y-78387267D01*
X143323261Y-78593502D01*
X143323258Y-78593511D01*
X143264366Y-78813302D01*
X143264364Y-78813313D01*
X143244532Y-79039998D01*
X142812844Y-79039998D01*
X142815468Y-79010000D01*
X142795635Y-78783308D01*
X142736739Y-78563504D01*
X142640568Y-78357266D01*
X142510047Y-78170861D01*
X142510045Y-78170858D01*
X142349141Y-78009954D01*
X142162734Y-77879432D01*
X142162732Y-77879431D01*
X141956497Y-77783261D01*
X141956488Y-77783258D01*
X141736697Y-77724366D01*
X141736693Y-77724365D01*
X141736692Y-77724365D01*
X141736691Y-77724364D01*
X141736686Y-77724364D01*
X141510002Y-77704532D01*
X141509998Y-77704532D01*
X141283313Y-77724364D01*
X141283302Y-77724366D01*
X141063511Y-77783258D01*
X141063502Y-77783261D01*
X140857267Y-77879431D01*
X140857265Y-77879432D01*
X140670858Y-78009954D01*
X140509954Y-78170858D01*
X140379432Y-78357265D01*
X140379431Y-78357267D01*
X140283261Y-78563502D01*
X140283258Y-78563511D01*
X140224366Y-78783302D01*
X140224364Y-78783313D01*
X140204532Y-79009998D01*
X137980000Y-79009998D01*
X137980000Y-78920000D01*
X136995686Y-78920000D01*
X137000080Y-78915606D01*
X137052741Y-78824394D01*
X137080000Y-78722661D01*
X137080000Y-78617339D01*
X137052741Y-78515606D01*
X137000080Y-78424394D01*
X136995686Y-78420000D01*
X137980000Y-78420000D01*
X137980000Y-77822172D01*
X137979999Y-77822155D01*
X137973598Y-77762627D01*
X137973596Y-77762620D01*
X137923354Y-77627913D01*
X137923350Y-77627906D01*
X137837190Y-77512812D01*
X137837187Y-77512809D01*
X137722093Y-77426649D01*
X137722086Y-77426645D01*
X137587379Y-77376403D01*
X137587372Y-77376401D01*
X137527844Y-77370000D01*
X136930000Y-77370000D01*
X136930000Y-78354314D01*
X136925606Y-78349920D01*
X136834394Y-78297259D01*
X136732661Y-78270000D01*
X136627339Y-78270000D01*
X136525606Y-78297259D01*
X136434394Y-78349920D01*
X136430000Y-78354314D01*
X136430000Y-77370000D01*
X135832155Y-77370000D01*
X135772627Y-77376401D01*
X135772620Y-77376403D01*
X135637913Y-77426645D01*
X135637906Y-77426649D01*
X135522812Y-77512809D01*
X135522809Y-77512812D01*
X135436649Y-77627906D01*
X135436645Y-77627913D01*
X135386403Y-77762620D01*
X135386401Y-77762626D01*
X135382574Y-77798221D01*
X135355835Y-77862772D01*
X135298441Y-77902618D01*
X135228616Y-77905110D01*
X135168528Y-77869456D01*
X135157710Y-77856086D01*
X135140045Y-77830858D01*
X134979141Y-77669954D01*
X134792734Y-77539432D01*
X134792732Y-77539431D01*
X134586497Y-77443261D01*
X134586488Y-77443258D01*
X134366697Y-77384366D01*
X134366693Y-77384365D01*
X134366692Y-77384365D01*
X134366691Y-77384364D01*
X134366686Y-77384364D01*
X134140002Y-77364532D01*
X134139998Y-77364532D01*
X133913313Y-77384364D01*
X133913302Y-77384366D01*
X133693511Y-77443258D01*
X133693502Y-77443261D01*
X133487267Y-77539431D01*
X133487265Y-77539432D01*
X133300858Y-77669954D01*
X133139954Y-77830858D01*
X133009432Y-78017265D01*
X133009431Y-78017267D01*
X132982382Y-78075275D01*
X132936209Y-78127714D01*
X132869016Y-78146866D01*
X132802135Y-78126650D01*
X132757618Y-78075275D01*
X132744743Y-78047664D01*
X132730568Y-78017266D01*
X132600047Y-77830861D01*
X132600045Y-77830858D01*
X132439141Y-77669954D01*
X132252734Y-77539432D01*
X132252732Y-77539431D01*
X132046497Y-77443261D01*
X132046488Y-77443258D01*
X131826697Y-77384366D01*
X131826693Y-77384365D01*
X131826692Y-77384365D01*
X131826691Y-77384364D01*
X131826686Y-77384364D01*
X131600002Y-77364532D01*
X131599998Y-77364532D01*
X131373313Y-77384364D01*
X131373302Y-77384366D01*
X131153511Y-77443258D01*
X131153502Y-77443261D01*
X130947267Y-77539431D01*
X130947265Y-77539432D01*
X130760858Y-77669954D01*
X130599954Y-77830858D01*
X130469432Y-78017265D01*
X130469431Y-78017267D01*
X130442382Y-78075275D01*
X130396209Y-78127714D01*
X130329016Y-78146866D01*
X130262135Y-78126650D01*
X130217618Y-78075275D01*
X130204743Y-78047664D01*
X130190568Y-78017266D01*
X130060047Y-77830861D01*
X130060045Y-77830858D01*
X129899141Y-77669954D01*
X129712734Y-77539432D01*
X129712732Y-77539431D01*
X129506497Y-77443261D01*
X129506488Y-77443258D01*
X129286697Y-77384366D01*
X129286693Y-77384365D01*
X129286692Y-77384365D01*
X129286691Y-77384364D01*
X129286686Y-77384364D01*
X129060002Y-77364532D01*
X129059998Y-77364532D01*
X128833313Y-77384364D01*
X128833302Y-77384366D01*
X128613511Y-77443258D01*
X128613502Y-77443261D01*
X128407267Y-77539431D01*
X128407265Y-77539432D01*
X128220858Y-77669954D01*
X128059954Y-77830858D01*
X127929432Y-78017265D01*
X127929431Y-78017267D01*
X127833261Y-78223502D01*
X127833258Y-78223511D01*
X127774366Y-78443302D01*
X127774364Y-78443313D01*
X127754532Y-78669998D01*
X122880500Y-78669998D01*
X122880500Y-77964427D01*
X122880816Y-77955581D01*
X122886262Y-77879432D01*
X122895130Y-77755436D01*
X122897646Y-77737938D01*
X122939356Y-77546199D01*
X122944333Y-77529248D01*
X123012911Y-77345385D01*
X123020259Y-77329298D01*
X123082815Y-77214734D01*
X123114291Y-77157089D01*
X123123845Y-77142221D01*
X123241448Y-76985123D01*
X123253020Y-76971769D01*
X123391769Y-76833020D01*
X123405123Y-76821448D01*
X123562221Y-76703845D01*
X123577089Y-76694291D01*
X123749298Y-76600258D01*
X123765385Y-76592911D01*
X123949248Y-76524333D01*
X123966199Y-76519356D01*
X124157938Y-76477646D01*
X124175436Y-76475130D01*
X124375582Y-76460816D01*
X124384428Y-76460500D01*
X124445892Y-76460500D01*
X150314108Y-76460500D01*
X150375572Y-76460500D01*
X150384418Y-76460816D01*
G37*
%TD.AperFunction*%
%TD*%
M02*
