%TF.GenerationSoftware,KiCad,Pcbnew,8.0.5*%
%TF.CreationDate,2025-07-22T16:27:50+02:00*%
%TF.ProjectId,LED_FADER,4c45445f-4641-4444-9552-2e6b69636164,rev?*%
%TF.SameCoordinates,Original*%
%TF.FileFunction,Copper,L2,Bot*%
%TF.FilePolarity,Positive*%
%FSLAX46Y46*%
G04 Gerber Fmt 4.6, Leading zero omitted, Abs format (unit mm)*
G04 Created by KiCad (PCBNEW 8.0.5) date 2025-07-22 16:27:50*
%MOMM*%
%LPD*%
G01*
G04 APERTURE LIST*
%TA.AperFunction,ComponentPad*%
%ADD10C,1.600000*%
%TD*%
%TA.AperFunction,ComponentPad*%
%ADD11O,1.600000X1.600000*%
%TD*%
%TA.AperFunction,ComponentPad*%
%ADD12R,1.700000X1.700000*%
%TD*%
%TA.AperFunction,ComponentPad*%
%ADD13O,1.700000X1.700000*%
%TD*%
%TA.AperFunction,ComponentPad*%
%ADD14O,1.500000X1.050000*%
%TD*%
%TA.AperFunction,ComponentPad*%
%ADD15R,1.500000X1.050000*%
%TD*%
%TA.AperFunction,ComponentPad*%
%ADD16R,1.800000X1.800000*%
%TD*%
%TA.AperFunction,ComponentPad*%
%ADD17C,1.800000*%
%TD*%
%TA.AperFunction,ComponentPad*%
%ADD18R,1.600000X1.600000*%
%TD*%
%TA.AperFunction,ViaPad*%
%ADD19C,0.600000*%
%TD*%
%TA.AperFunction,Conductor*%
%ADD20C,0.750000*%
%TD*%
G04 APERTURE END LIST*
D10*
%TO.P,R3,1*%
%TO.N,Net-(U1-DIS)*%
X139220000Y-101470000D03*
D11*
%TO.P,R3,2*%
%TO.N,Net-(U1-THR)*%
X146840000Y-101470000D03*
%TD*%
D10*
%TO.P,R4,1*%
%TO.N,Net-(U2-VO)*%
X130110000Y-108440000D03*
D11*
%TO.P,R4,2*%
%TO.N,Net-(D1-A)*%
X130110000Y-116060000D03*
%TD*%
D10*
%TO.P,R1,1*%
%TO.N,VCC*%
X145490000Y-116040000D03*
D11*
%TO.P,R1,2*%
%TO.N,Net-(U1-Q)*%
X145490000Y-108420000D03*
%TD*%
%TO.P,R2,2*%
%TO.N,Net-(U1-DIS)*%
X139240000Y-104610000D03*
D10*
%TO.P,R2,1*%
%TO.N,VCC*%
X146860000Y-104610000D03*
%TD*%
D12*
%TO.P,J3,1,Pin_1*%
%TO.N,VCC*%
X125110000Y-112705000D03*
D13*
%TO.P,J3,2,Pin_2*%
%TO.N,GND*%
X125110000Y-115245000D03*
%TD*%
D14*
%TO.P,U2,3,VI*%
%TO.N,VCC*%
X125780000Y-109320000D03*
%TO.P,U2,2,GND*%
%TO.N,Net-(U1-THR)*%
X125780000Y-108050000D03*
D15*
%TO.P,U2,1,VO*%
%TO.N,Net-(U2-VO)*%
X125780000Y-106780000D03*
%TD*%
D16*
%TO.P,D1,1,K*%
%TO.N,GND*%
X136400000Y-112310000D03*
D17*
%TO.P,D1,2,A*%
%TO.N,Net-(D1-A)*%
X138940000Y-112310000D03*
%TD*%
D18*
%TO.P,U1,1,GND*%
%TO.N,GND*%
X136960000Y-103330000D03*
D11*
%TO.P,U1,2,TR*%
%TO.N,Net-(U1-THR)*%
X136960000Y-100790000D03*
%TO.P,U1,3,Q*%
%TO.N,Net-(U1-Q)*%
X136960000Y-98250000D03*
%TO.P,U1,4,R*%
%TO.N,VCC*%
X136960000Y-95710000D03*
%TO.P,U1,5,CV*%
%TO.N,unconnected-(U1-CV-Pad5)*%
X129340000Y-95710000D03*
%TO.P,U1,6,THR*%
%TO.N,Net-(U1-THR)*%
X129340000Y-98250000D03*
%TO.P,U1,7,DIS*%
%TO.N,Net-(U1-DIS)*%
X129340000Y-100790000D03*
%TO.P,U1,8,VCC*%
%TO.N,VCC*%
X129340000Y-103330000D03*
%TD*%
D18*
%TO.P,C1,1*%
%TO.N,Net-(U1-THR)*%
X149590000Y-98010000D03*
D10*
%TO.P,C1,2*%
%TO.N,GND*%
X149590000Y-95510000D03*
%TD*%
D12*
%TO.P,J2,1,Pin_1*%
%TO.N,VCC*%
X150280000Y-112665000D03*
D13*
%TO.P,J2,2,Pin_2*%
%TO.N,GND*%
X150280000Y-115205000D03*
%TD*%
D19*
%TO.N,GND*%
X151450000Y-116460000D03*
X123880000Y-116400000D03*
X148030000Y-95430000D03*
X149640000Y-94180000D03*
X125090000Y-116670000D03*
X151140000Y-95380000D03*
X148670000Y-94640000D03*
X151630000Y-115250000D03*
X135820000Y-103370000D03*
X126650000Y-114570000D03*
X148600000Y-115940000D03*
X136410000Y-114050000D03*
X150250000Y-116570000D03*
X137910000Y-103500000D03*
X136370000Y-110890000D03*
X148640000Y-114410000D03*
X150350000Y-94830000D03*
X126490000Y-116650000D03*
X123600000Y-115290000D03*
X136910000Y-104650000D03*
X134720000Y-112320000D03*
%TD*%
D20*
%TO.N,GND*%
X125110000Y-115245000D02*
X125115000Y-115250000D01*
X125115000Y-115250000D02*
X127770000Y-115250000D01*
X127770000Y-115250000D02*
X133460000Y-109560000D01*
X133460000Y-109560000D02*
X141930000Y-109560000D01*
X141930000Y-109560000D02*
X147575000Y-115205000D01*
X147575000Y-115205000D02*
X150280000Y-115205000D01*
%TD*%
%TA.AperFunction,Conductor*%
%TO.N,GND*%
G36*
X149022886Y-94130185D02*
G01*
X149068641Y-94182989D01*
X149078585Y-94252147D01*
X149049560Y-94315703D01*
X149008252Y-94346882D01*
X148937516Y-94379866D01*
X148937512Y-94379868D01*
X148864526Y-94430973D01*
X148864526Y-94430974D01*
X149543553Y-95110000D01*
X149537339Y-95110000D01*
X149435606Y-95137259D01*
X149344394Y-95189920D01*
X149269920Y-95264394D01*
X149217259Y-95355606D01*
X149190000Y-95457339D01*
X149190000Y-95463552D01*
X148510974Y-94784526D01*
X148510973Y-94784526D01*
X148459868Y-94857512D01*
X148459866Y-94857516D01*
X148363734Y-95063673D01*
X148363730Y-95063682D01*
X148304860Y-95283389D01*
X148304858Y-95283400D01*
X148285034Y-95509997D01*
X148285034Y-95510002D01*
X148304858Y-95736599D01*
X148304860Y-95736610D01*
X148363730Y-95956317D01*
X148363735Y-95956331D01*
X148459863Y-96162478D01*
X148510974Y-96235472D01*
X149190000Y-95556446D01*
X149190000Y-95562661D01*
X149217259Y-95664394D01*
X149269920Y-95755606D01*
X149344394Y-95830080D01*
X149435606Y-95882741D01*
X149537339Y-95910000D01*
X149543553Y-95910000D01*
X148859352Y-96594199D01*
X148849506Y-96643194D01*
X148800890Y-96693377D01*
X148745367Y-96708049D01*
X148745423Y-96709099D01*
X148745429Y-96709146D01*
X148745426Y-96709146D01*
X148745436Y-96709324D01*
X148742123Y-96709501D01*
X148682516Y-96715908D01*
X148547671Y-96766202D01*
X148547664Y-96766206D01*
X148432455Y-96852452D01*
X148432452Y-96852455D01*
X148346206Y-96967664D01*
X148346202Y-96967671D01*
X148295908Y-97102517D01*
X148294090Y-97119431D01*
X148289501Y-97162123D01*
X148289500Y-97162135D01*
X148289500Y-98857870D01*
X148289501Y-98857876D01*
X148295908Y-98917483D01*
X148346202Y-99052328D01*
X148346206Y-99052335D01*
X148432452Y-99167544D01*
X148432455Y-99167547D01*
X148547664Y-99253793D01*
X148547671Y-99253797D01*
X148682517Y-99304091D01*
X148682516Y-99304091D01*
X148689444Y-99304835D01*
X148742127Y-99310500D01*
X150437872Y-99310499D01*
X150497483Y-99304091D01*
X150632331Y-99253796D01*
X150747546Y-99167546D01*
X150833796Y-99052331D01*
X150884091Y-98917483D01*
X150890500Y-98857873D01*
X150890499Y-97162128D01*
X150884091Y-97102517D01*
X150854530Y-97023261D01*
X150833797Y-96967671D01*
X150833793Y-96967664D01*
X150747547Y-96852455D01*
X150747544Y-96852452D01*
X150632335Y-96766206D01*
X150632328Y-96766202D01*
X150497482Y-96715908D01*
X150497483Y-96715908D01*
X150437883Y-96709501D01*
X150437881Y-96709500D01*
X150437873Y-96709500D01*
X150437864Y-96709500D01*
X150434548Y-96709322D01*
X150434627Y-96707847D01*
X150373215Y-96689815D01*
X150327460Y-96637011D01*
X150319969Y-96593522D01*
X149636447Y-95910000D01*
X149642661Y-95910000D01*
X149744394Y-95882741D01*
X149835606Y-95830080D01*
X149910080Y-95755606D01*
X149962741Y-95664394D01*
X149990000Y-95562661D01*
X149990000Y-95556447D01*
X150669024Y-96235471D01*
X150720136Y-96162478D01*
X150816264Y-95956331D01*
X150816269Y-95956317D01*
X150875139Y-95736610D01*
X150875141Y-95736599D01*
X150894966Y-95510002D01*
X150894966Y-95509997D01*
X150875141Y-95283400D01*
X150875139Y-95283389D01*
X150816269Y-95063682D01*
X150816264Y-95063668D01*
X150720136Y-94857521D01*
X150720132Y-94857513D01*
X150669025Y-94784526D01*
X149990000Y-95463551D01*
X149990000Y-95457339D01*
X149962741Y-95355606D01*
X149910080Y-95264394D01*
X149835606Y-95189920D01*
X149744394Y-95137259D01*
X149642661Y-95110000D01*
X149636448Y-95110000D01*
X150315472Y-94430974D01*
X150242480Y-94379864D01*
X150171749Y-94346882D01*
X150119310Y-94300710D01*
X150100158Y-94233516D01*
X150120374Y-94166635D01*
X150173539Y-94121301D01*
X150224154Y-94110500D01*
X150634108Y-94110500D01*
X150695572Y-94110500D01*
X150704418Y-94110816D01*
X150904561Y-94125130D01*
X150922063Y-94127647D01*
X151113797Y-94169355D01*
X151130755Y-94174334D01*
X151289426Y-94233516D01*
X151314609Y-94242909D01*
X151330701Y-94250259D01*
X151502904Y-94344288D01*
X151517784Y-94353849D01*
X151674867Y-94471441D01*
X151688237Y-94483027D01*
X151826972Y-94621762D01*
X151838558Y-94635132D01*
X151956146Y-94792210D01*
X151965711Y-94807095D01*
X152059740Y-94979298D01*
X152067090Y-94995390D01*
X152135662Y-95179236D01*
X152140646Y-95196212D01*
X152182351Y-95387931D01*
X152184869Y-95405442D01*
X152199184Y-95605580D01*
X152199500Y-95614427D01*
X152199500Y-104866000D01*
X152179815Y-104933039D01*
X152127011Y-104978794D01*
X152075500Y-104990000D01*
X148858505Y-104990000D01*
X147679200Y-107170385D01*
X147778873Y-108703105D01*
X149701262Y-110660000D01*
X152075500Y-110660000D01*
X152142539Y-110679685D01*
X152188294Y-110732489D01*
X152199500Y-110784000D01*
X152199500Y-115605572D01*
X152199184Y-115614419D01*
X152184869Y-115814557D01*
X152182351Y-115832068D01*
X152140646Y-116023787D01*
X152135662Y-116040763D01*
X152067090Y-116224609D01*
X152059740Y-116240701D01*
X151965711Y-116412904D01*
X151956146Y-116427789D01*
X151838558Y-116584867D01*
X151826972Y-116598237D01*
X151688237Y-116736972D01*
X151674867Y-116748558D01*
X151517789Y-116866146D01*
X151502904Y-116875711D01*
X151330701Y-116969740D01*
X151314609Y-116977090D01*
X151130763Y-117045662D01*
X151113787Y-117050646D01*
X150922068Y-117092351D01*
X150904557Y-117094869D01*
X150723779Y-117107799D01*
X150704417Y-117109184D01*
X150695572Y-117109500D01*
X146559049Y-117109500D01*
X146492010Y-117089815D01*
X146446255Y-117037011D01*
X146436311Y-116967853D01*
X146465336Y-116904297D01*
X146471368Y-116897819D01*
X146490045Y-116879141D01*
X146490047Y-116879139D01*
X146620568Y-116692734D01*
X146716739Y-116486496D01*
X146775635Y-116266692D01*
X146795468Y-116040000D01*
X146775635Y-115813308D01*
X146716739Y-115593504D01*
X146620568Y-115387266D01*
X146490047Y-115200861D01*
X146490045Y-115200858D01*
X146329141Y-115039954D01*
X146142734Y-114909432D01*
X146142732Y-114909431D01*
X145936497Y-114813261D01*
X145936488Y-114813258D01*
X145716697Y-114754366D01*
X145716693Y-114754365D01*
X145716692Y-114754365D01*
X145716691Y-114754364D01*
X145716686Y-114754364D01*
X145490002Y-114734532D01*
X145489998Y-114734532D01*
X145263313Y-114754364D01*
X145263302Y-114754366D01*
X145043511Y-114813258D01*
X145043502Y-114813261D01*
X144837267Y-114909431D01*
X144837265Y-114909432D01*
X144650858Y-115039954D01*
X144489954Y-115200858D01*
X144359432Y-115387265D01*
X144359431Y-115387267D01*
X144263261Y-115593502D01*
X144263258Y-115593511D01*
X144204366Y-115813302D01*
X144204364Y-115813313D01*
X144184532Y-116039998D01*
X144184532Y-116040001D01*
X144204364Y-116266686D01*
X144204366Y-116266697D01*
X144263258Y-116486488D01*
X144263261Y-116486497D01*
X144359431Y-116692732D01*
X144359432Y-116692734D01*
X144489954Y-116879141D01*
X144508632Y-116897819D01*
X144542117Y-116959142D01*
X144537133Y-117028834D01*
X144495261Y-117084767D01*
X144429797Y-117109184D01*
X144420951Y-117109500D01*
X131199049Y-117109500D01*
X131132010Y-117089815D01*
X131086255Y-117037011D01*
X131076311Y-116967853D01*
X131105336Y-116904297D01*
X131109220Y-116900124D01*
X131110043Y-116899144D01*
X131110971Y-116897819D01*
X131240568Y-116712734D01*
X131336739Y-116506496D01*
X131395635Y-116286692D01*
X131415468Y-116060000D01*
X131395635Y-115833308D01*
X131336739Y-115613504D01*
X131240568Y-115407266D01*
X131110047Y-115220861D01*
X131110045Y-115220858D01*
X130949141Y-115059954D01*
X130762734Y-114929432D01*
X130762732Y-114929431D01*
X130556497Y-114833261D01*
X130556488Y-114833258D01*
X130336697Y-114774366D01*
X130336693Y-114774365D01*
X130336692Y-114774365D01*
X130336691Y-114774364D01*
X130336686Y-114774364D01*
X130110002Y-114754532D01*
X130109998Y-114754532D01*
X129883313Y-114774364D01*
X129883302Y-114774366D01*
X129663511Y-114833258D01*
X129663502Y-114833261D01*
X129457267Y-114929431D01*
X129457265Y-114929432D01*
X129270858Y-115059954D01*
X129109954Y-115220858D01*
X128979432Y-115407265D01*
X128979431Y-115407267D01*
X128883261Y-115613502D01*
X128883258Y-115613511D01*
X128824366Y-115833302D01*
X128824364Y-115833313D01*
X128804532Y-116059998D01*
X128804532Y-116060001D01*
X128824364Y-116286686D01*
X128824366Y-116286697D01*
X128883258Y-116506488D01*
X128883261Y-116506497D01*
X128979431Y-116712732D01*
X128979432Y-116712734D01*
X129109956Y-116899144D01*
X129113434Y-116903289D01*
X129112189Y-116904333D01*
X129142117Y-116959142D01*
X129137133Y-117028834D01*
X129095261Y-117084767D01*
X129029797Y-117109184D01*
X129020951Y-117109500D01*
X124704428Y-117109500D01*
X124695582Y-117109184D01*
X124673622Y-117107613D01*
X124495442Y-117094869D01*
X124477931Y-117092351D01*
X124286212Y-117050646D01*
X124269236Y-117045662D01*
X124085390Y-116977090D01*
X124069298Y-116969740D01*
X123897095Y-116875711D01*
X123882210Y-116866146D01*
X123725132Y-116748558D01*
X123711762Y-116736972D01*
X123573027Y-116598237D01*
X123561441Y-116584867D01*
X123554529Y-116575634D01*
X123443849Y-116427784D01*
X123434288Y-116412904D01*
X123340259Y-116240701D01*
X123332909Y-116224609D01*
X123292430Y-116116082D01*
X123264334Y-116040755D01*
X123259355Y-116023797D01*
X123217647Y-115832063D01*
X123215130Y-115814556D01*
X123215040Y-115813302D01*
X123200816Y-115614418D01*
X123200500Y-115605572D01*
X123200500Y-111807135D01*
X123759500Y-111807135D01*
X123759500Y-113602870D01*
X123759501Y-113602876D01*
X123765908Y-113662483D01*
X123816202Y-113797328D01*
X123816206Y-113797335D01*
X123902452Y-113912544D01*
X123902455Y-113912547D01*
X124017664Y-113998793D01*
X124017671Y-113998797D01*
X124045271Y-114009091D01*
X124149598Y-114048002D01*
X124205531Y-114089873D01*
X124229949Y-114155337D01*
X124215098Y-114223610D01*
X124193947Y-114251865D01*
X124071886Y-114373926D01*
X123936400Y-114567420D01*
X123936399Y-114567422D01*
X123836570Y-114781507D01*
X123836567Y-114781513D01*
X123779364Y-114994999D01*
X123779364Y-114995000D01*
X124676988Y-114995000D01*
X124644075Y-115052007D01*
X124610000Y-115179174D01*
X124610000Y-115310826D01*
X124644075Y-115437993D01*
X124676988Y-115495000D01*
X123779364Y-115495000D01*
X123836567Y-115708486D01*
X123836570Y-115708492D01*
X123936399Y-115922578D01*
X124071894Y-116116082D01*
X124238917Y-116283105D01*
X124432421Y-116418600D01*
X124646507Y-116518429D01*
X124646516Y-116518433D01*
X124860000Y-116575634D01*
X124860000Y-115678012D01*
X124917007Y-115710925D01*
X125044174Y-115745000D01*
X125175826Y-115745000D01*
X125302993Y-115710925D01*
X125360000Y-115678012D01*
X125360000Y-116575633D01*
X125573483Y-116518433D01*
X125573492Y-116518429D01*
X125787578Y-116418600D01*
X125981082Y-116283105D01*
X126148105Y-116116082D01*
X126283600Y-115922578D01*
X126383429Y-115708492D01*
X126383432Y-115708486D01*
X126440636Y-115495000D01*
X125543012Y-115495000D01*
X125575925Y-115437993D01*
X125610000Y-115310826D01*
X125610000Y-115179174D01*
X125575925Y-115052007D01*
X125543012Y-114995000D01*
X126440636Y-114995000D01*
X126440635Y-114994999D01*
X126383432Y-114781513D01*
X126383429Y-114781507D01*
X126283600Y-114567422D01*
X126283599Y-114567420D01*
X126148113Y-114373926D01*
X126148108Y-114373920D01*
X126026053Y-114251865D01*
X125992568Y-114190542D01*
X125997552Y-114120850D01*
X126039424Y-114064917D01*
X126070400Y-114048002D01*
X126174729Y-114009091D01*
X126202326Y-113998798D01*
X126202326Y-113998797D01*
X126202331Y-113998796D01*
X126317546Y-113912546D01*
X126403796Y-113797331D01*
X126454091Y-113662483D01*
X126460500Y-113602873D01*
X126460499Y-111807128D01*
X126454091Y-111747517D01*
X126403796Y-111612669D01*
X126403795Y-111612668D01*
X126403793Y-111612664D01*
X126317547Y-111497455D01*
X126317544Y-111497452D01*
X126202335Y-111411206D01*
X126202328Y-111411202D01*
X126070825Y-111362155D01*
X135000000Y-111362155D01*
X135000000Y-112060000D01*
X136024722Y-112060000D01*
X135980667Y-112136306D01*
X135950000Y-112250756D01*
X135950000Y-112369244D01*
X135980667Y-112483694D01*
X136024722Y-112560000D01*
X135000000Y-112560000D01*
X135000000Y-113257844D01*
X135006401Y-113317372D01*
X135006403Y-113317379D01*
X135056645Y-113452086D01*
X135056649Y-113452093D01*
X135142809Y-113567187D01*
X135142812Y-113567190D01*
X135257906Y-113653350D01*
X135257913Y-113653354D01*
X135392620Y-113703596D01*
X135392627Y-113703598D01*
X135452155Y-113709999D01*
X135452172Y-113710000D01*
X136150000Y-113710000D01*
X136150000Y-112685277D01*
X136226306Y-112729333D01*
X136340756Y-112760000D01*
X136459244Y-112760000D01*
X136573694Y-112729333D01*
X136650000Y-112685277D01*
X136650000Y-113710000D01*
X137347828Y-113710000D01*
X137347844Y-113709999D01*
X137407372Y-113703598D01*
X137407379Y-113703596D01*
X137542086Y-113653354D01*
X137542093Y-113653350D01*
X137657187Y-113567190D01*
X137657190Y-113567187D01*
X137743350Y-113452093D01*
X137743355Y-113452084D01*
X137772075Y-113375081D01*
X137813945Y-113319147D01*
X137879409Y-113294729D01*
X137947682Y-113309580D01*
X137979484Y-113334428D01*
X137988216Y-113343913D01*
X137988219Y-113343915D01*
X137988222Y-113343918D01*
X138171365Y-113486464D01*
X138171371Y-113486468D01*
X138171374Y-113486470D01*
X138375497Y-113596936D01*
X138449910Y-113622482D01*
X138595015Y-113672297D01*
X138595017Y-113672297D01*
X138595019Y-113672298D01*
X138823951Y-113710500D01*
X138823952Y-113710500D01*
X139056048Y-113710500D01*
X139056049Y-113710500D01*
X139284981Y-113672298D01*
X139504503Y-113596936D01*
X139708626Y-113486470D01*
X139891784Y-113343913D01*
X140048979Y-113173153D01*
X140175924Y-112978849D01*
X140269157Y-112766300D01*
X140326134Y-112541305D01*
X140345300Y-112310000D01*
X140345300Y-112309993D01*
X140326135Y-112078702D01*
X140326133Y-112078691D01*
X140269157Y-111853699D01*
X140231186Y-111767135D01*
X148929500Y-111767135D01*
X148929500Y-113562870D01*
X148929501Y-113562876D01*
X148935908Y-113622483D01*
X148986202Y-113757328D01*
X148986206Y-113757335D01*
X149072452Y-113872544D01*
X149072455Y-113872547D01*
X149187664Y-113958793D01*
X149187671Y-113958797D01*
X149187674Y-113958798D01*
X149319598Y-114008002D01*
X149375531Y-114049873D01*
X149399949Y-114115337D01*
X149385098Y-114183610D01*
X149363947Y-114211865D01*
X149241886Y-114333926D01*
X149106400Y-114527420D01*
X149106399Y-114527422D01*
X149006570Y-114741507D01*
X149006567Y-114741513D01*
X148949364Y-114954999D01*
X148949364Y-114955000D01*
X149846988Y-114955000D01*
X149814075Y-115012007D01*
X149780000Y-115139174D01*
X149780000Y-115270826D01*
X149814075Y-115397993D01*
X149846988Y-115455000D01*
X148949364Y-115455000D01*
X149006567Y-115668486D01*
X149006570Y-115668492D01*
X149106399Y-115882578D01*
X149241894Y-116076082D01*
X149408917Y-116243105D01*
X149602421Y-116378600D01*
X149816507Y-116478429D01*
X149816516Y-116478433D01*
X150030000Y-116535634D01*
X150030000Y-115638012D01*
X150087007Y-115670925D01*
X150214174Y-115705000D01*
X150345826Y-115705000D01*
X150472993Y-115670925D01*
X150530000Y-115638012D01*
X150530000Y-116535633D01*
X150743483Y-116478433D01*
X150743492Y-116478429D01*
X150957578Y-116378600D01*
X151151082Y-116243105D01*
X151318105Y-116076082D01*
X151453600Y-115882578D01*
X151553429Y-115668492D01*
X151553432Y-115668486D01*
X151610636Y-115455000D01*
X150713012Y-115455000D01*
X150745925Y-115397993D01*
X150780000Y-115270826D01*
X150780000Y-115139174D01*
X150745925Y-115012007D01*
X150713012Y-114955000D01*
X151610636Y-114955000D01*
X151610635Y-114954999D01*
X151553432Y-114741513D01*
X151553429Y-114741507D01*
X151453600Y-114527422D01*
X151453599Y-114527420D01*
X151318113Y-114333926D01*
X151318108Y-114333920D01*
X151196053Y-114211865D01*
X151162568Y-114150542D01*
X151167552Y-114080850D01*
X151209424Y-114024917D01*
X151240400Y-114008002D01*
X151372331Y-113958796D01*
X151487546Y-113872546D01*
X151573796Y-113757331D01*
X151624091Y-113622483D01*
X151630500Y-113562873D01*
X151630499Y-111767128D01*
X151624091Y-111707517D01*
X151573796Y-111572669D01*
X151573795Y-111572668D01*
X151573793Y-111572664D01*
X151487547Y-111457455D01*
X151487544Y-111457452D01*
X151372335Y-111371206D01*
X151372328Y-111371202D01*
X151237482Y-111320908D01*
X151237483Y-111320908D01*
X151177883Y-111314501D01*
X151177881Y-111314500D01*
X151177873Y-111314500D01*
X151177864Y-111314500D01*
X149382129Y-111314500D01*
X149382123Y-111314501D01*
X149322516Y-111320908D01*
X149187671Y-111371202D01*
X149187664Y-111371206D01*
X149072455Y-111457452D01*
X149072452Y-111457455D01*
X148986206Y-111572664D01*
X148986202Y-111572671D01*
X148935908Y-111707517D01*
X148931608Y-111747516D01*
X148929501Y-111767123D01*
X148929500Y-111767135D01*
X140231186Y-111767135D01*
X140175924Y-111641151D01*
X140048983Y-111446852D01*
X140048980Y-111446849D01*
X140048979Y-111446847D01*
X139891784Y-111276087D01*
X139891779Y-111276083D01*
X139891777Y-111276081D01*
X139708634Y-111133535D01*
X139708628Y-111133531D01*
X139504504Y-111023064D01*
X139504495Y-111023061D01*
X139284984Y-110947702D01*
X139097404Y-110916401D01*
X139056049Y-110909500D01*
X138823951Y-110909500D01*
X138782596Y-110916401D01*
X138595015Y-110947702D01*
X138375504Y-111023061D01*
X138375495Y-111023064D01*
X138171371Y-111133531D01*
X138171365Y-111133535D01*
X137988222Y-111276081D01*
X137988215Y-111276087D01*
X137979484Y-111285572D01*
X137919595Y-111321561D01*
X137849757Y-111319458D01*
X137792143Y-111279932D01*
X137772075Y-111244918D01*
X137743355Y-111167915D01*
X137743350Y-111167906D01*
X137657190Y-111052812D01*
X137657187Y-111052809D01*
X137542093Y-110966649D01*
X137542086Y-110966645D01*
X137407379Y-110916403D01*
X137407372Y-110916401D01*
X137347844Y-110910000D01*
X136650000Y-110910000D01*
X136650000Y-111934722D01*
X136573694Y-111890667D01*
X136459244Y-111860000D01*
X136340756Y-111860000D01*
X136226306Y-111890667D01*
X136150000Y-111934722D01*
X136150000Y-110910000D01*
X135452155Y-110910000D01*
X135392627Y-110916401D01*
X135392620Y-110916403D01*
X135257913Y-110966645D01*
X135257906Y-110966649D01*
X135142812Y-111052809D01*
X135142809Y-111052812D01*
X135056649Y-111167906D01*
X135056645Y-111167913D01*
X135006403Y-111302620D01*
X135006401Y-111302627D01*
X135000000Y-111362155D01*
X126070825Y-111362155D01*
X126067482Y-111360908D01*
X126067483Y-111360908D01*
X126007883Y-111354501D01*
X126007881Y-111354500D01*
X126007873Y-111354500D01*
X126007864Y-111354500D01*
X124212129Y-111354500D01*
X124212123Y-111354501D01*
X124152516Y-111360908D01*
X124017671Y-111411202D01*
X124017664Y-111411206D01*
X123902455Y-111497452D01*
X123902452Y-111497455D01*
X123816206Y-111612664D01*
X123816202Y-111612671D01*
X123765908Y-111747517D01*
X123759501Y-111807116D01*
X123759501Y-111807123D01*
X123759500Y-111807135D01*
X123200500Y-111807135D01*
X123200500Y-106207135D01*
X124529500Y-106207135D01*
X124529500Y-107352870D01*
X124529501Y-107352876D01*
X124535908Y-107412483D01*
X124586202Y-107547328D01*
X124586203Y-107547330D01*
X124586204Y-107547331D01*
X124587028Y-107548432D01*
X124587509Y-107549721D01*
X124590454Y-107555114D01*
X124589678Y-107555537D01*
X124611448Y-107613895D01*
X124602325Y-107670198D01*
X124568910Y-107750868D01*
X124568907Y-107750880D01*
X124529500Y-107948992D01*
X124529500Y-108151007D01*
X124568907Y-108349119D01*
X124568909Y-108349127D01*
X124646213Y-108535755D01*
X124699904Y-108616109D01*
X124720782Y-108682787D01*
X124702297Y-108750167D01*
X124699904Y-108753891D01*
X124646213Y-108834244D01*
X124568909Y-109020872D01*
X124568907Y-109020880D01*
X124529500Y-109218992D01*
X124529500Y-109421007D01*
X124568907Y-109619119D01*
X124568909Y-109619127D01*
X124646212Y-109805752D01*
X124646217Y-109805762D01*
X124758441Y-109973718D01*
X124901281Y-110116558D01*
X125069237Y-110228782D01*
X125069241Y-110228784D01*
X125069244Y-110228786D01*
X125255873Y-110306091D01*
X125453992Y-110345499D01*
X125453996Y-110345500D01*
X125453997Y-110345500D01*
X126106004Y-110345500D01*
X126106005Y-110345499D01*
X126304127Y-110306091D01*
X126490756Y-110228786D01*
X126658718Y-110116558D01*
X126801558Y-109973718D01*
X126913786Y-109805756D01*
X126991091Y-109619127D01*
X127030500Y-109421003D01*
X127030500Y-109218997D01*
X126991091Y-109020873D01*
X126913786Y-108834244D01*
X126860094Y-108753889D01*
X126839217Y-108687214D01*
X126857701Y-108619834D01*
X126860078Y-108616134D01*
X126913786Y-108535756D01*
X126953451Y-108439998D01*
X128804532Y-108439998D01*
X128804532Y-108440001D01*
X128824364Y-108666686D01*
X128824366Y-108666697D01*
X128883258Y-108886488D01*
X128883261Y-108886497D01*
X128979431Y-109092732D01*
X128979432Y-109092734D01*
X129109954Y-109279141D01*
X129270858Y-109440045D01*
X129270861Y-109440047D01*
X129457266Y-109570568D01*
X129663504Y-109666739D01*
X129883308Y-109725635D01*
X130045230Y-109739801D01*
X130109998Y-109745468D01*
X130110000Y-109745468D01*
X130110002Y-109745468D01*
X130166673Y-109740509D01*
X130336692Y-109725635D01*
X130556496Y-109666739D01*
X130762734Y-109570568D01*
X130949139Y-109440047D01*
X131110047Y-109279139D01*
X131240568Y-109092734D01*
X131336739Y-108886496D01*
X131395635Y-108666692D01*
X131415468Y-108440000D01*
X131413718Y-108419998D01*
X144184532Y-108419998D01*
X144184532Y-108420001D01*
X144204364Y-108646686D01*
X144204366Y-108646697D01*
X144263258Y-108866488D01*
X144263261Y-108866497D01*
X144359431Y-109072732D01*
X144359432Y-109072734D01*
X144489954Y-109259141D01*
X144650858Y-109420045D01*
X144650861Y-109420047D01*
X144837266Y-109550568D01*
X145043504Y-109646739D01*
X145263308Y-109705635D01*
X145425230Y-109719801D01*
X145489998Y-109725468D01*
X145490000Y-109725468D01*
X145490002Y-109725468D01*
X145546673Y-109720509D01*
X145716692Y-109705635D01*
X145936496Y-109646739D01*
X146142734Y-109550568D01*
X146329139Y-109420047D01*
X146490047Y-109259139D01*
X146620568Y-109072734D01*
X146716739Y-108866496D01*
X146775635Y-108646692D01*
X146795468Y-108420000D01*
X146775635Y-108193308D01*
X146716739Y-107973504D01*
X146620568Y-107767266D01*
X146490047Y-107580861D01*
X146490045Y-107580858D01*
X146329141Y-107419954D01*
X146142734Y-107289432D01*
X146142732Y-107289431D01*
X145936497Y-107193261D01*
X145936488Y-107193258D01*
X145716697Y-107134366D01*
X145716693Y-107134365D01*
X145716692Y-107134365D01*
X145716691Y-107134364D01*
X145716686Y-107134364D01*
X145490002Y-107114532D01*
X145489998Y-107114532D01*
X145263313Y-107134364D01*
X145263302Y-107134366D01*
X145043511Y-107193258D01*
X145043502Y-107193261D01*
X144837267Y-107289431D01*
X144837265Y-107289432D01*
X144650858Y-107419954D01*
X144489954Y-107580858D01*
X144359432Y-107767265D01*
X144359431Y-107767267D01*
X144263261Y-107973502D01*
X144263258Y-107973511D01*
X144204366Y-108193302D01*
X144204364Y-108193313D01*
X144184532Y-108419998D01*
X131413718Y-108419998D01*
X131395635Y-108213308D01*
X131336739Y-107993504D01*
X131240568Y-107787266D01*
X131110047Y-107600861D01*
X131110045Y-107600858D01*
X130949141Y-107439954D01*
X130762734Y-107309432D01*
X130762732Y-107309431D01*
X130556497Y-107213261D01*
X130556488Y-107213258D01*
X130336697Y-107154366D01*
X130336693Y-107154365D01*
X130336692Y-107154365D01*
X130336691Y-107154364D01*
X130336686Y-107154364D01*
X130110002Y-107134532D01*
X130109998Y-107134532D01*
X129883313Y-107154364D01*
X129883302Y-107154366D01*
X129663511Y-107213258D01*
X129663502Y-107213261D01*
X129457267Y-107309431D01*
X129457265Y-107309432D01*
X129270858Y-107439954D01*
X129109954Y-107600858D01*
X128979432Y-107787265D01*
X128979431Y-107787267D01*
X128883261Y-107993502D01*
X128883258Y-107993511D01*
X128824366Y-108213302D01*
X128824364Y-108213313D01*
X128804532Y-108439998D01*
X126953451Y-108439998D01*
X126991091Y-108349127D01*
X127030500Y-108151003D01*
X127030500Y-107948997D01*
X126991091Y-107750873D01*
X126957673Y-107670198D01*
X126950205Y-107600730D01*
X126969964Y-107555340D01*
X126969547Y-107555112D01*
X126972095Y-107550444D01*
X126972972Y-107548431D01*
X126973796Y-107547331D01*
X127024091Y-107412483D01*
X127030500Y-107352873D01*
X127030499Y-106207128D01*
X127024091Y-106147517D01*
X126973796Y-106012669D01*
X126973795Y-106012668D01*
X126973793Y-106012664D01*
X126887547Y-105897455D01*
X126887544Y-105897452D01*
X126772335Y-105811206D01*
X126772328Y-105811202D01*
X126637482Y-105760908D01*
X126637483Y-105760908D01*
X126577883Y-105754501D01*
X126577881Y-105754500D01*
X126577873Y-105754500D01*
X126577864Y-105754500D01*
X124982129Y-105754500D01*
X124982123Y-105754501D01*
X124922516Y-105760908D01*
X124787671Y-105811202D01*
X124787664Y-105811206D01*
X124672455Y-105897452D01*
X124672452Y-105897455D01*
X124586206Y-106012664D01*
X124586202Y-106012671D01*
X124535908Y-106147517D01*
X124529501Y-106207116D01*
X124529501Y-106207123D01*
X124529500Y-106207135D01*
X123200500Y-106207135D01*
X123200500Y-103244000D01*
X123220185Y-103176961D01*
X123272989Y-103131206D01*
X123324500Y-103120000D01*
X126160000Y-103120000D01*
X127379232Y-101069057D01*
X127378127Y-101016692D01*
X127340865Y-99250047D01*
X127325359Y-98514925D01*
X125059679Y-96982638D01*
X123350878Y-97354664D01*
X123281186Y-97349691D01*
X123225245Y-97307829D01*
X123200817Y-97242369D01*
X123200500Y-97233502D01*
X123200500Y-95709998D01*
X128034532Y-95709998D01*
X128034532Y-95710001D01*
X128054364Y-95936686D01*
X128054366Y-95936697D01*
X128113258Y-96156488D01*
X128113261Y-96156497D01*
X128209431Y-96362732D01*
X128209432Y-96362734D01*
X128339954Y-96549141D01*
X128500858Y-96710045D01*
X128500861Y-96710047D01*
X128687266Y-96840568D01*
X128712758Y-96852455D01*
X128745275Y-96867618D01*
X128797714Y-96913791D01*
X128816866Y-96980984D01*
X128796650Y-97047865D01*
X128745275Y-97092382D01*
X128687267Y-97119431D01*
X128687265Y-97119432D01*
X128500858Y-97249954D01*
X128339954Y-97410858D01*
X128209432Y-97597265D01*
X128209431Y-97597267D01*
X128113261Y-97803502D01*
X128113258Y-97803511D01*
X128054366Y-98023302D01*
X128054364Y-98023313D01*
X128034532Y-98249998D01*
X128034532Y-98250001D01*
X128054364Y-98476686D01*
X128054366Y-98476697D01*
X128113258Y-98696488D01*
X128113261Y-98696497D01*
X128209431Y-98902732D01*
X128209432Y-98902734D01*
X128339954Y-99089141D01*
X128500858Y-99250045D01*
X128547693Y-99282839D01*
X128687266Y-99380568D01*
X128745275Y-99407618D01*
X128797714Y-99453791D01*
X128816866Y-99520984D01*
X128796650Y-99587865D01*
X128745275Y-99632382D01*
X128687267Y-99659431D01*
X128687265Y-99659432D01*
X128500858Y-99789954D01*
X128339954Y-99950858D01*
X128209432Y-100137265D01*
X128209431Y-100137267D01*
X128113261Y-100343502D01*
X128113258Y-100343511D01*
X128054366Y-100563302D01*
X128054364Y-100563313D01*
X128034532Y-100789998D01*
X128034532Y-100790001D01*
X128054364Y-101016686D01*
X128054366Y-101016697D01*
X128113258Y-101236488D01*
X128113261Y-101236497D01*
X128209431Y-101442732D01*
X128209432Y-101442734D01*
X128339954Y-101629141D01*
X128500858Y-101790045D01*
X128500861Y-101790047D01*
X128687266Y-101920568D01*
X128745275Y-101947618D01*
X128797714Y-101993791D01*
X128816866Y-102060984D01*
X128796650Y-102127865D01*
X128745275Y-102172381D01*
X128728272Y-102180310D01*
X128687267Y-102199431D01*
X128687265Y-102199432D01*
X128500858Y-102329954D01*
X128339954Y-102490858D01*
X128209432Y-102677265D01*
X128209431Y-102677267D01*
X128113261Y-102883502D01*
X128113258Y-102883511D01*
X128054366Y-103103302D01*
X128054364Y-103103313D01*
X128034532Y-103329998D01*
X128034532Y-103330001D01*
X128054364Y-103556686D01*
X128054366Y-103556697D01*
X128113258Y-103776488D01*
X128113261Y-103776497D01*
X128209431Y-103982732D01*
X128209432Y-103982734D01*
X128339954Y-104169141D01*
X128500858Y-104330045D01*
X128500861Y-104330047D01*
X128687266Y-104460568D01*
X128893504Y-104556739D01*
X129113308Y-104615635D01*
X129275230Y-104629801D01*
X129339998Y-104635468D01*
X129340000Y-104635468D01*
X129340002Y-104635468D01*
X129402511Y-104629999D01*
X129566692Y-104615635D01*
X129786496Y-104556739D01*
X129992734Y-104460568D01*
X130179139Y-104330047D01*
X130340047Y-104169139D01*
X130470568Y-103982734D01*
X130566739Y-103776496D01*
X130625635Y-103556692D01*
X130645468Y-103330000D01*
X130625635Y-103103308D01*
X130566739Y-102883504D01*
X130470568Y-102677266D01*
X130340047Y-102490861D01*
X130340045Y-102490858D01*
X130179141Y-102329954D01*
X129992734Y-102199432D01*
X129992728Y-102199429D01*
X129965038Y-102186517D01*
X129934724Y-102172381D01*
X129882285Y-102126210D01*
X129863133Y-102059017D01*
X129883348Y-101992135D01*
X129934725Y-101947618D01*
X129992734Y-101920568D01*
X130179139Y-101790047D01*
X130340047Y-101629139D01*
X130470568Y-101442734D01*
X130566739Y-101236496D01*
X130625635Y-101016692D01*
X130645468Y-100790000D01*
X130625635Y-100563308D01*
X130566739Y-100343504D01*
X130470568Y-100137266D01*
X130340047Y-99950861D01*
X130340045Y-99950858D01*
X130179141Y-99789954D01*
X129992734Y-99659432D01*
X129992728Y-99659429D01*
X129934725Y-99632382D01*
X129882285Y-99586210D01*
X129863133Y-99519017D01*
X129883348Y-99452135D01*
X129934725Y-99407618D01*
X129992734Y-99380568D01*
X130179139Y-99250047D01*
X130340047Y-99089139D01*
X130470568Y-98902734D01*
X130566739Y-98696496D01*
X130625635Y-98476692D01*
X130645468Y-98250000D01*
X130625635Y-98023308D01*
X130566739Y-97803504D01*
X130470568Y-97597266D01*
X130340047Y-97410861D01*
X130340045Y-97410858D01*
X130179141Y-97249954D01*
X129992734Y-97119432D01*
X129992728Y-97119429D01*
X129934725Y-97092382D01*
X129882285Y-97046210D01*
X129863133Y-96979017D01*
X129883348Y-96912135D01*
X129934725Y-96867618D01*
X129992734Y-96840568D01*
X130179139Y-96710047D01*
X130340047Y-96549139D01*
X130470568Y-96362734D01*
X130566739Y-96156496D01*
X130625635Y-95936692D01*
X130645468Y-95710000D01*
X130645468Y-95709998D01*
X135654532Y-95709998D01*
X135654532Y-95710001D01*
X135674364Y-95936686D01*
X135674366Y-95936697D01*
X135733258Y-96156488D01*
X135733261Y-96156497D01*
X135829431Y-96362732D01*
X135829432Y-96362734D01*
X135959954Y-96549141D01*
X136120858Y-96710045D01*
X136120861Y-96710047D01*
X136307266Y-96840568D01*
X136332758Y-96852455D01*
X136365275Y-96867618D01*
X136417714Y-96913791D01*
X136436866Y-96980984D01*
X136416650Y-97047865D01*
X136365275Y-97092382D01*
X136307267Y-97119431D01*
X136307265Y-97119432D01*
X136120858Y-97249954D01*
X135959954Y-97410858D01*
X135829432Y-97597265D01*
X135829431Y-97597267D01*
X135733261Y-97803502D01*
X135733258Y-97803511D01*
X135674366Y-98023302D01*
X135674364Y-98023313D01*
X135654532Y-98249998D01*
X135654532Y-98250001D01*
X135674364Y-98476686D01*
X135674366Y-98476697D01*
X135733258Y-98696488D01*
X135733261Y-98696497D01*
X135829431Y-98902732D01*
X135829432Y-98902734D01*
X135959954Y-99089141D01*
X136120858Y-99250045D01*
X136167693Y-99282839D01*
X136307266Y-99380568D01*
X136365275Y-99407618D01*
X136417714Y-99453791D01*
X136436866Y-99520984D01*
X136416650Y-99587865D01*
X136365275Y-99632382D01*
X136307267Y-99659431D01*
X136307265Y-99659432D01*
X136120858Y-99789954D01*
X135959954Y-99950858D01*
X135829432Y-100137265D01*
X135829431Y-100137267D01*
X135733261Y-100343502D01*
X135733258Y-100343511D01*
X135674366Y-100563302D01*
X135674364Y-100563313D01*
X135654532Y-100789998D01*
X135654532Y-100790001D01*
X135674364Y-101016686D01*
X135674366Y-101016697D01*
X135733258Y-101236488D01*
X135733261Y-101236497D01*
X135829431Y-101442732D01*
X135829432Y-101442734D01*
X135959954Y-101629141D01*
X136120858Y-101790045D01*
X136146086Y-101807710D01*
X136189711Y-101862287D01*
X136196905Y-101931785D01*
X136165382Y-101994140D01*
X136105153Y-102029554D01*
X136088221Y-102032574D01*
X136052626Y-102036401D01*
X136052620Y-102036403D01*
X135917913Y-102086645D01*
X135917906Y-102086649D01*
X135802812Y-102172809D01*
X135802809Y-102172812D01*
X135716649Y-102287906D01*
X135716645Y-102287913D01*
X135666403Y-102422620D01*
X135666401Y-102422627D01*
X135660000Y-102482155D01*
X135660000Y-103080000D01*
X136644314Y-103080000D01*
X136639920Y-103084394D01*
X136587259Y-103175606D01*
X136560000Y-103277339D01*
X136560000Y-103382661D01*
X136587259Y-103484394D01*
X136639920Y-103575606D01*
X136644314Y-103580000D01*
X135660000Y-103580000D01*
X135660000Y-104177844D01*
X135666401Y-104237372D01*
X135666403Y-104237379D01*
X135716645Y-104372086D01*
X135716649Y-104372093D01*
X135802809Y-104487187D01*
X135802812Y-104487190D01*
X135917906Y-104573350D01*
X135917913Y-104573354D01*
X136052620Y-104623596D01*
X136052627Y-104623598D01*
X136112155Y-104629999D01*
X136112172Y-104630000D01*
X136710000Y-104630000D01*
X136710000Y-103645686D01*
X136714394Y-103650080D01*
X136805606Y-103702741D01*
X136907339Y-103730000D01*
X137012661Y-103730000D01*
X137114394Y-103702741D01*
X137205606Y-103650080D01*
X137210000Y-103645686D01*
X137210000Y-104630000D01*
X137807822Y-104630000D01*
X137809298Y-104629841D01*
X137809641Y-104629902D01*
X137811153Y-104629822D01*
X137811172Y-104630178D01*
X137878060Y-104642232D01*
X137929208Y-104689831D01*
X137946108Y-104742320D01*
X137954364Y-104836687D01*
X137954366Y-104836697D01*
X138013258Y-105056488D01*
X138013261Y-105056497D01*
X138109431Y-105262732D01*
X138109432Y-105262734D01*
X138239954Y-105449141D01*
X138400858Y-105610045D01*
X138400861Y-105610047D01*
X138587266Y-105740568D01*
X138793504Y-105836739D01*
X139013308Y-105895635D01*
X139175230Y-105909801D01*
X139239998Y-105915468D01*
X139240000Y-105915468D01*
X139240002Y-105915468D01*
X139296673Y-105910509D01*
X139466692Y-105895635D01*
X139686496Y-105836739D01*
X139892734Y-105740568D01*
X140079139Y-105610047D01*
X140240047Y-105449139D01*
X140370568Y-105262734D01*
X140466739Y-105056496D01*
X140525635Y-104836692D01*
X140545468Y-104610000D01*
X140545468Y-104609998D01*
X145554532Y-104609998D01*
X145554532Y-104610001D01*
X145574364Y-104836686D01*
X145574366Y-104836697D01*
X145633258Y-105056488D01*
X145633261Y-105056497D01*
X145729431Y-105262732D01*
X145729432Y-105262734D01*
X145859954Y-105449141D01*
X146020858Y-105610045D01*
X146020861Y-105610047D01*
X146207266Y-105740568D01*
X146413504Y-105836739D01*
X146633308Y-105895635D01*
X146795230Y-105909801D01*
X146859998Y-105915468D01*
X146860000Y-105915468D01*
X146860002Y-105915468D01*
X146916673Y-105910509D01*
X147086692Y-105895635D01*
X147306496Y-105836739D01*
X147512734Y-105740568D01*
X147699139Y-105610047D01*
X147860047Y-105449139D01*
X147990568Y-105262734D01*
X148086739Y-105056496D01*
X148145635Y-104836692D01*
X148165468Y-104610000D01*
X148145635Y-104383308D01*
X148090581Y-104177844D01*
X148086741Y-104163511D01*
X148086738Y-104163502D01*
X147990568Y-103957267D01*
X147990567Y-103957265D01*
X147860045Y-103770858D01*
X147699141Y-103609954D01*
X147512734Y-103479432D01*
X147512732Y-103479431D01*
X147306497Y-103383261D01*
X147306488Y-103383258D01*
X147086697Y-103324366D01*
X147086693Y-103324365D01*
X147086692Y-103324365D01*
X147086691Y-103324364D01*
X147086686Y-103324364D01*
X146860002Y-103304532D01*
X146859998Y-103304532D01*
X146633313Y-103324364D01*
X146633302Y-103324366D01*
X146413511Y-103383258D01*
X146413502Y-103383261D01*
X146207267Y-103479431D01*
X146207265Y-103479432D01*
X146020858Y-103609954D01*
X145859954Y-103770858D01*
X145729432Y-103957265D01*
X145729431Y-103957267D01*
X145633261Y-104163502D01*
X145633258Y-104163511D01*
X145574366Y-104383302D01*
X145574364Y-104383313D01*
X145554532Y-104609998D01*
X140545468Y-104609998D01*
X140525635Y-104383308D01*
X140470581Y-104177844D01*
X140466741Y-104163511D01*
X140466738Y-104163502D01*
X140370568Y-103957267D01*
X140370567Y-103957265D01*
X140240045Y-103770858D01*
X140079141Y-103609954D01*
X139892734Y-103479432D01*
X139892732Y-103479431D01*
X139686497Y-103383261D01*
X139686488Y-103383258D01*
X139466697Y-103324366D01*
X139466693Y-103324365D01*
X139466692Y-103324365D01*
X139466691Y-103324364D01*
X139466686Y-103324364D01*
X139240002Y-103304532D01*
X139239998Y-103304532D01*
X139013313Y-103324364D01*
X139013302Y-103324366D01*
X138793511Y-103383258D01*
X138793502Y-103383261D01*
X138587267Y-103479431D01*
X138420858Y-103595950D01*
X138354652Y-103618277D01*
X138286885Y-103601265D01*
X138262055Y-103582055D01*
X138260000Y-103580000D01*
X137275686Y-103580000D01*
X137280080Y-103575606D01*
X137332741Y-103484394D01*
X137360000Y-103382661D01*
X137360000Y-103277339D01*
X137332741Y-103175606D01*
X137280080Y-103084394D01*
X137275686Y-103080000D01*
X138260000Y-103080000D01*
X138260000Y-102623620D01*
X138279685Y-102556581D01*
X138332489Y-102510826D01*
X138401647Y-102500882D01*
X138455121Y-102522044D01*
X138567266Y-102600568D01*
X138773504Y-102696739D01*
X138993308Y-102755635D01*
X139155230Y-102769801D01*
X139219998Y-102775468D01*
X139220000Y-102775468D01*
X139220002Y-102775468D01*
X139276673Y-102770509D01*
X139446692Y-102755635D01*
X139666496Y-102696739D01*
X139872734Y-102600568D01*
X140059139Y-102470047D01*
X140220047Y-102309139D01*
X140350568Y-102122734D01*
X140446739Y-101916496D01*
X140505635Y-101696692D01*
X140525468Y-101470000D01*
X140525468Y-101469998D01*
X145534532Y-101469998D01*
X145534532Y-101470001D01*
X145554364Y-101696686D01*
X145554366Y-101696697D01*
X145613258Y-101916488D01*
X145613261Y-101916497D01*
X145709431Y-102122732D01*
X145709432Y-102122734D01*
X145839954Y-102309141D01*
X146000858Y-102470045D01*
X146000861Y-102470047D01*
X146187266Y-102600568D01*
X146393504Y-102696739D01*
X146613308Y-102755635D01*
X146775230Y-102769801D01*
X146839998Y-102775468D01*
X146840000Y-102775468D01*
X146840002Y-102775468D01*
X146896673Y-102770509D01*
X147066692Y-102755635D01*
X147286496Y-102696739D01*
X147492734Y-102600568D01*
X147679139Y-102470047D01*
X147840047Y-102309139D01*
X147970568Y-102122734D01*
X148066739Y-101916496D01*
X148125635Y-101696692D01*
X148145468Y-101470000D01*
X148125635Y-101243308D01*
X148066739Y-101023504D01*
X147970568Y-100817266D01*
X147840047Y-100630861D01*
X147840045Y-100630858D01*
X147679141Y-100469954D01*
X147492734Y-100339432D01*
X147492732Y-100339431D01*
X147286497Y-100243261D01*
X147286488Y-100243258D01*
X147066697Y-100184366D01*
X147066693Y-100184365D01*
X147066692Y-100184365D01*
X147066691Y-100184364D01*
X147066686Y-100184364D01*
X146840002Y-100164532D01*
X146839998Y-100164532D01*
X146613313Y-100184364D01*
X146613302Y-100184366D01*
X146393511Y-100243258D01*
X146393502Y-100243261D01*
X146187267Y-100339431D01*
X146187265Y-100339432D01*
X146000858Y-100469954D01*
X145839954Y-100630858D01*
X145709432Y-100817265D01*
X145709431Y-100817267D01*
X145613261Y-101023502D01*
X145613258Y-101023511D01*
X145554366Y-101243302D01*
X145554364Y-101243313D01*
X145534532Y-101469998D01*
X140525468Y-101469998D01*
X140505635Y-101243308D01*
X140446739Y-101023504D01*
X140350568Y-100817266D01*
X140220047Y-100630861D01*
X140220045Y-100630858D01*
X140059141Y-100469954D01*
X139872734Y-100339432D01*
X139872732Y-100339431D01*
X139666497Y-100243261D01*
X139666488Y-100243258D01*
X139446697Y-100184366D01*
X139446693Y-100184365D01*
X139446692Y-100184365D01*
X139446691Y-100184364D01*
X139446686Y-100184364D01*
X139220002Y-100164532D01*
X139219998Y-100164532D01*
X138993313Y-100184364D01*
X138993302Y-100184366D01*
X138773511Y-100243258D01*
X138773502Y-100243261D01*
X138567267Y-100339431D01*
X138390998Y-100462854D01*
X138324792Y-100485181D01*
X138257025Y-100468169D01*
X138209213Y-100417221D01*
X138200101Y-100393371D01*
X138186741Y-100343511D01*
X138186738Y-100343502D01*
X138184840Y-100339431D01*
X138090568Y-100137266D01*
X137960047Y-99950861D01*
X137960045Y-99950858D01*
X137799141Y-99789954D01*
X137612734Y-99659432D01*
X137612728Y-99659429D01*
X137554725Y-99632382D01*
X137502285Y-99586210D01*
X137483133Y-99519017D01*
X137503348Y-99452135D01*
X137554725Y-99407618D01*
X137612734Y-99380568D01*
X137799139Y-99250047D01*
X137960047Y-99089139D01*
X138090568Y-98902734D01*
X138186739Y-98696496D01*
X138245635Y-98476692D01*
X138265468Y-98250000D01*
X138245635Y-98023308D01*
X138186739Y-97803504D01*
X138090568Y-97597266D01*
X137960047Y-97410861D01*
X137960045Y-97410858D01*
X137799141Y-97249954D01*
X137612734Y-97119432D01*
X137612728Y-97119429D01*
X137554725Y-97092382D01*
X137502285Y-97046210D01*
X137483133Y-96979017D01*
X137503348Y-96912135D01*
X137554725Y-96867618D01*
X137612734Y-96840568D01*
X137799139Y-96710047D01*
X137960047Y-96549139D01*
X138090568Y-96362734D01*
X138186739Y-96156496D01*
X138245635Y-95936692D01*
X138265468Y-95710000D01*
X138245635Y-95483308D01*
X138192067Y-95283389D01*
X138186741Y-95263511D01*
X138186738Y-95263502D01*
X138147444Y-95179236D01*
X138090568Y-95057266D01*
X137960047Y-94870861D01*
X137960045Y-94870858D01*
X137799141Y-94709954D01*
X137612734Y-94579432D01*
X137612732Y-94579431D01*
X137406497Y-94483261D01*
X137406488Y-94483258D01*
X137186697Y-94424366D01*
X137186693Y-94424365D01*
X137186692Y-94424365D01*
X137186691Y-94424364D01*
X137186686Y-94424364D01*
X136960002Y-94404532D01*
X136959998Y-94404532D01*
X136733313Y-94424364D01*
X136733302Y-94424366D01*
X136513511Y-94483258D01*
X136513502Y-94483261D01*
X136307267Y-94579431D01*
X136307265Y-94579432D01*
X136120858Y-94709954D01*
X135959954Y-94870858D01*
X135829432Y-95057265D01*
X135829431Y-95057267D01*
X135733261Y-95263502D01*
X135733258Y-95263511D01*
X135674366Y-95483302D01*
X135674364Y-95483313D01*
X135654532Y-95709998D01*
X130645468Y-95709998D01*
X130625635Y-95483308D01*
X130572067Y-95283389D01*
X130566741Y-95263511D01*
X130566738Y-95263502D01*
X130527444Y-95179236D01*
X130470568Y-95057266D01*
X130340047Y-94870861D01*
X130340045Y-94870858D01*
X130179141Y-94709954D01*
X129992734Y-94579432D01*
X129992732Y-94579431D01*
X129786497Y-94483261D01*
X129786488Y-94483258D01*
X129566697Y-94424366D01*
X129566693Y-94424365D01*
X129566692Y-94424365D01*
X129566691Y-94424364D01*
X129566686Y-94424364D01*
X129340002Y-94404532D01*
X129339998Y-94404532D01*
X129113313Y-94424364D01*
X129113302Y-94424366D01*
X128893511Y-94483258D01*
X128893502Y-94483261D01*
X128687267Y-94579431D01*
X128687265Y-94579432D01*
X128500858Y-94709954D01*
X128339954Y-94870858D01*
X128209432Y-95057265D01*
X128209431Y-95057267D01*
X128113261Y-95263502D01*
X128113258Y-95263511D01*
X128054366Y-95483302D01*
X128054364Y-95483313D01*
X128034532Y-95709998D01*
X123200500Y-95709998D01*
X123200500Y-95614427D01*
X123200816Y-95605581D01*
X123209561Y-95483308D01*
X123215130Y-95405436D01*
X123217646Y-95387938D01*
X123259356Y-95196199D01*
X123264333Y-95179248D01*
X123332911Y-94995385D01*
X123340259Y-94979298D01*
X123434291Y-94807089D01*
X123443845Y-94792221D01*
X123561448Y-94635123D01*
X123573020Y-94621769D01*
X123711769Y-94483020D01*
X123725123Y-94471448D01*
X123882221Y-94353845D01*
X123897089Y-94344291D01*
X124069298Y-94250258D01*
X124085385Y-94242911D01*
X124269248Y-94174333D01*
X124286199Y-94169356D01*
X124477938Y-94127646D01*
X124495436Y-94125130D01*
X124695582Y-94110816D01*
X124704428Y-94110500D01*
X124765892Y-94110500D01*
X148955847Y-94110500D01*
X149022886Y-94130185D01*
G37*
%TD.AperFunction*%
%TD*%
M02*
