%TF.GenerationSoftware,KiCad,Pcbnew,8.0.5*%
%TF.CreationDate,2025-07-23T12:06:58+02:00*%
%TF.ProjectId,LED_FADER,4c45445f-4641-4444-9552-2e6b69636164,rev?*%
%TF.SameCoordinates,Original*%
%TF.FileFunction,Copper,L1,Top*%
%TF.FilePolarity,Positive*%
%FSLAX46Y46*%
G04 Gerber Fmt 4.6, Leading zero omitted, Abs format (unit mm)*
G04 Created by KiCad (PCBNEW 8.0.5) date 2025-07-23 12:06:58*
%MOMM*%
%LPD*%
G01*
G04 APERTURE LIST*
%TA.AperFunction,Conductor*%
%ADD10C,0.200000*%
%TD*%
%TA.AperFunction,ComponentPad*%
%ADD11C,1.600000*%
%TD*%
%TA.AperFunction,ComponentPad*%
%ADD12O,1.600000X1.600000*%
%TD*%
%TA.AperFunction,ComponentPad*%
%ADD13R,1.600000X1.600000*%
%TD*%
%TA.AperFunction,ComponentPad*%
%ADD14O,1.500000X1.050000*%
%TD*%
%TA.AperFunction,ComponentPad*%
%ADD15R,1.500000X1.050000*%
%TD*%
%TA.AperFunction,ComponentPad*%
%ADD16R,1.700000X1.700000*%
%TD*%
%TA.AperFunction,ComponentPad*%
%ADD17O,1.700000X1.700000*%
%TD*%
%TA.AperFunction,ComponentPad*%
%ADD18R,1.800000X1.800000*%
%TD*%
%TA.AperFunction,ComponentPad*%
%ADD19C,1.800000*%
%TD*%
%TA.AperFunction,ViaPad*%
%ADD20C,0.600000*%
%TD*%
%TA.AperFunction,Conductor*%
%ADD21C,0.500000*%
%TD*%
%TA.AperFunction,Conductor*%
%ADD22C,0.750000*%
%TD*%
G04 APERTURE END LIST*
D10*
%TO.N,GND*%
X126299066Y-100160000D02*
G75*
G02*
X123300934Y-100160000I-1499066J0D01*
G01*
X123300934Y-100160000D02*
G75*
G02*
X126299066Y-100160000I1499066J0D01*
G01*
X122700000Y-115610000D02*
X122700000Y-95610000D01*
X126939059Y-100191112D02*
G75*
G02*
X122660941Y-100191112I-2139059J0D01*
G01*
X122660941Y-100191112D02*
G75*
G02*
X126939059Y-100191112I2139059J0D01*
G01*
X152669059Y-107820000D02*
G75*
G02*
X148390941Y-107820000I-2139059J0D01*
G01*
X148390941Y-107820000D02*
G75*
G02*
X152669059Y-107820000I2139059J0D01*
G01*
X152700000Y-115610000D02*
G75*
G02*
X150700000Y-117610000I-2000000J0D01*
G01*
X124700000Y-117610000D02*
G75*
G02*
X122700000Y-115610000I0J2000000D01*
G01*
%TO.N,VCC*%
X152020944Y-107820000D02*
G75*
G02*
X149022812Y-107820000I-1499066J0D01*
G01*
X149022812Y-107820000D02*
G75*
G02*
X152020944Y-107820000I1499066J0D01*
G01*
%TO.N,GND*%
X124700000Y-93610000D02*
X150700000Y-93610000D01*
X150700000Y-117610000D02*
X124700000Y-117610000D01*
X150700000Y-93610000D02*
G75*
G02*
X152700000Y-95610000I0J-2000000D01*
G01*
X122700000Y-95610000D02*
G75*
G02*
X124700000Y-93610000I2000000J0D01*
G01*
X152700000Y-95610000D02*
X152700000Y-115610000D01*
%TD*%
D11*
%TO.P,R1,1*%
%TO.N,VCC*%
X145490000Y-116040000D03*
D12*
%TO.P,R1,2*%
%TO.N,Net-(U1-Q)*%
X145490000Y-108420000D03*
%TD*%
%TO.P,U1,8,VCC*%
%TO.N,VCC*%
X129410000Y-104070000D03*
%TO.P,U1,7,DIS*%
%TO.N,Net-(U1-DIS)*%
X129410000Y-101530000D03*
%TO.P,U1,6,THR*%
%TO.N,Net-(U1-THR)*%
X129410000Y-98990000D03*
%TO.P,U1,5,CV*%
%TO.N,unconnected-(U1-CV-Pad5)*%
X129410000Y-96450000D03*
%TO.P,U1,4,R*%
%TO.N,VCC*%
X137030000Y-96450000D03*
%TO.P,U1,3,Q*%
%TO.N,Net-(U1-Q)*%
X137030000Y-98990000D03*
%TO.P,U1,2,TR*%
%TO.N,Net-(U1-THR)*%
X137030000Y-101530000D03*
D13*
%TO.P,U1,1,GND*%
%TO.N,GND*%
X137030000Y-104070000D03*
%TD*%
D14*
%TO.P,U2,3,VI*%
%TO.N,VCC*%
X125780000Y-109320000D03*
%TO.P,U2,2,GND*%
%TO.N,Net-(U1-THR)*%
X125780000Y-108050000D03*
D15*
%TO.P,U2,1,VO*%
%TO.N,Net-(U2-VO)*%
X125780000Y-106780000D03*
%TD*%
D11*
%TO.P,R4,1*%
%TO.N,Net-(U2-VO)*%
X130110000Y-108440000D03*
D12*
%TO.P,R4,2*%
%TO.N,Net-(D1-A)*%
X130110000Y-116060000D03*
%TD*%
D16*
%TO.P,J3,1,Pin_1*%
%TO.N,VCC*%
X125110000Y-112705000D03*
D17*
%TO.P,J3,2,Pin_2*%
%TO.N,GND*%
X125110000Y-115245000D03*
%TD*%
D18*
%TO.P,D1,1,K*%
%TO.N,GND*%
X136400000Y-112310000D03*
D19*
%TO.P,D1,2,A*%
%TO.N,Net-(D1-A)*%
X138940000Y-112310000D03*
%TD*%
D11*
%TO.P,R2,1*%
%TO.N,VCC*%
X147300000Y-104010000D03*
D12*
%TO.P,R2,2*%
%TO.N,Net-(U1-DIS)*%
X139680000Y-104010000D03*
%TD*%
D11*
%TO.P,C1,2*%
%TO.N,GND*%
X149590000Y-95510000D03*
D13*
%TO.P,C1,1*%
%TO.N,Net-(U1-THR)*%
X149590000Y-98010000D03*
%TD*%
D12*
%TO.P,R3,2*%
%TO.N,Net-(U1-THR)*%
X147280000Y-100870000D03*
D11*
%TO.P,R3,1*%
%TO.N,Net-(U1-DIS)*%
X139660000Y-100870000D03*
%TD*%
D16*
%TO.P,J2,1,Pin_1*%
%TO.N,VCC*%
X150280000Y-112665000D03*
D17*
%TO.P,J2,2,Pin_2*%
%TO.N,GND*%
X150280000Y-115205000D03*
%TD*%
D20*
%TO.N,GND*%
X134720000Y-112320000D03*
X137030000Y-105290000D03*
X138030000Y-104140000D03*
X150660000Y-94610000D03*
X136370000Y-110890000D03*
X148670000Y-94640000D03*
X150250000Y-116570000D03*
X123600000Y-115290000D03*
X136410000Y-114050000D03*
X150970000Y-95640000D03*
X126650000Y-114570000D03*
X151630000Y-115250000D03*
X149640000Y-94180000D03*
X125090000Y-116670000D03*
X126490000Y-116650000D03*
X123880000Y-116400000D03*
X148640000Y-114410000D03*
X151450000Y-116460000D03*
X148250000Y-95550000D03*
X148600000Y-115940000D03*
X135840000Y-104090000D03*
%TD*%
D21*
%TO.N,Net-(U1-THR)*%
X125780000Y-108050000D02*
X124875000Y-108050000D01*
X124875000Y-108050000D02*
X124150000Y-107325000D01*
X127860000Y-101880000D02*
X127860000Y-100750000D01*
X124150000Y-107325000D02*
X124150000Y-105590000D01*
X124150000Y-105590000D02*
X127860000Y-101880000D01*
X127860000Y-100750000D02*
X133840000Y-94770000D01*
X133840000Y-94770000D02*
X141160000Y-94770000D01*
X141160000Y-94770000D02*
X147260000Y-100870000D01*
X147260000Y-100870000D02*
X147280000Y-100870000D01*
%TO.N,VCC*%
X129410000Y-104070000D02*
X129410000Y-105350000D01*
X129410000Y-105350000D02*
X132530000Y-108470000D01*
D22*
X125110000Y-112705000D02*
X128155000Y-112705000D01*
X128155000Y-112705000D02*
X132390000Y-108470000D01*
X132390000Y-108470000D02*
X133080000Y-108470000D01*
D21*
%TO.N,Net-(D1-A)*%
X130110000Y-116060000D02*
X136750000Y-116060000D01*
X136750000Y-116060000D02*
X138940000Y-113870000D01*
X138940000Y-113870000D02*
X138940000Y-112310000D01*
%TO.N,VCC*%
X137030000Y-96450000D02*
X139740000Y-96450000D01*
X139740000Y-96450000D02*
X147300000Y-104010000D01*
D22*
X143070000Y-108470000D02*
X145310000Y-110710000D01*
X145310000Y-110710000D02*
X145545000Y-110945000D01*
D21*
X129600000Y-104070000D02*
X129410000Y-104070000D01*
%TO.N,Net-(U1-DIS)*%
X139680000Y-104010000D02*
X139680000Y-104900000D01*
X139680000Y-104900000D02*
X138240000Y-106340000D01*
X138240000Y-106340000D02*
X134410000Y-106340000D01*
X134410000Y-106340000D02*
X129610000Y-101540000D01*
X139680000Y-104010000D02*
X139680000Y-100890000D01*
X139680000Y-100890000D02*
X139660000Y-100870000D01*
%TO.N,Net-(U1-THR)*%
X129410000Y-98990000D02*
X129420000Y-99000000D01*
X129420000Y-99000000D02*
X134500000Y-99000000D01*
X134500000Y-99000000D02*
X137040000Y-101540000D01*
X149590000Y-98010000D02*
X149590000Y-99610000D01*
X149590000Y-99610000D02*
X148330000Y-100870000D01*
X148330000Y-100870000D02*
X147280000Y-100870000D01*
%TO.N,VCC*%
X125780000Y-109320000D02*
X125120000Y-109980000D01*
X125120000Y-109980000D02*
X125120000Y-112695000D01*
X125120000Y-112695000D02*
X125110000Y-112705000D01*
X145490000Y-116040000D02*
X145490000Y-111000000D01*
X145490000Y-111000000D02*
X145545000Y-110945000D01*
D22*
X145545000Y-110945000D02*
X147265000Y-112665000D01*
D21*
%TO.N,Net-(U1-Q)*%
X145490000Y-108420000D02*
X145490000Y-104572233D01*
X139917767Y-99000000D02*
X137230000Y-99000000D01*
X145490000Y-104572233D02*
X139917767Y-99000000D01*
D22*
%TO.N,VCC*%
X133080000Y-108470000D02*
X143070000Y-108470000D01*
X147265000Y-112665000D02*
X150280000Y-112665000D01*
D21*
%TO.N,Net-(U2-VO)*%
X128450000Y-106780000D02*
X125780000Y-106780000D01*
X130110000Y-108440000D02*
X128450000Y-106780000D01*
%TO.N,VCC*%
X147300000Y-104010000D02*
X147300000Y-108720000D01*
X147300000Y-108720000D02*
X145310000Y-110710000D01*
%TD*%
M02*
