%TF.GenerationSoftware,KiCad,Pcbnew,8.0.5*%
%TF.CreationDate,2025-07-23T12:06:58+02:00*%
%TF.ProjectId,LED_FADER,4c45445f-4641-4444-9552-2e6b69636164,rev?*%
%TF.SameCoordinates,Original*%
%TF.FileFunction,Copper,L2,Bot*%
%TF.FilePolarity,Positive*%
%FSLAX46Y46*%
G04 Gerber Fmt 4.6, Leading zero omitted, Abs format (unit mm)*
G04 Created by KiCad (PCBNEW 8.0.5) date 2025-07-23 12:06:58*
%MOMM*%
%LPD*%
G01*
G04 APERTURE LIST*
%TA.AperFunction,ComponentPad*%
%ADD10C,1.600000*%
%TD*%
%TA.AperFunction,ComponentPad*%
%ADD11O,1.600000X1.600000*%
%TD*%
%TA.AperFunction,ComponentPad*%
%ADD12R,1.600000X1.600000*%
%TD*%
%TA.AperFunction,ComponentPad*%
%ADD13O,1.500000X1.050000*%
%TD*%
%TA.AperFunction,ComponentPad*%
%ADD14R,1.500000X1.050000*%
%TD*%
%TA.AperFunction,ComponentPad*%
%ADD15R,1.700000X1.700000*%
%TD*%
%TA.AperFunction,ComponentPad*%
%ADD16O,1.700000X1.700000*%
%TD*%
%TA.AperFunction,ComponentPad*%
%ADD17R,1.800000X1.800000*%
%TD*%
%TA.AperFunction,ComponentPad*%
%ADD18C,1.800000*%
%TD*%
%TA.AperFunction,ViaPad*%
%ADD19C,0.600000*%
%TD*%
%TA.AperFunction,Conductor*%
%ADD20C,0.500000*%
%TD*%
%TA.AperFunction,Conductor*%
%ADD21C,0.750000*%
%TD*%
G04 APERTURE END LIST*
D10*
%TO.P,R1,1*%
%TO.N,VCC*%
X145490000Y-116040000D03*
D11*
%TO.P,R1,2*%
%TO.N,Net-(U1-Q)*%
X145490000Y-108420000D03*
%TD*%
%TO.P,U1,8,VCC*%
%TO.N,VCC*%
X129410000Y-104070000D03*
%TO.P,U1,7,DIS*%
%TO.N,Net-(U1-DIS)*%
X129410000Y-101530000D03*
%TO.P,U1,6,THR*%
%TO.N,Net-(U1-THR)*%
X129410000Y-98990000D03*
%TO.P,U1,5,CV*%
%TO.N,unconnected-(U1-CV-Pad5)*%
X129410000Y-96450000D03*
%TO.P,U1,4,R*%
%TO.N,VCC*%
X137030000Y-96450000D03*
%TO.P,U1,3,Q*%
%TO.N,Net-(U1-Q)*%
X137030000Y-98990000D03*
%TO.P,U1,2,TR*%
%TO.N,Net-(U1-THR)*%
X137030000Y-101530000D03*
D12*
%TO.P,U1,1,GND*%
%TO.N,GND*%
X137030000Y-104070000D03*
%TD*%
D13*
%TO.P,U2,3,VI*%
%TO.N,VCC*%
X125780000Y-109320000D03*
%TO.P,U2,2,GND*%
%TO.N,Net-(U1-THR)*%
X125780000Y-108050000D03*
D14*
%TO.P,U2,1,VO*%
%TO.N,Net-(U2-VO)*%
X125780000Y-106780000D03*
%TD*%
D10*
%TO.P,R4,1*%
%TO.N,Net-(U2-VO)*%
X130110000Y-108440000D03*
D11*
%TO.P,R4,2*%
%TO.N,Net-(D1-A)*%
X130110000Y-116060000D03*
%TD*%
D15*
%TO.P,J3,1,Pin_1*%
%TO.N,VCC*%
X125110000Y-112705000D03*
D16*
%TO.P,J3,2,Pin_2*%
%TO.N,GND*%
X125110000Y-115245000D03*
%TD*%
D17*
%TO.P,D1,1,K*%
%TO.N,GND*%
X136400000Y-112310000D03*
D18*
%TO.P,D1,2,A*%
%TO.N,Net-(D1-A)*%
X138940000Y-112310000D03*
%TD*%
D10*
%TO.P,R2,1*%
%TO.N,VCC*%
X147300000Y-104010000D03*
D11*
%TO.P,R2,2*%
%TO.N,Net-(U1-DIS)*%
X139680000Y-104010000D03*
%TD*%
D10*
%TO.P,C1,2*%
%TO.N,GND*%
X149590000Y-95510000D03*
D12*
%TO.P,C1,1*%
%TO.N,Net-(U1-THR)*%
X149590000Y-98010000D03*
%TD*%
D11*
%TO.P,R3,2*%
%TO.N,Net-(U1-THR)*%
X147280000Y-100870000D03*
D10*
%TO.P,R3,1*%
%TO.N,Net-(U1-DIS)*%
X139660000Y-100870000D03*
%TD*%
D15*
%TO.P,J2,1,Pin_1*%
%TO.N,VCC*%
X150280000Y-112665000D03*
D16*
%TO.P,J2,2,Pin_2*%
%TO.N,GND*%
X150280000Y-115205000D03*
%TD*%
D19*
%TO.N,GND*%
X134720000Y-112320000D03*
X137030000Y-105290000D03*
X138030000Y-104140000D03*
X150660000Y-94610000D03*
X136370000Y-110890000D03*
X148670000Y-94640000D03*
X150250000Y-116570000D03*
X123600000Y-115290000D03*
X136410000Y-114050000D03*
X150970000Y-95640000D03*
X126650000Y-114570000D03*
X151630000Y-115250000D03*
X149640000Y-94180000D03*
X125090000Y-116670000D03*
X126490000Y-116650000D03*
X123880000Y-116400000D03*
X148640000Y-114410000D03*
X151450000Y-116460000D03*
X148250000Y-95550000D03*
X148600000Y-115940000D03*
X135840000Y-104090000D03*
%TD*%
D20*
%TO.N,GND*%
X133080000Y-109930000D02*
X137030000Y-105980000D01*
X137030000Y-105980000D02*
X137030000Y-104070000D01*
D21*
X125110000Y-115245000D02*
X125115000Y-115250000D01*
X125115000Y-115250000D02*
X127760000Y-115250000D01*
X127760000Y-115250000D02*
X133080000Y-109930000D01*
X133080000Y-109930000D02*
X142300000Y-109930000D01*
X142300000Y-109930000D02*
X147575000Y-115205000D01*
X147575000Y-115205000D02*
X150280000Y-115205000D01*
%TD*%
%TA.AperFunction,Conductor*%
%TO.N,GND*%
G36*
X149022886Y-94130185D02*
G01*
X149068641Y-94182989D01*
X149078585Y-94252147D01*
X149049560Y-94315703D01*
X149008252Y-94346882D01*
X148937516Y-94379866D01*
X148937512Y-94379868D01*
X148864526Y-94430973D01*
X148864526Y-94430974D01*
X149543553Y-95110000D01*
X149537339Y-95110000D01*
X149435606Y-95137259D01*
X149344394Y-95189920D01*
X149269920Y-95264394D01*
X149217259Y-95355606D01*
X149190000Y-95457339D01*
X149190000Y-95463552D01*
X148510974Y-94784526D01*
X148510973Y-94784526D01*
X148459868Y-94857512D01*
X148459866Y-94857516D01*
X148363734Y-95063673D01*
X148363730Y-95063682D01*
X148304860Y-95283389D01*
X148304858Y-95283400D01*
X148285034Y-95509997D01*
X148285034Y-95510002D01*
X148304858Y-95736599D01*
X148304860Y-95736610D01*
X148363730Y-95956317D01*
X148363735Y-95956331D01*
X148459863Y-96162478D01*
X148510974Y-96235472D01*
X149190000Y-95556446D01*
X149190000Y-95562661D01*
X149217259Y-95664394D01*
X149269920Y-95755606D01*
X149344394Y-95830080D01*
X149435606Y-95882741D01*
X149537339Y-95910000D01*
X149543553Y-95910000D01*
X148859352Y-96594199D01*
X148849506Y-96643194D01*
X148800890Y-96693377D01*
X148745367Y-96708049D01*
X148745423Y-96709099D01*
X148745429Y-96709146D01*
X148745426Y-96709146D01*
X148745436Y-96709324D01*
X148742123Y-96709501D01*
X148682516Y-96715908D01*
X148547671Y-96766202D01*
X148547664Y-96766206D01*
X148432455Y-96852452D01*
X148432452Y-96852455D01*
X148346206Y-96967664D01*
X148346202Y-96967671D01*
X148295908Y-97102517D01*
X148289501Y-97162116D01*
X148289501Y-97162123D01*
X148289500Y-97162135D01*
X148289500Y-98857870D01*
X148289501Y-98857876D01*
X148295908Y-98917483D01*
X148346202Y-99052328D01*
X148346206Y-99052335D01*
X148432452Y-99167544D01*
X148432455Y-99167547D01*
X148547664Y-99253793D01*
X148547671Y-99253797D01*
X148682517Y-99304091D01*
X148682516Y-99304091D01*
X148689444Y-99304835D01*
X148742127Y-99310500D01*
X150437872Y-99310499D01*
X150497483Y-99304091D01*
X150632331Y-99253796D01*
X150747546Y-99167546D01*
X150833796Y-99052331D01*
X150884091Y-98917483D01*
X150890500Y-98857873D01*
X150890499Y-97162128D01*
X150884091Y-97102517D01*
X150833796Y-96967669D01*
X150833795Y-96967668D01*
X150833793Y-96967664D01*
X150747547Y-96852455D01*
X150747544Y-96852452D01*
X150632335Y-96766206D01*
X150632328Y-96766202D01*
X150497482Y-96715908D01*
X150497483Y-96715908D01*
X150437883Y-96709501D01*
X150437881Y-96709500D01*
X150437873Y-96709500D01*
X150437864Y-96709500D01*
X150434548Y-96709322D01*
X150434627Y-96707847D01*
X150373215Y-96689815D01*
X150327460Y-96637011D01*
X150319969Y-96593522D01*
X149636447Y-95910000D01*
X149642661Y-95910000D01*
X149744394Y-95882741D01*
X149835606Y-95830080D01*
X149910080Y-95755606D01*
X149962741Y-95664394D01*
X149990000Y-95562661D01*
X149990000Y-95556447D01*
X150669024Y-96235471D01*
X150720136Y-96162478D01*
X150816264Y-95956331D01*
X150816269Y-95956317D01*
X150875139Y-95736610D01*
X150875141Y-95736599D01*
X150894966Y-95510002D01*
X150894966Y-95509997D01*
X150875141Y-95283400D01*
X150875139Y-95283389D01*
X150816269Y-95063682D01*
X150816264Y-95063668D01*
X150720136Y-94857521D01*
X150720132Y-94857513D01*
X150669025Y-94784526D01*
X149990000Y-95463551D01*
X149990000Y-95457339D01*
X149962741Y-95355606D01*
X149910080Y-95264394D01*
X149835606Y-95189920D01*
X149744394Y-95137259D01*
X149642661Y-95110000D01*
X149636448Y-95110000D01*
X150315472Y-94430974D01*
X150242480Y-94379864D01*
X150171749Y-94346882D01*
X150119310Y-94300710D01*
X150100158Y-94233516D01*
X150120374Y-94166635D01*
X150173539Y-94121301D01*
X150224154Y-94110500D01*
X150634108Y-94110500D01*
X150695572Y-94110500D01*
X150704418Y-94110816D01*
X150904561Y-94125130D01*
X150922063Y-94127647D01*
X151113797Y-94169355D01*
X151130755Y-94174334D01*
X151289426Y-94233516D01*
X151314609Y-94242909D01*
X151330701Y-94250259D01*
X151502904Y-94344288D01*
X151517784Y-94353849D01*
X151674867Y-94471441D01*
X151688237Y-94483027D01*
X151826972Y-94621762D01*
X151838558Y-94635132D01*
X151956146Y-94792210D01*
X151965711Y-94807095D01*
X152059740Y-94979298D01*
X152067090Y-94995390D01*
X152135662Y-95179236D01*
X152140646Y-95196212D01*
X152182351Y-95387931D01*
X152184869Y-95405442D01*
X152199184Y-95605580D01*
X152199500Y-95614427D01*
X152199500Y-104866000D01*
X152179815Y-104933039D01*
X152127011Y-104978794D01*
X152075500Y-104990000D01*
X148858505Y-104990000D01*
X147679200Y-107170385D01*
X147778873Y-108703105D01*
X149701262Y-110660000D01*
X152075500Y-110660000D01*
X152142539Y-110679685D01*
X152188294Y-110732489D01*
X152199500Y-110784000D01*
X152199500Y-115605572D01*
X152199184Y-115614419D01*
X152184869Y-115814557D01*
X152182351Y-115832068D01*
X152140646Y-116023787D01*
X152135662Y-116040763D01*
X152067090Y-116224609D01*
X152059740Y-116240701D01*
X151965711Y-116412904D01*
X151956146Y-116427789D01*
X151838558Y-116584867D01*
X151826972Y-116598237D01*
X151688237Y-116736972D01*
X151674867Y-116748558D01*
X151517789Y-116866146D01*
X151502904Y-116875711D01*
X151330701Y-116969740D01*
X151314609Y-116977090D01*
X151130763Y-117045662D01*
X151113787Y-117050646D01*
X150922068Y-117092351D01*
X150904557Y-117094869D01*
X150723779Y-117107799D01*
X150704417Y-117109184D01*
X150695572Y-117109500D01*
X146559049Y-117109500D01*
X146492010Y-117089815D01*
X146446255Y-117037011D01*
X146436311Y-116967853D01*
X146465336Y-116904297D01*
X146471368Y-116897819D01*
X146490045Y-116879141D01*
X146490047Y-116879139D01*
X146620568Y-116692734D01*
X146716739Y-116486496D01*
X146775635Y-116266692D01*
X146795468Y-116040000D01*
X146775635Y-115813308D01*
X146716739Y-115593504D01*
X146620568Y-115387266D01*
X146490047Y-115200861D01*
X146490045Y-115200858D01*
X146329141Y-115039954D01*
X146142734Y-114909432D01*
X146142732Y-114909431D01*
X145936497Y-114813261D01*
X145936488Y-114813258D01*
X145716697Y-114754366D01*
X145716693Y-114754365D01*
X145716692Y-114754365D01*
X145716691Y-114754364D01*
X145716686Y-114754364D01*
X145490002Y-114734532D01*
X145489998Y-114734532D01*
X145263313Y-114754364D01*
X145263302Y-114754366D01*
X145043511Y-114813258D01*
X145043502Y-114813261D01*
X144837267Y-114909431D01*
X144837265Y-114909432D01*
X144650858Y-115039954D01*
X144489954Y-115200858D01*
X144359432Y-115387265D01*
X144359431Y-115387267D01*
X144263261Y-115593502D01*
X144263258Y-115593511D01*
X144204366Y-115813302D01*
X144204364Y-115813313D01*
X144184532Y-116039998D01*
X144184532Y-116040001D01*
X144204364Y-116266686D01*
X144204366Y-116266697D01*
X144263258Y-116486488D01*
X144263261Y-116486497D01*
X144359431Y-116692732D01*
X144359432Y-116692734D01*
X144489954Y-116879141D01*
X144508632Y-116897819D01*
X144542117Y-116959142D01*
X144537133Y-117028834D01*
X144495261Y-117084767D01*
X144429797Y-117109184D01*
X144420951Y-117109500D01*
X131199049Y-117109500D01*
X131132010Y-117089815D01*
X131086255Y-117037011D01*
X131076311Y-116967853D01*
X131105336Y-116904297D01*
X131109220Y-116900124D01*
X131110043Y-116899144D01*
X131110971Y-116897819D01*
X131240568Y-116712734D01*
X131336739Y-116506496D01*
X131395635Y-116286692D01*
X131415468Y-116060000D01*
X131395635Y-115833308D01*
X131336739Y-115613504D01*
X131240568Y-115407266D01*
X131110047Y-115220861D01*
X131110045Y-115220858D01*
X130949141Y-115059954D01*
X130762734Y-114929432D01*
X130762732Y-114929431D01*
X130556497Y-114833261D01*
X130556488Y-114833258D01*
X130336697Y-114774366D01*
X130336693Y-114774365D01*
X130336692Y-114774365D01*
X130336691Y-114774364D01*
X130336686Y-114774364D01*
X130110002Y-114754532D01*
X130109998Y-114754532D01*
X129883313Y-114774364D01*
X129883302Y-114774366D01*
X129663511Y-114833258D01*
X129663502Y-114833261D01*
X129457267Y-114929431D01*
X129457265Y-114929432D01*
X129270858Y-115059954D01*
X129109954Y-115220858D01*
X128979432Y-115407265D01*
X128979431Y-115407267D01*
X128883261Y-115613502D01*
X128883258Y-115613511D01*
X128824366Y-115833302D01*
X128824364Y-115833313D01*
X128804532Y-116059998D01*
X128804532Y-116060001D01*
X128824364Y-116286686D01*
X128824366Y-116286697D01*
X128883258Y-116506488D01*
X128883261Y-116506497D01*
X128979431Y-116712732D01*
X128979432Y-116712734D01*
X129109956Y-116899144D01*
X129113434Y-116903289D01*
X129112189Y-116904333D01*
X129142117Y-116959142D01*
X129137133Y-117028834D01*
X129095261Y-117084767D01*
X129029797Y-117109184D01*
X129020951Y-117109500D01*
X124704428Y-117109500D01*
X124695582Y-117109184D01*
X124673622Y-117107613D01*
X124495442Y-117094869D01*
X124477931Y-117092351D01*
X124286212Y-117050646D01*
X124269236Y-117045662D01*
X124085390Y-116977090D01*
X124069298Y-116969740D01*
X123897095Y-116875711D01*
X123882210Y-116866146D01*
X123725132Y-116748558D01*
X123711762Y-116736972D01*
X123573027Y-116598237D01*
X123561441Y-116584867D01*
X123554529Y-116575634D01*
X123443849Y-116427784D01*
X123434288Y-116412904D01*
X123340259Y-116240701D01*
X123332909Y-116224609D01*
X123292430Y-116116082D01*
X123264334Y-116040755D01*
X123259355Y-116023797D01*
X123217647Y-115832063D01*
X123215130Y-115814556D01*
X123215040Y-115813302D01*
X123200816Y-115614418D01*
X123200500Y-115605572D01*
X123200500Y-111807135D01*
X123759500Y-111807135D01*
X123759500Y-113602870D01*
X123759501Y-113602876D01*
X123765908Y-113662483D01*
X123816202Y-113797328D01*
X123816206Y-113797335D01*
X123902452Y-113912544D01*
X123902455Y-113912547D01*
X124017664Y-113998793D01*
X124017671Y-113998797D01*
X124045271Y-114009091D01*
X124149598Y-114048002D01*
X124205531Y-114089873D01*
X124229949Y-114155337D01*
X124215098Y-114223610D01*
X124193947Y-114251865D01*
X124071886Y-114373926D01*
X123936400Y-114567420D01*
X123936399Y-114567422D01*
X123836570Y-114781507D01*
X123836567Y-114781513D01*
X123779364Y-114994999D01*
X123779364Y-114995000D01*
X124676988Y-114995000D01*
X124644075Y-115052007D01*
X124610000Y-115179174D01*
X124610000Y-115310826D01*
X124644075Y-115437993D01*
X124676988Y-115495000D01*
X123779364Y-115495000D01*
X123836567Y-115708486D01*
X123836570Y-115708492D01*
X123936399Y-115922578D01*
X124071894Y-116116082D01*
X124238917Y-116283105D01*
X124432421Y-116418600D01*
X124646507Y-116518429D01*
X124646516Y-116518433D01*
X124860000Y-116575634D01*
X124860000Y-115678012D01*
X124917007Y-115710925D01*
X125044174Y-115745000D01*
X125175826Y-115745000D01*
X125302993Y-115710925D01*
X125360000Y-115678012D01*
X125360000Y-116575633D01*
X125573483Y-116518433D01*
X125573492Y-116518429D01*
X125787578Y-116418600D01*
X125981082Y-116283105D01*
X126148105Y-116116082D01*
X126283600Y-115922578D01*
X126383429Y-115708492D01*
X126383432Y-115708486D01*
X126440636Y-115495000D01*
X125543012Y-115495000D01*
X125575925Y-115437993D01*
X125610000Y-115310826D01*
X125610000Y-115179174D01*
X125575925Y-115052007D01*
X125543012Y-114995000D01*
X126440636Y-114995000D01*
X126440635Y-114994999D01*
X126383432Y-114781513D01*
X126383429Y-114781507D01*
X126283600Y-114567422D01*
X126283599Y-114567420D01*
X126148113Y-114373926D01*
X126148108Y-114373920D01*
X126026053Y-114251865D01*
X125992568Y-114190542D01*
X125997552Y-114120850D01*
X126039424Y-114064917D01*
X126070400Y-114048002D01*
X126174729Y-114009091D01*
X126202326Y-113998798D01*
X126202326Y-113998797D01*
X126202331Y-113998796D01*
X126317546Y-113912546D01*
X126403796Y-113797331D01*
X126454091Y-113662483D01*
X126460500Y-113602873D01*
X126460499Y-111807128D01*
X126454091Y-111747517D01*
X126403796Y-111612669D01*
X126403795Y-111612668D01*
X126403793Y-111612664D01*
X126317547Y-111497455D01*
X126317544Y-111497452D01*
X126202335Y-111411206D01*
X126202328Y-111411202D01*
X126070825Y-111362155D01*
X135000000Y-111362155D01*
X135000000Y-112060000D01*
X136024722Y-112060000D01*
X135980667Y-112136306D01*
X135950000Y-112250756D01*
X135950000Y-112369244D01*
X135980667Y-112483694D01*
X136024722Y-112560000D01*
X135000000Y-112560000D01*
X135000000Y-113257844D01*
X135006401Y-113317372D01*
X135006403Y-113317379D01*
X135056645Y-113452086D01*
X135056649Y-113452093D01*
X135142809Y-113567187D01*
X135142812Y-113567190D01*
X135257906Y-113653350D01*
X135257913Y-113653354D01*
X135392620Y-113703596D01*
X135392627Y-113703598D01*
X135452155Y-113709999D01*
X135452172Y-113710000D01*
X136150000Y-113710000D01*
X136150000Y-112685277D01*
X136226306Y-112729333D01*
X136340756Y-112760000D01*
X136459244Y-112760000D01*
X136573694Y-112729333D01*
X136650000Y-112685277D01*
X136650000Y-113710000D01*
X137347828Y-113710000D01*
X137347844Y-113709999D01*
X137407372Y-113703598D01*
X137407379Y-113703596D01*
X137542086Y-113653354D01*
X137542093Y-113653350D01*
X137657187Y-113567190D01*
X137657190Y-113567187D01*
X137743350Y-113452093D01*
X137743355Y-113452084D01*
X137772075Y-113375081D01*
X137813945Y-113319147D01*
X137879409Y-113294729D01*
X137947682Y-113309580D01*
X137979484Y-113334428D01*
X137988216Y-113343913D01*
X137988219Y-113343915D01*
X137988222Y-113343918D01*
X138171365Y-113486464D01*
X138171371Y-113486468D01*
X138171374Y-113486470D01*
X138375497Y-113596936D01*
X138449910Y-113622482D01*
X138595015Y-113672297D01*
X138595017Y-113672297D01*
X138595019Y-113672298D01*
X138823951Y-113710500D01*
X138823952Y-113710500D01*
X139056048Y-113710500D01*
X139056049Y-113710500D01*
X139284981Y-113672298D01*
X139504503Y-113596936D01*
X139708626Y-113486470D01*
X139891784Y-113343913D01*
X140048979Y-113173153D01*
X140175924Y-112978849D01*
X140269157Y-112766300D01*
X140326134Y-112541305D01*
X140345300Y-112310000D01*
X140345300Y-112309993D01*
X140326135Y-112078702D01*
X140326133Y-112078691D01*
X140269157Y-111853699D01*
X140231186Y-111767135D01*
X148929500Y-111767135D01*
X148929500Y-113562870D01*
X148929501Y-113562876D01*
X148935908Y-113622483D01*
X148986202Y-113757328D01*
X148986206Y-113757335D01*
X149072452Y-113872544D01*
X149072455Y-113872547D01*
X149187664Y-113958793D01*
X149187671Y-113958797D01*
X149187674Y-113958798D01*
X149319598Y-114008002D01*
X149375531Y-114049873D01*
X149399949Y-114115337D01*
X149385098Y-114183610D01*
X149363947Y-114211865D01*
X149241886Y-114333926D01*
X149106400Y-114527420D01*
X149106399Y-114527422D01*
X149006570Y-114741507D01*
X149006567Y-114741513D01*
X148949364Y-114954999D01*
X148949364Y-114955000D01*
X149846988Y-114955000D01*
X149814075Y-115012007D01*
X149780000Y-115139174D01*
X149780000Y-115270826D01*
X149814075Y-115397993D01*
X149846988Y-115455000D01*
X148949364Y-115455000D01*
X149006567Y-115668486D01*
X149006570Y-115668492D01*
X149106399Y-115882578D01*
X149241894Y-116076082D01*
X149408917Y-116243105D01*
X149602421Y-116378600D01*
X149816507Y-116478429D01*
X149816516Y-116478433D01*
X150030000Y-116535634D01*
X150030000Y-115638012D01*
X150087007Y-115670925D01*
X150214174Y-115705000D01*
X150345826Y-115705000D01*
X150472993Y-115670925D01*
X150530000Y-115638012D01*
X150530000Y-116535633D01*
X150743483Y-116478433D01*
X150743492Y-116478429D01*
X150957578Y-116378600D01*
X151151082Y-116243105D01*
X151318105Y-116076082D01*
X151453600Y-115882578D01*
X151553429Y-115668492D01*
X151553432Y-115668486D01*
X151610636Y-115455000D01*
X150713012Y-115455000D01*
X150745925Y-115397993D01*
X150780000Y-115270826D01*
X150780000Y-115139174D01*
X150745925Y-115012007D01*
X150713012Y-114955000D01*
X151610636Y-114955000D01*
X151610635Y-114954999D01*
X151553432Y-114741513D01*
X151553429Y-114741507D01*
X151453600Y-114527422D01*
X151453599Y-114527420D01*
X151318113Y-114333926D01*
X151318108Y-114333920D01*
X151196053Y-114211865D01*
X151162568Y-114150542D01*
X151167552Y-114080850D01*
X151209424Y-114024917D01*
X151240400Y-114008002D01*
X151372331Y-113958796D01*
X151487546Y-113872546D01*
X151573796Y-113757331D01*
X151624091Y-113622483D01*
X151630500Y-113562873D01*
X151630499Y-111767128D01*
X151624091Y-111707517D01*
X151573796Y-111572669D01*
X151573795Y-111572668D01*
X151573793Y-111572664D01*
X151487547Y-111457455D01*
X151487544Y-111457452D01*
X151372335Y-111371206D01*
X151372328Y-111371202D01*
X151237482Y-111320908D01*
X151237483Y-111320908D01*
X151177883Y-111314501D01*
X151177881Y-111314500D01*
X151177873Y-111314500D01*
X151177864Y-111314500D01*
X149382129Y-111314500D01*
X149382123Y-111314501D01*
X149322516Y-111320908D01*
X149187671Y-111371202D01*
X149187664Y-111371206D01*
X149072455Y-111457452D01*
X149072452Y-111457455D01*
X148986206Y-111572664D01*
X148986202Y-111572671D01*
X148935908Y-111707517D01*
X148931608Y-111747516D01*
X148929501Y-111767123D01*
X148929500Y-111767135D01*
X140231186Y-111767135D01*
X140175924Y-111641151D01*
X140048983Y-111446852D01*
X140048980Y-111446849D01*
X140048979Y-111446847D01*
X139891784Y-111276087D01*
X139891779Y-111276083D01*
X139891777Y-111276081D01*
X139708634Y-111133535D01*
X139708628Y-111133531D01*
X139504504Y-111023064D01*
X139504495Y-111023061D01*
X139284984Y-110947702D01*
X139097404Y-110916401D01*
X139056049Y-110909500D01*
X138823951Y-110909500D01*
X138782596Y-110916401D01*
X138595015Y-110947702D01*
X138375504Y-111023061D01*
X138375495Y-111023064D01*
X138171371Y-111133531D01*
X138171365Y-111133535D01*
X137988222Y-111276081D01*
X137988215Y-111276087D01*
X137979484Y-111285572D01*
X137919595Y-111321561D01*
X137849757Y-111319458D01*
X137792143Y-111279932D01*
X137772075Y-111244918D01*
X137743355Y-111167915D01*
X137743350Y-111167906D01*
X137657190Y-111052812D01*
X137657187Y-111052809D01*
X137542093Y-110966649D01*
X137542086Y-110966645D01*
X137407379Y-110916403D01*
X137407372Y-110916401D01*
X137347844Y-110910000D01*
X136650000Y-110910000D01*
X136650000Y-111934722D01*
X136573694Y-111890667D01*
X136459244Y-111860000D01*
X136340756Y-111860000D01*
X136226306Y-111890667D01*
X136150000Y-111934722D01*
X136150000Y-110910000D01*
X135452155Y-110910000D01*
X135392627Y-110916401D01*
X135392620Y-110916403D01*
X135257913Y-110966645D01*
X135257906Y-110966649D01*
X135142812Y-111052809D01*
X135142809Y-111052812D01*
X135056649Y-111167906D01*
X135056645Y-111167913D01*
X135006403Y-111302620D01*
X135006401Y-111302627D01*
X135000000Y-111362155D01*
X126070825Y-111362155D01*
X126067482Y-111360908D01*
X126067483Y-111360908D01*
X126007883Y-111354501D01*
X126007881Y-111354500D01*
X126007873Y-111354500D01*
X126007864Y-111354500D01*
X124212129Y-111354500D01*
X124212123Y-111354501D01*
X124152516Y-111360908D01*
X124017671Y-111411202D01*
X124017664Y-111411206D01*
X123902455Y-111497452D01*
X123902452Y-111497455D01*
X123816206Y-111612664D01*
X123816202Y-111612671D01*
X123765908Y-111747517D01*
X123759501Y-111807116D01*
X123759501Y-111807123D01*
X123759500Y-111807135D01*
X123200500Y-111807135D01*
X123200500Y-106207135D01*
X124529500Y-106207135D01*
X124529500Y-107352870D01*
X124529501Y-107352876D01*
X124535908Y-107412483D01*
X124586202Y-107547328D01*
X124586203Y-107547330D01*
X124586204Y-107547331D01*
X124587028Y-107548432D01*
X124587509Y-107549721D01*
X124590454Y-107555114D01*
X124589678Y-107555537D01*
X124611448Y-107613895D01*
X124602325Y-107670198D01*
X124568910Y-107750868D01*
X124568907Y-107750880D01*
X124529500Y-107948992D01*
X124529500Y-108151007D01*
X124568907Y-108349119D01*
X124568909Y-108349127D01*
X124646213Y-108535755D01*
X124699904Y-108616109D01*
X124720782Y-108682787D01*
X124702297Y-108750167D01*
X124699904Y-108753891D01*
X124646213Y-108834244D01*
X124568909Y-109020872D01*
X124568907Y-109020880D01*
X124529500Y-109218992D01*
X124529500Y-109421007D01*
X124568907Y-109619119D01*
X124568909Y-109619127D01*
X124646212Y-109805752D01*
X124646217Y-109805762D01*
X124758441Y-109973718D01*
X124901281Y-110116558D01*
X125069237Y-110228782D01*
X125069241Y-110228784D01*
X125069244Y-110228786D01*
X125255873Y-110306091D01*
X125453992Y-110345499D01*
X125453996Y-110345500D01*
X125453997Y-110345500D01*
X126106004Y-110345500D01*
X126106005Y-110345499D01*
X126304127Y-110306091D01*
X126490756Y-110228786D01*
X126658718Y-110116558D01*
X126801558Y-109973718D01*
X126913786Y-109805756D01*
X126991091Y-109619127D01*
X127030500Y-109421003D01*
X127030500Y-109218997D01*
X126991091Y-109020873D01*
X126913786Y-108834244D01*
X126860094Y-108753889D01*
X126839217Y-108687214D01*
X126857701Y-108619834D01*
X126860078Y-108616134D01*
X126913786Y-108535756D01*
X126953451Y-108439998D01*
X128804532Y-108439998D01*
X128804532Y-108440001D01*
X128824364Y-108666686D01*
X128824366Y-108666697D01*
X128883258Y-108886488D01*
X128883261Y-108886497D01*
X128979431Y-109092732D01*
X128979432Y-109092734D01*
X129109954Y-109279141D01*
X129270858Y-109440045D01*
X129270861Y-109440047D01*
X129457266Y-109570568D01*
X129663504Y-109666739D01*
X129883308Y-109725635D01*
X130045230Y-109739801D01*
X130109998Y-109745468D01*
X130110000Y-109745468D01*
X130110002Y-109745468D01*
X130166673Y-109740509D01*
X130336692Y-109725635D01*
X130556496Y-109666739D01*
X130762734Y-109570568D01*
X130949139Y-109440047D01*
X131110047Y-109279139D01*
X131240568Y-109092734D01*
X131336739Y-108886496D01*
X131395635Y-108666692D01*
X131415468Y-108440000D01*
X131413718Y-108419998D01*
X144184532Y-108419998D01*
X144184532Y-108420001D01*
X144204364Y-108646686D01*
X144204366Y-108646697D01*
X144263258Y-108866488D01*
X144263261Y-108866497D01*
X144359431Y-109072732D01*
X144359432Y-109072734D01*
X144489954Y-109259141D01*
X144650858Y-109420045D01*
X144650861Y-109420047D01*
X144837266Y-109550568D01*
X145043504Y-109646739D01*
X145263308Y-109705635D01*
X145425230Y-109719801D01*
X145489998Y-109725468D01*
X145490000Y-109725468D01*
X145490002Y-109725468D01*
X145546673Y-109720509D01*
X145716692Y-109705635D01*
X145936496Y-109646739D01*
X146142734Y-109550568D01*
X146329139Y-109420047D01*
X146490047Y-109259139D01*
X146620568Y-109072734D01*
X146716739Y-108866496D01*
X146775635Y-108646692D01*
X146795468Y-108420000D01*
X146775635Y-108193308D01*
X146716739Y-107973504D01*
X146620568Y-107767266D01*
X146490047Y-107580861D01*
X146490045Y-107580858D01*
X146329141Y-107419954D01*
X146142734Y-107289432D01*
X146142732Y-107289431D01*
X145936497Y-107193261D01*
X145936488Y-107193258D01*
X145716697Y-107134366D01*
X145716693Y-107134365D01*
X145716692Y-107134365D01*
X145716691Y-107134364D01*
X145716686Y-107134364D01*
X145490002Y-107114532D01*
X145489998Y-107114532D01*
X145263313Y-107134364D01*
X145263302Y-107134366D01*
X145043511Y-107193258D01*
X145043502Y-107193261D01*
X144837267Y-107289431D01*
X144837265Y-107289432D01*
X144650858Y-107419954D01*
X144489954Y-107580858D01*
X144359432Y-107767265D01*
X144359431Y-107767267D01*
X144263261Y-107973502D01*
X144263258Y-107973511D01*
X144204366Y-108193302D01*
X144204364Y-108193313D01*
X144184532Y-108419998D01*
X131413718Y-108419998D01*
X131395635Y-108213308D01*
X131336739Y-107993504D01*
X131240568Y-107787266D01*
X131110047Y-107600861D01*
X131110045Y-107600858D01*
X130949141Y-107439954D01*
X130762734Y-107309432D01*
X130762732Y-107309431D01*
X130556497Y-107213261D01*
X130556488Y-107213258D01*
X130336697Y-107154366D01*
X130336693Y-107154365D01*
X130336692Y-107154365D01*
X130336691Y-107154364D01*
X130336686Y-107154364D01*
X130110002Y-107134532D01*
X130109998Y-107134532D01*
X129883313Y-107154364D01*
X129883302Y-107154366D01*
X129663511Y-107213258D01*
X129663502Y-107213261D01*
X129457267Y-107309431D01*
X129457265Y-107309432D01*
X129270858Y-107439954D01*
X129109954Y-107600858D01*
X128979432Y-107787265D01*
X128979431Y-107787267D01*
X128883261Y-107993502D01*
X128883258Y-107993511D01*
X128824366Y-108213302D01*
X128824364Y-108213313D01*
X128804532Y-108439998D01*
X126953451Y-108439998D01*
X126991091Y-108349127D01*
X127030500Y-108151003D01*
X127030500Y-107948997D01*
X126991091Y-107750873D01*
X126957673Y-107670198D01*
X126950205Y-107600730D01*
X126969964Y-107555340D01*
X126969547Y-107555112D01*
X126972095Y-107550444D01*
X126972972Y-107548431D01*
X126973796Y-107547331D01*
X127024091Y-107412483D01*
X127030500Y-107352873D01*
X127030499Y-106207128D01*
X127024091Y-106147517D01*
X126973796Y-106012669D01*
X126973795Y-106012668D01*
X126973793Y-106012664D01*
X126887547Y-105897455D01*
X126887544Y-105897452D01*
X126772335Y-105811206D01*
X126772328Y-105811202D01*
X126637482Y-105760908D01*
X126637483Y-105760908D01*
X126577883Y-105754501D01*
X126577881Y-105754500D01*
X126577873Y-105754500D01*
X126577864Y-105754500D01*
X124982129Y-105754500D01*
X124982123Y-105754501D01*
X124922516Y-105760908D01*
X124787671Y-105811202D01*
X124787664Y-105811206D01*
X124672455Y-105897452D01*
X124672452Y-105897455D01*
X124586206Y-106012664D01*
X124586202Y-106012671D01*
X124535908Y-106147517D01*
X124529501Y-106207116D01*
X124529501Y-106207123D01*
X124529500Y-106207135D01*
X123200500Y-106207135D01*
X123200500Y-103244000D01*
X123220185Y-103176961D01*
X123272989Y-103131206D01*
X123324500Y-103120000D01*
X126160000Y-103120000D01*
X127379232Y-101069057D01*
X127375523Y-100893236D01*
X127335380Y-98990001D01*
X127325359Y-98514925D01*
X125059679Y-96982638D01*
X123350878Y-97354664D01*
X123281186Y-97349691D01*
X123225245Y-97307829D01*
X123200817Y-97242369D01*
X123200500Y-97233502D01*
X123200500Y-96449998D01*
X128104532Y-96449998D01*
X128104532Y-96450001D01*
X128124364Y-96676686D01*
X128124366Y-96676697D01*
X128183258Y-96896488D01*
X128183261Y-96896497D01*
X128279431Y-97102732D01*
X128279432Y-97102734D01*
X128409954Y-97289141D01*
X128570858Y-97450045D01*
X128570861Y-97450047D01*
X128757266Y-97580568D01*
X128815275Y-97607618D01*
X128867714Y-97653791D01*
X128886866Y-97720984D01*
X128866650Y-97787865D01*
X128815275Y-97832382D01*
X128757267Y-97859431D01*
X128757265Y-97859432D01*
X128570858Y-97989954D01*
X128409954Y-98150858D01*
X128279432Y-98337265D01*
X128279431Y-98337267D01*
X128183261Y-98543502D01*
X128183258Y-98543511D01*
X128124366Y-98763302D01*
X128124364Y-98763313D01*
X128104532Y-98989998D01*
X128104532Y-98990001D01*
X128124364Y-99216686D01*
X128124366Y-99216697D01*
X128183258Y-99436488D01*
X128183261Y-99436497D01*
X128279431Y-99642732D01*
X128279432Y-99642734D01*
X128409954Y-99829141D01*
X128570858Y-99990045D01*
X128570861Y-99990047D01*
X128757266Y-100120568D01*
X128815275Y-100147618D01*
X128867714Y-100193791D01*
X128886866Y-100260984D01*
X128866650Y-100327865D01*
X128815275Y-100372382D01*
X128757267Y-100399431D01*
X128757265Y-100399432D01*
X128570858Y-100529954D01*
X128409954Y-100690858D01*
X128279432Y-100877265D01*
X128279431Y-100877267D01*
X128183261Y-101083502D01*
X128183258Y-101083511D01*
X128124366Y-101303302D01*
X128124364Y-101303313D01*
X128104532Y-101529998D01*
X128104532Y-101530001D01*
X128124364Y-101756686D01*
X128124366Y-101756697D01*
X128183258Y-101976488D01*
X128183261Y-101976497D01*
X128279431Y-102182732D01*
X128279432Y-102182734D01*
X128409954Y-102369141D01*
X128570858Y-102530045D01*
X128570861Y-102530047D01*
X128757266Y-102660568D01*
X128815275Y-102687618D01*
X128867714Y-102733791D01*
X128886866Y-102800984D01*
X128866650Y-102867865D01*
X128815275Y-102912381D01*
X128798272Y-102920310D01*
X128757267Y-102939431D01*
X128757265Y-102939432D01*
X128570858Y-103069954D01*
X128409954Y-103230858D01*
X128279432Y-103417265D01*
X128279431Y-103417267D01*
X128183261Y-103623502D01*
X128183258Y-103623511D01*
X128124366Y-103843302D01*
X128124364Y-103843313D01*
X128104532Y-104069998D01*
X128104532Y-104070001D01*
X128124364Y-104296686D01*
X128124366Y-104296697D01*
X128183258Y-104516488D01*
X128183261Y-104516497D01*
X128279431Y-104722732D01*
X128279432Y-104722734D01*
X128409954Y-104909141D01*
X128570858Y-105070045D01*
X128570861Y-105070047D01*
X128757266Y-105200568D01*
X128963504Y-105296739D01*
X129183308Y-105355635D01*
X129345230Y-105369801D01*
X129409998Y-105375468D01*
X129410000Y-105375468D01*
X129410002Y-105375468D01*
X129472511Y-105369999D01*
X129636692Y-105355635D01*
X129856496Y-105296739D01*
X130062734Y-105200568D01*
X130249139Y-105070047D01*
X130410047Y-104909139D01*
X130540568Y-104722734D01*
X130636739Y-104516496D01*
X130695635Y-104296692D01*
X130715468Y-104070000D01*
X130710218Y-104009998D01*
X130701960Y-103915606D01*
X130695635Y-103843308D01*
X130636739Y-103623504D01*
X130540568Y-103417266D01*
X130410047Y-103230861D01*
X130410045Y-103230858D01*
X130249141Y-103069954D01*
X130062734Y-102939432D01*
X130062728Y-102939429D01*
X130035038Y-102926517D01*
X130004724Y-102912381D01*
X129952285Y-102866210D01*
X129933133Y-102799017D01*
X129953348Y-102732135D01*
X130004725Y-102687618D01*
X130062734Y-102660568D01*
X130249139Y-102530047D01*
X130410047Y-102369139D01*
X130540568Y-102182734D01*
X130636739Y-101976496D01*
X130695635Y-101756692D01*
X130713161Y-101556373D01*
X130715468Y-101530001D01*
X130715468Y-101529998D01*
X130709801Y-101465230D01*
X130695635Y-101303308D01*
X130636739Y-101083504D01*
X130540568Y-100877266D01*
X130410047Y-100690861D01*
X130410045Y-100690858D01*
X130249141Y-100529954D01*
X130062734Y-100399432D01*
X130062728Y-100399429D01*
X130004725Y-100372382D01*
X129952285Y-100326210D01*
X129933133Y-100259017D01*
X129953348Y-100192135D01*
X130004725Y-100147618D01*
X130062734Y-100120568D01*
X130249139Y-99990047D01*
X130410047Y-99829139D01*
X130540568Y-99642734D01*
X130636739Y-99436496D01*
X130695635Y-99216692D01*
X130715468Y-98990000D01*
X130695635Y-98763308D01*
X130636739Y-98543504D01*
X130540568Y-98337266D01*
X130410047Y-98150861D01*
X130410045Y-98150858D01*
X130249141Y-97989954D01*
X130062734Y-97859432D01*
X130062728Y-97859429D01*
X130004725Y-97832382D01*
X129952285Y-97786210D01*
X129933133Y-97719017D01*
X129953348Y-97652135D01*
X130004725Y-97607618D01*
X130062734Y-97580568D01*
X130249139Y-97450047D01*
X130410047Y-97289139D01*
X130540568Y-97102734D01*
X130636739Y-96896496D01*
X130695635Y-96676692D01*
X130715468Y-96450000D01*
X130715468Y-96449998D01*
X135724532Y-96449998D01*
X135724532Y-96450001D01*
X135744364Y-96676686D01*
X135744366Y-96676697D01*
X135803258Y-96896488D01*
X135803261Y-96896497D01*
X135899431Y-97102732D01*
X135899432Y-97102734D01*
X136029954Y-97289141D01*
X136190858Y-97450045D01*
X136190861Y-97450047D01*
X136377266Y-97580568D01*
X136435275Y-97607618D01*
X136487714Y-97653791D01*
X136506866Y-97720984D01*
X136486650Y-97787865D01*
X136435275Y-97832382D01*
X136377267Y-97859431D01*
X136377265Y-97859432D01*
X136190858Y-97989954D01*
X136029954Y-98150858D01*
X135899432Y-98337265D01*
X135899431Y-98337267D01*
X135803261Y-98543502D01*
X135803258Y-98543511D01*
X135744366Y-98763302D01*
X135744364Y-98763313D01*
X135724532Y-98989998D01*
X135724532Y-98990001D01*
X135744364Y-99216686D01*
X135744366Y-99216697D01*
X135803258Y-99436488D01*
X135803261Y-99436497D01*
X135899431Y-99642732D01*
X135899432Y-99642734D01*
X136029954Y-99829141D01*
X136190858Y-99990045D01*
X136190861Y-99990047D01*
X136377266Y-100120568D01*
X136435275Y-100147618D01*
X136487714Y-100193791D01*
X136506866Y-100260984D01*
X136486650Y-100327865D01*
X136435275Y-100372382D01*
X136377267Y-100399431D01*
X136377265Y-100399432D01*
X136190858Y-100529954D01*
X136029954Y-100690858D01*
X135899432Y-100877265D01*
X135899431Y-100877267D01*
X135803261Y-101083502D01*
X135803258Y-101083511D01*
X135744366Y-101303302D01*
X135744364Y-101303313D01*
X135724532Y-101529998D01*
X135724532Y-101530001D01*
X135744364Y-101756686D01*
X135744366Y-101756697D01*
X135803258Y-101976488D01*
X135803261Y-101976497D01*
X135899431Y-102182732D01*
X135899432Y-102182734D01*
X136029954Y-102369141D01*
X136190858Y-102530045D01*
X136216086Y-102547710D01*
X136259711Y-102602287D01*
X136266905Y-102671785D01*
X136235382Y-102734140D01*
X136175153Y-102769554D01*
X136158221Y-102772574D01*
X136122626Y-102776401D01*
X136122620Y-102776403D01*
X135987913Y-102826645D01*
X135987906Y-102826649D01*
X135872812Y-102912809D01*
X135872809Y-102912812D01*
X135786649Y-103027906D01*
X135786645Y-103027913D01*
X135736403Y-103162620D01*
X135736401Y-103162627D01*
X135730000Y-103222155D01*
X135730000Y-103820000D01*
X136714314Y-103820000D01*
X136709920Y-103824394D01*
X136657259Y-103915606D01*
X136630000Y-104017339D01*
X136630000Y-104122661D01*
X136657259Y-104224394D01*
X136709920Y-104315606D01*
X136714314Y-104320000D01*
X135730000Y-104320000D01*
X135730000Y-104917844D01*
X135736401Y-104977372D01*
X135736403Y-104977379D01*
X135786645Y-105112086D01*
X135786649Y-105112093D01*
X135872809Y-105227187D01*
X135872812Y-105227190D01*
X135987906Y-105313350D01*
X135987913Y-105313354D01*
X136122620Y-105363596D01*
X136122627Y-105363598D01*
X136182155Y-105369999D01*
X136182172Y-105370000D01*
X136780000Y-105370000D01*
X136780000Y-104385686D01*
X136784394Y-104390080D01*
X136875606Y-104442741D01*
X136977339Y-104470000D01*
X137082661Y-104470000D01*
X137184394Y-104442741D01*
X137275606Y-104390080D01*
X137280000Y-104385686D01*
X137280000Y-105370000D01*
X137877828Y-105370000D01*
X137877844Y-105369999D01*
X137937372Y-105363598D01*
X137937379Y-105363596D01*
X138072086Y-105313354D01*
X138072093Y-105313350D01*
X138187187Y-105227190D01*
X138187190Y-105227187D01*
X138273350Y-105112093D01*
X138273354Y-105112086D01*
X138323596Y-104977379D01*
X138323598Y-104977372D01*
X138329999Y-104917844D01*
X138330000Y-104917827D01*
X138330000Y-104742629D01*
X138349685Y-104675590D01*
X138402489Y-104629835D01*
X138471647Y-104619891D01*
X138535203Y-104648916D01*
X138555571Y-104671501D01*
X138605375Y-104742629D01*
X138679954Y-104849141D01*
X138840858Y-105010045D01*
X138840861Y-105010047D01*
X139027266Y-105140568D01*
X139233504Y-105236739D01*
X139453308Y-105295635D01*
X139615230Y-105309801D01*
X139679998Y-105315468D01*
X139680000Y-105315468D01*
X139680002Y-105315468D01*
X139736673Y-105310509D01*
X139906692Y-105295635D01*
X140126496Y-105236739D01*
X140332734Y-105140568D01*
X140519139Y-105010047D01*
X140680047Y-104849139D01*
X140810568Y-104662734D01*
X140906739Y-104456496D01*
X140965635Y-104236692D01*
X140985468Y-104010000D01*
X140985468Y-104009998D01*
X145994532Y-104009998D01*
X145994532Y-104010001D01*
X146014364Y-104236686D01*
X146014366Y-104236697D01*
X146073258Y-104456488D01*
X146073261Y-104456497D01*
X146169431Y-104662732D01*
X146169432Y-104662734D01*
X146299954Y-104849141D01*
X146460858Y-105010045D01*
X146460861Y-105010047D01*
X146647266Y-105140568D01*
X146853504Y-105236739D01*
X147073308Y-105295635D01*
X147235230Y-105309801D01*
X147299998Y-105315468D01*
X147300000Y-105315468D01*
X147300002Y-105315468D01*
X147356673Y-105310509D01*
X147526692Y-105295635D01*
X147746496Y-105236739D01*
X147952734Y-105140568D01*
X148139139Y-105010047D01*
X148300047Y-104849139D01*
X148430568Y-104662734D01*
X148526739Y-104456496D01*
X148585635Y-104236692D01*
X148605468Y-104010000D01*
X148585635Y-103783308D01*
X148526739Y-103563504D01*
X148430568Y-103357266D01*
X148300047Y-103170861D01*
X148300045Y-103170858D01*
X148139141Y-103009954D01*
X147952734Y-102879432D01*
X147952732Y-102879431D01*
X147746497Y-102783261D01*
X147746488Y-102783258D01*
X147526697Y-102724366D01*
X147526693Y-102724365D01*
X147526692Y-102724365D01*
X147526691Y-102724364D01*
X147526686Y-102724364D01*
X147300002Y-102704532D01*
X147299998Y-102704532D01*
X147073313Y-102724364D01*
X147073302Y-102724366D01*
X146853511Y-102783258D01*
X146853502Y-102783261D01*
X146647267Y-102879431D01*
X146647265Y-102879432D01*
X146460858Y-103009954D01*
X146299954Y-103170858D01*
X146169432Y-103357265D01*
X146169431Y-103357267D01*
X146073261Y-103563502D01*
X146073258Y-103563511D01*
X146014366Y-103783302D01*
X146014364Y-103783313D01*
X145994532Y-104009998D01*
X140985468Y-104009998D01*
X140965635Y-103783308D01*
X140906739Y-103563504D01*
X140810568Y-103357266D01*
X140680047Y-103170861D01*
X140680045Y-103170858D01*
X140519141Y-103009954D01*
X140332734Y-102879432D01*
X140332732Y-102879431D01*
X140126497Y-102783261D01*
X140126488Y-102783258D01*
X139906697Y-102724366D01*
X139906693Y-102724365D01*
X139906692Y-102724365D01*
X139906691Y-102724364D01*
X139906686Y-102724364D01*
X139680002Y-102704532D01*
X139679998Y-102704532D01*
X139453313Y-102724364D01*
X139453302Y-102724366D01*
X139233511Y-102783258D01*
X139233502Y-102783261D01*
X139027267Y-102879431D01*
X139027265Y-102879432D01*
X138840858Y-103009954D01*
X138679954Y-103170858D01*
X138555575Y-103348493D01*
X138500999Y-103392118D01*
X138431500Y-103399312D01*
X138369145Y-103367790D01*
X138333731Y-103307560D01*
X138330000Y-103277370D01*
X138330000Y-103222172D01*
X138329999Y-103222155D01*
X138323598Y-103162627D01*
X138323596Y-103162620D01*
X138273354Y-103027913D01*
X138273350Y-103027906D01*
X138187190Y-102912812D01*
X138187187Y-102912809D01*
X138072093Y-102826649D01*
X138072086Y-102826645D01*
X137937379Y-102776403D01*
X137937373Y-102776401D01*
X137901778Y-102772574D01*
X137837228Y-102745835D01*
X137797381Y-102688441D01*
X137794888Y-102618616D01*
X137830542Y-102558528D01*
X137843913Y-102547710D01*
X137869139Y-102530047D01*
X138030047Y-102369139D01*
X138160568Y-102182734D01*
X138256739Y-101976496D01*
X138315635Y-101756692D01*
X138327883Y-101616686D01*
X138353335Y-101551620D01*
X138409926Y-101510641D01*
X138479688Y-101506763D01*
X138540472Y-101541217D01*
X138552986Y-101556373D01*
X138659954Y-101709141D01*
X138820858Y-101870045D01*
X138820861Y-101870047D01*
X139007266Y-102000568D01*
X139213504Y-102096739D01*
X139433308Y-102155635D01*
X139595230Y-102169801D01*
X139659998Y-102175468D01*
X139660000Y-102175468D01*
X139660002Y-102175468D01*
X139716673Y-102170509D01*
X139886692Y-102155635D01*
X140106496Y-102096739D01*
X140312734Y-102000568D01*
X140499139Y-101870047D01*
X140660047Y-101709139D01*
X140790568Y-101522734D01*
X140886739Y-101316496D01*
X140945635Y-101096692D01*
X140965468Y-100870000D01*
X140965468Y-100869998D01*
X145974532Y-100869998D01*
X145974532Y-100870001D01*
X145994364Y-101096686D01*
X145994366Y-101096697D01*
X146053258Y-101316488D01*
X146053261Y-101316497D01*
X146149431Y-101522732D01*
X146149432Y-101522734D01*
X146279954Y-101709141D01*
X146440858Y-101870045D01*
X146440861Y-101870047D01*
X146627266Y-102000568D01*
X146833504Y-102096739D01*
X147053308Y-102155635D01*
X147215230Y-102169801D01*
X147279998Y-102175468D01*
X147280000Y-102175468D01*
X147280002Y-102175468D01*
X147336673Y-102170509D01*
X147506692Y-102155635D01*
X147726496Y-102096739D01*
X147932734Y-102000568D01*
X148119139Y-101870047D01*
X148280047Y-101709139D01*
X148410568Y-101522734D01*
X148506739Y-101316496D01*
X148565635Y-101096692D01*
X148585468Y-100870000D01*
X148583576Y-100848379D01*
X148565635Y-100643313D01*
X148565635Y-100643312D01*
X148565635Y-100643308D01*
X148506739Y-100423504D01*
X148410568Y-100217266D01*
X148280047Y-100030861D01*
X148280045Y-100030858D01*
X148119141Y-99869954D01*
X147932734Y-99739432D01*
X147932732Y-99739431D01*
X147726497Y-99643261D01*
X147726488Y-99643258D01*
X147506697Y-99584366D01*
X147506693Y-99584365D01*
X147506692Y-99584365D01*
X147506691Y-99584364D01*
X147506686Y-99584364D01*
X147280002Y-99564532D01*
X147279998Y-99564532D01*
X147053313Y-99584364D01*
X147053302Y-99584366D01*
X146833511Y-99643258D01*
X146833502Y-99643261D01*
X146627267Y-99739431D01*
X146627265Y-99739432D01*
X146440858Y-99869954D01*
X146279954Y-100030858D01*
X146149432Y-100217265D01*
X146149431Y-100217267D01*
X146053261Y-100423502D01*
X146053258Y-100423511D01*
X145994366Y-100643302D01*
X145994364Y-100643313D01*
X145974532Y-100869998D01*
X140965468Y-100869998D01*
X140963576Y-100848379D01*
X140945635Y-100643313D01*
X140945635Y-100643312D01*
X140945635Y-100643308D01*
X140886739Y-100423504D01*
X140790568Y-100217266D01*
X140660047Y-100030861D01*
X140660045Y-100030858D01*
X140499141Y-99869954D01*
X140312734Y-99739432D01*
X140312732Y-99739431D01*
X140106497Y-99643261D01*
X140106488Y-99643258D01*
X139886697Y-99584366D01*
X139886693Y-99584365D01*
X139886692Y-99584365D01*
X139886691Y-99584364D01*
X139886686Y-99584364D01*
X139660002Y-99564532D01*
X139659998Y-99564532D01*
X139433313Y-99584364D01*
X139433302Y-99584366D01*
X139213511Y-99643258D01*
X139213502Y-99643261D01*
X139007267Y-99739431D01*
X139007265Y-99739432D01*
X138820858Y-99869954D01*
X138659954Y-100030858D01*
X138529432Y-100217265D01*
X138529431Y-100217267D01*
X138433261Y-100423502D01*
X138433258Y-100423511D01*
X138374366Y-100643302D01*
X138374364Y-100643312D01*
X138362116Y-100783311D01*
X138336663Y-100848379D01*
X138280072Y-100889358D01*
X138210310Y-100893236D01*
X138149526Y-100858782D01*
X138137013Y-100843626D01*
X138094780Y-100783311D01*
X138030047Y-100690861D01*
X138030045Y-100690858D01*
X137869141Y-100529954D01*
X137682734Y-100399432D01*
X137682728Y-100399429D01*
X137624725Y-100372382D01*
X137572285Y-100326210D01*
X137553133Y-100259017D01*
X137573348Y-100192135D01*
X137624725Y-100147618D01*
X137682734Y-100120568D01*
X137869139Y-99990047D01*
X138030047Y-99829139D01*
X138160568Y-99642734D01*
X138256739Y-99436496D01*
X138315635Y-99216692D01*
X138335468Y-98990000D01*
X138315635Y-98763308D01*
X138256739Y-98543504D01*
X138160568Y-98337266D01*
X138030047Y-98150861D01*
X138030045Y-98150858D01*
X137869141Y-97989954D01*
X137682734Y-97859432D01*
X137682728Y-97859429D01*
X137624725Y-97832382D01*
X137572285Y-97786210D01*
X137553133Y-97719017D01*
X137573348Y-97652135D01*
X137624725Y-97607618D01*
X137682734Y-97580568D01*
X137869139Y-97450047D01*
X138030047Y-97289139D01*
X138160568Y-97102734D01*
X138256739Y-96896496D01*
X138315635Y-96676692D01*
X138335468Y-96450000D01*
X138315635Y-96223308D01*
X138256739Y-96003504D01*
X138160568Y-95797266D01*
X138030047Y-95610861D01*
X138030045Y-95610858D01*
X137869141Y-95449954D01*
X137682734Y-95319432D01*
X137682732Y-95319431D01*
X137476497Y-95223261D01*
X137476488Y-95223258D01*
X137256697Y-95164366D01*
X137256693Y-95164365D01*
X137256692Y-95164365D01*
X137256691Y-95164364D01*
X137256686Y-95164364D01*
X137030002Y-95144532D01*
X137029998Y-95144532D01*
X136803313Y-95164364D01*
X136803302Y-95164366D01*
X136583511Y-95223258D01*
X136583502Y-95223261D01*
X136377267Y-95319431D01*
X136377265Y-95319432D01*
X136190858Y-95449954D01*
X136029954Y-95610858D01*
X135899432Y-95797265D01*
X135899431Y-95797267D01*
X135803261Y-96003502D01*
X135803258Y-96003511D01*
X135744366Y-96223302D01*
X135744364Y-96223313D01*
X135724532Y-96449998D01*
X130715468Y-96449998D01*
X130695635Y-96223308D01*
X130636739Y-96003504D01*
X130540568Y-95797266D01*
X130410047Y-95610861D01*
X130410045Y-95610858D01*
X130249141Y-95449954D01*
X130062734Y-95319432D01*
X130062732Y-95319431D01*
X129856497Y-95223261D01*
X129856488Y-95223258D01*
X129636697Y-95164366D01*
X129636693Y-95164365D01*
X129636692Y-95164365D01*
X129636691Y-95164364D01*
X129636686Y-95164364D01*
X129410002Y-95144532D01*
X129409998Y-95144532D01*
X129183313Y-95164364D01*
X129183302Y-95164366D01*
X128963511Y-95223258D01*
X128963502Y-95223261D01*
X128757267Y-95319431D01*
X128757265Y-95319432D01*
X128570858Y-95449954D01*
X128409954Y-95610858D01*
X128279432Y-95797265D01*
X128279431Y-95797267D01*
X128183261Y-96003502D01*
X128183258Y-96003511D01*
X128124366Y-96223302D01*
X128124364Y-96223313D01*
X128104532Y-96449998D01*
X123200500Y-96449998D01*
X123200500Y-95614427D01*
X123200816Y-95605581D01*
X123211318Y-95458748D01*
X123215130Y-95405436D01*
X123217646Y-95387938D01*
X123259356Y-95196199D01*
X123264333Y-95179248D01*
X123332911Y-94995385D01*
X123340259Y-94979298D01*
X123406754Y-94857521D01*
X123434291Y-94807089D01*
X123443845Y-94792221D01*
X123561448Y-94635123D01*
X123573020Y-94621769D01*
X123711769Y-94483020D01*
X123725123Y-94471448D01*
X123882221Y-94353845D01*
X123897089Y-94344291D01*
X124069298Y-94250258D01*
X124085385Y-94242911D01*
X124269248Y-94174333D01*
X124286199Y-94169356D01*
X124477938Y-94127646D01*
X124495436Y-94125130D01*
X124695582Y-94110816D01*
X124704428Y-94110500D01*
X124765892Y-94110500D01*
X148955847Y-94110500D01*
X149022886Y-94130185D01*
G37*
%TD.AperFunction*%
%TD*%
M02*
