%TF.GenerationSoftware,KiCad,Pcbnew,8.0.5*%
%TF.CreationDate,2025-07-23T12:06:55+02:00*%
%TF.ProjectId,LED_FADER,4c45445f-4641-4444-9552-2e6b69636164,rev?*%
%TF.SameCoordinates,Original*%
%TF.FileFunction,Drillmap*%
%TF.FilePolarity,Positive*%
%FSLAX45Y45*%
G04 Gerber Fmt 4.5, Leading zero omitted, Abs format (unit mm)*
G04 Created by KiCad (PCBNEW 8.0.5) date 2025-07-23 12:06:55*
%MOMM*%
%LPD*%
G01*
G04 APERTURE LIST*
%ADD10C,0.200000*%
%ADD11C,0.300000*%
G04 APERTURE END LIST*
D10*
X12470000Y-11761000D02*
G75*
G02*
X12270000Y-11561000I0J200000D01*
G01*
X15070000Y-11761000D02*
X12470000Y-11761000D01*
X15270000Y-11561000D02*
G75*
G02*
X15070000Y-11761000I-200000J0D01*
G01*
X12270000Y-11561000D02*
X12270000Y-9561000D01*
X12470000Y-9361000D02*
X15070000Y-9361000D01*
X12270000Y-9561000D02*
G75*
G02*
X12470000Y-9361000I200000J0D01*
G01*
X15070000Y-9361000D02*
G75*
G02*
X15270000Y-9561000I0J-200000D01*
G01*
X15270000Y-9561000D02*
X15270000Y-11561000D01*
D11*
X12330000Y-9867000D02*
X12630000Y-10167000D01*
X12630000Y-9867000D02*
X12330000Y-10167000D01*
X14905000Y-10634000D02*
X15205000Y-10934000D01*
X15205000Y-10634000D02*
X14905000Y-10934000D01*
D10*
X12520777Y-12082484D02*
X12520777Y-11882484D01*
X12520777Y-11882484D02*
X12568396Y-11882484D01*
X12568396Y-11882484D02*
X12596967Y-11892008D01*
X12596967Y-11892008D02*
X12616015Y-11911055D01*
X12616015Y-11911055D02*
X12625539Y-11930103D01*
X12625539Y-11930103D02*
X12635062Y-11968198D01*
X12635062Y-11968198D02*
X12635062Y-11996769D01*
X12635062Y-11996769D02*
X12625539Y-12034865D01*
X12625539Y-12034865D02*
X12616015Y-12053912D01*
X12616015Y-12053912D02*
X12596967Y-12072960D01*
X12596967Y-12072960D02*
X12568396Y-12082484D01*
X12568396Y-12082484D02*
X12520777Y-12082484D01*
X12720777Y-12082484D02*
X12720777Y-11949150D01*
X12720777Y-11987246D02*
X12730301Y-11968198D01*
X12730301Y-11968198D02*
X12739824Y-11958674D01*
X12739824Y-11958674D02*
X12758872Y-11949150D01*
X12758872Y-11949150D02*
X12777920Y-11949150D01*
X12844586Y-12082484D02*
X12844586Y-11949150D01*
X12844586Y-11882484D02*
X12835062Y-11892008D01*
X12835062Y-11892008D02*
X12844586Y-11901531D01*
X12844586Y-11901531D02*
X12854110Y-11892008D01*
X12854110Y-11892008D02*
X12844586Y-11882484D01*
X12844586Y-11882484D02*
X12844586Y-11901531D01*
X12968396Y-12082484D02*
X12949348Y-12072960D01*
X12949348Y-12072960D02*
X12939824Y-12053912D01*
X12939824Y-12053912D02*
X12939824Y-11882484D01*
X13073158Y-12082484D02*
X13054110Y-12072960D01*
X13054110Y-12072960D02*
X13044586Y-12053912D01*
X13044586Y-12053912D02*
X13044586Y-11882484D01*
X13301729Y-12082484D02*
X13301729Y-11882484D01*
X13301729Y-11882484D02*
X13368396Y-12025341D01*
X13368396Y-12025341D02*
X13435062Y-11882484D01*
X13435062Y-11882484D02*
X13435062Y-12082484D01*
X13616015Y-12082484D02*
X13616015Y-11977722D01*
X13616015Y-11977722D02*
X13606491Y-11958674D01*
X13606491Y-11958674D02*
X13587443Y-11949150D01*
X13587443Y-11949150D02*
X13549348Y-11949150D01*
X13549348Y-11949150D02*
X13530301Y-11958674D01*
X13616015Y-12072960D02*
X13596967Y-12082484D01*
X13596967Y-12082484D02*
X13549348Y-12082484D01*
X13549348Y-12082484D02*
X13530301Y-12072960D01*
X13530301Y-12072960D02*
X13520777Y-12053912D01*
X13520777Y-12053912D02*
X13520777Y-12034865D01*
X13520777Y-12034865D02*
X13530301Y-12015817D01*
X13530301Y-12015817D02*
X13549348Y-12006293D01*
X13549348Y-12006293D02*
X13596967Y-12006293D01*
X13596967Y-12006293D02*
X13616015Y-11996769D01*
X13711253Y-11949150D02*
X13711253Y-12149150D01*
X13711253Y-11958674D02*
X13730301Y-11949150D01*
X13730301Y-11949150D02*
X13768396Y-11949150D01*
X13768396Y-11949150D02*
X13787443Y-11958674D01*
X13787443Y-11958674D02*
X13796967Y-11968198D01*
X13796967Y-11968198D02*
X13806491Y-11987246D01*
X13806491Y-11987246D02*
X13806491Y-12044388D01*
X13806491Y-12044388D02*
X13796967Y-12063436D01*
X13796967Y-12063436D02*
X13787443Y-12072960D01*
X13787443Y-12072960D02*
X13768396Y-12082484D01*
X13768396Y-12082484D02*
X13730301Y-12082484D01*
X13730301Y-12082484D02*
X13711253Y-12072960D01*
X13892205Y-12063436D02*
X13901729Y-12072960D01*
X13901729Y-12072960D02*
X13892205Y-12082484D01*
X13892205Y-12082484D02*
X13882682Y-12072960D01*
X13882682Y-12072960D02*
X13892205Y-12063436D01*
X13892205Y-12063436D02*
X13892205Y-12082484D01*
X13892205Y-11958674D02*
X13901729Y-11968198D01*
X13901729Y-11968198D02*
X13892205Y-11977722D01*
X13892205Y-11977722D02*
X13882682Y-11968198D01*
X13882682Y-11968198D02*
X13892205Y-11958674D01*
X13892205Y-11958674D02*
X13892205Y-11977722D01*
X12060000Y-12311000D02*
X12260000Y-12511000D01*
X12260000Y-12311000D02*
X12060000Y-12511000D01*
X12501729Y-12302484D02*
X12625539Y-12302484D01*
X12625539Y-12302484D02*
X12558872Y-12378674D01*
X12558872Y-12378674D02*
X12587443Y-12378674D01*
X12587443Y-12378674D02*
X12606491Y-12388198D01*
X12606491Y-12388198D02*
X12616015Y-12397722D01*
X12616015Y-12397722D02*
X12625539Y-12416769D01*
X12625539Y-12416769D02*
X12625539Y-12464388D01*
X12625539Y-12464388D02*
X12616015Y-12483436D01*
X12616015Y-12483436D02*
X12606491Y-12492960D01*
X12606491Y-12492960D02*
X12587443Y-12502484D01*
X12587443Y-12502484D02*
X12530301Y-12502484D01*
X12530301Y-12502484D02*
X12511253Y-12492960D01*
X12511253Y-12492960D02*
X12501729Y-12483436D01*
X12711253Y-12483436D02*
X12720777Y-12492960D01*
X12720777Y-12492960D02*
X12711253Y-12502484D01*
X12711253Y-12502484D02*
X12701729Y-12492960D01*
X12701729Y-12492960D02*
X12711253Y-12483436D01*
X12711253Y-12483436D02*
X12711253Y-12502484D01*
X12844586Y-12302484D02*
X12863634Y-12302484D01*
X12863634Y-12302484D02*
X12882682Y-12312008D01*
X12882682Y-12312008D02*
X12892205Y-12321531D01*
X12892205Y-12321531D02*
X12901729Y-12340579D01*
X12901729Y-12340579D02*
X12911253Y-12378674D01*
X12911253Y-12378674D02*
X12911253Y-12426293D01*
X12911253Y-12426293D02*
X12901729Y-12464388D01*
X12901729Y-12464388D02*
X12892205Y-12483436D01*
X12892205Y-12483436D02*
X12882682Y-12492960D01*
X12882682Y-12492960D02*
X12863634Y-12502484D01*
X12863634Y-12502484D02*
X12844586Y-12502484D01*
X12844586Y-12502484D02*
X12825539Y-12492960D01*
X12825539Y-12492960D02*
X12816015Y-12483436D01*
X12816015Y-12483436D02*
X12806491Y-12464388D01*
X12806491Y-12464388D02*
X12796967Y-12426293D01*
X12796967Y-12426293D02*
X12796967Y-12378674D01*
X12796967Y-12378674D02*
X12806491Y-12340579D01*
X12806491Y-12340579D02*
X12816015Y-12321531D01*
X12816015Y-12321531D02*
X12825539Y-12312008D01*
X12825539Y-12312008D02*
X12844586Y-12302484D01*
X13035062Y-12302484D02*
X13054110Y-12302484D01*
X13054110Y-12302484D02*
X13073158Y-12312008D01*
X13073158Y-12312008D02*
X13082682Y-12321531D01*
X13082682Y-12321531D02*
X13092205Y-12340579D01*
X13092205Y-12340579D02*
X13101729Y-12378674D01*
X13101729Y-12378674D02*
X13101729Y-12426293D01*
X13101729Y-12426293D02*
X13092205Y-12464388D01*
X13092205Y-12464388D02*
X13082682Y-12483436D01*
X13082682Y-12483436D02*
X13073158Y-12492960D01*
X13073158Y-12492960D02*
X13054110Y-12502484D01*
X13054110Y-12502484D02*
X13035062Y-12502484D01*
X13035062Y-12502484D02*
X13016015Y-12492960D01*
X13016015Y-12492960D02*
X13006491Y-12483436D01*
X13006491Y-12483436D02*
X12996967Y-12464388D01*
X12996967Y-12464388D02*
X12987443Y-12426293D01*
X12987443Y-12426293D02*
X12987443Y-12378674D01*
X12987443Y-12378674D02*
X12996967Y-12340579D01*
X12996967Y-12340579D02*
X13006491Y-12321531D01*
X13006491Y-12321531D02*
X13016015Y-12312008D01*
X13016015Y-12312008D02*
X13035062Y-12302484D01*
X13225539Y-12302484D02*
X13244586Y-12302484D01*
X13244586Y-12302484D02*
X13263634Y-12312008D01*
X13263634Y-12312008D02*
X13273158Y-12321531D01*
X13273158Y-12321531D02*
X13282682Y-12340579D01*
X13282682Y-12340579D02*
X13292205Y-12378674D01*
X13292205Y-12378674D02*
X13292205Y-12426293D01*
X13292205Y-12426293D02*
X13282682Y-12464388D01*
X13282682Y-12464388D02*
X13273158Y-12483436D01*
X13273158Y-12483436D02*
X13263634Y-12492960D01*
X13263634Y-12492960D02*
X13244586Y-12502484D01*
X13244586Y-12502484D02*
X13225539Y-12502484D01*
X13225539Y-12502484D02*
X13206491Y-12492960D01*
X13206491Y-12492960D02*
X13196967Y-12483436D01*
X13196967Y-12483436D02*
X13187443Y-12464388D01*
X13187443Y-12464388D02*
X13177920Y-12426293D01*
X13177920Y-12426293D02*
X13177920Y-12378674D01*
X13177920Y-12378674D02*
X13187443Y-12340579D01*
X13187443Y-12340579D02*
X13196967Y-12321531D01*
X13196967Y-12321531D02*
X13206491Y-12312008D01*
X13206491Y-12312008D02*
X13225539Y-12302484D01*
X13377920Y-12502484D02*
X13377920Y-12369150D01*
X13377920Y-12388198D02*
X13387443Y-12378674D01*
X13387443Y-12378674D02*
X13406491Y-12369150D01*
X13406491Y-12369150D02*
X13435063Y-12369150D01*
X13435063Y-12369150D02*
X13454110Y-12378674D01*
X13454110Y-12378674D02*
X13463634Y-12397722D01*
X13463634Y-12397722D02*
X13463634Y-12502484D01*
X13463634Y-12397722D02*
X13473158Y-12378674D01*
X13473158Y-12378674D02*
X13492205Y-12369150D01*
X13492205Y-12369150D02*
X13520777Y-12369150D01*
X13520777Y-12369150D02*
X13539824Y-12378674D01*
X13539824Y-12378674D02*
X13549348Y-12397722D01*
X13549348Y-12397722D02*
X13549348Y-12502484D01*
X13644586Y-12502484D02*
X13644586Y-12369150D01*
X13644586Y-12388198D02*
X13654110Y-12378674D01*
X13654110Y-12378674D02*
X13673158Y-12369150D01*
X13673158Y-12369150D02*
X13701729Y-12369150D01*
X13701729Y-12369150D02*
X13720777Y-12378674D01*
X13720777Y-12378674D02*
X13730301Y-12397722D01*
X13730301Y-12397722D02*
X13730301Y-12502484D01*
X13730301Y-12397722D02*
X13739824Y-12378674D01*
X13739824Y-12378674D02*
X13758872Y-12369150D01*
X13758872Y-12369150D02*
X13787443Y-12369150D01*
X13787443Y-12369150D02*
X13806491Y-12378674D01*
X13806491Y-12378674D02*
X13816015Y-12397722D01*
X13816015Y-12397722D02*
X13816015Y-12502484D01*
X14206491Y-12292960D02*
X14035063Y-12550103D01*
X14463634Y-12302484D02*
X14482682Y-12302484D01*
X14482682Y-12302484D02*
X14501729Y-12312008D01*
X14501729Y-12312008D02*
X14511253Y-12321531D01*
X14511253Y-12321531D02*
X14520777Y-12340579D01*
X14520777Y-12340579D02*
X14530301Y-12378674D01*
X14530301Y-12378674D02*
X14530301Y-12426293D01*
X14530301Y-12426293D02*
X14520777Y-12464388D01*
X14520777Y-12464388D02*
X14511253Y-12483436D01*
X14511253Y-12483436D02*
X14501729Y-12492960D01*
X14501729Y-12492960D02*
X14482682Y-12502484D01*
X14482682Y-12502484D02*
X14463634Y-12502484D01*
X14463634Y-12502484D02*
X14444586Y-12492960D01*
X14444586Y-12492960D02*
X14435063Y-12483436D01*
X14435063Y-12483436D02*
X14425539Y-12464388D01*
X14425539Y-12464388D02*
X14416015Y-12426293D01*
X14416015Y-12426293D02*
X14416015Y-12378674D01*
X14416015Y-12378674D02*
X14425539Y-12340579D01*
X14425539Y-12340579D02*
X14435063Y-12321531D01*
X14435063Y-12321531D02*
X14444586Y-12312008D01*
X14444586Y-12312008D02*
X14463634Y-12302484D01*
X14616015Y-12483436D02*
X14625539Y-12492960D01*
X14625539Y-12492960D02*
X14616015Y-12502484D01*
X14616015Y-12502484D02*
X14606491Y-12492960D01*
X14606491Y-12492960D02*
X14616015Y-12483436D01*
X14616015Y-12483436D02*
X14616015Y-12502484D01*
X14816015Y-12502484D02*
X14701729Y-12502484D01*
X14758872Y-12502484D02*
X14758872Y-12302484D01*
X14758872Y-12302484D02*
X14739825Y-12331055D01*
X14739825Y-12331055D02*
X14720777Y-12350103D01*
X14720777Y-12350103D02*
X14701729Y-12359627D01*
X15006491Y-12502484D02*
X14892206Y-12502484D01*
X14949348Y-12502484D02*
X14949348Y-12302484D01*
X14949348Y-12302484D02*
X14930301Y-12331055D01*
X14930301Y-12331055D02*
X14911253Y-12350103D01*
X14911253Y-12350103D02*
X14892206Y-12359627D01*
X15120777Y-12388198D02*
X15101729Y-12378674D01*
X15101729Y-12378674D02*
X15092206Y-12369150D01*
X15092206Y-12369150D02*
X15082682Y-12350103D01*
X15082682Y-12350103D02*
X15082682Y-12340579D01*
X15082682Y-12340579D02*
X15092206Y-12321531D01*
X15092206Y-12321531D02*
X15101729Y-12312008D01*
X15101729Y-12312008D02*
X15120777Y-12302484D01*
X15120777Y-12302484D02*
X15158872Y-12302484D01*
X15158872Y-12302484D02*
X15177920Y-12312008D01*
X15177920Y-12312008D02*
X15187444Y-12321531D01*
X15187444Y-12321531D02*
X15196967Y-12340579D01*
X15196967Y-12340579D02*
X15196967Y-12350103D01*
X15196967Y-12350103D02*
X15187444Y-12369150D01*
X15187444Y-12369150D02*
X15177920Y-12378674D01*
X15177920Y-12378674D02*
X15158872Y-12388198D01*
X15158872Y-12388198D02*
X15120777Y-12388198D01*
X15120777Y-12388198D02*
X15101729Y-12397722D01*
X15101729Y-12397722D02*
X15092206Y-12407246D01*
X15092206Y-12407246D02*
X15082682Y-12426293D01*
X15082682Y-12426293D02*
X15082682Y-12464388D01*
X15082682Y-12464388D02*
X15092206Y-12483436D01*
X15092206Y-12483436D02*
X15101729Y-12492960D01*
X15101729Y-12492960D02*
X15120777Y-12502484D01*
X15120777Y-12502484D02*
X15158872Y-12502484D01*
X15158872Y-12502484D02*
X15177920Y-12492960D01*
X15177920Y-12492960D02*
X15187444Y-12483436D01*
X15187444Y-12483436D02*
X15196967Y-12464388D01*
X15196967Y-12464388D02*
X15196967Y-12426293D01*
X15196967Y-12426293D02*
X15187444Y-12407246D01*
X15187444Y-12407246D02*
X15177920Y-12397722D01*
X15177920Y-12397722D02*
X15158872Y-12388198D01*
X15387444Y-12502484D02*
X15273158Y-12502484D01*
X15330301Y-12502484D02*
X15330301Y-12302484D01*
X15330301Y-12302484D02*
X15311253Y-12331055D01*
X15311253Y-12331055D02*
X15292206Y-12350103D01*
X15292206Y-12350103D02*
X15273158Y-12359627D01*
X15463634Y-12302484D02*
X15463634Y-12340579D01*
X15539825Y-12302484D02*
X15539825Y-12340579D01*
X15835063Y-12578674D02*
X15825539Y-12569150D01*
X15825539Y-12569150D02*
X15806491Y-12540579D01*
X15806491Y-12540579D02*
X15796968Y-12521531D01*
X15796968Y-12521531D02*
X15787444Y-12492960D01*
X15787444Y-12492960D02*
X15777920Y-12445341D01*
X15777920Y-12445341D02*
X15777920Y-12407246D01*
X15777920Y-12407246D02*
X15787444Y-12359627D01*
X15787444Y-12359627D02*
X15796968Y-12331055D01*
X15796968Y-12331055D02*
X15806491Y-12312008D01*
X15806491Y-12312008D02*
X15825539Y-12283436D01*
X15825539Y-12283436D02*
X15835063Y-12273912D01*
X15901729Y-12321531D02*
X15911253Y-12312008D01*
X15911253Y-12312008D02*
X15930301Y-12302484D01*
X15930301Y-12302484D02*
X15977920Y-12302484D01*
X15977920Y-12302484D02*
X15996968Y-12312008D01*
X15996968Y-12312008D02*
X16006491Y-12321531D01*
X16006491Y-12321531D02*
X16016015Y-12340579D01*
X16016015Y-12340579D02*
X16016015Y-12359627D01*
X16016015Y-12359627D02*
X16006491Y-12388198D01*
X16006491Y-12388198D02*
X15892206Y-12502484D01*
X15892206Y-12502484D02*
X16016015Y-12502484D01*
X16254110Y-12502484D02*
X16254110Y-12302484D01*
X16339825Y-12502484D02*
X16339825Y-12397722D01*
X16339825Y-12397722D02*
X16330301Y-12378674D01*
X16330301Y-12378674D02*
X16311253Y-12369150D01*
X16311253Y-12369150D02*
X16282682Y-12369150D01*
X16282682Y-12369150D02*
X16263634Y-12378674D01*
X16263634Y-12378674D02*
X16254110Y-12388198D01*
X16463634Y-12502484D02*
X16444587Y-12492960D01*
X16444587Y-12492960D02*
X16435063Y-12483436D01*
X16435063Y-12483436D02*
X16425539Y-12464388D01*
X16425539Y-12464388D02*
X16425539Y-12407246D01*
X16425539Y-12407246D02*
X16435063Y-12388198D01*
X16435063Y-12388198D02*
X16444587Y-12378674D01*
X16444587Y-12378674D02*
X16463634Y-12369150D01*
X16463634Y-12369150D02*
X16492206Y-12369150D01*
X16492206Y-12369150D02*
X16511253Y-12378674D01*
X16511253Y-12378674D02*
X16520777Y-12388198D01*
X16520777Y-12388198D02*
X16530301Y-12407246D01*
X16530301Y-12407246D02*
X16530301Y-12464388D01*
X16530301Y-12464388D02*
X16520777Y-12483436D01*
X16520777Y-12483436D02*
X16511253Y-12492960D01*
X16511253Y-12492960D02*
X16492206Y-12502484D01*
X16492206Y-12502484D02*
X16463634Y-12502484D01*
X16644587Y-12502484D02*
X16625539Y-12492960D01*
X16625539Y-12492960D02*
X16616015Y-12473912D01*
X16616015Y-12473912D02*
X16616015Y-12302484D01*
X16796968Y-12492960D02*
X16777920Y-12502484D01*
X16777920Y-12502484D02*
X16739825Y-12502484D01*
X16739825Y-12502484D02*
X16720777Y-12492960D01*
X16720777Y-12492960D02*
X16711253Y-12473912D01*
X16711253Y-12473912D02*
X16711253Y-12397722D01*
X16711253Y-12397722D02*
X16720777Y-12378674D01*
X16720777Y-12378674D02*
X16739825Y-12369150D01*
X16739825Y-12369150D02*
X16777920Y-12369150D01*
X16777920Y-12369150D02*
X16796968Y-12378674D01*
X16796968Y-12378674D02*
X16806492Y-12397722D01*
X16806492Y-12397722D02*
X16806492Y-12416769D01*
X16806492Y-12416769D02*
X16711253Y-12435817D01*
X16882682Y-12492960D02*
X16901730Y-12502484D01*
X16901730Y-12502484D02*
X16939825Y-12502484D01*
X16939825Y-12502484D02*
X16958873Y-12492960D01*
X16958873Y-12492960D02*
X16968396Y-12473912D01*
X16968396Y-12473912D02*
X16968396Y-12464388D01*
X16968396Y-12464388D02*
X16958873Y-12445341D01*
X16958873Y-12445341D02*
X16939825Y-12435817D01*
X16939825Y-12435817D02*
X16911253Y-12435817D01*
X16911253Y-12435817D02*
X16892206Y-12426293D01*
X16892206Y-12426293D02*
X16882682Y-12407246D01*
X16882682Y-12407246D02*
X16882682Y-12397722D01*
X16882682Y-12397722D02*
X16892206Y-12378674D01*
X16892206Y-12378674D02*
X16911253Y-12369150D01*
X16911253Y-12369150D02*
X16939825Y-12369150D01*
X16939825Y-12369150D02*
X16958873Y-12378674D01*
X17035063Y-12578674D02*
X17044587Y-12569150D01*
X17044587Y-12569150D02*
X17063634Y-12540579D01*
X17063634Y-12540579D02*
X17073158Y-12521531D01*
X17073158Y-12521531D02*
X17082682Y-12492960D01*
X17082682Y-12492960D02*
X17092206Y-12445341D01*
X17092206Y-12445341D02*
X17092206Y-12407246D01*
X17092206Y-12407246D02*
X17082682Y-12359627D01*
X17082682Y-12359627D02*
X17073158Y-12331055D01*
X17073158Y-12331055D02*
X17063634Y-12312008D01*
X17063634Y-12312008D02*
X17044587Y-12283436D01*
X17044587Y-12283436D02*
X17035063Y-12273912D01*
X17396968Y-12578674D02*
X17387444Y-12569150D01*
X17387444Y-12569150D02*
X17368396Y-12540579D01*
X17368396Y-12540579D02*
X17358873Y-12521531D01*
X17358873Y-12521531D02*
X17349349Y-12492960D01*
X17349349Y-12492960D02*
X17339825Y-12445341D01*
X17339825Y-12445341D02*
X17339825Y-12407246D01*
X17339825Y-12407246D02*
X17349349Y-12359627D01*
X17349349Y-12359627D02*
X17358873Y-12331055D01*
X17358873Y-12331055D02*
X17368396Y-12312008D01*
X17368396Y-12312008D02*
X17387444Y-12283436D01*
X17387444Y-12283436D02*
X17396968Y-12273912D01*
X17473158Y-12369150D02*
X17473158Y-12502484D01*
X17473158Y-12388198D02*
X17482682Y-12378674D01*
X17482682Y-12378674D02*
X17501730Y-12369150D01*
X17501730Y-12369150D02*
X17530301Y-12369150D01*
X17530301Y-12369150D02*
X17549349Y-12378674D01*
X17549349Y-12378674D02*
X17558873Y-12397722D01*
X17558873Y-12397722D02*
X17558873Y-12502484D01*
X17682682Y-12502484D02*
X17663634Y-12492960D01*
X17663634Y-12492960D02*
X17654111Y-12483436D01*
X17654111Y-12483436D02*
X17644587Y-12464388D01*
X17644587Y-12464388D02*
X17644587Y-12407246D01*
X17644587Y-12407246D02*
X17654111Y-12388198D01*
X17654111Y-12388198D02*
X17663634Y-12378674D01*
X17663634Y-12378674D02*
X17682682Y-12369150D01*
X17682682Y-12369150D02*
X17711254Y-12369150D01*
X17711254Y-12369150D02*
X17730301Y-12378674D01*
X17730301Y-12378674D02*
X17739825Y-12388198D01*
X17739825Y-12388198D02*
X17749349Y-12407246D01*
X17749349Y-12407246D02*
X17749349Y-12464388D01*
X17749349Y-12464388D02*
X17739825Y-12483436D01*
X17739825Y-12483436D02*
X17730301Y-12492960D01*
X17730301Y-12492960D02*
X17711254Y-12502484D01*
X17711254Y-12502484D02*
X17682682Y-12502484D01*
X17806492Y-12369150D02*
X17882682Y-12369150D01*
X17835063Y-12302484D02*
X17835063Y-12473912D01*
X17835063Y-12473912D02*
X17844587Y-12492960D01*
X17844587Y-12492960D02*
X17863634Y-12502484D01*
X17863634Y-12502484D02*
X17882682Y-12502484D01*
X18101730Y-12369150D02*
X18101730Y-12569150D01*
X18101730Y-12378674D02*
X18120777Y-12369150D01*
X18120777Y-12369150D02*
X18158873Y-12369150D01*
X18158873Y-12369150D02*
X18177920Y-12378674D01*
X18177920Y-12378674D02*
X18187444Y-12388198D01*
X18187444Y-12388198D02*
X18196968Y-12407246D01*
X18196968Y-12407246D02*
X18196968Y-12464388D01*
X18196968Y-12464388D02*
X18187444Y-12483436D01*
X18187444Y-12483436D02*
X18177920Y-12492960D01*
X18177920Y-12492960D02*
X18158873Y-12502484D01*
X18158873Y-12502484D02*
X18120777Y-12502484D01*
X18120777Y-12502484D02*
X18101730Y-12492960D01*
X18311254Y-12502484D02*
X18292206Y-12492960D01*
X18292206Y-12492960D02*
X18282682Y-12473912D01*
X18282682Y-12473912D02*
X18282682Y-12302484D01*
X18473158Y-12502484D02*
X18473158Y-12397722D01*
X18473158Y-12397722D02*
X18463635Y-12378674D01*
X18463635Y-12378674D02*
X18444587Y-12369150D01*
X18444587Y-12369150D02*
X18406492Y-12369150D01*
X18406492Y-12369150D02*
X18387444Y-12378674D01*
X18473158Y-12492960D02*
X18454111Y-12502484D01*
X18454111Y-12502484D02*
X18406492Y-12502484D01*
X18406492Y-12502484D02*
X18387444Y-12492960D01*
X18387444Y-12492960D02*
X18377920Y-12473912D01*
X18377920Y-12473912D02*
X18377920Y-12454865D01*
X18377920Y-12454865D02*
X18387444Y-12435817D01*
X18387444Y-12435817D02*
X18406492Y-12426293D01*
X18406492Y-12426293D02*
X18454111Y-12426293D01*
X18454111Y-12426293D02*
X18473158Y-12416769D01*
X18539825Y-12369150D02*
X18616015Y-12369150D01*
X18568396Y-12302484D02*
X18568396Y-12473912D01*
X18568396Y-12473912D02*
X18577920Y-12492960D01*
X18577920Y-12492960D02*
X18596968Y-12502484D01*
X18596968Y-12502484D02*
X18616015Y-12502484D01*
X18758873Y-12492960D02*
X18739825Y-12502484D01*
X18739825Y-12502484D02*
X18701730Y-12502484D01*
X18701730Y-12502484D02*
X18682682Y-12492960D01*
X18682682Y-12492960D02*
X18673158Y-12473912D01*
X18673158Y-12473912D02*
X18673158Y-12397722D01*
X18673158Y-12397722D02*
X18682682Y-12378674D01*
X18682682Y-12378674D02*
X18701730Y-12369150D01*
X18701730Y-12369150D02*
X18739825Y-12369150D01*
X18739825Y-12369150D02*
X18758873Y-12378674D01*
X18758873Y-12378674D02*
X18768396Y-12397722D01*
X18768396Y-12397722D02*
X18768396Y-12416769D01*
X18768396Y-12416769D02*
X18673158Y-12435817D01*
X18939825Y-12502484D02*
X18939825Y-12302484D01*
X18939825Y-12492960D02*
X18920777Y-12502484D01*
X18920777Y-12502484D02*
X18882682Y-12502484D01*
X18882682Y-12502484D02*
X18863635Y-12492960D01*
X18863635Y-12492960D02*
X18854111Y-12483436D01*
X18854111Y-12483436D02*
X18844587Y-12464388D01*
X18844587Y-12464388D02*
X18844587Y-12407246D01*
X18844587Y-12407246D02*
X18854111Y-12388198D01*
X18854111Y-12388198D02*
X18863635Y-12378674D01*
X18863635Y-12378674D02*
X18882682Y-12369150D01*
X18882682Y-12369150D02*
X18920777Y-12369150D01*
X18920777Y-12369150D02*
X18939825Y-12378674D01*
X19016016Y-12578674D02*
X19025539Y-12569150D01*
X19025539Y-12569150D02*
X19044587Y-12540579D01*
X19044587Y-12540579D02*
X19054111Y-12521531D01*
X19054111Y-12521531D02*
X19063635Y-12492960D01*
X19063635Y-12492960D02*
X19073158Y-12445341D01*
X19073158Y-12445341D02*
X19073158Y-12407246D01*
X19073158Y-12407246D02*
X19063635Y-12359627D01*
X19063635Y-12359627D02*
X19054111Y-12331055D01*
X19054111Y-12331055D02*
X19044587Y-12312008D01*
X19044587Y-12312008D02*
X19025539Y-12283436D01*
X19025539Y-12283436D02*
X19016016Y-12273912D01*
M02*
