M48
; DRILL file {KiCad 8.0.5} date 2025-07-23T12:06:56+0200
; FORMAT={-:-/ absolute / inch / decimal}
; #@! TF.CreationDate,2025-07-23T12:06:56+02:00
; #@! TF.GenerationSoftware,Kicad,Pcbnew,8.0.5
; #@! TF.FileFunction,Plated,1,2,PTH
FMAT,2
INCH
; #@! TA.AperFunction,Plated,PTH,ViaDrill
T1C0.0118
; #@! TA.AperFunction,Plated,PTH,ComponentDrill
T2C0.0295
; #@! TA.AperFunction,Plated,PTH,ComponentDrill
T3C0.0315
; #@! TA.AperFunction,Plated,PTH,ComponentDrill
T4C0.0354
; #@! TA.AperFunction,Plated,PTH,ComponentDrill
T5C0.0394
%
G90
G05
T1
X4.8661Y-4.539
X4.8772Y-4.5827
X4.9248Y-4.5933
X4.9799Y-4.5925
X4.9862Y-4.5106
X5.3039Y-4.422
X5.348Y-4.098
X5.3689Y-4.3657
X5.3705Y-4.4902
X5.3949Y-4.1453
X5.4343Y-4.1
X5.8366Y-3.7618
X5.8504Y-4.5646
X5.852Y-4.5043
X5.8531Y-3.726
X5.8913Y-3.7079
X5.9154Y-4.5894
X5.9315Y-3.7248
X5.9437Y-3.7654
X5.9626Y-4.585
X5.9697Y-4.5374
T2
X4.952Y-4.2039
X4.952Y-4.2539
X4.952Y-4.3039
T3
X5.0949Y-3.7972
X5.0949Y-3.8972
X5.0949Y-3.9972
X5.0949Y-4.0972
X5.1224Y-4.2693
X5.1224Y-4.5693
X5.3949Y-3.7972
X5.3949Y-3.8972
X5.3949Y-3.9972
X5.3949Y-4.0972
X5.4984Y-3.9713
X5.4992Y-4.0949
X5.728Y-4.2685
X5.728Y-4.5685
X5.7984Y-3.9713
X5.7992Y-4.0949
X5.8894Y-3.7602
X5.8894Y-3.8587
T4
X5.3701Y-4.4217
X5.4701Y-4.4217
T5
X4.9256Y-4.4372
X4.9256Y-4.5372
X5.9165Y-4.4356
X5.9165Y-4.5356
M30
